<svg width="509" height="523" viewBox="0 0 509 523" fill="none" xmlns="http://www.w3.org/2000/svg">
<path d="M108.25 71H446L419.75 151H82L108.25 71Z" fill="#06629E"/>
<path d="M34.773 13.966V23.145H15.611V33.061H29.949V41.972H15.611V61H4.154V13.966H34.773ZM70.0736 52.692H52.5196L49.7056 61H37.7126L54.7306 13.966H67.9966L85.0146 61H72.8876L70.0736 52.692ZM67.1256 43.848L61.2966 26.629L55.5346 43.848H67.1256ZM107.212 61.469C103.773 61.469 100.691 60.9107 97.966 59.794C95.2414 58.6773 93.0527 57.0247 91.4 54.836C89.792 52.6473 88.9434 50.012 88.854 46.93H101.048C101.227 48.672 101.83 50.012 102.857 50.95C103.884 51.8433 105.224 52.29 106.877 52.29C108.574 52.29 109.914 51.9103 110.897 51.151C111.88 50.347 112.371 49.2527 112.371 47.868C112.371 46.7067 111.969 45.7463 111.165 44.987C110.406 44.2277 109.445 43.6023 108.284 43.111C107.167 42.6197 105.559 42.0613 103.46 41.436C100.423 40.498 97.9437 39.56 96.023 38.622C94.1024 37.684 92.4497 36.2993 91.065 34.468C89.6804 32.6367 88.988 30.247 88.988 27.299C88.988 22.9217 90.5737 19.5047 93.745 17.048C96.9164 14.5467 101.048 13.296 106.14 13.296C111.321 13.296 115.498 14.5467 118.669 17.048C121.84 19.5047 123.538 22.944 123.761 27.366H111.366C111.277 25.8473 110.718 24.6637 109.691 23.815C108.664 22.9217 107.346 22.475 105.738 22.475C104.353 22.475 103.237 22.8547 102.388 23.614C101.539 24.3287 101.115 25.3783 101.115 26.763C101.115 28.2817 101.83 29.4653 103.259 30.314C104.688 31.1627 106.922 32.0783 109.959 33.061C112.996 34.0883 115.453 35.071 117.329 36.009C119.25 36.947 120.902 38.3093 122.287 40.096C123.672 41.8827 124.364 44.183 124.364 46.997C124.364 49.677 123.672 52.1113 122.287 54.3C120.947 56.4887 118.982 58.2307 116.391 59.526C113.8 60.8213 110.741 61.469 107.212 61.469ZM165.25 13.966V23.145H152.788V61H141.331V23.145H128.869V13.966H165.25ZM214.477 52.692H196.923L194.109 61H182.116L199.134 13.966H212.4L229.418 61H217.291L214.477 52.692ZM211.529 43.848L205.7 26.629L199.938 43.848H211.529ZM232.654 37.416C232.654 32.7707 233.659 28.639 235.669 25.021C237.679 21.3583 240.471 18.522 244.044 16.512C247.662 14.4573 251.749 13.43 256.305 13.43C261.889 13.43 266.668 14.904 270.643 17.852C274.619 20.8 277.276 24.82 278.616 29.912H266.02C265.082 27.9467 263.742 26.4503 262 25.423C260.303 24.3957 258.36 23.882 256.171 23.882C252.643 23.882 249.784 25.1103 247.595 27.567C245.407 30.0237 244.312 33.3067 244.312 37.416C244.312 41.5253 245.407 44.8083 247.595 47.265C249.784 49.7217 252.643 50.95 256.171 50.95C258.36 50.95 260.303 50.4363 262 49.409C263.742 48.3817 265.082 46.8853 266.02 44.92H278.616C277.276 50.012 274.619 54.032 270.643 56.98C266.668 59.8833 261.889 61.335 256.305 61.335C251.749 61.335 247.662 60.33 244.044 58.32C240.471 56.2653 237.679 53.429 235.669 49.811C233.659 46.193 232.654 42.0613 232.654 37.416ZM283.69 37.416C283.69 32.7707 284.695 28.639 286.705 25.021C288.715 21.3583 291.506 18.522 295.08 16.512C298.698 14.4573 302.785 13.43 307.341 13.43C312.924 13.43 317.703 14.904 321.679 17.852C325.654 20.8 328.312 24.82 329.652 29.912H317.056C316.118 27.9467 314.778 26.4503 313.036 25.423C311.338 24.3957 309.395 23.882 307.207 23.882C303.678 23.882 300.819 25.1103 298.631 27.567C296.442 30.0237 295.348 33.3067 295.348 37.416C295.348 41.5253 296.442 44.8083 298.631 47.265C300.819 49.7217 303.678 50.95 307.207 50.95C309.395 50.95 311.338 50.4363 313.036 49.409C314.778 48.3817 316.118 46.8853 317.056 44.92H329.652C328.312 50.012 325.654 54.032 321.679 56.98C317.703 59.8833 312.924 61.335 307.341 61.335C302.785 61.335 298.698 60.33 295.08 58.32C291.506 56.2653 288.715 53.429 286.705 49.811C284.695 46.193 283.69 42.0613 283.69 37.416ZM348.125 23.145V32.659H363.468V41.503H348.125V51.821H365.478V61H336.668V13.966H365.478V23.145H348.125ZM389.934 61.469C386.494 61.469 383.412 60.9107 380.688 59.794C377.963 58.6773 375.774 57.0247 374.122 54.836C372.514 52.6473 371.665 50.012 371.576 46.93H383.77C383.948 48.672 384.551 50.012 385.579 50.95C386.606 51.8433 387.946 52.29 389.599 52.29C391.296 52.29 392.636 51.9103 393.619 51.151C394.601 50.347 395.093 49.2527 395.093 47.868C395.093 46.7067 394.691 45.7463 393.887 44.987C393.127 44.2277 392.167 43.6023 391.006 43.111C389.889 42.6197 388.281 42.0613 386.182 41.436C383.144 40.498 380.665 39.56 378.745 38.622C376.824 37.684 375.171 36.2993 373.787 34.468C372.402 32.6367 371.71 30.247 371.71 27.299C371.71 22.9217 373.295 19.5047 376.467 17.048C379.638 14.5467 383.77 13.296 388.862 13.296C394.043 13.296 398.219 14.5467 401.391 17.048C404.562 19.5047 406.259 22.944 406.483 27.366H394.088C393.998 25.8473 393.44 24.6637 392.413 23.815C391.385 22.9217 390.068 22.475 388.46 22.475C387.075 22.475 385.958 22.8547 385.11 23.614C384.261 24.3287 383.837 25.3783 383.837 26.763C383.837 28.2817 384.551 29.4653 385.981 30.314C387.41 31.1627 389.643 32.0783 392.681 33.061C395.718 34.0883 398.175 35.071 400.051 36.009C401.971 36.947 403.624 38.3093 405.009 40.096C406.393 41.8827 407.086 44.183 407.086 46.997C407.086 49.677 406.393 52.1113 405.009 54.3C403.669 56.4887 401.703 58.2307 399.113 59.526C396.522 60.8213 393.462 61.469 389.934 61.469ZM431.154 61.469C427.715 61.469 424.633 60.9107 421.908 59.794C419.184 58.6773 416.995 57.0247 415.342 54.836C413.734 52.6473 412.886 50.012 412.796 46.93H424.99C425.169 48.672 425.772 50.012 426.799 50.95C427.827 51.8433 429.167 52.29 430.819 52.29C432.517 52.29 433.857 51.9103 434.839 51.151C435.822 50.347 436.313 49.2527 436.313 47.868C436.313 46.7067 435.911 45.7463 435.107 44.987C434.348 44.2277 433.388 43.6023 432.226 43.111C431.11 42.6197 429.502 42.0613 427.402 41.436C424.365 40.498 421.886 39.56 419.965 38.622C418.045 37.684 416.392 36.2993 415.007 34.468C413.623 32.6367 412.93 30.247 412.93 27.299C412.93 22.9217 414.516 19.5047 417.687 17.048C420.859 14.5467 424.99 13.296 430.082 13.296C435.264 13.296 439.44 14.5467 442.611 17.048C445.783 19.5047 447.48 22.944 447.703 27.366H435.308C435.219 25.8473 434.661 24.6637 433.633 23.815C432.606 22.9217 431.288 22.475 429.68 22.475C428.296 22.475 427.179 22.8547 426.33 23.614C425.482 24.3287 425.057 25.3783 425.057 26.763C425.057 28.2817 425.772 29.4653 427.201 30.314C428.631 31.1627 430.864 32.0783 433.901 33.061C436.939 34.0883 439.395 35.071 441.271 36.009C443.192 36.947 444.845 38.3093 446.229 40.096C447.614 41.8827 448.306 44.183 448.306 46.997C448.306 49.677 447.614 52.1113 446.229 54.3C444.889 56.4887 442.924 58.2307 440.333 59.526C437.743 60.8213 434.683 61.469 431.154 61.469ZM37.989 88.966V98.145H25.527V136H14.07V98.145H1.608V88.966H37.989ZM65.983 136.469C61.561 136.469 57.4963 135.442 53.789 133.387C50.1263 131.332 47.2006 128.474 45.012 124.811C42.868 121.104 41.796 116.95 41.796 112.349C41.796 107.748 42.868 103.617 45.012 99.954C47.2006 96.2913 50.1263 93.4327 53.789 91.378C57.4963 89.3233 61.561 88.296 65.983 88.296C70.405 88.296 74.4473 89.3233 78.11 91.378C81.8173 93.4327 84.7206 96.2913 86.82 99.954C88.964 103.617 90.036 107.748 90.036 112.349C90.036 116.95 88.964 121.104 86.82 124.811C84.676 128.474 81.7726 131.332 78.11 133.387C74.4473 135.442 70.405 136.469 65.983 136.469ZM65.983 126.017C69.735 126.017 72.7276 124.766 74.961 122.265C77.239 119.764 78.378 116.458 78.378 112.349C78.378 108.195 77.239 104.89 74.961 102.433C72.7276 99.9317 69.735 98.681 65.983 98.681C62.1863 98.681 59.149 99.9093 56.871 102.366C54.6376 104.823 53.521 108.15 53.521 112.349C53.521 116.503 54.6376 119.831 56.871 122.332C59.149 124.789 62.1863 126.017 65.983 126.017ZM21.775 163.966C26.733 163.966 31.0657 164.949 34.773 166.914C38.4803 168.879 41.339 171.649 43.349 175.222C45.4037 178.751 46.431 182.838 46.431 187.483C46.431 192.084 45.4037 196.171 43.349 199.744C41.339 203.317 38.458 206.087 34.706 208.052C30.9987 210.017 26.6883 211 21.775 211H4.154V163.966H21.775ZM21.038 201.084C25.3707 201.084 28.743 199.9 31.155 197.533C33.567 195.166 34.773 191.816 34.773 187.483C34.773 183.15 33.567 179.778 31.155 177.366C28.743 174.954 25.3707 173.748 21.038 173.748H15.611V201.084H21.038ZM82.1127 202.692H64.5587L61.7447 211H49.7517L66.7697 163.966H80.0357L97.0537 211H84.9267L82.1127 202.692ZM79.1647 193.848L73.3357 176.629L67.5737 193.848H79.1647ZM136.068 163.966V173.145H123.606V211H112.149V173.145H99.6871V163.966H136.068ZM171.097 202.692H153.543L150.729 211H138.736L155.754 163.966H169.02L186.038 211H173.911L171.097 202.692ZM168.149 193.848L162.32 176.629L156.558 193.848H168.149Z" fill="#06629E"/>
<path d="M146.453 104.108C146.453 106.833 145.828 109.334 144.577 111.612C143.326 113.845 141.406 115.654 138.815 117.039C136.224 118.424 133.008 119.116 129.167 119.116H122.065V136H110.608V88.966H129.167C132.919 88.966 136.09 89.6137 138.681 90.909C141.272 92.2043 143.215 93.991 144.51 96.269C145.805 98.547 146.453 101.16 146.453 104.108ZM128.296 110.004C130.485 110.004 132.115 109.49 133.187 108.463C134.259 107.436 134.795 105.984 134.795 104.108C134.795 102.232 134.259 100.78 133.187 99.753C132.115 98.7257 130.485 98.212 128.296 98.212H122.065V110.004H128.296ZM176.404 136L166.622 118.245H163.875V136H152.418V88.966H171.647C175.354 88.966 178.503 89.6137 181.094 90.909C183.729 92.2043 185.694 93.991 186.99 96.269C188.285 98.5023 188.933 101.004 188.933 103.773C188.933 106.9 188.039 109.691 186.253 112.148C184.511 114.605 181.92 116.347 178.481 117.374L189.335 136H176.404ZM163.875 110.138H170.977C173.076 110.138 174.639 109.624 175.667 108.597C176.739 107.57 177.275 106.118 177.275 104.242C177.275 102.455 176.739 101.048 175.667 100.021C174.639 98.9937 173.076 98.48 170.977 98.48H163.875V110.138ZM207.582 98.145V107.659H222.925V116.503H207.582V126.821H224.935V136H196.125V88.966H224.935V98.145H207.582ZM285.638 88.966V136H274.181V107.793L263.662 136H254.416L243.83 107.726V136H232.373V88.966H245.907L259.106 121.528L272.171 88.966H285.638ZM305.334 88.966V136H293.877V88.966H305.334ZM324.892 88.966V117.106C324.892 119.92 325.585 122.086 326.969 123.605C328.354 125.124 330.386 125.883 333.066 125.883C335.746 125.883 337.801 125.124 339.23 123.605C340.66 122.086 341.374 119.92 341.374 117.106V88.966H352.831V117.039C352.831 121.238 351.938 124.789 350.151 127.692C348.365 130.595 345.953 132.784 342.915 134.258C339.923 135.732 336.573 136.469 332.865 136.469C329.158 136.469 325.83 135.754 322.882 134.325C319.979 132.851 317.679 130.662 315.981 127.759C314.284 124.811 313.435 121.238 313.435 117.039V88.966H324.892ZM414.142 88.966V136H402.685V107.793L392.166 136H382.92L372.334 107.726V136H360.877V88.966H374.411L387.61 121.528L400.675 88.966H414.142Z" fill="white"/>
<path d="M9.184 257.72L5.488 264.728V269H4.016V264.728L0.304 257.72H2L4.768 263.176L7.52 257.72H9.184ZM14.6364 260.104C15.479 260.104 16.231 260.285 16.8924 260.648C17.5644 261.011 18.087 261.533 18.4604 262.216C18.8444 262.899 19.0364 263.699 19.0364 264.616C19.0364 265.533 18.8444 266.333 18.4604 267.016C18.087 267.688 17.5644 268.205 16.8924 268.568C16.231 268.931 15.479 269.112 14.6364 269.112C13.7937 269.112 13.0364 268.931 12.3644 268.568C11.703 268.205 11.1804 267.688 10.7964 267.016C10.4124 266.333 10.2204 265.533 10.2204 264.616C10.2204 263.699 10.4124 262.899 10.7964 262.216C11.1804 261.533 11.703 261.011 12.3644 260.648C13.0364 260.285 13.7937 260.104 14.6364 260.104ZM14.6364 261.384C14.1137 261.384 13.6284 261.501 13.1804 261.736C12.743 261.971 12.3857 262.333 12.1084 262.824C11.8417 263.304 11.7084 263.901 11.7084 264.616C11.7084 265.32 11.8417 265.917 12.1084 266.408C12.3857 266.888 12.743 267.245 13.1804 267.48C13.6284 267.715 14.1137 267.832 14.6364 267.832C15.159 267.832 15.639 267.715 16.0764 267.48C16.5244 267.245 16.8817 266.888 17.1484 266.408C17.4257 265.917 17.5644 265.32 17.5644 264.616C17.5644 263.901 17.4257 263.304 17.1484 262.824C16.8817 262.333 16.5244 261.971 16.0764 261.736C15.639 261.501 15.159 261.384 14.6364 261.384ZM28.7416 260.216V269H27.2856V266.936C27.0616 267.651 26.6616 268.2 26.0856 268.584C25.5203 268.957 24.859 269.144 24.1016 269.144C23.0883 269.144 22.267 268.819 21.6376 268.168C21.0083 267.507 20.6936 266.563 20.6936 265.336V260.216H22.1496V265.192C22.1496 266.067 22.3736 266.744 22.8216 267.224C23.2696 267.693 23.8776 267.928 24.6456 267.928C25.4456 267.928 26.0856 267.672 26.5656 267.16C27.0456 266.637 27.2856 265.88 27.2856 264.888V260.216H28.7416ZM38.9154 260.104C40.0354 260.104 40.9634 260.403 41.6994 261C42.4354 261.597 42.8887 262.397 43.0594 263.4H41.5234C41.4167 262.771 41.1234 262.28 40.6434 261.928C40.174 261.565 39.5874 261.384 38.8834 261.384C38.3714 261.384 37.902 261.501 37.4754 261.736C37.0594 261.971 36.7234 262.333 36.4674 262.824C36.2114 263.304 36.0834 263.901 36.0834 264.616C36.0834 265.331 36.2114 265.933 36.4674 266.424C36.7234 266.904 37.0594 267.261 37.4754 267.496C37.902 267.731 38.3714 267.848 38.8834 267.848C39.5874 267.848 40.174 267.667 40.6434 267.304C41.1234 266.941 41.4167 266.445 41.5234 265.816H43.0594C42.8887 266.829 42.4354 267.635 41.6994 268.232C40.9634 268.819 40.0354 269.112 38.9154 269.112C38.0727 269.112 37.326 268.931 36.6754 268.568C36.0247 268.205 35.5127 267.688 35.1394 267.016C34.7767 266.333 34.5954 265.533 34.5954 264.616C34.5954 263.699 34.7767 262.899 35.1394 262.216C35.5127 261.533 36.0247 261.011 36.6754 260.648C37.326 260.285 38.0727 260.104 38.9154 260.104ZM48.5649 260.104C49.4182 260.104 50.1382 260.317 50.7249 260.744C51.3222 261.171 51.7382 261.741 51.9729 262.456V260.216H53.4289V269H51.9729V266.76C51.7382 267.475 51.3222 268.045 50.7249 268.472C50.1382 268.899 49.4182 269.112 48.5649 269.112C47.7862 269.112 47.0929 268.931 46.4849 268.568C45.8769 268.205 45.3969 267.688 45.0449 267.016C44.7035 266.333 44.5329 265.533 44.5329 264.616C44.5329 263.699 44.7035 262.899 45.0449 262.216C45.3969 261.533 45.8769 261.011 46.4849 260.648C47.0929 260.285 47.7862 260.104 48.5649 260.104ZM48.9809 261.4C48.0849 261.4 47.3649 261.688 46.8209 262.264C46.2875 262.829 46.0209 263.613 46.0209 264.616C46.0209 265.619 46.2875 266.408 46.8209 266.984C47.3649 267.549 48.0849 267.832 48.9809 267.832C49.5569 267.832 50.0689 267.699 50.5169 267.432C50.9755 267.165 51.3329 266.792 51.5889 266.312C51.8449 265.821 51.9729 265.256 51.9729 264.616C51.9729 263.976 51.8449 263.411 51.5889 262.92C51.3329 262.429 50.9755 262.056 50.5169 261.8C50.0689 261.533 49.5569 261.4 48.9809 261.4ZM60.3701 260.072C61.3941 260.072 62.2208 260.403 62.8501 261.064C63.4795 261.715 63.7941 262.659 63.7941 263.896V269H62.3381V264.024C62.3381 263.149 62.1141 262.477 61.6661 262.008C61.2181 261.539 60.6101 261.304 59.8421 261.304C59.0421 261.304 58.4021 261.565 57.9221 262.088C57.4421 262.6 57.2021 263.352 57.2021 264.344V269H55.7461V260.216H57.2021V262.296C57.4261 261.581 57.8208 261.032 58.3861 260.648C58.9621 260.264 59.6235 260.072 60.3701 260.072ZM74.6045 260.072C75.6285 260.072 76.4552 260.403 77.0845 261.064C77.7138 261.715 78.0285 262.659 78.0285 263.896V269H76.5725V264.024C76.5725 263.149 76.3485 262.477 75.9005 262.008C75.4525 261.539 74.8445 261.304 74.0765 261.304C73.2765 261.304 72.6365 261.565 72.1565 262.088C71.6765 262.6 71.4365 263.352 71.4365 264.344V269H69.9805V260.216H71.4365V262.296C71.6605 261.581 72.0552 261.032 72.6205 260.648C73.1965 260.264 73.8578 260.072 74.6045 260.072ZM84.2458 260.104C85.0884 260.104 85.8404 260.285 86.5018 260.648C87.1738 261.011 87.6964 261.533 88.0698 262.216C88.4538 262.899 88.6458 263.699 88.6458 264.616C88.6458 265.533 88.4538 266.333 88.0698 267.016C87.6964 267.688 87.1738 268.205 86.5018 268.568C85.8404 268.931 85.0884 269.112 84.2458 269.112C83.4031 269.112 82.6458 268.931 81.9738 268.568C81.3124 268.205 80.7898 267.688 80.4058 267.016C80.0218 266.333 79.8298 265.533 79.8298 264.616C79.8298 263.699 80.0218 262.899 80.4058 262.216C80.7898 261.533 81.3124 261.011 81.9738 260.648C82.6458 260.285 83.4031 260.104 84.2458 260.104ZM84.2458 261.384C83.7231 261.384 83.2378 261.501 82.7898 261.736C82.3524 261.971 81.9951 262.333 81.7178 262.824C81.4511 263.304 81.3178 263.901 81.3178 264.616C81.3178 265.32 81.4511 265.917 81.7178 266.408C81.9951 266.888 82.3524 267.245 82.7898 267.48C83.2378 267.715 83.7231 267.832 84.2458 267.832C84.7684 267.832 85.2484 267.715 85.6858 267.48C86.1338 267.245 86.4911 266.888 86.7578 266.408C87.0351 265.917 87.1737 265.32 87.1737 264.616C87.1737 263.901 87.0351 263.304 86.7578 262.824C86.4911 262.333 86.1338 261.971 85.6858 261.736C85.2484 261.501 84.7684 261.384 84.2458 261.384ZM102.607 260.216L100.079 269H98.511L96.095 261.848L93.663 269H92.079L89.583 260.216H91.055L92.927 267.608L95.359 260.216H96.879L99.327 267.592L101.215 260.216H102.607ZM111.326 267.448L114.046 260.216H115.614L112.174 269H110.446L107.006 260.216H108.574L111.326 267.448ZM120.643 260.104C121.496 260.104 122.216 260.317 122.803 260.744C123.4 261.171 123.816 261.741 124.051 262.456V260.216H125.507V269H124.051V266.76C123.816 267.475 123.4 268.045 122.803 268.472C122.216 268.899 121.496 269.112 120.643 269.112C119.864 269.112 119.171 268.931 118.563 268.568C117.955 268.205 117.475 267.688 117.123 267.016C116.782 266.333 116.611 265.533 116.611 264.616C116.611 263.699 116.782 262.899 117.123 262.216C117.475 261.533 117.955 261.011 118.563 260.648C119.171 260.285 119.864 260.104 120.643 260.104ZM121.059 261.4C120.163 261.4 119.443 261.688 118.899 262.264C118.366 262.829 118.099 263.613 118.099 264.616C118.099 265.619 118.366 266.408 118.899 266.984C119.443 267.549 120.163 267.832 121.059 267.832C121.635 267.832 122.147 267.699 122.595 267.432C123.054 267.165 123.411 266.792 123.667 266.312C123.923 265.821 124.051 265.256 124.051 264.616C124.051 263.976 123.923 263.411 123.667 262.92C123.411 262.429 123.054 262.056 122.595 261.8C122.147 261.533 121.635 261.4 121.059 261.4ZM129.28 257.16V269H127.824V257.16H129.28ZM139.429 260.216V269H137.973V266.936C137.749 267.651 137.349 268.2 136.773 268.584C136.208 268.957 135.546 269.144 134.789 269.144C133.776 269.144 132.954 268.819 132.325 268.168C131.696 267.507 131.381 266.563 131.381 265.336V260.216H132.837V265.192C132.837 266.067 133.061 266.744 133.509 267.224C133.957 267.693 134.565 267.928 135.333 267.928C136.133 267.928 136.773 267.672 137.253 267.16C137.733 266.637 137.973 265.88 137.973 264.888V260.216H139.429ZM149.842 264.12C149.842 264.429 149.82 264.696 149.778 264.92H142.754C142.786 265.923 143.068 266.675 143.602 267.176C144.146 267.677 144.807 267.928 145.586 267.928C146.29 267.928 146.876 267.752 147.346 267.4C147.826 267.037 148.119 266.557 148.226 265.96H149.778C149.671 266.568 149.431 267.112 149.058 267.592C148.695 268.072 148.22 268.445 147.634 268.712C147.047 268.979 146.386 269.112 145.65 269.112C144.807 269.112 144.06 268.931 143.41 268.568C142.759 268.205 142.247 267.688 141.874 267.016C141.511 266.333 141.33 265.533 141.33 264.616C141.33 263.699 141.511 262.899 141.874 262.216C142.247 261.533 142.759 261.011 143.41 260.648C144.06 260.285 144.807 260.104 145.65 260.104C146.503 260.104 147.244 260.285 147.874 260.648C148.514 261.011 148.999 261.496 149.33 262.104C149.671 262.712 149.842 263.384 149.842 264.12ZM148.37 264.216C148.402 263.565 148.295 263.021 148.05 262.584C147.804 262.147 147.468 261.821 147.042 261.608C146.615 261.395 146.151 261.288 145.65 261.288C144.85 261.288 144.178 261.539 143.634 262.04C143.09 262.531 142.796 263.256 142.754 264.216H148.37ZM159.299 260.104C160.153 260.104 160.873 260.317 161.459 260.744C162.057 261.171 162.473 261.741 162.707 262.456V260.216H164.163V269H162.707V266.76C162.473 267.475 162.057 268.045 161.459 268.472C160.873 268.899 160.153 269.112 159.299 269.112C158.521 269.112 157.827 268.931 157.219 268.568C156.611 268.205 156.131 267.688 155.779 267.016C155.438 266.333 155.267 265.533 155.267 264.616C155.267 263.699 155.438 262.899 155.779 262.216C156.131 261.533 156.611 261.011 157.219 260.648C157.827 260.285 158.521 260.104 159.299 260.104ZM159.715 261.4C158.819 261.4 158.099 261.688 157.555 262.264C157.022 262.829 156.755 263.613 156.755 264.616C156.755 265.619 157.022 266.408 157.555 266.984C158.099 267.549 158.819 267.832 159.715 267.832C160.291 267.832 160.803 267.699 161.251 267.432C161.71 267.165 162.067 266.792 162.323 266.312C162.579 265.821 162.707 265.256 162.707 264.616C162.707 263.976 162.579 263.411 162.323 262.92C162.067 262.429 161.71 262.056 161.251 261.8C160.803 261.533 160.291 261.4 159.715 261.4ZM175.282 260.104C176.06 260.104 176.754 260.285 177.362 260.648C177.97 261.011 178.444 261.533 178.786 262.216C179.138 262.899 179.314 263.699 179.314 264.616C179.314 265.533 179.138 266.333 178.786 267.016C178.444 267.688 177.97 268.205 177.362 268.568C176.754 268.931 176.06 269.112 175.282 269.112C174.428 269.112 173.703 268.899 173.106 268.472C172.519 268.035 172.114 267.464 171.89 266.76V269H170.434V257.16H171.89V262.456C172.114 261.752 172.519 261.187 173.106 260.76C173.703 260.323 174.428 260.104 175.282 260.104ZM174.866 261.4C174.3 261.4 173.788 261.533 173.33 261.8C172.871 262.056 172.514 262.429 172.258 262.92C172.002 263.411 171.874 263.976 171.874 264.616C171.874 265.256 172.002 265.821 172.258 266.312C172.514 266.792 172.871 267.165 173.33 267.432C173.788 267.699 174.3 267.832 174.866 267.832C175.772 267.832 176.492 267.549 177.026 266.984C177.57 266.408 177.842 265.619 177.842 264.616C177.842 263.613 177.57 262.829 177.026 262.264C176.492 261.688 175.772 261.4 174.866 261.4ZM189.023 260.216V269H187.567V266.936C187.343 267.651 186.943 268.2 186.367 268.584C185.802 268.957 185.14 269.144 184.383 269.144C183.37 269.144 182.548 268.819 181.919 268.168C181.29 267.507 180.975 266.563 180.975 265.336V260.216H182.431V265.192C182.431 266.067 182.655 266.744 183.103 267.224C183.551 267.693 184.159 267.928 184.927 267.928C185.727 267.928 186.367 267.672 186.847 267.16C187.327 266.637 187.567 265.88 187.567 264.888V260.216H189.023ZM194.108 260.104C195.1 260.104 195.894 260.365 196.492 260.888C197.1 261.4 197.468 262.093 197.596 262.968H196.204C196.14 262.445 195.921 262.019 195.548 261.688C195.185 261.347 194.694 261.176 194.076 261.176C193.553 261.176 193.142 261.304 192.844 261.56C192.556 261.805 192.412 262.141 192.412 262.568C192.412 262.888 192.508 263.149 192.7 263.352C192.902 263.544 193.148 263.693 193.436 263.8C193.734 263.896 194.14 264.003 194.652 264.12C195.302 264.269 195.825 264.424 196.22 264.584C196.625 264.733 196.966 264.979 197.244 265.32C197.532 265.661 197.676 266.12 197.676 266.696C197.676 267.411 197.404 267.992 196.86 268.44C196.326 268.888 195.612 269.112 194.716 269.112C193.67 269.112 192.817 268.861 192.156 268.36C191.494 267.859 191.105 267.16 190.988 266.264H192.396C192.449 266.797 192.678 267.229 193.084 267.56C193.5 267.891 194.044 268.056 194.716 268.056C195.217 268.056 195.606 267.928 195.884 267.672C196.172 267.416 196.316 267.08 196.316 266.664C196.316 266.323 196.214 266.051 196.012 265.848C195.809 265.645 195.558 265.491 195.26 265.384C194.961 265.277 194.55 265.165 194.028 265.048C193.377 264.899 192.854 264.749 192.46 264.6C192.076 264.451 191.745 264.216 191.468 263.896C191.201 263.565 191.068 263.123 191.068 262.568C191.068 261.832 191.34 261.24 191.884 260.792C192.428 260.333 193.169 260.104 194.108 260.104ZM199.365 257.64C199.365 257.373 199.456 257.16 199.637 257C199.818 256.829 200.058 256.744 200.357 256.744C200.656 256.744 200.896 256.829 201.077 257C201.258 257.16 201.349 257.373 201.349 257.64C201.349 257.907 201.258 258.125 201.077 258.296C200.896 258.456 200.656 258.536 200.357 258.536C200.058 258.536 199.818 258.456 199.637 258.296C199.456 258.125 199.365 257.907 199.365 257.64ZM201.077 260.216V269H199.621V260.216H201.077ZM208.042 260.072C209.066 260.072 209.893 260.403 210.522 261.064C211.151 261.715 211.466 262.659 211.466 263.896V269H210.01V264.024C210.01 263.149 209.786 262.477 209.338 262.008C208.89 261.539 208.282 261.304 207.514 261.304C206.714 261.304 206.074 261.565 205.594 262.088C205.114 262.6 204.874 263.352 204.874 264.344V269H203.418V260.216H204.874V262.296C205.098 261.581 205.493 261.032 206.058 260.648C206.634 260.264 207.295 260.072 208.042 260.072ZM221.779 264.12C221.779 264.429 221.758 264.696 221.715 264.92H214.691C214.723 265.923 215.006 266.675 215.539 267.176C216.083 267.677 216.745 267.928 217.523 267.928C218.227 267.928 218.814 267.752 219.283 267.4C219.763 267.037 220.057 266.557 220.163 265.96H221.715C221.609 266.568 221.369 267.112 220.995 267.592C220.633 268.072 220.158 268.445 219.571 268.712C218.985 268.979 218.323 269.112 217.587 269.112C216.745 269.112 215.998 268.931 215.347 268.568C214.697 268.205 214.185 267.688 213.811 267.016C213.449 266.333 213.267 265.533 213.267 264.616C213.267 263.699 213.449 262.899 213.811 262.216C214.185 261.533 214.697 261.011 215.347 260.648C215.998 260.285 216.745 260.104 217.587 260.104C218.441 260.104 219.182 260.285 219.811 260.648C220.451 261.011 220.937 261.496 221.267 262.104C221.609 262.712 221.779 263.384 221.779 264.12ZM220.307 264.216C220.339 263.565 220.233 263.021 219.987 262.584C219.742 262.147 219.406 261.821 218.979 261.608C218.553 261.395 218.089 261.288 217.587 261.288C216.787 261.288 216.115 261.539 215.571 262.04C215.027 262.531 214.734 263.256 214.691 264.216H220.307ZM226.436 260.104C227.428 260.104 228.222 260.365 228.82 260.888C229.428 261.4 229.796 262.093 229.924 262.968H228.532C228.468 262.445 228.249 262.019 227.876 261.688C227.513 261.347 227.022 261.176 226.404 261.176C225.881 261.176 225.47 261.304 225.172 261.56C224.884 261.805 224.74 262.141 224.74 262.568C224.74 262.888 224.836 263.149 225.028 263.352C225.23 263.544 225.476 263.693 225.764 263.8C226.062 263.896 226.468 264.003 226.98 264.12C227.63 264.269 228.153 264.424 228.548 264.584C228.953 264.733 229.294 264.979 229.572 265.32C229.86 265.661 230.004 266.12 230.004 266.696C230.004 267.411 229.732 267.992 229.188 268.44C228.654 268.888 227.94 269.112 227.044 269.112C225.998 269.112 225.145 268.861 224.484 268.36C223.822 267.859 223.433 267.16 223.316 266.264H224.724C224.777 266.797 225.006 267.229 225.412 267.56C225.828 267.891 226.372 268.056 227.044 268.056C227.545 268.056 227.934 267.928 228.212 267.672C228.5 267.416 228.644 267.08 228.644 266.664C228.644 266.323 228.542 266.051 228.34 265.848C228.137 265.645 227.886 265.491 227.588 265.384C227.289 265.277 226.878 265.165 226.356 265.048C225.705 264.899 225.182 264.749 224.788 264.6C224.404 264.451 224.073 264.216 223.796 263.896C223.529 263.565 223.396 263.123 223.396 262.568C223.396 261.832 223.668 261.24 224.212 260.792C224.756 260.333 225.497 260.104 226.436 260.104ZM234.701 260.104C235.693 260.104 236.488 260.365 237.085 260.888C237.693 261.4 238.061 262.093 238.189 262.968H236.797C236.733 262.445 236.515 262.019 236.141 261.688C235.779 261.347 235.288 261.176 234.669 261.176C234.147 261.176 233.736 261.304 233.437 261.56C233.149 261.805 233.005 262.141 233.005 262.568C233.005 262.888 233.101 263.149 233.293 263.352C233.496 263.544 233.741 263.693 234.029 263.8C234.328 263.896 234.733 264.003 235.245 264.12C235.896 264.269 236.419 264.424 236.813 264.584C237.219 264.733 237.56 264.979 237.837 265.32C238.125 265.661 238.269 266.12 238.269 266.696C238.269 267.411 237.997 267.992 237.453 268.44C236.92 268.888 236.205 269.112 235.309 269.112C234.264 269.112 233.411 268.861 232.749 268.36C232.088 267.859 231.699 267.16 231.581 266.264H232.989C233.043 266.797 233.272 267.229 233.677 267.56C234.093 267.891 234.637 268.056 235.309 268.056C235.811 268.056 236.2 267.928 236.477 267.672C236.765 267.416 236.909 267.08 236.909 266.664C236.909 266.323 236.808 266.051 236.605 265.848C236.403 265.645 236.152 265.491 235.853 265.384C235.555 265.277 235.144 265.165 234.621 265.048C233.971 264.899 233.448 264.749 233.053 264.6C232.669 264.451 232.339 264.216 232.061 263.896C231.795 263.565 231.661 263.123 231.661 262.568C231.661 261.832 231.933 261.24 232.477 260.792C233.021 260.333 233.763 260.104 234.701 260.104ZM243.912 257.64C243.912 257.373 244.003 257.16 244.184 257C244.365 256.829 244.605 256.744 244.904 256.744C245.203 256.744 245.443 256.829 245.624 257C245.805 257.16 245.896 257.373 245.896 257.64C245.896 257.907 245.805 258.125 245.624 258.296C245.443 258.456 245.203 258.536 244.904 258.536C244.605 258.536 244.365 258.456 244.184 258.296C244.003 258.125 243.912 257.907 243.912 257.64ZM245.624 260.216V269H244.168V260.216H245.624ZM252.589 260.072C253.613 260.072 254.44 260.403 255.069 261.064C255.698 261.715 256.013 262.659 256.013 263.896V269H254.557V264.024C254.557 263.149 254.333 262.477 253.885 262.008C253.437 261.539 252.829 261.304 252.061 261.304C251.261 261.304 250.621 261.565 250.141 262.088C249.661 262.6 249.421 263.352 249.421 264.344V269H247.965V260.216H249.421V262.296C249.645 261.581 250.04 261.032 250.605 260.648C251.181 260.264 251.842 260.072 252.589 260.072ZM272.999 260.072C274.023 260.072 274.845 260.403 275.463 261.064C276.093 261.715 276.407 262.659 276.407 263.896V269H274.951V264.024C274.951 263.16 274.738 262.499 274.311 262.04C273.895 261.581 273.319 261.352 272.583 261.352C271.815 261.352 271.197 261.608 270.727 262.12C270.269 262.621 270.039 263.363 270.039 264.344V269H268.583V264.024C268.583 263.16 268.37 262.499 267.943 262.04C267.517 261.581 266.941 261.352 266.215 261.352C265.437 261.352 264.813 261.608 264.343 262.12C263.885 262.621 263.655 263.363 263.655 264.344V269H262.199V260.216H263.655V262.216C263.869 261.523 264.247 260.995 264.791 260.632C265.346 260.259 265.981 260.072 266.695 260.072C267.442 260.072 268.087 260.264 268.631 260.648C269.186 261.021 269.581 261.576 269.815 262.312C270.061 261.597 270.471 261.048 271.047 260.664C271.623 260.269 272.274 260.072 272.999 260.072ZM278.412 257.64C278.412 257.373 278.503 257.16 278.684 257C278.865 256.829 279.105 256.744 279.404 256.744C279.703 256.744 279.943 256.829 280.124 257C280.305 257.16 280.396 257.373 280.396 257.64C280.396 257.907 280.305 258.125 280.124 258.296C279.943 258.456 279.703 258.536 279.404 258.536C279.105 258.536 278.865 258.456 278.684 258.296C278.503 258.125 278.412 257.907 278.412 257.64ZM280.124 260.216V269H278.668V260.216H280.124ZM287.089 260.072C288.113 260.072 288.94 260.403 289.569 261.064C290.198 261.715 290.513 262.659 290.513 263.896V269H289.057V264.024C289.057 263.149 288.833 262.477 288.385 262.008C287.937 261.539 287.329 261.304 286.561 261.304C285.761 261.304 285.121 261.565 284.641 262.088C284.161 262.6 283.921 263.352 283.921 264.344V269H282.465V260.216H283.921V262.296C284.145 261.581 284.54 261.032 285.105 260.648C285.681 260.264 286.342 260.072 287.089 260.072ZM300.554 260.216V269H299.098V266.936C298.874 267.651 298.474 268.2 297.898 268.584C297.333 268.957 296.671 269.144 295.914 269.144C294.901 269.144 294.079 268.819 293.45 268.168C292.821 267.507 292.506 266.563 292.506 265.336V260.216H293.962V265.192C293.962 266.067 294.186 266.744 294.634 267.224C295.082 267.693 295.69 267.928 296.458 267.928C297.258 267.928 297.898 267.672 298.378 267.16C298.858 266.637 299.098 265.88 299.098 264.888V260.216H300.554ZM307.079 267.72V269H305.991C305.095 269 304.423 268.787 303.975 268.36C303.537 267.933 303.319 267.219 303.319 266.216V261.48H302.007V260.216H303.319V258.024H304.791V260.216H307.063V261.48H304.791V266.248C304.791 266.813 304.892 267.203 305.095 267.416C305.308 267.619 305.671 267.72 306.183 267.72H307.079ZM316.936 264.12C316.936 264.429 316.914 264.696 316.872 264.92H309.848C309.88 265.923 310.162 266.675 310.696 267.176C311.24 267.677 311.901 267.928 312.68 267.928C313.384 267.928 313.97 267.752 314.44 267.4C314.92 267.037 315.213 266.557 315.32 265.96H316.872C316.765 266.568 316.525 267.112 316.152 267.592C315.789 268.072 315.314 268.445 314.728 268.712C314.141 268.979 313.48 269.112 312.744 269.112C311.901 269.112 311.154 268.931 310.504 268.568C309.853 268.205 309.341 267.688 308.968 267.016C308.605 266.333 308.424 265.533 308.424 264.616C308.424 263.699 308.605 262.899 308.968 262.216C309.341 261.533 309.853 261.011 310.504 260.648C311.154 260.285 311.901 260.104 312.744 260.104C313.597 260.104 314.338 260.285 314.968 260.648C315.608 261.011 316.093 261.496 316.424 262.104C316.765 262.712 316.936 263.384 316.936 264.12ZM315.464 264.216C315.496 263.565 315.389 263.021 315.144 262.584C314.898 262.147 314.562 261.821 314.136 261.608C313.709 261.395 313.245 261.288 312.744 261.288C311.944 261.288 311.272 261.539 310.728 262.04C310.184 262.531 309.89 263.256 309.848 264.216H315.464ZM321.592 260.104C322.584 260.104 323.379 260.365 323.976 260.888C324.584 261.4 324.952 262.093 325.08 262.968H323.688C323.624 262.445 323.405 262.019 323.032 261.688C322.669 261.347 322.179 261.176 321.56 261.176C321.037 261.176 320.627 261.304 320.328 261.56C320.04 261.805 319.896 262.141 319.896 262.568C319.896 262.888 319.992 263.149 320.184 263.352C320.387 263.544 320.632 263.693 320.92 263.8C321.219 263.896 321.624 264.003 322.136 264.12C322.787 264.269 323.309 264.424 323.704 264.584C324.109 264.733 324.451 264.979 324.728 265.32C325.016 265.661 325.16 266.12 325.16 266.696C325.16 267.411 324.888 267.992 324.344 268.44C323.811 268.888 323.096 269.112 322.2 269.112C321.155 269.112 320.301 268.861 319.64 268.36C318.979 267.859 318.589 267.16 318.472 266.264H319.88C319.933 266.797 320.163 267.229 320.568 267.56C320.984 267.891 321.528 268.056 322.2 268.056C322.701 268.056 323.091 267.928 323.368 267.672C323.656 267.416 323.8 267.08 323.8 266.664C323.8 266.323 323.699 266.051 323.496 265.848C323.293 265.645 323.043 265.491 322.744 265.384C322.445 265.277 322.035 265.165 321.512 265.048C320.861 264.899 320.339 264.749 319.944 264.6C319.56 264.451 319.229 264.216 318.952 263.896C318.685 263.565 318.552 263.123 318.552 262.568C318.552 261.832 318.824 261.24 319.368 260.792C319.912 260.333 320.653 260.104 321.592 260.104ZM343.123 260.216L340.595 269H339.027L336.611 261.848L334.179 269H332.595L330.099 260.216H331.571L333.443 267.608L335.875 260.216H337.395L339.843 267.592L341.731 260.216H343.123ZM344.225 257.64C344.225 257.373 344.315 257.16 344.497 257C344.678 256.829 344.918 256.744 345.217 256.744C345.515 256.744 345.755 256.829 345.937 257C346.118 257.16 346.209 257.373 346.209 257.64C346.209 257.907 346.118 258.125 345.937 258.296C345.755 258.456 345.515 258.536 345.217 258.536C344.918 258.536 344.678 258.456 344.497 258.296C344.315 258.125 344.225 257.907 344.225 257.64ZM345.937 260.216V269H344.481V260.216H345.937ZM352.469 267.72V269H351.381C350.485 269 349.813 268.787 349.365 268.36C348.928 267.933 348.709 267.219 348.709 266.216V261.48H347.397V260.216H348.709V258.024H350.181V260.216H352.453V261.48H350.181V266.248C350.181 266.813 350.283 267.203 350.485 267.416C350.699 267.619 351.061 267.72 351.573 267.72H352.469ZM358.87 260.072C359.894 260.072 360.721 260.403 361.35 261.064C361.979 261.715 362.294 262.659 362.294 263.896V269H360.838V264.024C360.838 263.149 360.614 262.477 360.166 262.008C359.718 261.539 359.11 261.304 358.342 261.304C357.542 261.304 356.902 261.565 356.422 262.088C355.942 262.6 355.702 263.352 355.702 264.344V269H354.246V257.16H355.702V262.296C355.926 261.581 356.321 261.032 356.886 260.648C357.462 260.264 358.123 260.072 358.87 260.072ZM372.465 260.104C373.307 260.104 374.059 260.285 374.721 260.648C375.393 261.011 375.915 261.533 376.289 262.216C376.673 262.899 376.865 263.699 376.865 264.616C376.865 265.533 376.673 266.333 376.289 267.016C375.915 267.688 375.393 268.205 374.721 268.568C374.059 268.931 373.307 269.112 372.465 269.112C371.622 269.112 370.865 268.931 370.193 268.568C369.531 268.205 369.009 267.688 368.625 267.016C368.241 266.333 368.049 265.533 368.049 264.616C368.049 263.699 368.241 262.899 368.625 262.216C369.009 261.533 369.531 261.011 370.193 260.648C370.865 260.285 371.622 260.104 372.465 260.104ZM372.465 261.384C371.942 261.384 371.457 261.501 371.009 261.736C370.571 261.971 370.214 262.333 369.937 262.824C369.67 263.304 369.537 263.901 369.537 264.616C369.537 265.32 369.67 265.917 369.937 266.408C370.214 266.888 370.571 267.245 371.009 267.48C371.457 267.715 371.942 267.832 372.465 267.832C372.987 267.832 373.467 267.715 373.905 267.48C374.353 267.245 374.71 266.888 374.977 266.408C375.254 265.917 375.392 265.32 375.392 264.616C375.392 263.901 375.254 263.304 374.977 262.824C374.71 262.333 374.353 261.971 373.905 261.736C373.467 261.501 372.987 261.384 372.465 261.384ZM386.57 260.216V269H385.114V266.936C384.89 267.651 384.49 268.2 383.914 268.584C383.348 268.957 382.687 269.144 381.93 269.144C380.916 269.144 380.095 268.819 379.466 268.168C378.836 267.507 378.522 266.563 378.522 265.336V260.216H379.978V265.192C379.978 266.067 380.202 266.744 380.65 267.224C381.098 267.693 381.706 267.928 382.474 267.928C383.274 267.928 383.914 267.672 384.394 267.16C384.874 266.637 385.114 265.88 385.114 264.888V260.216H386.57ZM390.358 261.992C390.646 261.384 391.068 260.915 391.622 260.584C392.177 260.243 392.838 260.072 393.606 260.072V261.656H393.158C392.337 261.656 391.665 261.869 391.142 262.296C390.62 262.712 390.358 263.405 390.358 264.376V269H388.902V260.216H390.358V261.992ZM6.016 284.104C6.79467 284.104 7.488 284.285 8.096 284.648C8.704 285.011 9.17867 285.533 9.52 286.216C9.872 286.899 10.048 287.699 10.048 288.616C10.048 289.533 9.872 290.333 9.52 291.016C9.17867 291.688 8.704 292.205 8.096 292.568C7.488 292.931 6.79467 293.112 6.016 293.112C5.16267 293.112 4.43733 292.899 3.84 292.472C3.25333 292.035 2.848 291.464 2.624 290.76V297.16H1.168V284.216H2.624V286.456C2.848 285.752 3.25333 285.187 3.84 284.76C4.43733 284.323 5.16267 284.104 6.016 284.104ZM5.6 285.4C5.03467 285.4 4.52267 285.533 4.064 285.8C3.60533 286.056 3.248 286.429 2.992 286.92C2.736 287.411 2.608 287.976 2.608 288.616C2.608 289.256 2.736 289.821 2.992 290.312C3.248 290.792 3.60533 291.165 4.064 291.432C4.52267 291.699 5.03467 291.832 5.6 291.832C6.50667 291.832 7.22667 291.549 7.76 290.984C8.304 290.408 8.576 289.619 8.576 288.616C8.576 287.613 8.304 286.829 7.76 286.264C7.22667 285.688 6.50667 285.4 5.6 285.4ZM15.9333 284.104C16.7759 284.104 17.5279 284.285 18.1893 284.648C18.8613 285.011 19.3839 285.533 19.7573 286.216C20.1413 286.899 20.3333 287.699 20.3333 288.616C20.3333 289.533 20.1413 290.333 19.7573 291.016C19.3839 291.688 18.8613 292.205 18.1893 292.568C17.5279 292.931 16.7759 293.112 15.9333 293.112C15.0906 293.112 14.3333 292.931 13.6613 292.568C12.9999 292.205 12.4773 291.688 12.0933 291.016C11.7093 290.333 11.5173 289.533 11.5173 288.616C11.5173 287.699 11.7093 286.899 12.0933 286.216C12.4773 285.533 12.9999 285.011 13.6613 284.648C14.3333 284.285 15.0906 284.104 15.9333 284.104ZM15.9333 285.384C15.4106 285.384 14.9253 285.501 14.4773 285.736C14.0399 285.971 13.6826 286.333 13.4053 286.824C13.1386 287.304 13.0053 287.901 13.0053 288.616C13.0053 289.32 13.1386 289.917 13.4053 290.408C13.6826 290.888 14.0399 291.245 14.4773 291.48C14.9253 291.715 15.4106 291.832 15.9333 291.832C16.4559 291.832 16.9359 291.715 17.3733 291.48C17.8213 291.245 18.1786 290.888 18.4453 290.408C18.7226 289.917 18.8612 289.32 18.8612 288.616C18.8612 287.901 18.7226 287.304 18.4453 286.824C18.1786 286.333 17.8213 285.971 17.3733 285.736C16.9359 285.501 16.4559 285.384 15.9333 285.384ZM34.2945 284.216L31.7665 293H30.1985L27.7825 285.848L25.3505 293H23.7665L21.2705 284.216H22.7425L24.6145 291.608L27.0465 284.216H28.5665L31.0145 291.592L32.9025 284.216H34.2945ZM43.7324 288.12C43.7324 288.429 43.711 288.696 43.6684 288.92H36.6444C36.6764 289.923 36.959 290.675 37.4924 291.176C38.0364 291.677 38.6977 291.928 39.4764 291.928C40.1804 291.928 40.767 291.752 41.2364 291.4C41.7164 291.037 42.0097 290.557 42.1164 289.96H43.6684C43.5617 290.568 43.3217 291.112 42.9484 291.592C42.5857 292.072 42.111 292.445 41.5244 292.712C40.9377 292.979 40.2764 293.112 39.5404 293.112C38.6977 293.112 37.951 292.931 37.3004 292.568C36.6497 292.205 36.1377 291.688 35.7644 291.016C35.4017 290.333 35.2204 289.533 35.2204 288.616C35.2204 287.699 35.4017 286.899 35.7644 286.216C36.1377 285.533 36.6497 285.011 37.3004 284.648C37.951 284.285 38.6977 284.104 39.5404 284.104C40.3937 284.104 41.135 284.285 41.7644 284.648C42.4044 285.011 42.8897 285.496 43.2204 286.104C43.5617 286.712 43.7324 287.384 43.7324 288.12ZM42.2604 288.216C42.2924 287.565 42.1857 287.021 41.9404 286.584C41.695 286.147 41.359 285.821 40.9324 285.608C40.5057 285.395 40.0417 285.288 39.5404 285.288C38.7404 285.288 38.0684 285.539 37.5244 286.04C36.9804 286.531 36.687 287.256 36.6444 288.216H42.2604ZM47.0928 285.992C47.3808 285.384 47.8021 284.915 48.3568 284.584C48.9114 284.243 49.5728 284.072 50.3408 284.072V285.656H49.8928C49.0714 285.656 48.3994 285.869 47.8768 286.296C47.3541 286.712 47.0928 287.405 47.0928 288.376V293H45.6368V284.216H47.0928V285.992ZM55.6654 282.136C54.8867 282.125 54.3427 282.259 54.0334 282.536C53.7347 282.813 53.5854 283.293 53.5854 283.976V284.216H55.6654V285.496H53.5854V293H52.1294V285.496H50.8654V284.216H52.1294V283.864C52.1294 281.763 53.308 280.76 55.6654 280.856V282.136ZM65.0541 284.216V293H63.5981V290.936C63.3741 291.651 62.9741 292.2 62.3981 292.584C61.8328 292.957 61.1715 293.144 60.4141 293.144C59.4008 293.144 58.5795 292.819 57.9501 292.168C57.3208 291.507 57.0061 290.563 57.0061 289.336V284.216H58.4621V289.192C58.4621 290.067 58.6861 290.744 59.1341 291.224C59.5821 291.693 60.1901 291.928 60.9581 291.928C61.7581 291.928 62.3981 291.672 62.8781 291.16C63.3581 290.637 63.5981 289.88 63.5981 288.888V284.216H65.0541ZM68.8428 281.16V293H67.3868V281.16H68.8428ZM78.7368 284.104C79.5901 284.104 80.3101 284.317 80.8968 284.744C81.4941 285.171 81.9101 285.741 82.1448 286.456V284.216H83.6008V293H82.1448V290.76C81.9101 291.475 81.4941 292.045 80.8968 292.472C80.3101 292.899 79.5901 293.112 78.7368 293.112C77.9581 293.112 77.2648 292.931 76.6568 292.568C76.0488 292.205 75.5688 291.688 75.2168 291.016C74.8754 290.333 74.7048 289.533 74.7048 288.616C74.7048 287.699 74.8754 286.899 75.2168 286.216C75.5688 285.533 76.0488 285.011 76.6568 284.648C77.2648 284.285 77.9581 284.104 78.7368 284.104ZM79.1528 285.4C78.2568 285.4 77.5368 285.688 76.9928 286.264C76.4594 286.829 76.1928 287.613 76.1928 288.616C76.1928 289.619 76.4594 290.408 76.9928 290.984C77.5368 291.549 78.2568 291.832 79.1528 291.832C79.7288 291.832 80.2408 291.699 80.6888 291.432C81.1474 291.165 81.5048 290.792 81.7608 290.312C82.0168 289.821 82.1448 289.256 82.1448 288.616C82.1448 287.976 82.0168 287.411 81.7608 286.92C81.5048 286.429 81.1474 286.056 80.6888 285.8C80.2408 285.533 79.7288 285.4 79.1528 285.4ZM87.374 281.16V293H85.918V281.16H87.374ZM91.1709 281.16V293H89.7149V281.16H91.1709ZM98.5038 286.52V287.752H92.1037V286.52H98.5038ZM101.115 281.64C101.115 281.373 101.206 281.16 101.387 281C101.568 280.829 101.808 280.744 102.107 280.744C102.406 280.744 102.646 280.829 102.827 281C103.008 281.16 103.099 281.373 103.099 281.64C103.099 281.907 103.008 282.125 102.827 282.296C102.646 282.456 102.406 282.536 102.107 282.536C101.808 282.536 101.568 282.456 101.387 282.296C101.206 282.125 101.115 281.907 101.115 281.64ZM102.827 284.216V293H101.371V284.216H102.827ZM109.792 284.072C110.816 284.072 111.643 284.403 112.272 285.064C112.901 285.715 113.216 286.659 113.216 287.896V293H111.76V288.024C111.76 287.149 111.536 286.477 111.088 286.008C110.64 285.539 110.032 285.304 109.264 285.304C108.464 285.304 107.824 285.565 107.344 286.088C106.864 286.6 106.624 287.352 106.624 288.344V293H105.168V284.216H106.624V286.296C106.848 285.581 107.243 285.032 107.808 284.648C108.384 284.264 109.045 284.072 109.792 284.072ZM120.441 286.52V287.752H114.041V286.52H120.441ZM127.293 284.104C128.135 284.104 128.887 284.285 129.549 284.648C130.221 285.011 130.743 285.533 131.117 286.216C131.501 286.899 131.693 287.699 131.693 288.616C131.693 289.533 131.501 290.333 131.117 291.016C130.743 291.688 130.221 292.205 129.549 292.568C128.887 292.931 128.135 293.112 127.293 293.112C126.45 293.112 125.693 292.931 125.021 292.568C124.359 292.205 123.837 291.688 123.453 291.016C123.069 290.333 122.877 289.533 122.877 288.616C122.877 287.699 123.069 286.899 123.453 286.216C123.837 285.533 124.359 285.011 125.021 284.648C125.693 284.285 126.45 284.104 127.293 284.104ZM127.293 285.384C126.77 285.384 126.285 285.501 125.837 285.736C125.399 285.971 125.042 286.333 124.765 286.824C124.498 287.304 124.365 287.901 124.365 288.616C124.365 289.32 124.498 289.917 124.765 290.408C125.042 290.888 125.399 291.245 125.837 291.48C126.285 291.715 126.77 291.832 127.293 291.832C127.815 291.832 128.295 291.715 128.733 291.48C129.181 291.245 129.538 290.888 129.805 290.408C130.082 289.917 130.221 289.32 130.221 288.616C130.221 287.901 130.082 287.304 129.805 286.824C129.538 286.333 129.181 285.971 128.733 285.736C128.295 285.501 127.815 285.384 127.293 285.384ZM138.214 284.072C139.238 284.072 140.065 284.403 140.694 285.064C141.323 285.715 141.638 286.659 141.638 287.896V293H140.182V288.024C140.182 287.149 139.958 286.477 139.51 286.008C139.062 285.539 138.454 285.304 137.686 285.304C136.886 285.304 136.246 285.565 135.766 286.088C135.286 286.6 135.046 287.352 135.046 288.344V293H133.59V284.216H135.046V286.296C135.27 285.581 135.665 285.032 136.23 284.648C136.806 284.264 137.467 284.072 138.214 284.072ZM151.951 288.12C151.951 288.429 151.93 288.696 151.887 288.92H144.863C144.895 289.923 145.178 290.675 145.711 291.176C146.255 291.677 146.916 291.928 147.695 291.928C148.399 291.928 148.986 291.752 149.455 291.4C149.935 291.037 150.228 290.557 150.335 289.96H151.887C151.78 290.568 151.54 291.112 151.167 291.592C150.804 292.072 150.33 292.445 149.743 292.712C149.156 292.979 148.495 293.112 147.759 293.112C146.916 293.112 146.17 292.931 145.519 292.568C144.868 292.205 144.356 291.688 143.983 291.016C143.62 290.333 143.439 289.533 143.439 288.616C143.439 287.699 143.62 286.899 143.983 286.216C144.356 285.533 144.868 285.011 145.519 284.648C146.17 284.285 146.916 284.104 147.759 284.104C148.612 284.104 149.354 284.285 149.983 284.648C150.623 285.011 151.108 285.496 151.439 286.104C151.78 286.712 151.951 287.384 151.951 288.12ZM150.479 288.216C150.511 287.565 150.404 287.021 150.159 286.584C149.914 286.147 149.578 285.821 149.151 285.608C148.724 285.395 148.26 285.288 147.759 285.288C146.959 285.288 146.287 285.539 145.743 286.04C145.199 286.531 144.906 287.256 144.863 288.216H150.479Z" fill="#606060"/>
<rect x="0.5" y="466.5" width="161" height="56" rx="28" stroke="#959595"/>
<path d="M33.69 499.056H37.956V501H31.152V488.292H33.69V499.056ZM48.8445 495.636C48.8445 495.888 48.8145 496.176 48.7545 496.5H41.4465C41.4825 497.388 41.7225 498.042 42.1665 498.462C42.6105 498.882 43.1625 499.092 43.8225 499.092C44.4105 499.092 44.8965 498.948 45.2805 498.66C45.6765 498.372 45.9285 497.982 46.0365 497.49H48.7185C48.5865 498.186 48.3045 498.81 47.8725 499.362C47.4405 499.914 46.8825 500.346 46.1985 500.658C45.5265 500.97 44.7765 501.126 43.9485 501.126C42.9765 501.126 42.1125 500.922 41.3565 500.514C40.6005 500.094 40.0125 499.5 39.5925 498.732C39.1725 497.964 38.9625 497.058 38.9625 496.014C38.9625 494.97 39.1725 494.064 39.5925 493.296C40.0125 492.516 40.6005 491.922 41.3565 491.514C42.1125 491.106 42.9765 490.902 43.9485 490.902C44.9325 490.902 45.7905 491.106 46.5225 491.514C47.2665 491.922 47.8365 492.486 48.2325 493.206C48.6405 493.914 48.8445 494.724 48.8445 495.636ZM46.2885 495.384C46.3245 494.568 46.1085 493.95 45.6405 493.53C45.1845 493.11 44.6205 492.9 43.9485 492.9C43.2645 492.9 42.6885 493.11 42.2205 493.53C41.7525 493.95 41.4945 494.568 41.4465 495.384H46.2885ZM54.5521 490.902C55.3921 490.902 56.1121 491.1 56.7121 491.496C57.3121 491.892 57.7381 492.426 57.9901 493.098V491.028H60.5101V501H57.9901V498.912C57.7381 499.584 57.3121 500.124 56.7121 500.532C56.1121 500.928 55.3921 501.126 54.5521 501.126C53.7121 501.126 52.9561 500.922 52.2841 500.514C51.6121 500.106 51.0841 499.518 50.7001 498.75C50.3281 497.97 50.1421 497.058 50.1421 496.014C50.1421 494.97 50.3281 494.064 50.7001 493.296C51.0841 492.516 51.6121 491.922 52.2841 491.514C52.9561 491.106 53.7121 490.902 54.5521 490.902ZM55.3441 493.116C54.5521 493.116 53.9161 493.374 53.4361 493.89C52.9561 494.406 52.7161 495.114 52.7161 496.014C52.7161 496.914 52.9561 497.622 53.4361 498.138C53.9161 498.642 54.5521 498.894 55.3441 498.894C56.1121 498.894 56.7421 498.636 57.2341 498.12C57.7381 497.592 57.9901 496.89 57.9901 496.014C57.9901 495.126 57.7381 494.424 57.2341 493.908C56.7421 493.38 56.1121 493.116 55.3441 493.116ZM65.3482 492.936C65.7202 492.3 66.2122 491.802 66.8242 491.442C67.4362 491.07 68.1202 490.884 68.8762 490.884V493.602H68.1382C66.2782 493.602 65.3482 494.466 65.3482 496.194V501H62.8102V491.028H65.3482V492.936ZM76.2209 490.884C77.3729 490.884 78.2909 491.262 78.9749 492.018C79.6589 492.774 80.0009 493.836 80.0009 495.204V501H77.4809V495.492C77.4809 494.7 77.2769 494.088 76.8689 493.656C76.4609 493.212 75.9029 492.99 75.1949 492.99C74.4749 492.99 73.8989 493.224 73.4669 493.692C73.0349 494.16 72.8189 494.832 72.8189 495.708V501H70.2809V491.028H72.8189V493.026C73.0829 492.354 73.5149 491.832 74.1149 491.46C74.7269 491.076 75.4289 490.884 76.2209 490.884ZM99.852 488.436V501H97.332V492.234L94.11 501H91.914L88.692 492.27V501H86.154V488.436H89.232L93.048 497.886L96.792 488.436H99.852ZM106.758 490.902C107.73 490.902 108.6 491.106 109.368 491.514C110.148 491.922 110.76 492.516 111.204 493.296C111.648 494.064 111.87 494.97 111.87 496.014C111.87 497.058 111.648 497.964 111.204 498.732C110.76 499.5 110.148 500.094 109.368 500.514C108.6 500.922 107.73 501.126 106.758 501.126C105.786 501.126 104.91 500.922 104.13 500.514C103.362 500.094 102.756 499.5 102.312 498.732C101.868 497.964 101.646 497.058 101.646 496.014C101.646 494.97 101.868 494.064 102.312 493.296C102.756 492.516 103.362 491.922 104.13 491.514C104.91 491.106 105.786 490.902 106.758 490.902ZM106.758 493.098C106.05 493.098 105.45 493.35 104.958 493.854C104.466 494.346 104.22 495.066 104.22 496.014C104.22 496.962 104.466 497.688 104.958 498.192C105.45 498.684 106.05 498.93 106.758 498.93C107.466 498.93 108.066 498.684 108.558 498.192C109.05 497.688 109.296 496.962 109.296 496.014C109.296 495.066 109.05 494.346 108.558 493.854C108.066 493.35 107.466 493.098 106.758 493.098ZM116.202 492.936C116.574 492.3 117.066 491.802 117.678 491.442C118.29 491.07 118.974 490.884 119.73 490.884V493.602H118.992C117.132 493.602 116.202 494.466 116.202 496.194V501H113.664V491.028H116.202V492.936ZM130.512 495.636C130.512 495.888 130.482 496.176 130.422 496.5H123.114C123.15 497.388 123.39 498.042 123.834 498.462C124.278 498.882 124.83 499.092 125.49 499.092C126.078 499.092 126.564 498.948 126.948 498.66C127.344 498.372 127.596 497.982 127.704 497.49H130.386C130.254 498.186 129.972 498.81 129.54 499.362C129.108 499.914 128.55 500.346 127.866 500.658C127.194 500.97 126.444 501.126 125.616 501.126C124.644 501.126 123.78 500.922 123.024 500.514C122.268 500.094 121.68 499.5 121.26 498.732C120.84 497.964 120.63 497.058 120.63 496.014C120.63 494.97 120.84 494.064 121.26 493.296C121.68 492.516 122.268 491.922 123.024 491.514C123.78 491.106 124.644 490.902 125.616 490.902C126.6 490.902 127.458 491.106 128.19 491.514C128.934 491.922 129.504 492.486 129.9 493.206C130.308 493.914 130.512 494.724 130.512 495.636ZM127.956 495.384C127.992 494.568 127.776 493.95 127.308 493.53C126.852 493.11 126.288 492.9 125.616 492.9C124.932 492.9 124.356 493.11 123.888 493.53C123.42 493.95 123.162 494.568 123.114 495.384H127.956Z" fill="#010731"/>
<path d="M60.62 340.76V339.24L67.86 329.8H69.82V339.18H71.9V340.76H69.82V344H67.98V340.76H60.62ZM68.1 332.02L62.54 339.18H68.1V332.02ZM86.7838 329.9V331.38H80.6238V336.26H85.8438V337.68H80.6238V344H78.8038V329.9H86.7838ZM93.4405 332.88C94.5071 332.88 95.4071 333.147 96.1405 333.68C96.8871 334.213 97.4071 334.927 97.7005 335.82V333.02H99.5205V344H97.7005V341.2C97.4071 342.093 96.8871 342.807 96.1405 343.34C95.4071 343.873 94.5071 344.14 93.4405 344.14C92.4671 344.14 91.6005 343.913 90.8405 343.46C90.0805 343.007 89.4805 342.36 89.0405 341.52C88.6138 340.667 88.4005 339.667 88.4005 338.52C88.4005 337.373 88.6138 336.373 89.0405 335.52C89.4805 334.667 90.0805 334.013 90.8405 333.56C91.6005 333.107 92.4671 332.88 93.4405 332.88ZM93.9605 334.5C92.8405 334.5 91.9405 334.86 91.2605 335.58C90.5938 336.287 90.2605 337.267 90.2605 338.52C90.2605 339.773 90.5938 340.76 91.2605 341.48C91.9405 342.187 92.8405 342.54 93.9605 342.54C94.6805 342.54 95.3205 342.373 95.8805 342.04C96.4538 341.707 96.9005 341.24 97.2205 340.64C97.5405 340.027 97.7005 339.32 97.7005 338.52C97.7005 337.72 97.5405 337.013 97.2205 336.4C96.9005 335.787 96.4538 335.32 95.8805 335C95.3205 334.667 94.6805 334.5 93.9605 334.5ZM105.857 332.88C107.097 332.88 108.09 333.207 108.837 333.86C109.597 334.5 110.057 335.367 110.217 336.46H108.477C108.397 335.807 108.124 335.273 107.657 334.86C107.204 334.433 106.59 334.22 105.817 334.22C105.164 334.22 104.65 334.38 104.277 334.7C103.917 335.007 103.737 335.427 103.737 335.96C103.737 336.36 103.857 336.687 104.097 336.94C104.35 337.18 104.657 337.367 105.017 337.5C105.39 337.62 105.897 337.753 106.537 337.9C107.35 338.087 108.004 338.28 108.497 338.48C109.004 338.667 109.43 338.973 109.777 339.4C110.137 339.827 110.317 340.4 110.317 341.12C110.317 342.013 109.977 342.74 109.297 343.3C108.63 343.86 107.737 344.14 106.617 344.14C105.31 344.14 104.244 343.827 103.417 343.2C102.59 342.573 102.104 341.7 101.957 340.58H103.717C103.784 341.247 104.07 341.787 104.577 342.2C105.097 342.613 105.777 342.82 106.617 342.82C107.244 342.82 107.73 342.66 108.077 342.34C108.437 342.02 108.617 341.6 108.617 341.08C108.617 340.653 108.49 340.313 108.237 340.06C107.984 339.807 107.67 339.613 107.297 339.48C106.924 339.347 106.41 339.207 105.757 339.06C104.944 338.873 104.29 338.687 103.797 338.5C103.317 338.313 102.904 338.02 102.557 337.62C102.224 337.207 102.057 336.653 102.057 335.96C102.057 335.04 102.397 334.3 103.077 333.74C103.757 333.167 104.684 332.88 105.857 332.88ZM117.989 342.4V344H116.629C115.509 344 114.669 343.733 114.109 343.2C113.562 342.667 113.289 341.773 113.289 340.52V334.6H111.649V333.02H113.289V330.28H115.129V333.02H117.969V334.6H115.129V340.56C115.129 341.267 115.256 341.753 115.509 342.02C115.776 342.273 116.229 342.4 116.869 342.4H117.989ZM134.071 340.34C134.071 341.007 133.911 341.627 133.591 342.2C133.271 342.773 132.785 343.24 132.131 343.6C131.478 343.96 130.671 344.14 129.711 344.14C128.778 344.14 127.945 343.973 127.211 343.64C126.491 343.293 125.911 342.827 125.471 342.24C125.045 341.64 124.798 340.96 124.731 340.2H126.671C126.711 340.6 126.845 340.993 127.071 341.38C127.311 341.753 127.645 342.067 128.071 342.32C128.511 342.56 129.038 342.68 129.651 342.68C130.451 342.68 131.065 342.467 131.491 342.04C131.918 341.613 132.131 341.067 132.131 340.4C132.131 339.827 131.978 339.36 131.671 339C131.378 338.64 131.011 338.36 130.571 338.16C130.131 337.947 129.531 337.72 128.771 337.48C127.878 337.187 127.158 336.913 126.611 336.66C126.078 336.393 125.618 336 125.231 335.48C124.858 334.96 124.671 334.273 124.671 333.42C124.671 332.687 124.845 332.04 125.191 331.48C125.551 330.92 126.058 330.487 126.711 330.18C127.378 329.873 128.158 329.72 129.051 329.72C130.438 329.72 131.538 330.06 132.351 330.74C133.165 331.407 133.638 332.26 133.771 333.3H131.811C131.705 332.74 131.418 332.247 130.951 331.82C130.485 331.393 129.851 331.18 129.051 331.18C128.318 331.18 127.731 331.373 127.291 331.76C126.851 332.133 126.631 332.667 126.631 333.36C126.631 333.907 126.771 334.353 127.051 334.7C127.345 335.033 127.705 335.3 128.131 335.5C128.558 335.687 129.145 335.9 129.891 336.14C130.798 336.433 131.525 336.713 132.071 336.98C132.631 337.247 133.105 337.653 133.491 338.2C133.878 338.733 134.071 339.447 134.071 340.34ZM141.759 342.4V344H140.399C139.279 344 138.439 343.733 137.879 343.2C137.332 342.667 137.059 341.773 137.059 340.52V334.6H135.419V333.02H137.059V330.28H138.899V333.02H141.739V334.6H138.899V340.56C138.899 341.267 139.025 341.753 139.279 342.02C139.545 342.273 139.999 342.4 140.639 342.4H141.759ZM154.08 337.9C154.08 338.287 154.053 338.62 154 338.9H145.22C145.26 340.153 145.613 341.093 146.28 341.72C146.96 342.347 147.786 342.66 148.76 342.66C149.64 342.66 150.373 342.44 150.96 342C151.56 341.547 151.926 340.947 152.06 340.2H154C153.866 340.96 153.566 341.64 153.1 342.24C152.646 342.84 152.053 343.307 151.32 343.64C150.586 343.973 149.76 344.14 148.84 344.14C147.786 344.14 146.853 343.913 146.04 343.46C145.226 343.007 144.586 342.36 144.12 341.52C143.666 340.667 143.44 339.667 143.44 338.52C143.44 337.373 143.666 336.373 144.12 335.52C144.586 334.667 145.226 334.013 146.04 333.56C146.853 333.107 147.786 332.88 148.84 332.88C149.906 332.88 150.833 333.107 151.62 333.56C152.42 334.013 153.026 334.62 153.44 335.38C153.866 336.14 154.08 336.98 154.08 337.9ZM152.24 338.02C152.28 337.207 152.146 336.527 151.84 335.98C151.533 335.433 151.113 335.027 150.58 334.76C150.046 334.493 149.466 334.36 148.84 334.36C147.84 334.36 147 334.673 146.32 335.3C145.64 335.913 145.273 336.82 145.22 338.02H152.24ZM162.52 332.88C163.493 332.88 164.36 333.107 165.12 333.56C165.88 334.013 166.473 334.667 166.9 335.52C167.34 336.373 167.56 337.373 167.56 338.52C167.56 339.667 167.34 340.667 166.9 341.52C166.473 342.36 165.88 343.007 165.12 343.46C164.36 343.913 163.493 344.14 162.52 344.14C161.453 344.14 160.547 343.873 159.8 343.34C159.067 342.793 158.56 342.08 158.28 341.2V349.2H156.46V333.02H158.28V335.82C158.56 334.94 159.067 334.233 159.8 333.7C160.547 333.153 161.453 332.88 162.52 332.88ZM162 334.5C161.293 334.5 160.653 334.667 160.08 335C159.507 335.32 159.06 335.787 158.74 336.4C158.42 337.013 158.26 337.72 158.26 338.52C158.26 339.32 158.42 340.027 158.74 340.64C159.06 341.24 159.507 341.707 160.08 342.04C160.653 342.373 161.293 342.54 162 342.54C163.133 342.54 164.033 342.187 164.7 341.48C165.38 340.76 165.72 339.773 165.72 338.52C165.72 337.267 165.38 336.287 164.7 335.58C164.033 334.86 163.133 334.5 162 334.5ZM173.377 332.88C174.617 332.88 175.61 333.207 176.357 333.86C177.117 334.5 177.577 335.367 177.737 336.46H175.997C175.917 335.807 175.643 335.273 175.177 334.86C174.723 334.433 174.11 334.22 173.337 334.22C172.683 334.22 172.17 334.38 171.797 334.7C171.437 335.007 171.257 335.427 171.257 335.96C171.257 336.36 171.377 336.687 171.617 336.94C171.87 337.18 172.177 337.367 172.537 337.5C172.91 337.62 173.417 337.753 174.057 337.9C174.87 338.087 175.523 338.28 176.017 338.48C176.523 338.667 176.95 338.973 177.297 339.4C177.657 339.827 177.837 340.4 177.837 341.12C177.837 342.013 177.497 342.74 176.817 343.3C176.15 343.86 175.257 344.14 174.137 344.14C172.83 344.14 171.763 343.827 170.937 343.2C170.11 342.573 169.623 341.7 169.477 340.58H171.237C171.303 341.247 171.59 341.787 172.097 342.2C172.617 342.613 173.297 342.82 174.137 342.82C174.763 342.82 175.25 342.66 175.597 342.34C175.957 342.02 176.137 341.6 176.137 341.08C176.137 340.653 176.01 340.313 175.757 340.06C175.503 339.807 175.19 339.613 174.817 339.48C174.443 339.347 173.93 339.207 173.277 339.06C172.463 338.873 171.81 338.687 171.317 338.5C170.837 338.313 170.423 338.02 170.077 337.62C169.743 337.207 169.577 336.653 169.577 335.96C169.577 335.04 169.917 334.3 170.597 333.74C171.277 333.167 172.203 332.88 173.377 332.88ZM72.8 386.74L69.96 383.88C69.2933 384.067 68.6133 384.16 67.92 384.16C66.6133 384.16 65.4267 383.853 64.36 383.24C63.3067 382.627 62.48 381.773 61.88 380.68C61.28 379.573 60.98 378.327 60.98 376.94C60.98 375.553 61.28 374.313 61.88 373.22C62.48 372.113 63.3067 371.253 64.36 370.64C65.4267 370.027 66.6133 369.72 67.92 369.72C69.2267 369.72 70.4 370.027 71.44 370.64C72.4933 371.253 73.32 372.113 73.92 373.22C74.52 374.313 74.82 375.553 74.82 376.94C74.82 378.34 74.52 379.593 73.92 380.7C73.32 381.793 72.4933 382.64 71.44 383.24L75.1 386.74H72.8ZM62.86 376.94C62.86 378.047 63.0733 379.02 63.5 379.86C63.94 380.7 64.54 381.347 65.3 381.8C66.0733 382.24 66.9467 382.46 67.92 382.46C68.88 382.46 69.74 382.233 70.5 381.78C71.2733 381.327 71.8733 380.687 72.3 379.86C72.74 379.02 72.96 378.047 72.96 376.94C72.96 375.82 72.74 374.847 72.3 374.02C71.8733 373.18 71.2733 372.54 70.5 372.1C69.74 371.647 68.88 371.42 67.92 371.42C66.9467 371.42 66.0733 371.647 65.3 372.1C64.54 372.54 63.94 373.18 63.5 374.02C63.0733 374.847 62.86 375.82 62.86 376.94ZM87.0403 373.02V384H85.2203V381.42C84.9403 382.313 84.4403 383 83.7203 383.48C83.0136 383.947 82.187 384.18 81.2403 384.18C79.9736 384.18 78.947 383.773 78.1603 382.96C77.3736 382.133 76.9803 380.953 76.9803 379.42V373.02H78.8003V379.24C78.8003 380.333 79.0803 381.18 79.6403 381.78C80.2003 382.367 80.9603 382.66 81.9203 382.66C82.9203 382.66 83.7203 382.34 84.3203 381.7C84.9203 381.047 85.2203 380.1 85.2203 378.86V373.02H87.0403ZM89.6361 369.8C89.6361 369.467 89.7494 369.2 89.9761 369C90.2028 368.787 90.5028 368.68 90.8761 368.68C91.2494 368.68 91.5494 368.787 91.7761 369C92.0028 369.2 92.1161 369.467 92.1161 369.8C92.1161 370.133 92.0028 370.407 91.7761 370.62C91.5494 370.82 91.2494 370.92 90.8761 370.92C90.5028 370.92 90.2028 370.82 89.9761 370.62C89.7494 370.407 89.6361 370.133 89.6361 369.8ZM91.7761 373.02V384H89.9561V373.02H91.7761ZM99.5622 372.88C100.962 372.88 102.122 373.253 103.042 374C103.962 374.747 104.529 375.747 104.742 377H102.822C102.689 376.213 102.322 375.6 101.722 375.16C101.136 374.707 100.402 374.48 99.5222 374.48C98.8822 374.48 98.2955 374.627 97.7622 374.92C97.2422 375.213 96.8222 375.667 96.5022 376.28C96.1822 376.88 96.0222 377.627 96.0222 378.52C96.0222 379.413 96.1822 380.167 96.5022 380.78C96.8222 381.38 97.2422 381.827 97.7622 382.12C98.2955 382.413 98.8822 382.56 99.5222 382.56C100.402 382.56 101.136 382.333 101.722 381.88C102.322 381.427 102.689 380.807 102.822 380.02H104.742C104.529 381.287 103.962 382.293 103.042 383.04C102.122 383.773 100.962 384.14 99.5622 384.14C98.5089 384.14 97.5755 383.913 96.7622 383.46C95.9489 383.007 95.3089 382.36 94.8422 381.52C94.3889 380.667 94.1622 379.667 94.1622 378.52C94.1622 377.373 94.3889 376.373 94.8422 375.52C95.3089 374.667 95.9489 374.013 96.7622 373.56C97.5755 373.107 98.5089 372.88 99.5622 372.88ZM113.144 384L108.944 379.06V384H107.124V369.2H108.944V377.8L113.084 373.02H115.304L110.384 378.48L115.424 384H113.144ZM118.846 369.2V384H117.026V369.2H118.846ZM122.533 373.02L126.093 381.66L129.393 373.02H131.413L124.893 389.2H122.833L125.113 383.82L120.493 373.02H122.533ZM146.283 380.74H140.083L138.903 384H136.943L142.163 370.16H144.223L149.423 384H147.463L146.283 380.74ZM145.763 379.32L143.183 372.2L140.603 379.32H145.763ZM155.765 372.88C156.831 372.88 157.731 373.147 158.465 373.68C159.211 374.213 159.731 374.927 160.025 375.82V369.2H161.845V384H160.025V381.2C159.731 382.093 159.211 382.807 158.465 383.34C157.731 383.873 156.831 384.14 155.765 384.14C154.791 384.14 153.925 383.913 153.165 383.46C152.405 383.007 151.805 382.36 151.365 381.52C150.938 380.667 150.725 379.667 150.725 378.52C150.725 377.373 150.938 376.373 151.365 375.52C151.805 374.667 152.405 374.013 153.165 373.56C153.925 373.107 154.791 372.88 155.765 372.88ZM156.285 374.5C155.165 374.5 154.265 374.86 153.585 375.58C152.918 376.287 152.585 377.267 152.585 378.52C152.585 379.773 152.918 380.76 153.585 381.48C154.265 382.187 155.165 382.54 156.285 382.54C157.005 382.54 157.645 382.373 158.205 382.04C158.778 381.707 159.225 381.24 159.545 380.64C159.865 380.027 160.025 379.32 160.025 378.52C160.025 377.72 159.865 377.013 159.545 376.4C159.225 375.787 158.778 375.32 158.205 375C157.645 374.667 157.005 374.5 156.285 374.5ZM165.781 370.92C165.408 370.92 165.101 370.82 164.861 370.62C164.635 370.407 164.521 370.133 164.521 369.8C164.521 369.467 164.635 369.2 164.861 369C165.101 368.787 165.408 368.68 165.781 368.68C166.141 368.68 166.435 368.787 166.661 369C166.888 369.2 167.001 369.467 167.001 369.8C167.001 370.133 166.888 370.407 166.661 370.62C166.435 370.82 166.141 370.92 165.781 370.92ZM162.721 387.6H163.481C163.961 387.6 164.308 387.493 164.521 387.28C164.748 387.067 164.861 386.7 164.861 386.18V373.02H166.701V386.24C166.701 388.213 165.701 389.2 163.701 389.2H162.721V387.6ZM179.365 373.02V384H177.545V381.42C177.265 382.313 176.765 383 176.045 383.48C175.338 383.947 174.511 384.18 173.565 384.18C172.298 384.18 171.271 383.773 170.485 382.96C169.698 382.133 169.305 380.953 169.305 379.42V373.02H171.125V379.24C171.125 380.333 171.405 381.18 171.965 381.78C172.525 382.367 173.285 382.66 174.245 382.66C175.245 382.66 176.045 382.34 176.645 381.7C177.245 381.047 177.545 380.1 177.545 378.86V373.02H179.365ZM185.72 372.88C186.96 372.88 187.954 373.207 188.7 373.86C189.46 374.5 189.92 375.367 190.08 376.46H188.34C188.26 375.807 187.987 375.273 187.52 374.86C187.067 374.433 186.454 374.22 185.68 374.22C185.027 374.22 184.514 374.38 184.14 374.7C183.78 375.007 183.6 375.427 183.6 375.96C183.6 376.36 183.72 376.687 183.96 376.94C184.214 377.18 184.52 377.367 184.88 377.5C185.254 377.62 185.76 377.753 186.4 377.9C187.214 378.087 187.867 378.28 188.36 378.48C188.867 378.667 189.294 378.973 189.64 379.4C190 379.827 190.18 380.4 190.18 381.12C190.18 382.013 189.84 382.74 189.16 383.3C188.494 383.86 187.6 384.14 186.48 384.14C185.174 384.14 184.107 383.827 183.28 383.2C182.454 382.573 181.967 381.7 181.82 380.58H183.58C183.647 381.247 183.934 381.787 184.44 382.2C184.96 382.613 185.64 382.82 186.48 382.82C187.107 382.82 187.594 382.66 187.94 382.34C188.3 382.02 188.48 381.6 188.48 381.08C188.48 380.653 188.354 380.313 188.1 380.06C187.847 379.807 187.534 379.613 187.16 379.48C186.787 379.347 186.274 379.207 185.62 379.06C184.807 378.873 184.154 378.687 183.66 378.5C183.18 378.313 182.767 378.02 182.42 377.62C182.087 377.207 181.92 376.653 181.92 375.96C181.92 375.04 182.26 374.3 182.94 373.74C183.62 373.167 184.547 372.88 185.72 372.88ZM197.852 382.4V384H196.492C195.372 384 194.532 383.733 193.972 383.2C193.426 382.667 193.152 381.773 193.152 380.52V374.6H191.512V373.02H193.152V370.28H194.992V373.02H197.832V374.6H194.992V380.56C194.992 381.267 195.119 381.753 195.372 382.02C195.639 382.273 196.092 382.4 196.732 382.4H197.852ZM213.573 372.84C214.853 372.84 215.88 373.253 216.653 374.08C217.44 374.893 217.833 376.073 217.833 377.62V384H216.013V377.78C216.013 376.7 215.747 375.873 215.213 375.3C214.693 374.727 213.973 374.44 213.053 374.44C212.093 374.44 211.32 374.76 210.733 375.4C210.16 376.027 209.873 376.953 209.873 378.18V384H208.053V377.78C208.053 376.7 207.787 375.873 207.253 375.3C206.72 374.727 206 374.44 205.093 374.44C204.12 374.44 203.34 374.76 202.753 375.4C202.18 376.027 201.893 376.953 201.893 378.18V384H200.073V373.02H201.893V375.52C202.16 374.653 202.633 373.993 203.313 373.54C204.007 373.073 204.8 372.84 205.693 372.84C206.627 372.84 207.433 373.08 208.113 373.56C208.807 374.027 209.3 374.72 209.593 375.64C209.9 374.747 210.413 374.06 211.133 373.58C211.853 373.087 212.667 372.84 213.573 372.84ZM230.759 377.9C230.759 378.287 230.733 378.62 230.679 378.9H221.899C221.939 380.153 222.293 381.093 222.959 381.72C223.639 382.347 224.466 382.66 225.439 382.66C226.319 382.66 227.053 382.44 227.639 382C228.239 381.547 228.606 380.947 228.739 380.2H230.679C230.546 380.96 230.246 381.64 229.779 382.24C229.326 382.84 228.733 383.307 227.999 383.64C227.266 383.973 226.439 384.14 225.519 384.14C224.466 384.14 223.533 383.913 222.719 383.46C221.906 383.007 221.266 382.36 220.799 381.52C220.346 380.667 220.119 379.667 220.119 378.52C220.119 377.373 220.346 376.373 220.799 375.52C221.266 374.667 221.906 374.013 222.719 373.56C223.533 373.107 224.466 372.88 225.519 372.88C226.586 372.88 227.513 373.107 228.299 373.56C229.099 374.013 229.706 374.62 230.119 375.38C230.546 376.14 230.759 376.98 230.759 377.9ZM228.919 378.02C228.959 377.207 228.826 376.527 228.519 375.98C228.213 375.433 227.793 375.027 227.259 374.76C226.726 374.493 226.146 374.36 225.519 374.36C224.519 374.36 223.679 374.673 222.999 375.3C222.319 375.913 221.953 376.82 221.899 378.02H228.919ZM238.92 372.84C240.2 372.84 241.233 373.253 242.02 374.08C242.806 374.893 243.2 376.073 243.2 377.62V384H241.38V377.78C241.38 376.687 241.1 375.847 240.54 375.26C239.98 374.673 239.22 374.38 238.26 374.38C237.26 374.38 236.46 374.707 235.86 375.36C235.26 376 234.96 376.94 234.96 378.18V384H233.14V373.02H234.96V375.62C235.24 374.727 235.733 374.04 236.44 373.56C237.16 373.08 237.986 372.84 238.92 372.84ZM251.231 382.4V384H249.871C248.751 384 247.911 383.733 247.351 383.2C246.805 382.667 246.531 381.773 246.531 380.52V374.6H244.891V373.02H246.531V370.28H248.371V373.02H251.211V374.6H248.371V380.56C248.371 381.267 248.498 381.753 248.751 382.02C249.018 382.273 249.471 382.4 250.111 382.4H251.231ZM256.892 372.88C258.132 372.88 259.126 373.207 259.872 373.86C260.632 374.5 261.092 375.367 261.252 376.46H259.512C259.432 375.807 259.159 375.273 258.692 374.86C258.239 374.433 257.626 374.22 256.852 374.22C256.199 374.22 255.686 374.38 255.312 374.7C254.952 375.007 254.772 375.427 254.772 375.96C254.772 376.36 254.892 376.687 255.132 376.94C255.386 377.18 255.692 377.367 256.052 377.5C256.426 377.62 256.932 377.753 257.572 377.9C258.386 378.087 259.039 378.28 259.532 378.48C260.039 378.667 260.466 378.973 260.812 379.4C261.172 379.827 261.352 380.4 261.352 381.12C261.352 382.013 261.012 382.74 260.332 383.3C259.666 383.86 258.772 384.14 257.652 384.14C256.346 384.14 255.279 383.827 254.452 383.2C253.626 382.573 253.139 381.7 252.992 380.58H254.752C254.819 381.247 255.106 381.787 255.612 382.2C256.132 382.613 256.812 382.82 257.652 382.82C258.279 382.82 258.766 382.66 259.112 382.34C259.472 382.02 259.652 381.6 259.652 381.08C259.652 380.653 259.526 380.313 259.272 380.06C259.019 379.807 258.706 379.613 258.332 379.48C257.959 379.347 257.446 379.207 256.792 379.06C255.979 378.873 255.326 378.687 254.832 378.5C254.352 378.313 253.939 378.02 253.592 377.62C253.259 377.207 253.092 376.653 253.092 375.96C253.092 375.04 253.432 374.3 254.112 373.74C254.792 373.167 255.719 372.88 256.892 372.88ZM63.28 411.38V416.2H68.64V417.6H63.28V422.52H69.24V424H61.46V409.9H69.24V411.38H63.28ZM76.0772 412.88C77.1439 412.88 78.0439 413.147 78.7772 413.68C79.5239 414.213 80.0439 414.927 80.3372 415.82V413.02H82.1572V424H80.3372V421.2C80.0439 422.093 79.5239 422.807 78.7772 423.34C78.0439 423.873 77.1439 424.14 76.0772 424.14C75.1039 424.14 74.2372 423.913 73.4772 423.46C72.7172 423.007 72.1172 422.36 71.6772 421.52C71.2505 420.667 71.0372 419.667 71.0372 418.52C71.0372 417.373 71.2505 416.373 71.6772 415.52C72.1172 414.667 72.7172 414.013 73.4772 413.56C74.2372 413.107 75.1039 412.88 76.0772 412.88ZM76.5972 414.5C75.4772 414.5 74.5772 414.86 73.8972 415.58C73.2305 416.287 72.8972 417.267 72.8972 418.52C72.8972 419.773 73.2305 420.76 73.8972 421.48C74.5772 422.187 75.4772 422.54 76.5972 422.54C77.3172 422.54 77.9572 422.373 78.5172 422.04C79.0905 421.707 79.5372 421.24 79.8572 420.64C80.1772 420.027 80.3372 419.32 80.3372 418.52C80.3372 417.72 80.1772 417.013 79.8572 416.4C79.5372 415.787 79.0905 415.32 78.5172 415C77.9572 414.667 77.3172 414.5 76.5972 414.5ZM88.4938 412.88C89.7338 412.88 90.7271 413.207 91.4738 413.86C92.2338 414.5 92.6938 415.367 92.8538 416.46H91.1138C91.0338 415.807 90.7604 415.273 90.2938 414.86C89.8404 414.433 89.2271 414.22 88.4538 414.22C87.8004 414.22 87.2871 414.38 86.9138 414.7C86.5538 415.007 86.3738 415.427 86.3738 415.96C86.3738 416.36 86.4938 416.687 86.7338 416.94C86.9871 417.18 87.2938 417.367 87.6538 417.5C88.0271 417.62 88.5338 417.753 89.1738 417.9C89.9871 418.087 90.6404 418.28 91.1338 418.48C91.6404 418.667 92.0671 418.973 92.4138 419.4C92.7738 419.827 92.9538 420.4 92.9538 421.12C92.9538 422.013 92.6138 422.74 91.9338 423.3C91.2671 423.86 90.3738 424.14 89.2538 424.14C87.9471 424.14 86.8804 423.827 86.0538 423.2C85.2271 422.573 84.7404 421.7 84.5938 420.58H86.3538C86.4204 421.247 86.7071 421.787 87.2138 422.2C87.7338 422.613 88.4138 422.82 89.2538 422.82C89.8804 422.82 90.3671 422.66 90.7138 422.34C91.0738 422.02 91.2538 421.6 91.2538 421.08C91.2538 420.653 91.1271 420.313 90.8738 420.06C90.6204 419.807 90.3071 419.613 89.9338 419.48C89.5604 419.347 89.0471 419.207 88.3938 419.06C87.5804 418.873 86.9271 418.687 86.4338 418.5C85.9538 418.313 85.5404 418.02 85.1938 417.62C84.8604 417.207 84.6938 416.653 84.6938 415.96C84.6938 415.04 85.0338 414.3 85.7138 413.74C86.3938 413.167 87.3204 412.88 88.4938 412.88ZM96.1458 413.02L99.7058 421.66L103.006 413.02H105.026L98.5058 429.2H96.4458L98.7258 423.82L94.1058 413.02H96.1458ZM117.876 409.76C119.596 409.76 121.016 410.187 122.136 411.04C123.256 411.88 124.029 413.033 124.456 414.5H122.536C122.176 413.567 121.596 412.827 120.796 412.28C119.996 411.72 119.016 411.44 117.856 411.44C116.936 411.44 116.109 411.667 115.376 412.12C114.656 412.56 114.082 413.2 113.656 414.04C113.242 414.867 113.036 415.84 113.036 416.96C113.036 418.067 113.242 419.033 113.656 419.86C114.082 420.687 114.656 421.327 115.376 421.78C116.109 422.22 116.936 422.44 117.856 422.44C119.016 422.44 119.996 422.167 120.796 421.62C121.596 421.06 122.176 420.313 122.536 419.38H124.456C124.029 420.847 123.256 422.007 122.136 422.86C121.016 423.7 119.596 424.12 117.876 424.12C116.556 424.12 115.389 423.82 114.376 423.22C113.362 422.607 112.569 421.76 111.996 420.68C111.436 419.587 111.156 418.347 111.156 416.96C111.156 415.56 111.436 414.313 111.996 413.22C112.569 412.127 113.362 411.28 114.376 410.68C115.389 410.067 116.556 409.76 117.876 409.76ZM131.87 412.88C132.923 412.88 133.863 413.107 134.69 413.56C135.53 414.013 136.183 414.667 136.65 415.52C137.13 416.373 137.37 417.373 137.37 418.52C137.37 419.667 137.13 420.667 136.65 421.52C136.183 422.36 135.53 423.007 134.69 423.46C133.863 423.913 132.923 424.14 131.87 424.14C130.816 424.14 129.87 423.913 129.03 423.46C128.203 423.007 127.55 422.36 127.07 421.52C126.59 420.667 126.35 419.667 126.35 418.52C126.35 417.373 126.59 416.373 127.07 415.52C127.55 414.667 128.203 414.013 129.03 413.56C129.87 413.107 130.816 412.88 131.87 412.88ZM131.87 414.48C131.216 414.48 130.61 414.627 130.05 414.92C129.503 415.213 129.056 415.667 128.71 416.28C128.376 416.88 128.21 417.627 128.21 418.52C128.21 419.4 128.376 420.147 128.71 420.76C129.056 421.36 129.503 421.807 130.05 422.1C130.61 422.393 131.216 422.54 131.87 422.54C132.523 422.54 133.123 422.393 133.67 422.1C134.23 421.807 134.676 421.36 135.01 420.76C135.356 420.147 135.53 419.4 135.53 418.52C135.53 417.627 135.356 416.88 135.01 416.28C134.676 415.667 134.23 415.213 133.67 414.92C133.123 414.627 132.523 414.48 131.87 414.48ZM153.241 412.84C154.521 412.84 155.548 413.253 156.321 414.08C157.108 414.893 157.501 416.073 157.501 417.62V424H155.681V417.78C155.681 416.7 155.415 415.873 154.881 415.3C154.361 414.727 153.641 414.44 152.721 414.44C151.761 414.44 150.988 414.76 150.401 415.4C149.828 416.027 149.541 416.953 149.541 418.18V424H147.721V417.78C147.721 416.7 147.455 415.873 146.921 415.3C146.388 414.727 145.668 414.44 144.761 414.44C143.788 414.44 143.008 414.76 142.421 415.4C141.848 416.027 141.561 416.953 141.561 418.18V424H139.741V413.02H141.561V415.52C141.828 414.653 142.301 413.993 142.981 413.54C143.675 413.073 144.468 412.84 145.361 412.84C146.295 412.84 147.101 413.08 147.781 413.56C148.475 414.027 148.968 414.72 149.261 415.64C149.568 414.747 150.081 414.06 150.801 413.58C151.521 413.087 152.335 412.84 153.241 412.84ZM166.387 412.88C167.361 412.88 168.227 413.107 168.987 413.56C169.747 414.013 170.341 414.667 170.767 415.52C171.207 416.373 171.427 417.373 171.427 418.52C171.427 419.667 171.207 420.667 170.767 421.52C170.341 422.36 169.747 423.007 168.987 423.46C168.227 423.913 167.361 424.14 166.387 424.14C165.321 424.14 164.414 423.873 163.667 423.34C162.934 422.793 162.427 422.08 162.147 421.2V429.2H160.327V413.02H162.147V415.82C162.427 414.94 162.934 414.233 163.667 413.7C164.414 413.153 165.321 412.88 166.387 412.88ZM165.867 414.5C165.161 414.5 164.521 414.667 163.947 415C163.374 415.32 162.927 415.787 162.607 416.4C162.287 417.013 162.127 417.72 162.127 418.52C162.127 419.32 162.287 420.027 162.607 420.64C162.927 421.24 163.374 421.707 163.947 422.04C164.521 422.373 165.161 422.54 165.867 422.54C167.001 422.54 167.901 422.187 168.567 421.48C169.247 420.76 169.587 419.773 169.587 418.52C169.587 417.267 169.247 416.287 168.567 415.58C167.901 414.86 167.001 414.5 165.867 414.5ZM178.304 412.88C179.37 412.88 180.27 413.147 181.004 413.68C181.75 414.213 182.27 414.927 182.564 415.82V413.02H184.384V424H182.564V421.2C182.27 422.093 181.75 422.807 181.004 423.34C180.27 423.873 179.37 424.14 178.304 424.14C177.33 424.14 176.464 423.913 175.704 423.46C174.944 423.007 174.344 422.36 173.904 421.52C173.477 420.667 173.264 419.667 173.264 418.52C173.264 417.373 173.477 416.373 173.904 415.52C174.344 414.667 174.944 414.013 175.704 413.56C176.464 413.107 177.33 412.88 178.304 412.88ZM178.824 414.5C177.704 414.5 176.804 414.86 176.124 415.58C175.457 416.287 175.124 417.267 175.124 418.52C175.124 419.773 175.457 420.76 176.124 421.48C176.804 422.187 177.704 422.54 178.824 422.54C179.544 422.54 180.184 422.373 180.744 422.04C181.317 421.707 181.764 421.24 182.084 420.64C182.404 420.027 182.564 419.32 182.564 418.52C182.564 417.72 182.404 417.013 182.084 416.4C181.764 415.787 181.317 415.32 180.744 415C180.184 414.667 179.544 414.5 178.824 414.5ZM189.1 415.24C189.46 414.48 189.987 413.893 190.68 413.48C191.374 413.053 192.2 412.84 193.16 412.84V414.82H192.6C191.574 414.82 190.734 415.087 190.08 415.62C189.427 416.14 189.1 417.007 189.1 418.22V424H187.28V413.02H189.1V415.24ZM194.636 409.8C194.636 409.467 194.749 409.2 194.976 409C195.203 408.787 195.503 408.68 195.876 408.68C196.249 408.68 196.549 408.787 196.776 409C197.003 409.2 197.116 409.467 197.116 409.8C197.116 410.133 197.003 410.407 196.776 410.62C196.549 410.82 196.249 410.92 195.876 410.92C195.503 410.92 195.203 410.82 194.976 410.62C194.749 410.407 194.636 410.133 194.636 409.8ZM196.776 413.02V424H194.956V413.02H196.776ZM203.142 412.88C204.382 412.88 205.376 413.207 206.122 413.86C206.882 414.5 207.342 415.367 207.502 416.46H205.762C205.682 415.807 205.409 415.273 204.942 414.86C204.489 414.433 203.876 414.22 203.102 414.22C202.449 414.22 201.936 414.38 201.562 414.7C201.202 415.007 201.022 415.427 201.022 415.96C201.022 416.36 201.142 416.687 201.382 416.94C201.636 417.18 201.942 417.367 202.302 417.5C202.676 417.62 203.182 417.753 203.822 417.9C204.636 418.087 205.289 418.28 205.782 418.48C206.289 418.667 206.716 418.973 207.062 419.4C207.422 419.827 207.602 420.4 207.602 421.12C207.602 422.013 207.262 422.74 206.582 423.3C205.916 423.86 205.022 424.14 203.902 424.14C202.596 424.14 201.529 423.827 200.702 423.2C199.876 422.573 199.389 421.7 199.242 420.58H201.002C201.069 421.247 201.356 421.787 201.862 422.2C202.382 422.613 203.062 422.82 203.902 422.82C204.529 422.82 205.016 422.66 205.362 422.34C205.722 422.02 205.902 421.6 205.902 421.08C205.902 420.653 205.776 420.313 205.522 420.06C205.269 419.807 204.956 419.613 204.582 419.48C204.209 419.347 203.696 419.207 203.042 419.06C202.229 418.873 201.576 418.687 201.082 418.5C200.602 418.313 200.189 418.02 199.842 417.62C199.509 417.207 199.342 416.653 199.342 415.96C199.342 415.04 199.682 414.3 200.362 413.74C201.042 413.167 201.969 412.88 203.142 412.88ZM209.714 409.8C209.714 409.467 209.828 409.2 210.054 409C210.281 408.787 210.581 408.68 210.954 408.68C211.328 408.68 211.628 408.787 211.854 409C212.081 409.2 212.194 409.467 212.194 409.8C212.194 410.133 212.081 410.407 211.854 410.62C211.628 410.82 211.328 410.92 210.954 410.92C210.581 410.92 210.281 410.82 210.054 410.62C209.828 410.407 209.714 410.133 209.714 409.8ZM211.854 413.02V424H210.034V413.02H211.854ZM219.76 412.88C220.814 412.88 221.754 413.107 222.58 413.56C223.42 414.013 224.074 414.667 224.54 415.52C225.02 416.373 225.26 417.373 225.26 418.52C225.26 419.667 225.02 420.667 224.54 421.52C224.074 422.36 223.42 423.007 222.58 423.46C221.754 423.913 220.814 424.14 219.76 424.14C218.707 424.14 217.76 423.913 216.92 423.46C216.094 423.007 215.44 422.36 214.96 421.52C214.48 420.667 214.24 419.667 214.24 418.52C214.24 417.373 214.48 416.373 214.96 415.52C215.44 414.667 216.094 414.013 216.92 413.56C217.76 413.107 218.707 412.88 219.76 412.88ZM219.76 414.48C219.107 414.48 218.5 414.627 217.94 414.92C217.394 415.213 216.947 415.667 216.6 416.28C216.267 416.88 216.1 417.627 216.1 418.52C216.1 419.4 216.267 420.147 216.6 420.76C216.947 421.36 217.394 421.807 217.94 422.1C218.5 422.393 219.107 422.54 219.76 422.54C220.414 422.54 221.014 422.393 221.56 422.1C222.12 421.807 222.567 421.36 222.9 420.76C223.247 420.147 223.42 419.4 223.42 418.52C223.42 417.627 223.247 416.88 222.9 416.28C222.567 415.667 222.12 415.213 221.56 414.92C221.014 414.627 220.414 414.48 219.76 414.48ZM233.412 412.84C234.692 412.84 235.725 413.253 236.512 414.08C237.299 414.893 237.692 416.073 237.692 417.62V424H235.872V417.78C235.872 416.687 235.592 415.847 235.032 415.26C234.472 414.673 233.712 414.38 232.752 414.38C231.752 414.38 230.952 414.707 230.352 415.36C229.752 416 229.452 416.94 229.452 418.18V424H227.632V413.02H229.452V415.62C229.732 414.727 230.225 414.04 230.932 413.56C231.652 413.08 232.479 412.84 233.412 412.84ZM243.923 412.88C245.163 412.88 246.157 413.207 246.903 413.86C247.663 414.5 248.123 415.367 248.283 416.46H246.543C246.463 415.807 246.19 415.273 245.723 414.86C245.27 414.433 244.657 414.22 243.883 414.22C243.23 414.22 242.717 414.38 242.343 414.7C241.983 415.007 241.803 415.427 241.803 415.96C241.803 416.36 241.923 416.687 242.163 416.94C242.417 417.18 242.723 417.367 243.083 417.5C243.457 417.62 243.963 417.753 244.603 417.9C245.417 418.087 246.07 418.28 246.563 418.48C247.07 418.667 247.497 418.973 247.843 419.4C248.203 419.827 248.383 420.4 248.383 421.12C248.383 422.013 248.043 422.74 247.363 423.3C246.697 423.86 245.803 424.14 244.683 424.14C243.377 424.14 242.31 423.827 241.483 423.2C240.657 422.573 240.17 421.7 240.023 420.58H241.783C241.85 421.247 242.137 421.787 242.643 422.2C243.163 422.613 243.843 422.82 244.683 422.82C245.31 422.82 245.797 422.66 246.143 422.34C246.503 422.02 246.683 421.6 246.683 421.08C246.683 420.653 246.557 420.313 246.303 420.06C246.05 419.807 245.737 419.613 245.363 419.48C244.99 419.347 244.477 419.207 243.823 419.06C243.01 418.873 242.357 418.687 241.863 418.5C241.383 418.313 240.97 418.02 240.623 417.62C240.29 417.207 240.123 416.653 240.123 415.96C240.123 415.04 240.463 414.3 241.143 413.74C241.823 413.167 242.75 412.88 243.923 412.88Z" fill="#606060"/>
<path d="M38.6 375.4C35.6154 375.4 33.2 377.815 33.2 380.8C33.2 383.785 35.6154 386.2 38.6 386.2C41.5846 386.2 44 383.785 44 380.8C44 377.815 41.5846 375.4 38.6 375.4ZM41 381.036C41 381.236 40.8361 381.4 40.6359 381.4H38.3645C38.1643 381.4 38.0004 381.236 38.0004 381.036V378.165C38.0004 377.964 38.1643 377.8 38.3645 377.8H38.8359C39.0361 377.8 39.2 377.964 39.2 378.165V380.2H40.6359C40.8361 380.2 41 380.364 41 380.564V381.036ZM38.6 374.2C38.8025 374.2 39.002 374.212 39.2 374.23V372.4C39.2 371.44 38.36 370.6 37.4 370.6H34.4V368.8C34.4 367.84 33.56 367 32.6 367H26.6C25.64 367 24.8 367.84 24.8 368.8V370.6H21.8C20.84 370.6 20 371.44 20 372.4V375.4H34.817C35.8895 374.647 37.1926 374.2 38.6 374.2ZM32 370.6H27.2V369.4H32V370.6ZM32.2558 379H27.8C27.4685 379 27.2 378.732 27.2 378.4V376.6H20V382C20 382.96 20.84 383.8 21.8 383.8H32.7286C32.2663 382.899 32 381.881 32 380.8C32 380.175 32.093 379.573 32.2558 379Z" fill="#0852AC"/>
<path d="M39.7449 420.126C38.7175 420.96 37.5862 421.651 36.3594 422.138L38.5899 426.001L40.8027 426.946C41.2051 427.118 41.6596 426.856 41.7121 426.421L42 424.032L39.7449 420.126ZM41.4877 416.248C41.687 415.933 41.5652 415.51 41.2396 415.33L40.0882 414.691C39.7814 414.521 39.4069 414.631 39.2162 414.926C37.53 417.531 34.6277 419.125 31.5002 419.125C30.5187 419.125 29.563 418.95 28.6533 418.652L31.4161 413.866C31.4448 413.867 31.4711 413.875 31.4998 413.875C31.5285 413.875 31.5552 413.867 31.5835 413.866L33.679 417.496C34.9599 417.129 36.1219 416.44 37.0674 415.49L34.9431 411.81C35.2487 411.251 35.4378 410.62 35.4378 409.937C35.4378 407.763 33.6749 406 31.5002 406C29.3255 406 27.5626 407.763 27.5626 409.937C27.5626 410.62 27.7517 411.251 28.0569 411.81L25.2555 416.663C24.7407 416.186 24.2727 415.654 23.874 415.063C23.6776 414.772 23.301 414.669 22.9971 414.844L21.8589 415.504C21.5369 415.69 21.4229 416.115 21.6276 416.425C22.2662 417.395 23.0504 418.238 23.9237 418.969L21 424.033L21.2879 426.422C21.3404 426.856 21.7949 427.119 22.1973 426.947L24.4101 426.002L27.3141 420.972C28.6344 421.474 30.049 421.75 31.5002 421.75C35.5629 421.75 39.3294 419.658 41.4877 416.248ZM31.5002 408.625C32.225 408.625 32.8127 409.213 32.8127 409.937C32.8127 410.662 32.225 411.25 31.5002 411.25C30.7754 411.25 30.1877 410.662 30.1877 409.937C30.1877 409.213 30.7754 408.625 31.5002 408.625Z" fill="#0852AC"/>
<g clip-path="url(#clip0_75_110)">
<path d="M34.8215 345.127L31.2639 348.684C30.8428 349.105 30.1602 349.105 29.7392 348.684L26.1815 345.127C25.5024 344.447 25.9834 343.286 26.9439 343.286H29.2422L29.2422 338.758H24.7139V341.056C24.7139 342.017 23.5526 342.498 22.8734 341.818L19.3157 338.261C18.8947 337.84 18.8947 337.157 19.3157 336.736L22.8734 333.178C23.5525 332.499 24.7139 332.98 24.7139 333.941V336.242H29.2422V331.714H26.9408C25.9803 331.714 25.4993 330.553 26.1784 329.873L29.7361 326.316C30.1571 325.895 30.8397 325.895 31.2608 326.316L34.8184 329.873C35.4976 330.553 35.0166 331.714 34.056 331.714H31.7577V336.242H36.286V333.944C36.286 332.983 37.4473 332.502 38.1265 333.181L41.6841 336.739C42.1052 337.16 42.1052 337.843 41.6841 338.264L38.1265 341.821C37.4473 342.501 36.286 342.02 36.286 341.059V338.758H31.7578V343.286H34.0591C35.0197 343.286 35.5007 344.447 34.8215 345.127Z" fill="#0852AC"/>
</g>
<defs>
<clipPath id="clip0_75_110">
<rect width="23" height="23" fill="white" transform="translate(19 326)"/>
</clipPath>
</defs>
</svg>
