<svg width="170" height="112" viewBox="0 0 170 112" fill="none" xmlns="http://www.w3.org/2000/svg">
<path d="M48.176 61.296C61.744 51.6107 68.528 43.9093 68.528 38.192C68.528 34.6933 67.0133 32.944 63.984 32.944C62.2773 32.944 61.0187 33.5413 60.208 34.736C59.44 35.9307 59.0133 37.7867 58.928 40.304H48.24C48.496 34.8 50.16 30.6613 53.232 27.888C56.304 25.1147 60.1867 23.728 64.88 23.728C69.7867 23.728 73.4773 24.9653 75.952 27.44C78.4693 29.9147 79.728 33.136 79.728 37.104C79.728 41.4987 78.0427 45.808 74.672 50.032C71.3013 54.2133 67.2693 57.7547 62.576 60.656H80.432V69.488H48.176V61.296ZM86.538 34.928C86.538 32.752 87.1567 30.704 88.394 28.784C89.6313 26.864 91.466 25.3067 93.898 24.112C96.3727 22.9173 99.3593 22.32 102.858 22.32C106.399 22.32 109.386 22.9173 111.818 24.112C114.293 25.3067 116.127 26.864 117.322 28.784C118.559 30.704 119.178 32.752 119.178 34.928C119.178 37.3173 118.623 39.3653 117.514 41.072C116.405 42.736 114.783 44.016 112.65 44.912C117.727 47.1733 120.266 50.992 120.266 56.368C120.266 59.44 119.498 62.0853 117.962 64.304C116.426 66.48 114.335 68.144 111.69 69.296C109.087 70.4053 106.143 70.96 102.858 70.96C99.6153 70.96 96.6713 70.4053 94.026 69.296C91.3807 68.144 89.29 66.48 87.754 64.304C86.218 62.0853 85.45 59.44 85.45 56.368C85.45 50.992 87.9887 47.1733 93.066 44.912C90.9327 44.016 89.3113 42.736 88.202 41.072C87.0927 39.3653 86.538 37.3173 86.538 34.928ZM97.29 36.784C97.29 38.5333 97.7807 39.8773 98.762 40.816C99.786 41.712 101.151 42.16 102.858 42.16C104.565 42.16 105.909 41.712 106.89 40.816C107.914 39.8773 108.426 38.5333 108.426 36.784C108.426 35.0773 107.914 33.7333 106.89 32.752C105.866 31.7707 104.522 31.28 102.858 31.28C101.194 31.28 99.85 31.7707 98.826 32.752C97.802 33.7333 97.29 35.0773 97.29 36.784ZM96.074 55.728C96.074 57.648 96.6713 59.1627 97.866 60.272C99.1033 61.3813 100.767 61.936 102.858 61.936C104.949 61.936 106.591 61.3813 107.786 60.272C109.023 59.1627 109.642 57.648 109.642 55.728C109.642 53.808 109.002 52.3147 107.722 51.248C106.485 50.1387 104.863 49.584 102.858 49.584C100.853 49.584 99.21 50.1387 97.93 51.248C96.6927 52.3147 96.074 53.808 96.074 55.728Z" fill="#06629E"/>
<path d="M5.148 103.254L8.208 95.118H9.972L6.102 105H4.158L0.288 95.118H2.052L5.148 103.254ZM15.6296 94.992C16.5896 94.992 17.3996 95.232 18.0596 95.712C18.7316 96.192 19.1996 96.834 19.4636 97.638V95.118H21.1016V105H19.4636V102.48C19.1996 103.284 18.7316 103.926 18.0596 104.406C17.3996 104.886 16.5896 105.126 15.6296 105.126C14.7536 105.126 13.9736 104.922 13.2896 104.514C12.6056 104.106 12.0656 103.524 11.6696 102.768C11.2856 102 11.0936 101.1 11.0936 100.068C11.0936 99.036 11.2856 98.136 11.6696 97.368C12.0656 96.6 12.6056 96.012 13.2896 95.604C13.9736 95.196 14.7536 94.992 15.6296 94.992ZM16.0976 96.45C15.0896 96.45 14.2796 96.774 13.6676 97.422C13.0676 98.058 12.7676 98.94 12.7676 100.068C12.7676 101.196 13.0676 102.084 13.6676 102.732C14.2796 103.368 15.0896 103.686 16.0976 103.686C16.7456 103.686 17.3216 103.536 17.8256 103.236C18.3416 102.936 18.7436 102.516 19.0316 101.976C19.3196 101.424 19.4636 100.788 19.4636 100.068C19.4636 99.348 19.3196 98.712 19.0316 98.16C18.7436 97.608 18.3416 97.188 17.8256 96.9C17.3216 96.6 16.7456 96.45 16.0976 96.45ZM25.3465 91.68V105H23.7085V91.68H25.3465ZM36.764 95.118V105H35.126V102.678C34.874 103.482 34.424 104.1 33.776 104.532C33.14 104.952 32.396 105.162 31.544 105.162C30.404 105.162 29.48 104.796 28.772 104.064C28.064 103.32 27.71 102.258 27.71 100.878V95.118H29.348V100.716C29.348 101.7 29.6 102.462 30.104 103.002C30.608 103.53 31.292 103.794 32.156 103.794C33.056 103.794 33.776 103.506 34.316 102.93C34.856 102.342 35.126 101.49 35.126 100.374V95.118H36.764ZM43.4382 94.992C44.3982 94.992 45.2082 95.232 45.8682 95.712C46.5402 96.192 47.0082 96.834 47.2722 97.638V95.118H48.9102V105H47.2722V102.48C47.0082 103.284 46.5402 103.926 45.8682 104.406C45.2082 104.886 44.3982 105.126 43.4382 105.126C42.5622 105.126 41.7822 104.922 41.0982 104.514C40.4142 104.106 39.8742 103.524 39.4782 102.768C39.0942 102 38.9022 101.1 38.9022 100.068C38.9022 99.036 39.0942 98.136 39.4782 97.368C39.8742 96.6 40.4142 96.012 41.0982 95.604C41.7822 95.196 42.5622 94.992 43.4382 94.992ZM43.9062 96.45C42.8982 96.45 42.0882 96.774 41.4762 97.422C40.8762 98.058 40.5762 98.94 40.5762 100.068C40.5762 101.196 40.8762 102.084 41.4762 102.732C42.0882 103.368 42.8982 103.686 43.9062 103.686C44.5542 103.686 45.1302 103.536 45.6342 103.236C46.1502 102.936 46.5522 102.516 46.8402 101.976C47.1282 101.424 47.2722 100.788 47.2722 100.068C47.2722 99.348 47.1282 98.712 46.8402 98.16C46.5522 97.608 46.1502 97.188 45.6342 96.9C45.1302 96.6 44.5542 96.45 43.9062 96.45ZM56.2331 103.56V105H55.0091C54.0011 105 53.2451 104.76 52.7411 104.28C52.2491 103.8 52.0031 102.996 52.0031 101.868V96.54H50.5271V95.118H52.0031V92.652H53.6591V95.118H56.2151V96.54H53.6591V101.904C53.6591 102.54 53.7731 102.978 54.0011 103.218C54.2411 103.446 54.6491 103.56 55.2251 103.56H56.2331ZM57.944 92.22C57.944 91.92 58.046 91.68 58.25 91.5C58.454 91.308 58.724 91.212 59.06 91.212C59.396 91.212 59.666 91.308 59.87 91.5C60.074 91.68 60.176 91.92 60.176 92.22C60.176 92.52 60.074 92.766 59.87 92.958C59.666 93.138 59.396 93.228 59.06 93.228C58.724 93.228 58.454 93.138 58.25 92.958C58.046 92.766 57.944 92.52 57.944 92.22ZM59.87 95.118V105H58.232V95.118H59.87ZM66.9855 94.992C67.9335 94.992 68.7795 95.196 69.5235 95.604C70.2795 96.012 70.8675 96.6 71.2875 97.368C71.7195 98.136 71.9355 99.036 71.9355 100.068C71.9355 101.1 71.7195 102 71.2875 102.768C70.8675 103.524 70.2795 104.106 69.5235 104.514C68.7795 104.922 67.9335 105.126 66.9855 105.126C66.0375 105.126 65.1855 104.922 64.4295 104.514C63.6855 104.106 63.0975 103.524 62.6655 102.768C62.2335 102 62.0175 101.1 62.0175 100.068C62.0175 99.036 62.2335 98.136 62.6655 97.368C63.0975 96.6 63.6855 96.012 64.4295 95.604C65.1855 95.196 66.0375 94.992 66.9855 94.992ZM66.9855 96.432C66.3975 96.432 65.8515 96.564 65.3475 96.828C64.8555 97.092 64.4535 97.5 64.1415 98.052C63.8415 98.592 63.6915 99.264 63.6915 100.068C63.6915 100.86 63.8415 101.532 64.1415 102.084C64.4535 102.624 64.8555 103.026 65.3475 103.29C65.8515 103.554 66.3975 103.686 66.9855 103.686C67.5735 103.686 68.1135 103.554 68.6055 103.29C69.1095 103.026 69.5115 102.624 69.8115 102.084C70.1235 101.532 70.2795 100.86 70.2795 100.068C70.2795 99.264 70.1235 98.592 69.8115 98.052C69.5115 97.5 69.1095 97.092 68.6055 96.828C68.1135 96.564 67.5735 96.432 66.9855 96.432ZM79.2719 94.956C80.4239 94.956 81.3539 95.328 82.0619 96.072C82.7699 96.804 83.1239 97.866 83.1239 99.258V105H81.4859V99.402C81.4859 98.418 81.2339 97.662 80.7299 97.134C80.2259 96.606 79.5419 96.342 78.6779 96.342C77.7779 96.342 77.0579 96.636 76.5179 97.224C75.9779 97.8 75.7079 98.646 75.7079 99.762V105H74.0699V95.118H75.7079V97.458C75.9599 96.654 76.4039 96.036 77.0399 95.604C77.6879 95.172 78.4319 94.956 79.2719 94.956ZM102.234 94.956C103.386 94.956 104.31 95.328 105.006 96.072C105.714 96.804 106.068 97.866 106.068 99.258V105H104.43V99.402C104.43 98.43 104.19 97.686 103.71 97.17C103.242 96.654 102.594 96.396 101.766 96.396C100.902 96.396 100.206 96.684 99.6775 97.26C99.1615 97.824 98.9035 98.658 98.9035 99.762V105H97.2655V99.402C97.2655 98.43 97.0255 97.686 96.5455 97.17C96.0655 96.654 95.4175 96.396 94.6015 96.396C93.7255 96.396 93.0235 96.684 92.4955 97.26C91.9795 97.824 91.7215 98.658 91.7215 99.762V105H90.0835V95.118H91.7215V97.368C91.9615 96.588 92.3875 95.994 92.9995 95.586C93.6235 95.166 94.3375 94.956 95.1415 94.956C95.9815 94.956 96.7075 95.172 97.3195 95.604C97.9435 96.024 98.3875 96.648 98.6515 97.476C98.9275 96.672 99.3895 96.054 100.038 95.622C100.686 95.178 101.418 94.956 102.234 94.956ZM117.701 99.51C117.701 99.858 117.677 100.158 117.629 100.41H109.727C109.763 101.538 110.081 102.384 110.681 102.948C111.293 103.512 112.037 103.794 112.913 103.794C113.705 103.794 114.365 103.596 114.893 103.2C115.433 102.792 115.763 102.252 115.883 101.58H117.629C117.509 102.264 117.239 102.876 116.819 103.416C116.411 103.956 115.877 104.376 115.217 104.676C114.557 104.976 113.813 105.126 112.985 105.126C112.037 105.126 111.197 104.922 110.465 104.514C109.733 104.106 109.157 103.524 108.737 102.768C108.329 102 108.125 101.1 108.125 100.068C108.125 99.036 108.329 98.136 108.737 97.368C109.157 96.6 109.733 96.012 110.465 95.604C111.197 95.196 112.037 94.992 112.985 94.992C113.945 94.992 114.779 95.196 115.487 95.604C116.207 96.012 116.753 96.558 117.125 97.242C117.509 97.926 117.701 98.682 117.701 99.51ZM116.045 99.618C116.081 98.886 115.961 98.274 115.685 97.782C115.409 97.29 115.031 96.924 114.551 96.684C114.071 96.444 113.549 96.324 112.985 96.324C112.085 96.324 111.329 96.606 110.717 97.17C110.105 97.722 109.775 98.538 109.727 99.618H116.045ZM124.559 103.56V105H123.335C122.327 105 121.571 104.76 121.067 104.28C120.575 103.8 120.329 102.996 120.329 101.868V96.54H118.853V95.118H120.329V92.652H121.985V95.118H124.541V96.54H121.985V101.904C121.985 102.54 122.099 102.978 122.327 103.218C122.567 103.446 122.975 103.56 123.551 103.56H124.559ZM131.76 94.956C132.912 94.956 133.842 95.328 134.55 96.072C135.258 96.804 135.612 97.866 135.612 99.258V105H133.974V99.402C133.974 98.418 133.722 97.662 133.218 97.134C132.714 96.606 132.03 96.342 131.166 96.342C130.266 96.342 129.546 96.636 129.006 97.224C128.466 97.8 128.196 98.646 128.196 99.762V105H126.558V91.68H128.196V97.458C128.448 96.654 128.892 96.036 129.528 95.604C130.176 95.172 130.92 94.956 131.76 94.956ZM142.607 94.992C143.555 94.992 144.401 95.196 145.145 95.604C145.901 96.012 146.489 96.6 146.909 97.368C147.341 98.136 147.557 99.036 147.557 100.068C147.557 101.1 147.341 102 146.909 102.768C146.489 103.524 145.901 104.106 145.145 104.514C144.401 104.922 143.555 105.126 142.607 105.126C141.659 105.126 140.807 104.922 140.051 104.514C139.307 104.106 138.719 103.524 138.287 102.768C137.855 102 137.639 101.1 137.639 100.068C137.639 99.036 137.855 98.136 138.287 97.368C138.719 96.6 139.307 96.012 140.051 95.604C140.807 95.196 141.659 94.992 142.607 94.992ZM142.607 96.432C142.019 96.432 141.473 96.564 140.969 96.828C140.477 97.092 140.075 97.5 139.763 98.052C139.463 98.592 139.313 99.264 139.313 100.068C139.313 100.86 139.463 101.532 139.763 102.084C140.075 102.624 140.477 103.026 140.969 103.29C141.473 103.554 142.019 103.686 142.607 103.686C143.195 103.686 143.735 103.554 144.227 103.29C144.731 103.026 145.133 102.624 145.433 102.084C145.745 101.532 145.901 100.86 145.901 100.068C145.901 99.264 145.745 98.592 145.433 98.052C145.133 97.5 144.731 97.092 144.227 96.828C143.735 96.564 143.195 96.432 142.607 96.432ZM153.741 94.992C154.701 94.992 155.511 95.232 156.171 95.712C156.843 96.192 157.311 96.834 157.575 97.638V91.68H159.213V105H157.575V102.48C157.311 103.284 156.843 103.926 156.171 104.406C155.511 104.886 154.701 105.126 153.741 105.126C152.865 105.126 152.085 104.922 151.401 104.514C150.717 104.106 150.177 103.524 149.781 102.768C149.397 102 149.205 101.1 149.205 100.068C149.205 99.036 149.397 98.136 149.781 97.368C150.177 96.6 150.717 96.012 151.401 95.604C152.085 95.196 152.865 94.992 153.741 94.992ZM154.209 96.45C153.201 96.45 152.391 96.774 151.779 97.422C151.179 98.058 150.879 98.94 150.879 100.068C150.879 101.196 151.179 102.084 151.779 102.732C152.391 103.368 153.201 103.686 154.209 103.686C154.857 103.686 155.433 103.536 155.937 103.236C156.453 102.936 156.855 102.516 157.143 101.976C157.431 101.424 157.575 100.788 157.575 100.068C157.575 99.348 157.431 98.712 157.143 98.16C156.855 97.608 156.453 97.188 155.937 96.9C155.433 96.6 154.857 96.45 154.209 96.45ZM164.916 94.992C166.032 94.992 166.926 95.286 167.598 95.874C168.282 96.45 168.696 97.23 168.84 98.214H167.274C167.202 97.626 166.956 97.146 166.536 96.774C166.128 96.39 165.576 96.198 164.88 96.198C164.292 96.198 163.83 96.342 163.494 96.63C163.17 96.906 163.008 97.284 163.008 97.764C163.008 98.124 163.116 98.418 163.332 98.646C163.56 98.862 163.836 99.03 164.16 99.15C164.496 99.258 164.952 99.378 165.528 99.51C166.26 99.678 166.848 99.852 167.292 100.032C167.748 100.2 168.132 100.476 168.444 100.86C168.768 101.244 168.93 101.76 168.93 102.408C168.93 103.212 168.624 103.866 168.012 104.37C167.412 104.874 166.608 105.126 165.6 105.126C164.424 105.126 163.464 104.844 162.72 104.28C161.976 103.716 161.538 102.93 161.406 101.922H162.99C163.05 102.522 163.308 103.008 163.764 103.38C164.232 103.752 164.844 103.938 165.6 103.938C166.164 103.938 166.602 103.794 166.914 103.506C167.238 103.218 167.4 102.84 167.4 102.372C167.4 101.988 167.286 101.682 167.058 101.454C166.83 101.226 166.548 101.052 166.212 100.932C165.876 100.812 165.414 100.686 164.826 100.554C164.094 100.386 163.506 100.218 163.062 100.05C162.63 99.882 162.258 99.618 161.946 99.258C161.646 98.886 161.496 98.388 161.496 97.764C161.496 96.936 161.802 96.27 162.414 95.766C163.026 95.25 163.86 94.992 164.916 94.992Z" fill="#7A7A7A"/>
</svg>
