<svg width="148" height="112" viewBox="0 0 148 112" fill="none" xmlns="http://www.w3.org/2000/svg">
<path d="M34.328 22.768C37.4853 22.768 40.1947 23.3227 42.456 24.432C44.7173 25.4987 46.424 26.992 47.576 28.912C48.7707 30.7893 49.368 32.9227 49.368 35.312C49.368 38.256 48.6 40.624 47.064 42.416C45.5707 44.208 43.6933 45.3387 41.432 45.808V46.128C47.2773 48.0053 50.2 51.6533 50.2 57.072C50.2 59.6747 49.6027 62 48.408 64.048C47.2133 66.0533 45.464 67.632 43.16 68.784C40.8987 69.8933 38.168 70.448 34.968 70.448C29.7627 70.448 25.624 69.168 22.552 66.608C19.5227 64.048 17.88 60.144 17.624 54.896H28.312C28.3973 56.9013 28.952 58.48 29.976 59.632C31 60.784 32.4933 61.36 34.456 61.36C36.0347 61.36 37.272 60.8907 38.168 59.952C39.1067 59.0133 39.576 57.7973 39.576 56.304C39.576 52.592 36.888 50.736 31.512 50.736H29.464V41.84H31.448C36.2693 41.9253 38.68 40.1973 38.68 36.656C38.68 35.12 38.2533 33.9467 37.4 33.136C36.5893 32.2827 35.48 31.856 34.072 31.856C32.536 31.856 31.32 32.3893 30.424 33.456C29.528 34.48 29.016 35.8667 28.888 37.616H18.2C18.4133 32.8373 19.9067 29.168 22.68 26.608C25.4533 24.048 29.336 22.768 34.328 22.768ZM90.038 24.752V33.456H77.75V70H66.742V33.456H54.582V24.752H90.038ZM121.787 46.704C124.518 47.344 126.672 48.6667 128.251 50.672C129.872 52.6773 130.683 55.0027 130.683 57.648C130.683 61.5307 129.382 64.56 126.779 66.736C124.219 68.912 120.528 70 115.707 70H94.651V24.752H115.195C119.803 24.752 123.366 25.7547 125.883 27.76C128.4 29.7653 129.659 32.624 129.659 36.336C129.659 39.0667 128.934 41.3493 127.483 43.184C126.032 44.976 124.134 46.1493 121.787 46.704ZM105.595 43.248H112.763C116.56 43.248 118.459 41.6267 118.459 38.384C118.459 35.1413 116.518 33.52 112.635 33.52H105.595V43.248ZM113.403 61.104C117.456 61.104 119.483 59.44 119.483 56.112C119.483 54.4907 118.95 53.232 117.883 52.336C116.816 51.3973 115.302 50.928 113.339 50.928H105.595V61.104H113.403Z" fill="#06629E"/>
<path d="M5.796 94.992C6.744 94.992 7.59 95.196 8.334 95.604C9.09 96.012 9.678 96.6 10.098 97.368C10.53 98.136 10.746 99.036 10.746 100.068C10.746 101.1 10.53 102 10.098 102.768C9.678 103.524 9.09 104.106 8.334 104.514C7.59 104.922 6.744 105.126 5.796 105.126C4.848 105.126 3.996 104.922 3.24 104.514C2.496 104.106 1.908 103.524 1.476 102.768C1.044 102 0.828 101.1 0.828 100.068C0.828 99.036 1.044 98.136 1.476 97.368C1.908 96.6 2.496 96.012 3.24 95.604C3.996 95.196 4.848 94.992 5.796 94.992ZM5.796 96.432C5.208 96.432 4.662 96.564 4.158 96.828C3.666 97.092 3.264 97.5 2.952 98.052C2.652 98.592 2.502 99.264 2.502 100.068C2.502 100.86 2.652 101.532 2.952 102.084C3.264 102.624 3.666 103.026 4.158 103.29C4.662 103.554 5.208 103.686 5.796 103.686C6.384 103.686 6.924 103.554 7.416 103.29C7.92 103.026 8.322 102.624 8.622 102.084C8.934 101.532 9.09 100.86 9.09 100.068C9.09 99.264 8.934 98.592 8.622 98.052C8.322 97.5 7.92 97.092 7.416 96.828C6.924 96.564 6.384 96.432 5.796 96.432ZM17.2544 92.778C16.3784 92.766 15.7664 92.916 15.4184 93.228C15.0824 93.54 14.9144 94.08 14.9144 94.848V95.118H17.2544V96.558H14.9144V105H13.2764V96.558H11.8544V95.118H13.2764V94.722C13.2764 92.358 14.6024 91.23 17.2544 91.338V92.778ZM27.854 92.778C26.978 92.766 26.366 92.916 26.018 93.228C25.682 93.54 25.514 94.08 25.514 94.848V95.118H27.854V96.558H25.514V105H23.876V96.558H22.454V95.118H23.876V94.722C23.876 92.358 25.202 91.23 27.854 91.338V92.778ZM29.3444 92.22C29.3444 91.92 29.4464 91.68 29.6504 91.5C29.8544 91.308 30.1244 91.212 30.4604 91.212C30.7964 91.212 31.0664 91.308 31.2704 91.5C31.4744 91.68 31.5764 91.92 31.5764 92.22C31.5764 92.52 31.4744 92.766 31.2704 92.958C31.0664 93.138 30.7964 93.228 30.4604 93.228C30.1244 93.228 29.8544 93.138 29.6504 92.958C29.4464 92.766 29.3444 92.52 29.3444 92.22ZM31.2704 95.118V105H29.6324V95.118H31.2704ZM39.1058 94.956C40.2578 94.956 41.1878 95.328 41.8958 96.072C42.6038 96.804 42.9578 97.866 42.9578 99.258V105H41.3198V99.402C41.3198 98.418 41.0678 97.662 40.5638 97.134C40.0598 96.606 39.3758 96.342 38.5118 96.342C37.6118 96.342 36.8918 96.636 36.3518 97.224C35.8118 97.8 35.5418 98.646 35.5418 99.762V105H33.9038V95.118H35.5418V97.458C35.7938 96.654 36.2378 96.036 36.8738 95.604C37.5218 95.172 38.2658 94.956 39.1058 94.956ZM49.5203 94.992C50.4803 94.992 51.2903 95.232 51.9503 95.712C52.6223 96.192 53.0903 96.834 53.3543 97.638V95.118H54.9923V105H53.3543V102.48C53.0903 103.284 52.6223 103.926 51.9503 104.406C51.2903 104.886 50.4803 105.126 49.5203 105.126C48.6443 105.126 47.8643 104.922 47.1803 104.514C46.4963 104.106 45.9563 103.524 45.5603 102.768C45.1763 102 44.9843 101.1 44.9843 100.068C44.9843 99.036 45.1763 98.136 45.5603 97.368C45.9563 96.6 46.4963 96.012 47.1803 95.604C47.8643 95.196 48.6443 94.992 49.5203 94.992ZM49.9883 96.45C48.9803 96.45 48.1703 96.774 47.5583 97.422C46.9583 98.058 46.6583 98.94 46.6583 100.068C46.6583 101.196 46.9583 102.084 47.5583 102.732C48.1703 103.368 48.9803 103.686 49.9883 103.686C50.6363 103.686 51.2123 103.536 51.7163 103.236C52.2323 102.936 52.6343 102.516 52.9223 101.976C53.2103 101.424 53.3543 100.788 53.3543 100.068C53.3543 99.348 53.2103 98.712 52.9223 98.16C52.6343 97.608 52.2323 97.188 51.7163 96.9C51.2123 96.6 50.6363 96.45 49.9883 96.45ZM62.8012 94.956C63.9532 94.956 64.8832 95.328 65.5912 96.072C66.2992 96.804 66.6532 97.866 66.6532 99.258V105H65.0152V99.402C65.0152 98.418 64.7632 97.662 64.2592 97.134C63.7552 96.606 63.0712 96.342 62.2072 96.342C61.3072 96.342 60.5872 96.636 60.0472 97.224C59.5072 97.8 59.2372 98.646 59.2372 99.762V105H57.5992V95.118H59.2372V97.458C59.4892 96.654 59.9332 96.036 60.5692 95.604C61.2172 95.172 61.9612 94.956 62.8012 94.956ZM73.5396 94.992C74.7996 94.992 75.8436 95.328 76.6716 96C77.4996 96.672 78.0096 97.572 78.2016 98.7H76.4736C76.3536 97.992 76.0236 97.44 75.4836 97.044C74.9556 96.636 74.2956 96.432 73.5036 96.432C72.9276 96.432 72.3996 96.564 71.9196 96.828C71.4516 97.092 71.0736 97.5 70.7856 98.052C70.4976 98.592 70.3536 99.264 70.3536 100.068C70.3536 100.872 70.4976 101.55 70.7856 102.102C71.0736 102.642 71.4516 103.044 71.9196 103.308C72.3996 103.572 72.9276 103.704 73.5036 103.704C74.2956 103.704 74.9556 103.5 75.4836 103.092C76.0236 102.684 76.3536 102.126 76.4736 101.418H78.2016C78.0096 102.558 77.4996 103.464 76.6716 104.136C75.8436 104.796 74.7996 105.126 73.5396 105.126C72.5916 105.126 71.7516 104.922 71.0196 104.514C70.2876 104.106 69.7116 103.524 69.2916 102.768C68.8836 102 68.6796 101.1 68.6796 100.068C68.6796 99.036 68.8836 98.136 69.2916 97.368C69.7116 96.6 70.2876 96.012 71.0196 95.604C71.7516 95.196 72.5916 94.992 73.5396 94.992ZM80.0573 92.22C80.0573 91.92 80.1593 91.68 80.3633 91.5C80.5673 91.308 80.8373 91.212 81.1733 91.212C81.5093 91.212 81.7793 91.308 81.9833 91.5C82.1873 91.68 82.2893 91.92 82.2893 92.22C82.2893 92.52 82.1873 92.766 81.9833 92.958C81.7793 93.138 81.5093 93.228 81.1733 93.228C80.8373 93.228 80.5673 93.138 80.3633 92.958C80.1593 92.766 80.0573 92.52 80.0573 92.22ZM81.9833 95.118V105H80.3453V95.118H81.9833ZM88.6667 94.992C89.6267 94.992 90.4367 95.232 91.0967 95.712C91.7687 96.192 92.2367 96.834 92.5007 97.638V95.118H94.1387V105H92.5007V102.48C92.2367 103.284 91.7687 103.926 91.0967 104.406C90.4367 104.886 89.6267 105.126 88.6667 105.126C87.7907 105.126 87.0107 104.922 86.3267 104.514C85.6427 104.106 85.1027 103.524 84.7067 102.768C84.3227 102 84.1307 101.1 84.1307 100.068C84.1307 99.036 84.3227 98.136 84.7067 97.368C85.1027 96.6 85.6427 96.012 86.3267 95.604C87.0107 95.196 87.7907 94.992 88.6667 94.992ZM89.1347 96.45C88.1267 96.45 87.3167 96.774 86.7047 97.422C86.1047 98.058 85.8047 98.94 85.8047 100.068C85.8047 101.196 86.1047 102.084 86.7047 102.732C87.3167 103.368 88.1267 103.686 89.1347 103.686C89.7827 103.686 90.3587 103.536 90.8627 103.236C91.3787 102.936 91.7807 102.516 92.0687 101.976C92.3567 101.424 92.5007 100.788 92.5007 100.068C92.5007 99.348 92.3567 98.712 92.0687 98.16C91.7807 97.608 91.3787 97.188 90.8627 96.9C90.3587 96.6 89.7827 96.45 89.1347 96.45ZM98.3836 91.68V105H96.7456V91.68H98.3836ZM109.514 94.992C110.474 94.992 111.284 95.232 111.944 95.712C112.616 96.192 113.084 96.834 113.348 97.638V91.68H114.986V105H113.348V102.48C113.084 103.284 112.616 103.926 111.944 104.406C111.284 104.886 110.474 105.126 109.514 105.126C108.638 105.126 107.858 104.922 107.174 104.514C106.49 104.106 105.95 103.524 105.554 102.768C105.17 102 104.978 101.1 104.978 100.068C104.978 99.036 105.17 98.136 105.554 97.368C105.95 96.6 106.49 96.012 107.174 95.604C107.858 95.196 108.638 94.992 109.514 94.992ZM109.982 96.45C108.974 96.45 108.164 96.774 107.552 97.422C106.952 98.058 106.652 98.94 106.652 100.068C106.652 101.196 106.952 102.084 107.552 102.732C108.164 103.368 108.974 103.686 109.982 103.686C110.63 103.686 111.206 103.536 111.71 103.236C112.226 102.936 112.628 102.516 112.916 101.976C113.204 101.424 113.348 100.788 113.348 100.068C113.348 99.348 113.204 98.712 112.916 98.16C112.628 97.608 112.226 97.188 111.71 96.9C111.206 96.6 110.63 96.45 109.982 96.45ZM121.643 94.992C122.603 94.992 123.413 95.232 124.073 95.712C124.745 96.192 125.213 96.834 125.477 97.638V95.118H127.115V105H125.477V102.48C125.213 103.284 124.745 103.926 124.073 104.406C123.413 104.886 122.603 105.126 121.643 105.126C120.767 105.126 119.987 104.922 119.303 104.514C118.619 104.106 118.079 103.524 117.683 102.768C117.299 102 117.107 101.1 117.107 100.068C117.107 99.036 117.299 98.136 117.683 97.368C118.079 96.6 118.619 96.012 119.303 95.604C119.987 95.196 120.767 94.992 121.643 94.992ZM122.111 96.45C121.103 96.45 120.293 96.774 119.681 97.422C119.081 98.058 118.781 98.94 118.781 100.068C118.781 101.196 119.081 102.084 119.681 102.732C120.293 103.368 121.103 103.686 122.111 103.686C122.759 103.686 123.335 103.536 123.839 103.236C124.355 102.936 124.757 102.516 125.045 101.976C125.333 101.424 125.477 100.788 125.477 100.068C125.477 99.348 125.333 98.712 125.045 98.16C124.757 97.608 124.355 97.188 123.839 96.9C123.335 96.6 122.759 96.45 122.111 96.45ZM134.438 103.56V105H133.214C132.206 105 131.45 104.76 130.946 104.28C130.454 103.8 130.208 102.996 130.208 101.868V96.54H128.732V95.118H130.208V92.652H131.864V95.118H134.42V96.54H131.864V101.904C131.864 102.54 131.978 102.978 132.206 103.218C132.446 103.446 132.854 103.56 133.43 103.56H134.438ZM140.487 94.992C141.447 94.992 142.257 95.232 142.917 95.712C143.589 96.192 144.057 96.834 144.321 97.638V95.118H145.959V105H144.321V102.48C144.057 103.284 143.589 103.926 142.917 104.406C142.257 104.886 141.447 105.126 140.487 105.126C139.611 105.126 138.831 104.922 138.147 104.514C137.463 104.106 136.923 103.524 136.527 102.768C136.143 102 135.951 101.1 135.951 100.068C135.951 99.036 136.143 98.136 136.527 97.368C136.923 96.6 137.463 96.012 138.147 95.604C138.831 95.196 139.611 94.992 140.487 94.992ZM140.955 96.45C139.947 96.45 139.137 96.774 138.525 97.422C137.925 98.058 137.625 98.94 137.625 100.068C137.625 101.196 137.925 102.084 138.525 102.732C139.137 103.368 139.947 103.686 140.955 103.686C141.603 103.686 142.179 103.536 142.683 103.236C143.199 102.936 143.601 102.516 143.889 101.976C144.177 101.424 144.321 100.788 144.321 100.068C144.321 99.348 144.177 98.712 143.889 98.16C143.601 97.608 143.199 97.188 142.683 96.9C142.179 96.6 141.603 96.45 140.955 96.45Z" fill="#7A7A7A"/>
</svg>
