<svg width="256" height="112" viewBox="0 0 256 112" fill="none" xmlns="http://www.w3.org/2000/svg">
<path d="M2.816 61.68V52.528L23.488 24.176H35.264V52.144H40.704V61.68H35.264V70H24.192V61.68H2.816ZM25.088 36.848L13.952 52.144H25.088V36.848ZM74.488 32.432L58.296 70H46.968L63.352 33.712H44.152V24.304H74.488V32.432ZM82.601 63.728C79.7423 59.5893 78.313 53.9787 78.313 46.896C78.313 39.856 79.7423 34.288 82.601 30.192C85.4597 26.0533 90.025 23.984 96.297 23.984C102.526 23.984 107.07 26.0533 109.929 30.192C112.83 34.288 114.281 39.856 114.281 46.896C114.281 53.9787 112.83 59.5893 109.929 63.728C107.07 67.8667 102.526 69.936 96.297 69.936C90.025 69.936 85.4597 67.8667 82.601 63.728ZM101.929 56.304C102.91 54.0853 103.401 50.9493 103.401 46.896C103.401 42.8427 102.91 39.7493 101.929 37.616C100.99 35.44 99.113 34.352 96.297 34.352C93.4383 34.352 91.5183 35.44 90.537 37.616C89.5557 39.792 89.065 42.8853 89.065 46.896C89.065 50.9493 89.5557 54.0853 90.537 56.304C91.5183 58.48 93.4383 59.568 96.297 59.568C99.113 59.568 100.99 58.48 101.929 56.304ZM129.997 59.056V70H118.669V59.056H129.997ZM138.914 63.728C136.055 59.5893 134.626 53.9787 134.626 46.896C134.626 39.856 136.055 34.288 138.914 30.192C141.772 26.0533 146.338 23.984 152.61 23.984C158.839 23.984 163.383 26.0533 166.242 30.192C169.143 34.288 170.594 39.856 170.594 46.896C170.594 53.9787 169.143 59.5893 166.242 63.728C163.383 67.8667 158.839 69.936 152.61 69.936C146.338 69.936 141.772 67.8667 138.914 63.728ZM158.242 56.304C159.223 54.0853 159.714 50.9493 159.714 46.896C159.714 42.8427 159.223 39.7493 158.242 37.616C157.303 35.44 155.426 34.352 152.61 34.352C149.751 34.352 147.831 35.44 146.85 37.616C145.868 39.792 145.378 42.8853 145.378 46.896C145.378 50.9493 145.868 54.0853 146.85 56.304C147.831 58.48 149.751 59.568 152.61 59.568C155.426 59.568 157.303 58.48 158.242 56.304ZM180.101 63.728C177.242 59.5893 175.813 53.9787 175.813 46.896C175.813 39.856 177.242 34.288 180.101 30.192C182.96 26.0533 187.525 23.984 193.797 23.984C200.026 23.984 204.57 26.0533 207.429 30.192C210.33 34.288 211.781 39.856 211.781 46.896C211.781 53.9787 210.33 59.5893 207.429 63.728C204.57 67.8667 200.026 69.936 193.797 69.936C187.525 69.936 182.96 67.8667 180.101 63.728ZM199.429 56.304C200.41 54.0853 200.901 50.9493 200.901 46.896C200.901 42.8427 200.41 39.7493 199.429 37.616C198.49 35.44 196.613 34.352 193.797 34.352C190.938 34.352 189.018 35.44 188.037 37.616C187.056 39.792 186.565 42.8853 186.565 46.896C186.565 50.9493 187.056 54.0853 188.037 56.304C189.018 58.48 190.938 59.568 193.797 59.568C196.613 59.568 198.49 58.48 199.429 56.304ZM221.289 63.728C218.43 59.5893 217.001 53.9787 217.001 46.896C217.001 39.856 218.43 34.288 221.289 30.192C224.147 26.0533 228.713 23.984 234.985 23.984C241.214 23.984 245.758 26.0533 248.617 30.192C251.518 34.288 252.969 39.856 252.969 46.896C252.969 53.9787 251.518 59.5893 248.617 63.728C245.758 67.8667 241.214 69.936 234.985 69.936C228.713 69.936 224.147 67.8667 221.289 63.728ZM240.617 56.304C241.598 54.0853 242.089 50.9493 242.089 46.896C242.089 42.8427 241.598 39.7493 240.617 37.616C239.678 35.44 237.801 34.352 234.985 34.352C232.126 34.352 230.206 35.44 229.225 37.616C228.243 39.792 227.753 42.8853 227.753 46.896C227.753 50.9493 228.243 54.0853 229.225 56.304C230.206 58.48 232.126 59.568 234.985 59.568C237.801 59.568 239.678 58.48 240.617 56.304Z" fill="#06629E"/>
<path d="M43.768 94.992C44.644 94.992 45.424 95.196 46.108 95.604C46.792 96.012 47.326 96.6 47.71 97.368C48.106 98.136 48.304 99.036 48.304 100.068C48.304 101.1 48.106 102 47.71 102.768C47.326 103.524 46.792 104.106 46.108 104.514C45.424 104.922 44.644 105.126 43.768 105.126C42.808 105.126 41.992 104.886 41.32 104.406C40.66 103.914 40.204 103.272 39.952 102.48V109.68H38.314V95.118H39.952V97.638C40.204 96.846 40.66 96.21 41.32 95.73C41.992 95.238 42.808 94.992 43.768 94.992ZM43.3 96.45C42.664 96.45 42.088 96.6 41.572 96.9C41.056 97.188 40.654 97.608 40.366 98.16C40.078 98.712 39.934 99.348 39.934 100.068C39.934 100.788 40.078 101.424 40.366 101.976C40.654 102.516 41.056 102.936 41.572 103.236C42.088 103.536 42.664 103.686 43.3 103.686C44.32 103.686 45.13 103.368 45.73 102.732C46.342 102.084 46.648 101.196 46.648 100.068C46.648 98.94 46.342 98.058 45.73 97.422C45.13 96.774 44.32 96.45 43.3 96.45ZM52.0809 97.116C52.4049 96.432 52.8789 95.904 53.5029 95.532C54.1269 95.148 54.8709 94.956 55.7349 94.956V96.738H55.2309C54.3069 96.738 53.5509 96.978 52.9629 97.458C52.3749 97.926 52.0809 98.706 52.0809 99.798V105H50.4429V95.118H52.0809V97.116ZM57.0631 92.22C57.0631 91.92 57.1651 91.68 57.3691 91.5C57.5731 91.308 57.8431 91.212 58.1791 91.212C58.5151 91.212 58.7851 91.308 58.9891 91.5C59.1931 91.68 59.2951 91.92 59.2951 92.22C59.2951 92.52 59.1931 92.766 58.9891 92.958C58.7851 93.138 58.5151 93.228 58.1791 93.228C57.8431 93.228 57.5731 93.138 57.3691 92.958C57.1651 92.766 57.0631 92.52 57.0631 92.22ZM58.9891 95.118V105H57.3511V95.118H58.9891ZM65.4566 103.254L68.5166 95.118H70.2806L66.4106 105H64.4666L60.5966 95.118H62.3606L65.4566 103.254ZM75.9382 94.992C76.8982 94.992 77.7082 95.232 78.3682 95.712C79.0402 96.192 79.5082 96.834 79.7722 97.638V95.118H81.4102V105H79.7722V102.48C79.5082 103.284 79.0402 103.926 78.3682 104.406C77.7082 104.886 76.8982 105.126 75.9382 105.126C75.0622 105.126 74.2822 104.922 73.5982 104.514C72.9142 104.106 72.3742 103.524 71.9782 102.768C71.5942 102 71.4022 101.1 71.4022 100.068C71.4022 99.036 71.5942 98.136 71.9782 97.368C72.3742 96.6 72.9142 96.012 73.5982 95.604C74.2822 95.196 75.0622 94.992 75.9382 94.992ZM76.4062 96.45C75.3982 96.45 74.5882 96.774 73.9762 97.422C73.3762 98.058 73.0762 98.94 73.0762 100.068C73.0762 101.196 73.3762 102.084 73.9762 102.732C74.5882 103.368 75.3982 103.686 76.4062 103.686C77.0542 103.686 77.6302 103.536 78.1342 103.236C78.6502 102.936 79.0522 102.516 79.3402 101.976C79.6282 101.424 79.7722 100.788 79.7722 100.068C79.7722 99.348 79.6282 98.712 79.3402 98.16C79.0522 97.608 78.6502 97.188 78.1342 96.9C77.6302 96.6 77.0542 96.45 76.4062 96.45ZM88.7331 103.56V105H87.5091C86.5011 105 85.7451 104.76 85.2411 104.28C84.7491 103.8 84.5031 102.996 84.5031 101.868V96.54H83.0271V95.118H84.5031V92.652H86.1591V95.118H88.7151V96.54H86.1591V101.904C86.1591 102.54 86.2731 102.978 86.5011 103.218C86.7411 103.446 87.1491 103.56 87.7251 103.56H88.7331ZM99.822 99.51C99.822 99.858 99.798 100.158 99.75 100.41H91.848C91.884 101.538 92.202 102.384 92.802 102.948C93.414 103.512 94.158 103.794 95.034 103.794C95.826 103.794 96.486 103.596 97.014 103.2C97.554 102.792 97.884 102.252 98.004 101.58H99.75C99.63 102.264 99.36 102.876 98.94 103.416C98.532 103.956 97.998 104.376 97.338 104.676C96.678 104.976 95.934 105.126 95.106 105.126C94.158 105.126 93.318 104.922 92.586 104.514C91.854 104.106 91.278 103.524 90.858 102.768C90.45 102 90.246 101.1 90.246 100.068C90.246 99.036 90.45 98.136 90.858 97.368C91.278 96.6 91.854 96.012 92.586 95.604C93.318 95.196 94.158 94.992 95.106 94.992C96.066 94.992 96.9 95.196 97.608 95.604C98.328 96.012 98.874 96.558 99.246 97.242C99.63 97.926 99.822 98.682 99.822 99.51ZM98.166 99.618C98.202 98.886 98.082 98.274 97.806 97.782C97.53 97.29 97.152 96.924 96.672 96.684C96.192 96.444 95.67 96.324 95.106 96.324C94.206 96.324 93.45 96.606 92.838 97.17C92.226 97.722 91.896 98.538 91.848 99.618H98.166ZM111.128 103.56V105H109.904C108.896 105 108.14 104.76 107.636 104.28C107.144 103.8 106.898 102.996 106.898 101.868V96.54H105.422V95.118H106.898V92.652H108.554V95.118H111.11V96.54H108.554V101.904C108.554 102.54 108.668 102.978 108.896 103.218C109.136 103.446 109.544 103.56 110.12 103.56H111.128ZM114.765 97.116C115.089 96.432 115.563 95.904 116.187 95.532C116.811 95.148 117.555 94.956 118.419 94.956V96.738H117.915C116.991 96.738 116.235 96.978 115.647 97.458C115.059 97.926 114.765 98.706 114.765 99.798V105H113.127V95.118H114.765V97.116ZM124.085 94.992C125.045 94.992 125.855 95.232 126.515 95.712C127.187 96.192 127.655 96.834 127.919 97.638V95.118H129.557V105H127.919V102.48C127.655 103.284 127.187 103.926 126.515 104.406C125.855 104.886 125.045 105.126 124.085 105.126C123.209 105.126 122.429 104.922 121.745 104.514C121.061 104.106 120.521 103.524 120.125 102.768C119.741 102 119.549 101.1 119.549 100.068C119.549 99.036 119.741 98.136 120.125 97.368C120.521 96.6 121.061 96.012 121.745 95.604C122.429 95.196 123.209 94.992 124.085 94.992ZM124.553 96.45C123.545 96.45 122.735 96.774 122.123 97.422C121.523 98.058 121.223 98.94 121.223 100.068C121.223 101.196 121.523 102.084 122.123 102.732C122.735 103.368 123.545 103.686 124.553 103.686C125.201 103.686 125.777 103.536 126.281 103.236C126.797 102.936 127.199 102.516 127.487 101.976C127.775 101.424 127.919 100.788 127.919 100.068C127.919 99.348 127.775 98.712 127.487 98.16C127.199 97.608 126.797 97.188 126.281 96.9C125.777 96.6 125.201 96.45 124.553 96.45ZM137.366 94.956C138.518 94.956 139.448 95.328 140.156 96.072C140.864 96.804 141.218 97.866 141.218 99.258V105H139.58V99.402C139.58 98.418 139.328 97.662 138.824 97.134C138.32 96.606 137.636 96.342 136.772 96.342C135.872 96.342 135.152 96.636 134.612 97.224C134.072 97.8 133.802 98.646 133.802 99.762V105H132.164V95.118H133.802V97.458C134.054 96.654 134.498 96.036 135.134 95.604C135.782 95.172 136.526 94.956 137.366 94.956ZM146.826 94.992C147.942 94.992 148.836 95.286 149.508 95.874C150.192 96.45 150.606 97.23 150.75 98.214H149.184C149.112 97.626 148.866 97.146 148.446 96.774C148.038 96.39 147.486 96.198 146.79 96.198C146.202 96.198 145.74 96.342 145.404 96.63C145.08 96.906 144.918 97.284 144.918 97.764C144.918 98.124 145.026 98.418 145.242 98.646C145.47 98.862 145.746 99.03 146.07 99.15C146.406 99.258 146.862 99.378 147.438 99.51C148.17 99.678 148.758 99.852 149.202 100.032C149.658 100.2 150.042 100.476 150.354 100.86C150.678 101.244 150.84 101.76 150.84 102.408C150.84 103.212 150.534 103.866 149.922 104.37C149.322 104.874 148.518 105.126 147.51 105.126C146.334 105.126 145.374 104.844 144.63 104.28C143.886 103.716 143.448 102.93 143.316 101.922H144.9C144.96 102.522 145.218 103.008 145.674 103.38C146.142 103.752 146.754 103.938 147.51 103.938C148.074 103.938 148.512 103.794 148.824 103.506C149.148 103.218 149.31 102.84 149.31 102.372C149.31 101.988 149.196 101.682 148.968 101.454C148.74 101.226 148.458 101.052 148.122 100.932C147.786 100.812 147.324 100.686 146.736 100.554C146.004 100.386 145.416 100.218 144.972 100.05C144.54 99.882 144.168 99.618 143.856 99.258C143.556 98.886 143.406 98.388 143.406 97.764C143.406 96.936 143.712 96.27 144.324 95.766C144.936 95.25 145.77 94.992 146.826 94.992ZM157.079 94.992C158.039 94.992 158.849 95.232 159.509 95.712C160.181 96.192 160.649 96.834 160.913 97.638V95.118H162.551V105H160.913V102.48C160.649 103.284 160.181 103.926 159.509 104.406C158.849 104.886 158.039 105.126 157.079 105.126C156.203 105.126 155.423 104.922 154.739 104.514C154.055 104.106 153.515 103.524 153.119 102.768C152.735 102 152.543 101.1 152.543 100.068C152.543 99.036 152.735 98.136 153.119 97.368C153.515 96.6 154.055 96.012 154.739 95.604C155.423 95.196 156.203 94.992 157.079 94.992ZM157.547 96.45C156.539 96.45 155.729 96.774 155.117 97.422C154.517 98.058 154.217 98.94 154.217 100.068C154.217 101.196 154.517 102.084 155.117 102.732C155.729 103.368 156.539 103.686 157.547 103.686C158.195 103.686 158.771 103.536 159.275 103.236C159.791 102.936 160.193 102.516 160.481 101.976C160.769 101.424 160.913 100.788 160.913 100.068C160.913 99.348 160.769 98.712 160.481 98.16C160.193 97.608 159.791 97.188 159.275 96.9C158.771 96.6 158.195 96.45 157.547 96.45ZM169.532 94.992C170.792 94.992 171.836 95.328 172.664 96C173.492 96.672 174.002 97.572 174.194 98.7H172.466C172.346 97.992 172.016 97.44 171.476 97.044C170.948 96.636 170.288 96.432 169.496 96.432C168.92 96.432 168.392 96.564 167.912 96.828C167.444 97.092 167.066 97.5 166.778 98.052C166.49 98.592 166.346 99.264 166.346 100.068C166.346 100.872 166.49 101.55 166.778 102.102C167.066 102.642 167.444 103.044 167.912 103.308C168.392 103.572 168.92 103.704 169.496 103.704C170.288 103.704 170.948 103.5 171.476 103.092C172.016 102.684 172.346 102.126 172.466 101.418H174.194C174.002 102.558 173.492 103.464 172.664 104.136C171.836 104.796 170.792 105.126 169.532 105.126C168.584 105.126 167.744 104.922 167.012 104.514C166.28 104.106 165.704 103.524 165.284 102.768C164.876 102 164.672 101.1 164.672 100.068C164.672 99.036 164.876 98.136 165.284 97.368C165.704 96.6 166.28 96.012 167.012 95.604C167.744 95.196 168.584 94.992 169.532 94.992ZM181.053 103.56V105H179.829C178.821 105 178.065 104.76 177.561 104.28C177.069 103.8 176.823 102.996 176.823 101.868V96.54H175.347V95.118H176.823V92.652H178.479V95.118H181.035V96.54H178.479V101.904C178.479 102.54 178.593 102.978 178.821 103.218C179.061 103.446 179.469 103.56 180.045 103.56H181.053ZM182.764 92.22C182.764 91.92 182.866 91.68 183.07 91.5C183.274 91.308 183.544 91.212 183.88 91.212C184.216 91.212 184.486 91.308 184.69 91.5C184.894 91.68 184.996 91.92 184.996 92.22C184.996 92.52 184.894 92.766 184.69 92.958C184.486 93.138 184.216 93.228 183.88 93.228C183.544 93.228 183.274 93.138 183.07 92.958C182.866 92.766 182.764 92.52 182.764 92.22ZM184.69 95.118V105H183.052V95.118H184.69ZM191.806 94.992C192.754 94.992 193.6 95.196 194.344 95.604C195.1 96.012 195.688 96.6 196.108 97.368C196.54 98.136 196.756 99.036 196.756 100.068C196.756 101.1 196.54 102 196.108 102.768C195.688 103.524 195.1 104.106 194.344 104.514C193.6 104.922 192.754 105.126 191.806 105.126C190.858 105.126 190.006 104.922 189.25 104.514C188.506 104.106 187.918 103.524 187.486 102.768C187.054 102 186.838 101.1 186.838 100.068C186.838 99.036 187.054 98.136 187.486 97.368C187.918 96.6 188.506 96.012 189.25 95.604C190.006 95.196 190.858 94.992 191.806 94.992ZM191.806 96.432C191.218 96.432 190.672 96.564 190.168 96.828C189.676 97.092 189.274 97.5 188.962 98.052C188.662 98.592 188.512 99.264 188.512 100.068C188.512 100.86 188.662 101.532 188.962 102.084C189.274 102.624 189.676 103.026 190.168 103.29C190.672 103.554 191.218 103.686 191.806 103.686C192.394 103.686 192.934 103.554 193.426 103.29C193.93 103.026 194.332 102.624 194.632 102.084C194.944 101.532 195.1 100.86 195.1 100.068C195.1 99.264 194.944 98.592 194.632 98.052C194.332 97.5 193.93 97.092 193.426 96.828C192.934 96.564 192.394 96.432 191.806 96.432ZM204.092 94.956C205.244 94.956 206.174 95.328 206.882 96.072C207.59 96.804 207.944 97.866 207.944 99.258V105H206.306V99.402C206.306 98.418 206.054 97.662 205.55 97.134C205.046 96.606 204.362 96.342 203.498 96.342C202.598 96.342 201.878 96.636 201.338 97.224C200.798 97.8 200.528 98.646 200.528 99.762V105H198.89V95.118H200.528V97.458C200.78 96.654 201.224 96.036 201.86 95.604C202.508 95.172 203.252 94.956 204.092 94.956ZM213.553 94.992C214.669 94.992 215.563 95.286 216.235 95.874C216.919 96.45 217.333 97.23 217.477 98.214H215.911C215.839 97.626 215.593 97.146 215.173 96.774C214.765 96.39 214.213 96.198 213.517 96.198C212.929 96.198 212.467 96.342 212.131 96.63C211.807 96.906 211.645 97.284 211.645 97.764C211.645 98.124 211.753 98.418 211.969 98.646C212.197 98.862 212.473 99.03 212.797 99.15C213.133 99.258 213.589 99.378 214.165 99.51C214.897 99.678 215.485 99.852 215.929 100.032C216.385 100.2 216.769 100.476 217.081 100.86C217.405 101.244 217.567 101.76 217.567 102.408C217.567 103.212 217.261 103.866 216.649 104.37C216.049 104.874 215.245 105.126 214.237 105.126C213.061 105.126 212.101 104.844 211.357 104.28C210.613 103.716 210.175 102.93 210.043 101.922H211.627C211.687 102.522 211.945 103.008 212.401 103.38C212.869 103.752 213.481 103.938 214.237 103.938C214.801 103.938 215.239 103.794 215.551 103.506C215.875 103.218 216.037 102.84 216.037 102.372C216.037 101.988 215.923 101.682 215.695 101.454C215.467 101.226 215.185 101.052 214.849 100.932C214.513 100.812 214.051 100.686 213.463 100.554C212.731 100.386 212.143 100.218 211.699 100.05C211.267 99.882 210.895 99.618 210.583 99.258C210.283 98.886 210.133 98.388 210.133 97.764C210.133 96.936 210.439 96.27 211.051 95.766C211.663 95.25 212.497 94.992 213.553 94.992Z" fill="#7A7A7A"/>
</svg>
