<svg width="221" height="112" viewBox="0 0 221 112" fill="none" xmlns="http://www.w3.org/2000/svg">
<path d="M36.096 33.264H15.744V42.416C16.64 41.392 17.8773 40.6027 19.456 40.048C21.0773 39.4507 22.8267 39.152 24.704 39.152C27.7333 39.152 30.272 39.8347 32.32 41.2C34.368 42.5227 35.8827 44.3147 36.864 46.576C37.8453 48.8373 38.336 51.3333 38.336 54.064C38.336 59.0133 36.9493 62.9387 34.176 65.84C31.4027 68.6987 27.4987 70.128 22.464 70.128C19.0507 70.128 16.0853 69.5307 13.568 68.336C11.0507 67.0987 9.10933 65.392 7.744 63.216C6.37867 61.04 5.65333 58.5227 5.568 55.664H16.256C16.4693 57.1147 17.0453 58.3093 17.984 59.248C18.9653 60.1867 20.288 60.656 21.952 60.656C23.872 60.656 25.3013 60.0373 26.24 58.8C27.2213 57.5627 27.712 55.92 27.712 53.872C27.712 51.9093 27.2 50.3947 26.176 49.328C25.152 48.2613 23.7227 47.728 21.888 47.728C20.48 47.728 19.3067 48.048 18.368 48.688C17.4293 49.2853 16.7893 50.0747 16.448 51.056H5.824V23.664H36.096V33.264ZM48.101 63.728C45.2423 59.5893 43.813 53.9787 43.813 46.896C43.813 39.856 45.2423 34.288 48.101 30.192C50.9597 26.0533 55.525 23.984 61.797 23.984C68.0263 23.984 72.5703 26.0533 75.429 30.192C78.3303 34.288 79.781 39.856 79.781 46.896C79.781 53.9787 78.3303 59.5893 75.429 63.728C72.5703 67.8667 68.0263 69.936 61.797 69.936C55.525 69.936 50.9597 67.8667 48.101 63.728ZM67.429 56.304C68.4103 54.0853 68.901 50.9493 68.901 46.896C68.901 42.8427 68.4103 39.7493 67.429 37.616C66.4903 35.44 64.613 34.352 61.797 34.352C58.9383 34.352 57.0183 35.44 56.037 37.616C55.0557 39.792 54.565 42.8853 54.565 46.896C54.565 50.9493 55.0557 54.0853 56.037 56.304C57.0183 58.48 58.9383 59.568 61.797 59.568C64.613 59.568 66.4903 58.48 67.429 56.304ZM95.4965 59.056V70H84.1685V59.056H95.4965ZM104.414 63.728C101.555 59.5893 100.126 53.9787 100.126 46.896C100.126 39.856 101.555 34.288 104.414 30.192C107.272 26.0533 111.838 23.984 118.11 23.984C124.339 23.984 128.883 26.0533 131.742 30.192C134.643 34.288 136.094 39.856 136.094 46.896C136.094 53.9787 134.643 59.5893 131.742 63.728C128.883 67.8667 124.339 69.936 118.11 69.936C111.838 69.936 107.272 67.8667 104.414 63.728ZM123.742 56.304C124.723 54.0853 125.214 50.9493 125.214 46.896C125.214 42.8427 124.723 39.7493 123.742 37.616C122.803 35.44 120.926 34.352 118.11 34.352C115.251 34.352 113.331 35.44 112.35 37.616C111.368 39.792 110.878 42.8853 110.878 46.896C110.878 50.9493 111.368 54.0853 112.35 56.304C113.331 58.48 115.251 59.568 118.11 59.568C120.926 59.568 122.803 58.48 123.742 56.304ZM145.601 63.728C142.742 59.5893 141.313 53.9787 141.313 46.896C141.313 39.856 142.742 34.288 145.601 30.192C148.46 26.0533 153.025 23.984 159.297 23.984C165.526 23.984 170.07 26.0533 172.929 30.192C175.83 34.288 177.281 39.856 177.281 46.896C177.281 53.9787 175.83 59.5893 172.929 63.728C170.07 67.8667 165.526 69.936 159.297 69.936C153.025 69.936 148.46 67.8667 145.601 63.728ZM164.929 56.304C165.91 54.0853 166.401 50.9493 166.401 46.896C166.401 42.8427 165.91 39.7493 164.929 37.616C163.99 35.44 162.113 34.352 159.297 34.352C156.438 34.352 154.518 35.44 153.537 37.616C152.556 39.792 152.065 42.8853 152.065 46.896C152.065 50.9493 152.556 54.0853 153.537 56.304C154.518 58.48 156.438 59.568 159.297 59.568C162.113 59.568 163.99 58.48 164.929 56.304ZM186.789 63.728C183.93 59.5893 182.501 53.9787 182.501 46.896C182.501 39.856 183.93 34.288 186.789 30.192C189.647 26.0533 194.213 23.984 200.485 23.984C206.714 23.984 211.258 26.0533 214.117 30.192C217.018 34.288 218.469 39.856 218.469 46.896C218.469 53.9787 217.018 59.5893 214.117 63.728C211.258 67.8667 206.714 69.936 200.485 69.936C194.213 69.936 189.647 67.8667 186.789 63.728ZM206.117 56.304C207.098 54.0853 207.589 50.9493 207.589 46.896C207.589 42.8427 207.098 39.7493 206.117 37.616C205.178 35.44 203.301 34.352 200.485 34.352C197.626 34.352 195.706 35.44 194.725 37.616C193.743 39.792 193.253 42.8853 193.253 46.896C193.253 50.9493 193.743 54.0853 194.725 56.304C195.706 58.48 197.626 59.568 200.485 59.568C203.301 59.568 205.178 58.48 206.117 56.304Z" fill="#06629E"/>
<path d="M61.952 91.68V105H60.314V91.68H61.952ZM64.2975 92.22C64.2975 91.92 64.3995 91.68 64.6035 91.5C64.8075 91.308 65.0775 91.212 65.4135 91.212C65.7495 91.212 66.0195 91.308 66.2235 91.5C66.4275 91.68 66.5295 91.92 66.5295 92.22C66.5295 92.52 66.4275 92.766 66.2235 92.958C66.0195 93.138 65.7495 93.228 65.4135 93.228C65.0775 93.228 64.8075 93.138 64.6035 92.958C64.3995 92.766 64.2975 92.52 64.2975 92.22ZM66.2235 95.118V105H64.5855V95.118H66.2235ZM71.953 94.992C73.069 94.992 73.963 95.286 74.635 95.874C75.319 96.45 75.733 97.23 75.877 98.214H74.311C74.239 97.626 73.993 97.146 73.573 96.774C73.165 96.39 72.613 96.198 71.917 96.198C71.329 96.198 70.867 96.342 70.531 96.63C70.207 96.906 70.045 97.284 70.045 97.764C70.045 98.124 70.153 98.418 70.369 98.646C70.597 98.862 70.873 99.03 71.197 99.15C71.533 99.258 71.989 99.378 72.565 99.51C73.297 99.678 73.885 99.852 74.329 100.032C74.785 100.2 75.169 100.476 75.481 100.86C75.805 101.244 75.967 101.76 75.967 102.408C75.967 103.212 75.661 103.866 75.049 104.37C74.449 104.874 73.645 105.126 72.637 105.126C71.461 105.126 70.501 104.844 69.757 104.28C69.013 103.716 68.575 102.93 68.443 101.922H70.027C70.087 102.522 70.345 103.008 70.801 103.38C71.269 103.752 71.881 103.938 72.637 103.938C73.201 103.938 73.639 103.794 73.951 103.506C74.275 103.218 74.437 102.84 74.437 102.372C74.437 101.988 74.323 101.682 74.095 101.454C73.867 101.226 73.585 101.052 73.249 100.932C72.913 100.812 72.451 100.686 71.863 100.554C71.131 100.386 70.543 100.218 70.099 100.05C69.667 99.882 69.295 99.618 68.983 99.258C68.683 98.886 68.533 98.388 68.533 97.764C68.533 96.936 68.839 96.27 69.451 95.766C70.063 95.25 70.897 94.992 71.953 94.992ZM82.8718 103.56V105H81.6478C80.6398 105 79.8838 104.76 79.3798 104.28C78.8878 103.8 78.6418 102.996 78.6418 101.868V96.54H77.1658V95.118H78.6418V92.652H80.2978V95.118H82.8538V96.54H80.2978V101.904C80.2978 102.54 80.4118 102.978 80.6398 103.218C80.8798 103.446 81.2878 103.56 81.8638 103.56H82.8718ZM93.9606 99.51C93.9606 99.858 93.9366 100.158 93.8886 100.41H85.9866C86.0226 101.538 86.3406 102.384 86.9406 102.948C87.5526 103.512 88.2966 103.794 89.1726 103.794C89.9646 103.794 90.6246 103.596 91.1526 103.2C91.6926 102.792 92.0226 102.252 92.1426 101.58H93.8886C93.7686 102.264 93.4986 102.876 93.0786 103.416C92.6706 103.956 92.1366 104.376 91.4766 104.676C90.8166 104.976 90.0726 105.126 89.2446 105.126C88.2966 105.126 87.4566 104.922 86.7246 104.514C85.9926 104.106 85.4166 103.524 84.9966 102.768C84.5886 102 84.3846 101.1 84.3846 100.068C84.3846 99.036 84.5886 98.136 84.9966 97.368C85.4166 96.6 85.9926 96.012 86.7246 95.604C87.4566 95.196 88.2966 94.992 89.2446 94.992C90.2046 94.992 91.0386 95.196 91.7466 95.604C92.4666 96.012 93.0126 96.558 93.3846 97.242C93.7686 97.926 93.9606 98.682 93.9606 99.51ZM92.3046 99.618C92.3406 98.886 92.2206 98.274 91.9446 97.782C91.6686 97.29 91.2906 96.924 90.8106 96.684C90.3306 96.444 89.8086 96.324 89.2446 96.324C88.3446 96.324 87.5886 96.606 86.9766 97.17C86.3646 97.722 86.0346 98.538 85.9866 99.618H92.3046ZM100.153 94.992C101.113 94.992 101.923 95.232 102.583 95.712C103.255 96.192 103.723 96.834 103.987 97.638V91.68H105.625V105H103.987V102.48C103.723 103.284 103.255 103.926 102.583 104.406C101.923 104.886 101.113 105.126 100.153 105.126C99.2771 105.126 98.4971 104.922 97.8131 104.514C97.1291 104.106 96.5891 103.524 96.1931 102.768C95.8091 102 95.6171 101.1 95.6171 100.068C95.6171 99.036 95.8091 98.136 96.1931 97.368C96.5891 96.6 97.1291 96.012 97.8131 95.604C98.4971 95.196 99.2771 94.992 100.153 94.992ZM100.621 96.45C99.6131 96.45 98.8031 96.774 98.1911 97.422C97.5911 98.058 97.2911 98.94 97.2911 100.068C97.2911 101.196 97.5911 102.084 98.1911 102.732C98.8031 103.368 99.6131 103.686 100.621 103.686C101.269 103.686 101.845 103.536 102.349 103.236C102.865 102.936 103.267 102.516 103.555 101.976C103.843 101.424 103.987 100.788 103.987 100.068C103.987 99.348 103.843 98.712 103.555 98.16C103.267 97.608 102.865 97.188 102.349 96.9C101.845 96.6 101.269 96.45 100.621 96.45ZM118.133 94.992C119.009 94.992 119.789 95.196 120.473 95.604C121.157 96.012 121.691 96.6 122.075 97.368C122.471 98.136 122.669 99.036 122.669 100.068C122.669 101.1 122.471 102 122.075 102.768C121.691 103.524 121.157 104.106 120.473 104.514C119.789 104.922 119.009 105.126 118.133 105.126C117.173 105.126 116.357 104.886 115.685 104.406C115.025 103.914 114.569 103.272 114.317 102.48V109.68H112.679V95.118H114.317V97.638C114.569 96.846 115.025 96.21 115.685 95.73C116.357 95.238 117.173 94.992 118.133 94.992ZM117.665 96.45C117.029 96.45 116.453 96.6 115.937 96.9C115.421 97.188 115.019 97.608 114.731 98.16C114.443 98.712 114.299 99.348 114.299 100.068C114.299 100.788 114.443 101.424 114.731 101.976C115.019 102.516 115.421 102.936 115.937 103.236C116.453 103.536 117.029 103.686 117.665 103.686C118.685 103.686 119.495 103.368 120.095 102.732C120.707 102.084 121.013 101.196 121.013 100.068C121.013 98.94 120.707 98.058 120.095 97.422C119.495 96.774 118.685 96.45 117.665 96.45ZM133.898 99.51C133.898 99.858 133.874 100.158 133.826 100.41H125.924C125.96 101.538 126.278 102.384 126.878 102.948C127.49 103.512 128.234 103.794 129.11 103.794C129.902 103.794 130.562 103.596 131.09 103.2C131.63 102.792 131.96 102.252 132.08 101.58H133.826C133.706 102.264 133.436 102.876 133.016 103.416C132.608 103.956 132.074 104.376 131.414 104.676C130.754 104.976 130.01 105.126 129.182 105.126C128.234 105.126 127.394 104.922 126.662 104.514C125.93 104.106 125.354 103.524 124.934 102.768C124.526 102 124.322 101.1 124.322 100.068C124.322 99.036 124.526 98.136 124.934 97.368C125.354 96.6 125.93 96.012 126.662 95.604C127.394 95.196 128.234 94.992 129.182 94.992C130.142 94.992 130.976 95.196 131.684 95.604C132.404 96.012 132.95 96.558 133.322 97.242C133.706 97.926 133.898 98.682 133.898 99.51ZM132.242 99.618C132.278 98.886 132.158 98.274 131.882 97.782C131.606 97.29 131.228 96.924 130.748 96.684C130.268 96.444 129.746 96.324 129.182 96.324C128.282 96.324 127.526 96.606 126.914 97.17C126.302 97.722 125.972 98.538 125.924 99.618H132.242ZM145.131 99.51C145.131 99.858 145.107 100.158 145.059 100.41H137.157C137.193 101.538 137.511 102.384 138.111 102.948C138.723 103.512 139.467 103.794 140.343 103.794C141.135 103.794 141.795 103.596 142.323 103.2C142.863 102.792 143.193 102.252 143.313 101.58H145.059C144.939 102.264 144.669 102.876 144.249 103.416C143.841 103.956 143.307 104.376 142.647 104.676C141.987 104.976 141.243 105.126 140.415 105.126C139.467 105.126 138.627 104.922 137.895 104.514C137.163 104.106 136.587 103.524 136.167 102.768C135.759 102 135.555 101.1 135.555 100.068C135.555 99.036 135.759 98.136 136.167 97.368C136.587 96.6 137.163 96.012 137.895 95.604C138.627 95.196 139.467 94.992 140.415 94.992C141.375 94.992 142.209 95.196 142.917 95.604C143.637 96.012 144.183 96.558 144.555 97.242C144.939 97.926 145.131 98.682 145.131 99.51ZM143.475 99.618C143.511 98.886 143.391 98.274 143.115 97.782C142.839 97.29 142.461 96.924 141.981 96.684C141.501 96.444 140.979 96.324 140.415 96.324C139.515 96.324 138.759 96.606 138.147 97.17C137.535 97.722 137.205 98.538 137.157 99.618H143.475ZM148.911 97.116C149.235 96.432 149.709 95.904 150.333 95.532C150.957 95.148 151.701 94.956 152.565 94.956V96.738H152.061C151.137 96.738 150.381 96.978 149.793 97.458C149.205 97.926 148.911 98.706 148.911 99.798V105H147.273V95.118H148.911V97.116ZM157.277 94.992C158.393 94.992 159.287 95.286 159.959 95.874C160.643 96.45 161.057 97.23 161.201 98.214H159.635C159.563 97.626 159.317 97.146 158.897 96.774C158.489 96.39 157.937 96.198 157.241 96.198C156.653 96.198 156.191 96.342 155.855 96.63C155.531 96.906 155.369 97.284 155.369 97.764C155.369 98.124 155.477 98.418 155.693 98.646C155.921 98.862 156.197 99.03 156.521 99.15C156.857 99.258 157.313 99.378 157.889 99.51C158.621 99.678 159.209 99.852 159.653 100.032C160.109 100.2 160.493 100.476 160.805 100.86C161.129 101.244 161.291 101.76 161.291 102.408C161.291 103.212 160.985 103.866 160.373 104.37C159.773 104.874 158.969 105.126 157.961 105.126C156.785 105.126 155.825 104.844 155.081 104.28C154.337 103.716 153.899 102.93 153.767 101.922H155.351C155.411 102.522 155.669 103.008 156.125 103.38C156.593 103.752 157.205 103.938 157.961 103.938C158.525 103.938 158.963 103.794 159.275 103.506C159.599 103.218 159.761 102.84 159.761 102.372C159.761 101.988 159.647 101.682 159.419 101.454C159.191 101.226 158.909 101.052 158.573 100.932C158.237 100.812 157.775 100.686 157.187 100.554C156.455 100.386 155.867 100.218 155.423 100.05C154.991 99.882 154.619 99.618 154.307 99.258C154.007 98.886 153.857 98.388 153.857 97.764C153.857 96.936 154.163 96.27 154.775 95.766C155.387 95.25 156.221 94.992 157.277 94.992Z" fill="#7A7A7A"/>
</svg>
