<svg width="555" height="280" viewBox="0 0 555 280" fill="none" xmlns="http://www.w3.org/2000/svg">
<path d="M48.7 22.76C50.42 22.76 51.84 23.1867 52.96 24.04C54.08 24.88 54.8533 26.0333 55.28 27.5H53.36C53 26.5667 52.42 25.8267 51.62 25.28C50.82 24.72 49.84 24.44 48.68 24.44C47.76 24.44 46.9333 24.6667 46.2 25.12C45.48 25.56 44.9067 26.2 44.48 27.04C44.0667 27.8667 43.86 28.84 43.86 29.96C43.86 31.0667 44.0667 32.0333 44.48 32.86C44.9067 33.6867 45.48 34.3267 46.2 34.78C46.9333 35.22 47.76 35.44 48.68 35.44C49.84 35.44 50.82 35.1667 51.62 34.62C52.42 34.06 53 33.3133 53.36 32.38H55.28C54.8533 33.8467 54.08 35.0067 52.96 35.86C51.84 36.7 50.42 37.12 48.7 37.12C47.38 37.12 46.2133 36.82 45.2 36.22C44.1867 35.6067 43.3933 34.76 42.82 33.68C42.26 32.5867 41.98 31.3467 41.98 29.96C41.98 28.56 42.26 27.3133 42.82 26.22C43.3933 25.1267 44.1867 24.28 45.2 23.68C46.2133 23.0667 47.38 22.76 48.7 22.76ZM59.5339 28.24C59.8939 27.48 60.4206 26.8933 61.1139 26.48C61.8072 26.0533 62.6339 25.84 63.5939 25.84V27.82H63.0339C62.0072 27.82 61.1672 28.0867 60.5139 28.62C59.8606 29.14 59.5339 30.0067 59.5339 31.22V37H57.7139V26.02H59.5339V28.24ZM69.8897 25.88C70.9564 25.88 71.8564 26.1467 72.5897 26.68C73.3364 27.2133 73.8564 27.9267 74.1497 28.82V26.02H75.9697V37H74.1497V34.2C73.8564 35.0933 73.3364 35.8067 72.5897 36.34C71.8564 36.8733 70.9564 37.14 69.8897 37.14C68.9164 37.14 68.0497 36.9133 67.2897 36.46C66.5297 36.0067 65.9297 35.36 65.4897 34.52C65.063 33.6667 64.8497 32.6667 64.8497 31.52C64.8497 30.3733 65.063 29.3733 65.4897 28.52C65.9297 27.6667 66.5297 27.0133 67.2897 26.56C68.0497 26.1067 68.9164 25.88 69.8897 25.88ZM70.4097 27.5C69.2897 27.5 68.3897 27.86 67.7097 28.58C67.043 29.2867 66.7097 30.2667 66.7097 31.52C66.7097 32.7733 67.043 33.76 67.7097 34.48C68.3897 35.1867 69.2897 35.54 70.4097 35.54C71.1297 35.54 71.7697 35.3733 72.3297 35.04C72.903 34.7067 73.3497 34.24 73.6697 33.64C73.9897 33.0267 74.1497 32.32 74.1497 31.52C74.1497 30.72 73.9897 30.0133 73.6697 29.4C73.3497 28.7867 72.903 28.32 72.3297 28C71.7697 27.6667 71.1297 27.5 70.4097 27.5ZM82.3063 25.88C83.5463 25.88 84.5396 26.2067 85.2863 26.86C86.0463 27.5 86.5063 28.3667 86.6663 29.46H84.9263C84.8463 28.8067 84.5729 28.2733 84.1063 27.86C83.6529 27.4333 83.0396 27.22 82.2663 27.22C81.6129 27.22 81.0996 27.38 80.7263 27.7C80.3663 28.0067 80.1863 28.4267 80.1863 28.96C80.1863 29.36 80.3063 29.6867 80.5463 29.94C80.7996 30.18 81.1063 30.3667 81.4663 30.5C81.8396 30.62 82.3463 30.7533 82.9863 30.9C83.7996 31.0867 84.4529 31.28 84.9463 31.48C85.4529 31.6667 85.8796 31.9733 86.2263 32.4C86.5863 32.8267 86.7663 33.4 86.7663 34.12C86.7663 35.0133 86.4263 35.74 85.7463 36.3C85.0796 36.86 84.1863 37.14 83.0663 37.14C81.7596 37.14 80.6929 36.8267 79.8663 36.2C79.0396 35.5733 78.5529 34.7 78.4063 33.58H80.1663C80.2329 34.2467 80.5196 34.7867 81.0263 35.2C81.5463 35.6133 82.2263 35.82 83.0663 35.82C83.6929 35.82 84.1796 35.66 84.5263 35.34C84.8863 35.02 85.0663 34.6 85.0663 34.08C85.0663 33.6533 84.9396 33.3133 84.6863 33.06C84.4329 32.8067 84.1196 32.6133 83.7463 32.48C83.3729 32.3467 82.8596 32.2067 82.2063 32.06C81.3929 31.8733 80.7396 31.6867 80.2463 31.5C79.7663 31.3133 79.3529 31.02 79.0063 30.62C78.6729 30.2067 78.5063 29.6533 78.5063 28.96C78.5063 28.04 78.8463 27.3 79.5263 26.74C80.2063 26.1667 81.1329 25.88 82.3063 25.88ZM98.9997 25.88C100.4 25.88 101.56 26.2533 102.48 27C103.4 27.7467 103.966 28.7467 104.18 30H102.26C102.126 29.2133 101.76 28.6 101.16 28.16C100.573 27.7067 99.8397 27.48 98.9597 27.48C98.3197 27.48 97.733 27.6267 97.1997 27.92C96.6797 28.2133 96.2597 28.6667 95.9397 29.28C95.6197 29.88 95.4597 30.6267 95.4597 31.52C95.4597 32.4133 95.6197 33.1667 95.9397 33.78C96.2597 34.38 96.6797 34.8267 97.1997 35.12C97.733 35.4133 98.3197 35.56 98.9597 35.56C99.8397 35.56 100.573 35.3333 101.16 34.88C101.76 34.4267 102.126 33.8067 102.26 33.02H104.18C103.966 34.2867 103.4 35.2933 102.48 36.04C101.56 36.7733 100.4 37.14 98.9997 37.14C97.9464 37.14 97.013 36.9133 96.1997 36.46C95.3864 36.0067 94.7464 35.36 94.2797 34.52C93.8264 33.6667 93.5997 32.6667 93.5997 31.52C93.5997 30.3733 93.8264 29.3733 94.2797 28.52C94.7464 27.6667 95.3864 27.0133 96.1997 26.56C97.013 26.1067 97.9464 25.88 98.9997 25.88ZM111.542 25.88C112.595 25.88 113.535 26.1067 114.362 26.56C115.202 27.0133 115.855 27.6667 116.322 28.52C116.802 29.3733 117.042 30.3733 117.042 31.52C117.042 32.6667 116.802 33.6667 116.322 34.52C115.855 35.36 115.202 36.0067 114.362 36.46C113.535 36.9133 112.595 37.14 111.542 37.14C110.488 37.14 109.542 36.9133 108.702 36.46C107.875 36.0067 107.222 35.36 106.742 34.52C106.262 33.6667 106.022 32.6667 106.022 31.52C106.022 30.3733 106.262 29.3733 106.742 28.52C107.222 27.6667 107.875 27.0133 108.702 26.56C109.542 26.1067 110.488 25.88 111.542 25.88ZM111.542 27.48C110.888 27.48 110.282 27.6267 109.722 27.92C109.175 28.2133 108.728 28.6667 108.382 29.28C108.048 29.88 107.882 30.6267 107.882 31.52C107.882 32.4 108.048 33.1467 108.382 33.76C108.728 34.36 109.175 34.8067 109.722 35.1C110.282 35.3933 110.888 35.54 111.542 35.54C112.195 35.54 112.795 35.3933 113.342 35.1C113.902 34.8067 114.348 34.36 114.682 33.76C115.028 33.1467 115.202 32.4 115.202 31.52C115.202 30.6267 115.028 29.88 114.682 29.28C114.348 28.6667 113.902 28.2133 113.342 27.92C112.795 27.6267 112.195 27.48 111.542 27.48ZM125.193 25.84C126.473 25.84 127.506 26.2533 128.293 27.08C129.08 27.8933 129.473 29.0733 129.473 30.62V37H127.653V30.78C127.653 29.6867 127.373 28.8467 126.813 28.26C126.253 27.6733 125.493 27.38 124.533 27.38C123.533 27.38 122.733 27.7067 122.133 28.36C121.533 29 121.233 29.94 121.233 31.18V37H119.413V26.02H121.233V28.62C121.513 27.7267 122.006 27.04 122.713 26.56C123.433 26.08 124.26 25.84 125.193 25.84ZM136.765 25.88C137.831 25.88 138.731 26.1467 139.465 26.68C140.211 27.2133 140.731 27.9267 141.025 28.82V26.02H142.845V37.18C142.845 38.1933 142.631 39.0933 142.205 39.88C141.778 40.6667 141.178 41.28 140.405 41.72C139.631 42.16 138.731 42.38 137.705 42.38C136.225 42.38 135.018 42.02 134.085 41.3C133.151 40.5933 132.558 39.6333 132.305 38.42H134.105C134.318 39.1533 134.718 39.7267 135.305 40.14C135.905 40.5667 136.671 40.78 137.605 40.78C138.591 40.78 139.405 40.46 140.045 39.82C140.698 39.1933 141.025 38.3133 141.025 37.18V34.2C140.731 35.0933 140.211 35.8067 139.465 36.34C138.731 36.8733 137.831 37.14 136.765 37.14C135.791 37.14 134.925 36.9133 134.165 36.46C133.405 36.0067 132.805 35.36 132.365 34.52C131.938 33.6667 131.725 32.6667 131.725 31.52C131.725 30.3733 131.938 29.3733 132.365 28.52C132.805 27.6667 133.405 27.0133 134.165 26.56C134.925 26.1067 135.791 25.88 136.765 25.88ZM137.285 27.5C136.165 27.5 135.265 27.86 134.585 28.58C133.918 29.2867 133.585 30.2667 133.585 31.52C133.585 32.7733 133.918 33.76 134.585 34.48C135.265 35.1867 136.165 35.54 137.285 35.54C138.005 35.54 138.645 35.3733 139.205 35.04C139.778 34.7067 140.225 34.24 140.545 33.64C140.865 33.0267 141.025 32.32 141.025 31.52C141.025 30.72 140.865 30.0133 140.545 29.4C140.225 28.7867 139.778 28.32 139.205 28C138.645 27.6667 138.005 27.5 137.285 27.5ZM155.501 26.02V37H153.681V34.42C153.401 35.3133 152.901 36 152.181 36.48C151.475 36.9467 150.648 37.18 149.701 37.18C148.435 37.18 147.408 36.7733 146.621 35.96C145.835 35.1333 145.441 33.9533 145.441 32.42V26.02H147.261V32.24C147.261 33.3333 147.541 34.18 148.101 34.78C148.661 35.3667 149.421 35.66 150.381 35.66C151.381 35.66 152.181 35.34 152.781 34.7C153.381 34.0467 153.681 33.1 153.681 31.86V26.02H155.501ZM168.517 30.9C168.517 31.2867 168.49 31.62 168.437 31.9H159.657C159.697 33.1533 160.05 34.0933 160.717 34.72C161.397 35.3467 162.224 35.66 163.197 35.66C164.077 35.66 164.81 35.44 165.397 35C165.997 34.5467 166.364 33.9467 166.497 33.2H168.437C168.304 33.96 168.004 34.64 167.537 35.24C167.084 35.84 166.49 36.3067 165.757 36.64C165.024 36.9733 164.197 37.14 163.277 37.14C162.224 37.14 161.29 36.9133 160.477 36.46C159.664 36.0067 159.024 35.36 158.557 34.52C158.104 33.6667 157.877 32.6667 157.877 31.52C157.877 30.3733 158.104 29.3733 158.557 28.52C159.024 27.6667 159.664 27.0133 160.477 26.56C161.29 26.1067 162.224 25.88 163.277 25.88C164.344 25.88 165.27 26.1067 166.057 26.56C166.857 27.0133 167.464 27.62 167.877 28.38C168.304 29.14 168.517 29.98 168.517 30.9ZM166.677 31.02C166.717 30.2067 166.584 29.5267 166.277 28.98C165.97 28.4333 165.55 28.0267 165.017 27.76C164.484 27.4933 163.904 27.36 163.277 27.36C162.277 27.36 161.437 27.6733 160.757 28.3C160.077 28.9133 159.71 29.82 159.657 31.02H166.677ZM179.279 25.88C180.519 25.88 181.512 26.2067 182.259 26.86C183.019 27.5 183.479 28.3667 183.639 29.46H181.899C181.819 28.8067 181.546 28.2733 181.079 27.86C180.626 27.4333 180.012 27.22 179.239 27.22C178.586 27.22 178.072 27.38 177.699 27.7C177.339 28.0067 177.159 28.4267 177.159 28.96C177.159 29.36 177.279 29.6867 177.519 29.94C177.772 30.18 178.079 30.3667 178.439 30.5C178.812 30.62 179.319 30.7533 179.959 30.9C180.772 31.0867 181.426 31.28 181.919 31.48C182.426 31.6667 182.852 31.9733 183.199 32.4C183.559 32.8267 183.739 33.4 183.739 34.12C183.739 35.0133 183.399 35.74 182.719 36.3C182.052 36.86 181.159 37.14 180.039 37.14C178.732 37.14 177.666 36.8267 176.839 36.2C176.012 35.5733 175.526 34.7 175.379 33.58H177.139C177.206 34.2467 177.492 34.7867 177.999 35.2C178.519 35.6133 179.199 35.82 180.039 35.82C180.666 35.82 181.152 35.66 181.499 35.34C181.859 35.02 182.039 34.6 182.039 34.08C182.039 33.6533 181.912 33.3133 181.659 33.06C181.406 32.8067 181.092 32.6133 180.719 32.48C180.346 32.3467 179.832 32.2067 179.179 32.06C178.366 31.8733 177.712 31.6867 177.219 31.5C176.739 31.3133 176.326 31.02 175.979 30.62C175.646 30.2067 175.479 29.6533 175.479 28.96C175.479 28.04 175.819 27.3 176.499 26.74C177.179 26.1667 178.106 25.88 179.279 25.88ZM190.671 25.88C191.738 25.88 192.638 26.1467 193.371 26.68C194.118 27.2133 194.638 27.9267 194.931 28.82V26.02H196.751V37H194.931V34.2C194.638 35.0933 194.118 35.8067 193.371 36.34C192.638 36.8733 191.738 37.14 190.671 37.14C189.698 37.14 188.831 36.9133 188.071 36.46C187.311 36.0067 186.711 35.36 186.271 34.52C185.844 33.6667 185.631 32.6667 185.631 31.52C185.631 30.3733 185.844 29.3733 186.271 28.52C186.711 27.6667 187.311 27.0133 188.071 26.56C188.831 26.1067 189.698 25.88 190.671 25.88ZM191.191 27.5C190.071 27.5 189.171 27.86 188.491 28.58C187.824 29.2867 187.491 30.2667 187.491 31.52C187.491 32.7733 187.824 33.76 188.491 34.48C189.171 35.1867 190.071 35.54 191.191 35.54C191.911 35.54 192.551 35.3733 193.111 35.04C193.684 34.7067 194.131 34.24 194.451 33.64C194.771 33.0267 194.931 32.32 194.931 31.52C194.931 30.72 194.771 30.0133 194.451 29.4C194.131 28.7867 193.684 28.32 193.111 28C192.551 27.6667 191.911 27.5 191.191 27.5ZM205.708 25.88C206.681 25.88 207.548 26.1067 208.308 26.56C209.068 27.0133 209.661 27.6667 210.088 28.52C210.528 29.3733 210.748 30.3733 210.748 31.52C210.748 32.6667 210.528 33.6667 210.088 34.52C209.661 35.36 209.068 36.0067 208.308 36.46C207.548 36.9133 206.681 37.14 205.708 37.14C204.641 37.14 203.734 36.8733 202.988 36.34C202.254 35.7933 201.748 35.08 201.468 34.2V42.2H199.648V26.02H201.468V28.82C201.748 27.94 202.254 27.2333 202.988 26.7C203.734 26.1533 204.641 25.88 205.708 25.88ZM205.188 27.5C204.481 27.5 203.841 27.6667 203.268 28C202.694 28.32 202.248 28.7867 201.928 29.4C201.608 30.0133 201.448 30.72 201.448 31.52C201.448 32.32 201.608 33.0267 201.928 33.64C202.248 34.24 202.694 34.7067 203.268 35.04C203.841 35.3733 204.481 35.54 205.188 35.54C206.321 35.54 207.221 35.1867 207.888 34.48C208.568 33.76 208.908 32.7733 208.908 31.52C208.908 30.2667 208.568 29.2867 207.888 28.58C207.221 27.86 206.321 27.5 205.188 27.5ZM212.804 22.8C212.804 22.4667 212.917 22.2 213.144 22C213.371 21.7867 213.671 21.68 214.044 21.68C214.417 21.68 214.717 21.7867 214.944 22C215.171 22.2 215.284 22.4667 215.284 22.8C215.284 23.1333 215.171 23.4067 214.944 23.62C214.717 23.82 214.417 23.92 214.044 23.92C213.671 23.92 213.371 23.82 213.144 23.62C212.917 23.4067 212.804 23.1333 212.804 22.8ZM214.944 26.02V37H213.124V26.02H214.944ZM227.97 30.9C227.97 31.2867 227.943 31.62 227.89 31.9H219.11C219.15 33.1533 219.503 34.0933 220.17 34.72C220.85 35.3467 221.677 35.66 222.65 35.66C223.53 35.66 224.263 35.44 224.85 35C225.45 34.5467 225.817 33.9467 225.95 33.2H227.89C227.757 33.96 227.457 34.64 226.99 35.24C226.537 35.84 225.943 36.3067 225.21 36.64C224.477 36.9733 223.65 37.14 222.73 37.14C221.677 37.14 220.743 36.9133 219.93 36.46C219.117 36.0067 218.477 35.36 218.01 34.52C217.557 33.6667 217.33 32.6667 217.33 31.52C217.33 30.3733 217.557 29.3733 218.01 28.52C218.477 27.6667 219.117 27.0133 219.93 26.56C220.743 26.1067 221.677 25.88 222.73 25.88C223.797 25.88 224.723 26.1067 225.51 26.56C226.31 27.0133 226.917 27.62 227.33 28.38C227.757 29.14 227.97 29.98 227.97 30.9ZM226.13 31.02C226.17 30.2067 226.037 29.5267 225.73 28.98C225.423 28.4333 225.003 28.0267 224.47 27.76C223.937 27.4933 223.357 27.36 222.73 27.36C221.73 27.36 220.89 27.6733 220.21 28.3C219.53 28.9133 219.163 29.82 219.11 31.02H226.13ZM236.131 25.84C237.411 25.84 238.444 26.2533 239.231 27.08C240.017 27.8933 240.411 29.0733 240.411 30.62V37H238.591V30.78C238.591 29.6867 238.311 28.8467 237.751 28.26C237.191 27.6733 236.431 27.38 235.471 27.38C234.471 27.38 233.671 27.7067 233.071 28.36C232.471 29 232.171 29.94 232.171 31.18V37H230.351V26.02H232.171V28.62C232.451 27.7267 232.944 27.04 233.651 26.56C234.371 26.08 235.197 25.84 236.131 25.84ZM252.644 25.88C253.71 25.88 254.61 26.1467 255.344 26.68C256.09 27.2133 256.61 27.9267 256.904 28.82V26.02H258.724V37H256.904V34.2C256.61 35.0933 256.09 35.8067 255.344 36.34C254.61 36.8733 253.71 37.14 252.644 37.14C251.67 37.14 250.804 36.9133 250.044 36.46C249.284 36.0067 248.684 35.36 248.244 34.52C247.817 33.6667 247.604 32.6667 247.604 31.52C247.604 30.3733 247.817 29.3733 248.244 28.52C248.684 27.6667 249.284 27.0133 250.044 26.56C250.804 26.1067 251.67 25.88 252.644 25.88ZM253.164 27.5C252.044 27.5 251.144 27.86 250.464 28.58C249.797 29.2867 249.464 30.2667 249.464 31.52C249.464 32.7733 249.797 33.76 250.464 34.48C251.144 35.1867 252.044 35.54 253.164 35.54C253.884 35.54 254.524 35.3733 255.084 35.04C255.657 34.7067 256.104 34.24 256.424 33.64C256.744 33.0267 256.904 32.32 256.904 31.52C256.904 30.72 256.744 30.0133 256.424 29.4C256.104 28.7867 255.657 28.32 255.084 28C254.524 27.6667 253.884 27.5 253.164 27.5ZM266.48 25.88C267.88 25.88 269.04 26.2533 269.96 27C270.88 27.7467 271.447 28.7467 271.66 30H269.74C269.607 29.2133 269.24 28.6 268.64 28.16C268.053 27.7067 267.32 27.48 266.44 27.48C265.8 27.48 265.213 27.6267 264.68 27.92C264.16 28.2133 263.74 28.6667 263.42 29.28C263.1 29.88 262.94 30.6267 262.94 31.52C262.94 32.4133 263.1 33.1667 263.42 33.78C263.74 34.38 264.16 34.8267 264.68 35.12C265.213 35.4133 265.8 35.56 266.44 35.56C267.32 35.56 268.053 35.3333 268.64 34.88C269.24 34.4267 269.607 33.8067 269.74 33.02H271.66C271.447 34.2867 270.88 35.2933 269.96 36.04C269.04 36.7733 267.88 37.14 266.48 37.14C265.427 37.14 264.493 36.9133 263.68 36.46C262.867 36.0067 262.227 35.36 261.76 34.52C261.307 33.6667 261.08 32.6667 261.08 31.52C261.08 30.3733 261.307 29.3733 261.76 28.52C262.227 27.6667 262.867 27.0133 263.68 26.56C264.493 26.1067 265.427 25.88 266.48 25.88ZM292.483 25.84C293.763 25.84 294.79 26.2533 295.563 27.08C296.35 27.8933 296.743 29.0733 296.743 30.62V37H294.923V30.78C294.923 29.7 294.657 28.8733 294.123 28.3C293.603 27.7267 292.883 27.44 291.963 27.44C291.003 27.44 290.23 27.76 289.643 28.4C289.07 29.0267 288.783 29.9533 288.783 31.18V37H286.963V30.78C286.963 29.7 286.697 28.8733 286.163 28.3C285.63 27.7267 284.91 27.44 284.003 27.44C283.03 27.44 282.25 27.76 281.663 28.4C281.09 29.0267 280.803 29.9533 280.803 31.18V37H278.983V26.02H280.803V28.52C281.07 27.6533 281.543 26.9933 282.223 26.54C282.917 26.0733 283.71 25.84 284.603 25.84C285.537 25.84 286.343 26.08 287.023 26.56C287.717 27.0267 288.21 27.72 288.503 28.64C288.81 27.7467 289.323 27.06 290.043 26.58C290.763 26.0867 291.577 25.84 292.483 25.84ZM309.669 30.9C309.669 31.2867 309.643 31.62 309.589 31.9H300.809C300.849 33.1533 301.203 34.0933 301.869 34.72C302.549 35.3467 303.376 35.66 304.349 35.66C305.229 35.66 305.963 35.44 306.549 35C307.149 34.5467 307.516 33.9467 307.649 33.2H309.589C309.456 33.96 309.156 34.64 308.689 35.24C308.236 35.84 307.643 36.3067 306.909 36.64C306.176 36.9733 305.349 37.14 304.429 37.14C303.376 37.14 302.443 36.9133 301.629 36.46C300.816 36.0067 300.176 35.36 299.709 34.52C299.256 33.6667 299.029 32.6667 299.029 31.52C299.029 30.3733 299.256 29.3733 299.709 28.52C300.176 27.6667 300.816 27.0133 301.629 26.56C302.443 26.1067 303.376 25.88 304.429 25.88C305.496 25.88 306.423 26.1067 307.209 26.56C308.009 27.0133 308.616 27.62 309.029 28.38C309.456 29.14 309.669 29.98 309.669 30.9ZM307.829 31.02C307.869 30.2067 307.736 29.5267 307.429 28.98C307.123 28.4333 306.703 28.0267 306.169 27.76C305.636 27.4933 305.056 27.36 304.429 27.36C303.429 27.36 302.589 27.6733 301.909 28.3C301.229 28.9133 300.863 29.82 300.809 31.02H307.829ZM317.29 35.4V37H315.93C314.81 37 313.97 36.7333 313.41 36.2C312.863 35.6667 312.59 34.7733 312.59 33.52V27.6H310.95V26.02H312.59V23.28H314.43V26.02H317.27V27.6H314.43V33.56C314.43 34.2667 314.557 34.7533 314.81 35.02C315.077 35.2733 315.53 35.4 316.17 35.4H317.29ZM329.271 26.02V37H327.451V34.42C327.171 35.3133 326.671 36 325.951 36.48C325.244 36.9467 324.417 37.18 323.471 37.18C322.204 37.18 321.177 36.7733 320.391 35.96C319.604 35.1333 319.211 33.9533 319.211 32.42V26.02H321.031V32.24C321.031 33.3333 321.311 34.18 321.871 34.78C322.431 35.3667 323.191 35.66 324.151 35.66C325.151 35.66 325.951 35.34 326.551 34.7C327.151 34.0467 327.451 33.1 327.451 31.86V26.02H329.271ZM335.627 25.88C336.867 25.88 337.86 26.2067 338.607 26.86C339.367 27.5 339.827 28.3667 339.987 29.46H338.247C338.167 28.8067 337.893 28.2733 337.427 27.86C336.973 27.4333 336.36 27.22 335.587 27.22C334.933 27.22 334.42 27.38 334.047 27.7C333.687 28.0067 333.507 28.4267 333.507 28.96C333.507 29.36 333.627 29.6867 333.867 29.94C334.12 30.18 334.427 30.3667 334.787 30.5C335.16 30.62 335.667 30.7533 336.307 30.9C337.12 31.0867 337.773 31.28 338.267 31.48C338.773 31.6667 339.2 31.9733 339.547 32.4C339.907 32.8267 340.087 33.4 340.087 34.12C340.087 35.0133 339.747 35.74 339.067 36.3C338.4 36.86 337.507 37.14 336.387 37.14C335.08 37.14 334.013 36.8267 333.187 36.2C332.36 35.5733 331.873 34.7 331.727 33.58H333.487C333.553 34.2467 333.84 34.7867 334.347 35.2C334.867 35.6133 335.547 35.82 336.387 35.82C337.013 35.82 337.5 35.66 337.847 35.34C338.207 35.02 338.387 34.6 338.387 34.08C338.387 33.6533 338.26 33.3133 338.007 33.06C337.753 32.8067 337.44 32.6133 337.067 32.48C336.693 32.3467 336.18 32.2067 335.527 32.06C334.713 31.8733 334.06 31.6867 333.567 31.5C333.087 31.3133 332.673 31.02 332.327 30.62C331.993 30.2067 331.827 29.6533 331.827 28.96C331.827 28.04 332.167 27.3 332.847 26.74C333.527 26.1667 334.453 25.88 335.627 25.88ZM343.579 35.66C343.765 36.2467 343.859 36.7933 343.859 37.3C343.859 37.9933 343.685 38.5467 343.339 38.96C342.992 39.3867 342.472 39.6 341.779 39.6V38.82C342.112 38.82 342.352 38.7267 342.499 38.54C342.659 38.3667 342.739 38.0867 342.739 37.7V37.52H341.719V35.66H343.579ZM352.776 22.2V37H350.956V22.2H352.776ZM355.382 22.8C355.382 22.4667 355.496 22.2 355.722 22C355.949 21.7867 356.249 21.68 356.622 21.68C356.996 21.68 357.296 21.7867 357.522 22C357.749 22.2 357.862 22.4667 357.862 22.8C357.862 23.1333 357.749 23.4067 357.522 23.62C357.296 23.82 356.996 23.92 356.622 23.92C356.249 23.92 355.949 23.82 355.722 23.62C355.496 23.4067 355.382 23.1333 355.382 22.8ZM357.522 26.02V37H355.702V26.02H357.522ZM364.948 25.88C366.015 25.88 366.915 26.1467 367.648 26.68C368.395 27.2133 368.915 27.9267 369.208 28.82V26.02H371.028V37.18C371.028 38.1933 370.815 39.0933 370.388 39.88C369.962 40.6667 369.362 41.28 368.588 41.72C367.815 42.16 366.915 42.38 365.888 42.38C364.408 42.38 363.202 42.02 362.268 41.3C361.335 40.5933 360.742 39.6333 360.488 38.42H362.288C362.502 39.1533 362.902 39.7267 363.488 40.14C364.088 40.5667 364.855 40.78 365.788 40.78C366.775 40.78 367.588 40.46 368.228 39.82C368.882 39.1933 369.208 38.3133 369.208 37.18V34.2C368.915 35.0933 368.395 35.8067 367.648 36.34C366.915 36.8733 366.015 37.14 364.948 37.14C363.975 37.14 363.108 36.9133 362.348 36.46C361.588 36.0067 360.988 35.36 360.548 34.52C360.122 33.6667 359.908 32.6667 359.908 31.52C359.908 30.3733 360.122 29.3733 360.548 28.52C360.988 27.6667 361.588 27.0133 362.348 26.56C363.108 26.1067 363.975 25.88 364.948 25.88ZM365.468 27.5C364.348 27.5 363.448 27.86 362.768 28.58C362.102 29.2867 361.768 30.2667 361.768 31.52C361.768 32.7733 362.102 33.76 362.768 34.48C363.448 35.1867 364.348 35.54 365.468 35.54C366.188 35.54 366.828 35.3733 367.388 35.04C367.962 34.7067 368.408 34.24 368.728 33.64C369.048 33.0267 369.208 32.32 369.208 31.52C369.208 30.72 369.048 30.0133 368.728 29.4C368.408 28.7867 367.962 28.32 367.388 28C366.828 27.6667 366.188 27.5 365.468 27.5ZM383.685 26.02V37H381.865V34.42C381.585 35.3133 381.085 36 380.365 36.48C379.658 36.9467 378.832 37.18 377.885 37.18C376.618 37.18 375.592 36.7733 374.805 35.96C374.018 35.1333 373.625 33.9533 373.625 32.42V26.02H375.445V32.24C375.445 33.3333 375.725 34.18 376.285 34.78C376.845 35.3667 377.605 35.66 378.565 35.66C379.565 35.66 380.365 35.34 380.965 34.7C381.565 34.0467 381.865 33.1 381.865 31.86V26.02H383.685ZM388.421 22.2V37H386.601V22.2H388.421ZM395.847 25.88C396.913 25.88 397.813 26.1467 398.547 26.68C399.293 27.2133 399.813 27.9267 400.107 28.82V26.02H401.927V37H400.107V34.2C399.813 35.0933 399.293 35.8067 398.547 36.34C397.813 36.8733 396.913 37.14 395.847 37.14C394.873 37.14 394.007 36.9133 393.247 36.46C392.487 36.0067 391.887 35.36 391.447 34.52C391.02 33.6667 390.807 32.6667 390.807 31.52C390.807 30.3733 391.02 29.3733 391.447 28.52C391.887 27.6667 392.487 27.0133 393.247 26.56C394.007 26.1067 394.873 25.88 395.847 25.88ZM396.367 27.5C395.247 27.5 394.347 27.86 393.667 28.58C393 29.2867 392.667 30.2667 392.667 31.52C392.667 32.7733 393 33.76 393.667 34.48C394.347 35.1867 395.247 35.54 396.367 35.54C397.087 35.54 397.727 35.3733 398.287 35.04C398.86 34.7067 399.307 34.24 399.627 33.64C399.947 33.0267 400.107 32.32 400.107 31.52C400.107 30.72 399.947 30.0133 399.627 29.4C399.307 28.7867 398.86 28.32 398.287 28C397.727 27.6667 397.087 27.5 396.367 27.5ZM414.625 25.88C416.025 25.88 417.185 26.2533 418.105 27C419.025 27.7467 419.591 28.7467 419.805 30H417.885C417.751 29.2133 417.385 28.6 416.785 28.16C416.198 27.7067 415.465 27.48 414.585 27.48C413.945 27.48 413.358 27.6267 412.825 27.92C412.305 28.2133 411.885 28.6667 411.565 29.28C411.245 29.88 411.085 30.6267 411.085 31.52C411.085 32.4133 411.245 33.1667 411.565 33.78C411.885 34.38 412.305 34.8267 412.825 35.12C413.358 35.4133 413.945 35.56 414.585 35.56C415.465 35.56 416.198 35.3333 416.785 34.88C417.385 34.4267 417.751 33.8067 417.885 33.02H419.805C419.591 34.2867 419.025 35.2933 418.105 36.04C417.185 36.7733 416.025 37.14 414.625 37.14C413.571 37.14 412.638 36.9133 411.825 36.46C411.011 36.0067 410.371 35.36 409.905 34.52C409.451 33.6667 409.225 32.6667 409.225 31.52C409.225 30.3733 409.451 29.3733 409.905 28.52C410.371 27.6667 411.011 27.0133 411.825 26.56C412.638 26.1067 413.571 25.88 414.625 25.88ZM427.167 25.88C428.22 25.88 429.16 26.1067 429.987 26.56C430.827 27.0133 431.48 27.6667 431.947 28.52C432.427 29.3733 432.667 30.3733 432.667 31.52C432.667 32.6667 432.427 33.6667 431.947 34.52C431.48 35.36 430.827 36.0067 429.987 36.46C429.16 36.9133 428.22 37.14 427.167 37.14C426.113 37.14 425.167 36.9133 424.327 36.46C423.5 36.0067 422.847 35.36 422.367 34.52C421.887 33.6667 421.647 32.6667 421.647 31.52C421.647 30.3733 421.887 29.3733 422.367 28.52C422.847 27.6667 423.5 27.0133 424.327 26.56C425.167 26.1067 426.113 25.88 427.167 25.88ZM427.167 27.48C426.513 27.48 425.907 27.6267 425.347 27.92C424.8 28.2133 424.353 28.6667 424.007 29.28C423.673 29.88 423.507 30.6267 423.507 31.52C423.507 32.4 423.673 33.1467 424.007 33.76C424.353 34.36 424.8 34.8067 425.347 35.1C425.907 35.3933 426.513 35.54 427.167 35.54C427.82 35.54 428.42 35.3933 428.967 35.1C429.527 34.8067 429.973 34.36 430.307 33.76C430.653 33.1467 430.827 32.4 430.827 31.52C430.827 30.6267 430.653 29.88 430.307 29.28C429.973 28.6667 429.527 28.2133 428.967 27.92C428.42 27.6267 427.82 27.48 427.167 27.48ZM440.818 25.84C442.098 25.84 443.131 26.2533 443.918 27.08C444.705 27.8933 445.098 29.0733 445.098 30.62V37H443.278V30.78C443.278 29.6867 442.998 28.8467 442.438 28.26C441.878 27.6733 441.118 27.38 440.158 27.38C439.158 27.38 438.358 27.7067 437.758 28.36C437.158 29 436.858 29.94 436.858 31.18V37H435.038V26.02H436.858V28.62C437.138 27.7267 437.631 27.04 438.338 26.56C439.058 26.08 439.885 25.84 440.818 25.84ZM452.39 25.88C453.456 25.88 454.356 26.1467 455.09 26.68C455.836 27.2133 456.356 27.9267 456.65 28.82V22.2H458.47V37H456.65V34.2C456.356 35.0933 455.836 35.8067 455.09 36.34C454.356 36.8733 453.456 37.14 452.39 37.14C451.416 37.14 450.55 36.9133 449.79 36.46C449.03 36.0067 448.43 35.36 447.99 34.52C447.563 33.6667 447.35 32.6667 447.35 31.52C447.35 30.3733 447.563 29.3733 447.99 28.52C448.43 27.6667 449.03 27.0133 449.79 26.56C450.55 26.1067 451.416 25.88 452.39 25.88ZM452.91 27.5C451.79 27.5 450.89 27.86 450.21 28.58C449.543 29.2867 449.21 30.2667 449.21 31.52C449.21 32.7733 449.543 33.76 450.21 34.48C450.89 35.1867 451.79 35.54 452.91 35.54C453.63 35.54 454.27 35.3733 454.83 35.04C455.403 34.7067 455.85 34.24 456.17 33.64C456.49 33.0267 456.65 32.32 456.65 31.52C456.65 30.72 456.49 30.0133 456.17 29.4C455.85 28.7867 455.403 28.32 454.83 28C454.27 27.6667 453.63 27.5 452.91 27.5ZM461.046 22.8C461.046 22.4667 461.16 22.2 461.386 22C461.613 21.7867 461.913 21.68 462.286 21.68C462.66 21.68 462.96 21.7867 463.186 22C463.413 22.2 463.526 22.4667 463.526 22.8C463.526 23.1333 463.413 23.4067 463.186 23.62C462.96 23.82 462.66 23.92 462.286 23.92C461.913 23.92 461.613 23.82 461.386 23.62C461.16 23.4067 461.046 23.1333 461.046 22.8ZM463.186 26.02V37H461.366V26.02H463.186ZM479.612 25.84C480.892 25.84 481.919 26.2533 482.692 27.08C483.479 27.8933 483.872 29.0733 483.872 30.62V37H482.052V30.78C482.052 29.7 481.786 28.8733 481.252 28.3C480.732 27.7267 480.012 27.44 479.092 27.44C478.132 27.44 477.359 27.76 476.772 28.4C476.199 29.0267 475.912 29.9533 475.912 31.18V37H474.092V30.78C474.092 29.7 473.826 28.8733 473.292 28.3C472.759 27.7267 472.039 27.44 471.132 27.44C470.159 27.44 469.379 27.76 468.792 28.4C468.219 29.0267 467.932 29.9533 467.932 31.18V37H466.112V26.02H467.932V28.52C468.199 27.6533 468.672 26.9933 469.352 26.54C470.046 26.0733 470.839 25.84 471.732 25.84C472.666 25.84 473.472 26.08 474.152 26.56C474.846 27.0267 475.339 27.72 475.632 28.64C475.939 27.7467 476.452 27.06 477.172 26.58C477.892 26.0867 478.706 25.84 479.612 25.84ZM496.798 30.9C496.798 31.2867 496.772 31.62 496.718 31.9H487.938C487.978 33.1533 488.332 34.0933 488.998 34.72C489.678 35.3467 490.505 35.66 491.478 35.66C492.358 35.66 493.092 35.44 493.678 35C494.278 34.5467 494.645 33.9467 494.778 33.2H496.718C496.585 33.96 496.285 34.64 495.818 35.24C495.365 35.84 494.772 36.3067 494.038 36.64C493.305 36.9733 492.478 37.14 491.558 37.14C490.505 37.14 489.572 36.9133 488.758 36.46C487.945 36.0067 487.305 35.36 486.838 34.52C486.385 33.6667 486.158 32.6667 486.158 31.52C486.158 30.3733 486.385 29.3733 486.838 28.52C487.305 27.6667 487.945 27.0133 488.758 26.56C489.572 26.1067 490.505 25.88 491.558 25.88C492.625 25.88 493.552 26.1067 494.338 26.56C495.138 27.0133 495.745 27.62 496.158 28.38C496.585 29.14 496.798 29.98 496.798 30.9ZM494.958 31.02C494.998 30.2067 494.865 29.5267 494.558 28.98C494.252 28.4333 493.832 28.0267 493.298 27.76C492.765 27.4933 492.185 27.36 491.558 27.36C490.558 27.36 489.718 27.6733 489.038 28.3C488.358 28.9133 487.992 29.82 487.938 31.02H494.958ZM504.959 25.84C506.239 25.84 507.272 26.2533 508.059 27.08C508.845 27.8933 509.239 29.0733 509.239 30.62V37H507.419V30.78C507.419 29.6867 507.139 28.8467 506.579 28.26C506.019 27.6733 505.259 27.38 504.299 27.38C503.299 27.38 502.499 27.7067 501.899 28.36C501.299 29 500.999 29.94 500.999 31.18V37H499.179V26.02H500.999V28.62C501.279 27.7267 501.772 27.04 502.479 26.56C503.199 26.08 504.025 25.84 504.959 25.84ZM517.27 35.4V37H515.91C514.79 37 513.95 36.7333 513.39 36.2C512.844 35.6667 512.57 34.7733 512.57 33.52V27.6H510.93V26.02H512.57V23.28H514.41V26.02H517.25V27.6H514.41V33.56C514.41 34.2667 514.537 34.7533 514.79 35.02C515.057 35.2733 515.51 35.4 516.15 35.4H517.27ZM529.251 26.02V37H527.431V34.42C527.151 35.3133 526.651 36 525.931 36.48C525.225 36.9467 524.398 37.18 523.451 37.18C522.185 37.18 521.158 36.7733 520.371 35.96C519.585 35.1333 519.191 33.9533 519.191 32.42V26.02H521.011V32.24C521.011 33.3333 521.291 34.18 521.851 34.78C522.411 35.3667 523.171 35.66 524.131 35.66C525.131 35.66 525.931 35.34 526.531 34.7C527.131 34.0467 527.431 33.1 527.431 31.86V26.02H529.251ZM545.667 25.84C546.947 25.84 547.974 26.2533 548.747 27.08C549.534 27.8933 549.927 29.0733 549.927 30.62V37H548.107V30.78C548.107 29.7 547.84 28.8733 547.307 28.3C546.787 27.7267 546.067 27.44 545.147 27.44C544.187 27.44 543.414 27.76 542.827 28.4C542.254 29.0267 541.967 29.9533 541.967 31.18V37H540.147V30.78C540.147 29.7 539.88 28.8733 539.347 28.3C538.814 27.7267 538.094 27.44 537.187 27.44C536.214 27.44 535.434 27.76 534.847 28.4C534.274 29.0267 533.987 29.9533 533.987 31.18V37H532.167V26.02H533.987V28.52C534.254 27.6533 534.727 26.9933 535.407 26.54C536.1 26.0733 536.894 25.84 537.787 25.84C538.72 25.84 539.527 26.08 540.207 26.56C540.9 27.0267 541.394 27.72 541.687 28.64C541.994 27.7467 542.507 27.06 543.227 26.58C543.947 26.0867 544.76 25.84 545.667 25.84ZM554.093 34.86V37H551.893V34.86H554.093ZM54.34 89.94C54.34 91.3667 54.0533 92.6133 53.48 93.68C52.9067 94.7333 52.06 95.5533 50.94 96.14C49.8333 96.7133 48.5 97 46.94 97H42.46V82.9H46.94C48.5 82.9 49.8333 83.1867 50.94 83.76C52.06 84.32 52.9067 85.1333 53.48 86.2C54.0533 87.2533 54.34 88.5 54.34 89.94ZM46.8 95.36C48.64 95.36 50.0467 94.8867 51.02 93.94C51.9933 92.9933 52.48 91.66 52.48 89.94C52.48 88.22 51.9933 86.8867 51.02 85.94C50.06 84.98 48.6533 84.5 46.8 84.5H44.28V95.36H46.8ZM61.7759 85.88C62.8293 85.88 63.7693 86.1067 64.5959 86.56C65.4359 87.0133 66.0893 87.6667 66.5559 88.52C67.0359 89.3733 67.2759 90.3733 67.2759 91.52C67.2759 92.6667 67.0359 93.6667 66.5559 94.52C66.0893 95.36 65.4359 96.0067 64.5959 96.46C63.7693 96.9133 62.8293 97.14 61.7759 97.14C60.7226 97.14 59.7759 96.9133 58.9359 96.46C58.1093 96.0067 57.4559 95.36 56.9759 94.52C56.4959 93.6667 56.2559 92.6667 56.2559 91.52C56.2559 90.3733 56.4959 89.3733 56.9759 88.52C57.4559 87.6667 58.1093 87.0133 58.9359 86.56C59.7759 86.1067 60.7226 85.88 61.7759 85.88ZM61.7759 87.48C61.1226 87.48 60.5159 87.6267 59.9559 87.92C59.4093 88.2133 58.9626 88.6667 58.6159 89.28C58.2826 89.88 58.1159 90.6267 58.1159 91.52C58.1159 92.4 58.2826 93.1467 58.6159 93.76C58.9626 94.36 59.4093 94.8067 59.9559 95.1C60.5159 95.3933 61.1226 95.54 61.7759 95.54C62.4293 95.54 63.0293 95.3933 63.5759 95.1C64.1359 94.8067 64.5826 94.36 64.9159 93.76C65.2626 93.1467 65.4359 92.4 65.4359 91.52C65.4359 90.6267 65.2626 89.88 64.9159 89.28C64.5826 88.6667 64.1359 88.2133 63.5759 87.92C63.0293 87.6267 62.4293 87.48 61.7759 87.48ZM75.4275 85.84C76.7075 85.84 77.7408 86.2533 78.5275 87.08C79.3142 87.8933 79.7075 89.0733 79.7075 90.62V97H77.8875V90.78C77.8875 89.6867 77.6075 88.8467 77.0475 88.26C76.4875 87.6733 75.7275 87.38 74.7675 87.38C73.7675 87.38 72.9675 87.7067 72.3675 88.36C71.7675 89 71.4675 89.94 71.4675 91.18V97H69.6475V86.02H71.4675V88.62C71.7475 87.7267 72.2408 87.04 72.9475 86.56C73.6675 86.08 74.4942 85.84 75.4275 85.84ZM92.5991 90.9C92.5991 91.2867 92.5724 91.62 92.5191 91.9H83.7391C83.7791 93.1533 84.1324 94.0933 84.7991 94.72C85.4791 95.3467 86.3057 95.66 87.2791 95.66C88.1591 95.66 88.8924 95.44 89.4791 95C90.0791 94.5467 90.4457 93.9467 90.5791 93.2H92.5191C92.3857 93.96 92.0857 94.64 91.6191 95.24C91.1657 95.84 90.5724 96.3067 89.8391 96.64C89.1057 96.9733 88.2791 97.14 87.3591 97.14C86.3057 97.14 85.3724 96.9133 84.5591 96.46C83.7457 96.0067 83.1057 95.36 82.6391 94.52C82.1857 93.6667 81.9591 92.6667 81.9591 91.52C81.9591 90.3733 82.1857 89.3733 82.6391 88.52C83.1057 87.6667 83.7457 87.0133 84.5591 86.56C85.3724 86.1067 86.3057 85.88 87.3591 85.88C88.4257 85.88 89.3524 86.1067 90.1391 86.56C90.9391 87.0133 91.5457 87.62 91.9591 88.38C92.3857 89.14 92.5991 89.98 92.5991 90.9ZM90.7591 91.02C90.7991 90.2067 90.6657 89.5267 90.3591 88.98C90.0524 88.4333 89.6324 88.0267 89.0991 87.76C88.5657 87.4933 87.9857 87.36 87.3591 87.36C86.3591 87.36 85.5191 87.6733 84.8391 88.3C84.1591 88.9133 83.7924 89.82 83.7391 91.02H90.7591ZM99.8395 85.88C101.24 85.88 102.4 86.2533 103.32 87C104.24 87.7467 104.806 88.7467 105.02 90H103.1C102.966 89.2133 102.6 88.6 102 88.16C101.413 87.7067 100.68 87.48 99.7995 87.48C99.1595 87.48 98.5729 87.6267 98.0395 87.92C97.5195 88.2133 97.0995 88.6667 96.7795 89.28C96.4595 89.88 96.2995 90.6267 96.2995 91.52C96.2995 92.4133 96.4595 93.1667 96.7795 93.78C97.0995 94.38 97.5195 94.8267 98.0395 95.12C98.5729 95.4133 99.1595 95.56 99.7995 95.56C100.68 95.56 101.413 95.3333 102 94.88C102.6 94.4267 102.966 93.8067 103.1 93.02H105.02C104.806 94.2867 104.24 95.2933 103.32 96.04C102.4 96.7733 101.24 97.14 99.8395 97.14C98.7862 97.14 97.8529 96.9133 97.0395 96.46C96.2262 96.0067 95.5862 95.36 95.1195 94.52C94.6662 93.6667 94.4395 92.6667 94.4395 91.52C94.4395 90.3733 94.6662 89.3733 95.1195 88.52C95.5862 87.6667 96.2262 87.0133 97.0395 86.56C97.8529 86.1067 98.7862 85.88 99.8395 85.88ZM117.203 83.42C116.229 83.4067 115.549 83.5733 115.163 83.92C114.789 84.2667 114.603 84.8667 114.603 85.72V86.02H117.203V87.62H114.603V97H112.783V87.62H111.203V86.02H112.783V85.58C112.783 82.9533 114.256 81.7 117.203 81.82V83.42ZM118.859 82.8C118.859 82.4667 118.972 82.2 119.199 82C119.425 81.7867 119.725 81.68 120.099 81.68C120.472 81.68 120.772 81.7867 120.999 82C121.225 82.2 121.339 82.4667 121.339 82.8C121.339 83.1333 121.225 83.4067 120.999 83.62C120.772 83.82 120.472 83.92 120.099 83.92C119.725 83.92 119.425 83.82 119.199 83.62C118.972 83.4067 118.859 83.1333 118.859 82.8ZM120.999 86.02V97H119.179V86.02H120.999ZM129.705 85.84C130.985 85.84 132.018 86.2533 132.805 87.08C133.592 87.8933 133.985 89.0733 133.985 90.62V97H132.165V90.78C132.165 89.6867 131.885 88.8467 131.325 88.26C130.765 87.6733 130.005 87.38 129.045 87.38C128.045 87.38 127.245 87.7067 126.645 88.36C126.045 89 125.745 89.94 125.745 91.18V97H123.925V86.02H125.745V88.62C126.025 87.7267 126.518 87.04 127.225 86.56C127.945 86.08 128.772 85.84 129.705 85.84ZM136.456 82.8C136.456 82.4667 136.57 82.2 136.796 82C137.023 81.7867 137.323 81.68 137.696 81.68C138.07 81.68 138.37 81.7867 138.596 82C138.823 82.2 138.936 82.4667 138.936 82.8C138.936 83.1333 138.823 83.4067 138.596 83.62C138.37 83.82 138.07 83.92 137.696 83.92C137.323 83.92 137.023 83.82 136.796 83.62C136.57 83.4067 136.456 83.1333 136.456 82.8ZM138.596 86.02V97H136.776V86.02H138.596ZM147.583 85.88C148.556 85.88 149.423 86.1067 150.183 86.56C150.943 87.0133 151.536 87.6667 151.963 88.52C152.403 89.3733 152.623 90.3733 152.623 91.52C152.623 92.6667 152.403 93.6667 151.963 94.52C151.536 95.36 150.943 96.0067 150.183 96.46C149.423 96.9133 148.556 97.14 147.583 97.14C146.516 97.14 145.609 96.8733 144.863 96.34C144.129 95.7933 143.623 95.08 143.343 94.2V97H141.523V82.2H143.343V88.82C143.623 87.94 144.129 87.2333 144.863 86.7C145.609 86.1533 146.516 85.88 147.583 85.88ZM147.063 87.5C146.356 87.5 145.716 87.6667 145.143 88C144.569 88.32 144.123 88.7867 143.803 89.4C143.483 90.0133 143.323 90.72 143.323 91.52C143.323 92.32 143.483 93.0267 143.803 93.64C144.123 94.24 144.569 94.7067 145.143 95.04C145.716 95.3733 146.356 95.54 147.063 95.54C148.196 95.54 149.096 95.1867 149.763 94.48C150.443 93.76 150.783 92.7733 150.783 91.52C150.783 90.2667 150.443 89.2867 149.763 88.58C149.096 87.86 148.196 87.5 147.063 87.5ZM164.759 86.02V97H162.939V94.42C162.659 95.3133 162.159 96 161.439 96.48C160.732 96.9467 159.906 97.18 158.959 97.18C157.692 97.18 156.666 96.7733 155.879 95.96C155.092 95.1333 154.699 93.9533 154.699 92.42V86.02H156.519V92.24C156.519 93.3333 156.799 94.18 157.359 94.78C157.919 95.3667 158.679 95.66 159.639 95.66C160.639 95.66 161.439 95.34 162.039 94.7C162.639 94.0467 162.939 93.1 162.939 91.86V86.02H164.759ZM171.115 85.88C172.355 85.88 173.348 86.2067 174.095 86.86C174.855 87.5 175.315 88.3667 175.475 89.46H173.735C173.655 88.8067 173.382 88.2733 172.915 87.86C172.462 87.4333 171.848 87.22 171.075 87.22C170.422 87.22 169.908 87.38 169.535 87.7C169.175 88.0067 168.995 88.4267 168.995 88.96C168.995 89.36 169.115 89.6867 169.355 89.94C169.608 90.18 169.915 90.3667 170.275 90.5C170.648 90.62 171.155 90.7533 171.795 90.9C172.608 91.0867 173.262 91.28 173.755 91.48C174.262 91.6667 174.688 91.9733 175.035 92.4C175.395 92.8267 175.575 93.4 175.575 94.12C175.575 95.0133 175.235 95.74 174.555 96.3C173.888 96.86 172.995 97.14 171.875 97.14C170.568 97.14 169.502 96.8267 168.675 96.2C167.848 95.5733 167.362 94.7 167.215 93.58H168.975C169.042 94.2467 169.328 94.7867 169.835 95.2C170.355 95.6133 171.035 95.82 171.875 95.82C172.502 95.82 172.988 95.66 173.335 95.34C173.695 95.02 173.875 94.6 173.875 94.08C173.875 93.6533 173.748 93.3133 173.495 93.06C173.242 92.8067 172.928 92.6133 172.555 92.48C172.182 92.3467 171.668 92.2067 171.015 92.06C170.202 91.8733 169.548 91.6867 169.055 91.5C168.575 91.3133 168.162 91.02 167.815 90.62C167.482 90.2067 167.315 89.6533 167.315 88.96C167.315 88.04 167.655 87.3 168.335 86.74C169.015 86.1667 169.942 85.88 171.115 85.88ZM188.728 85.84C190.008 85.84 191.042 86.2533 191.828 87.08C192.615 87.8933 193.008 89.0733 193.008 90.62V97H191.188V90.78C191.188 89.6867 190.908 88.8467 190.348 88.26C189.788 87.6733 189.028 87.38 188.068 87.38C187.068 87.38 186.268 87.7067 185.668 88.36C185.068 89 184.768 89.94 184.768 91.18V97H182.948V86.02H184.768V88.62C185.048 87.7267 185.542 87.04 186.248 86.56C186.968 86.08 187.795 85.84 188.728 85.84ZM205.56 86.02V97H203.74V94.42C203.46 95.3133 202.96 96 202.24 96.48C201.533 96.9467 200.707 97.18 199.76 97.18C198.493 97.18 197.467 96.7733 196.68 95.96C195.893 95.1333 195.5 93.9533 195.5 92.42V86.02H197.32V92.24C197.32 93.3333 197.6 94.18 198.16 94.78C198.72 95.3667 199.48 95.66 200.44 95.66C201.44 95.66 202.24 95.34 202.84 94.7C203.44 94.0467 203.74 93.1 203.74 91.86V86.02H205.56ZM210.296 82.2V97H208.476V82.2H210.296ZM215.042 82.2V97H213.222V82.2H215.042ZM222.468 85.88C223.534 85.88 224.434 86.1467 225.168 86.68C225.914 87.2133 226.434 87.9267 226.728 88.82V86.02H228.548V97H226.728V94.2C226.434 95.0933 225.914 95.8067 225.168 96.34C224.434 96.8733 223.534 97.14 222.468 97.14C221.494 97.14 220.628 96.9133 219.868 96.46C219.108 96.0067 218.508 95.36 218.068 94.52C217.641 93.6667 217.428 92.6667 217.428 91.52C217.428 90.3733 217.641 89.3733 218.068 88.52C218.508 87.6667 219.108 87.0133 219.868 86.56C220.628 86.1067 221.494 85.88 222.468 85.88ZM222.988 87.5C221.868 87.5 220.968 87.86 220.288 88.58C219.621 89.2867 219.288 90.2667 219.288 91.52C219.288 92.7733 219.621 93.76 220.288 94.48C220.968 95.1867 221.868 95.54 222.988 95.54C223.708 95.54 224.348 95.3733 224.908 95.04C225.481 94.7067 225.928 94.24 226.248 93.64C226.568 93.0267 226.728 92.32 226.728 91.52C226.728 90.72 226.568 90.0133 226.248 89.4C225.928 88.7867 225.481 88.32 224.908 88C224.348 87.6667 223.708 87.5 222.988 87.5ZM240.646 95.06L244.046 86.02H246.006L241.706 97H239.546L235.246 86.02H237.206L240.646 95.06ZM257.892 90.9C257.892 91.2867 257.865 91.62 257.812 91.9H249.032C249.072 93.1533 249.425 94.0933 250.092 94.72C250.772 95.3467 251.599 95.66 252.572 95.66C253.452 95.66 254.185 95.44 254.772 95C255.372 94.5467 255.739 93.9467 255.872 93.2H257.812C257.679 93.96 257.379 94.64 256.912 95.24C256.459 95.84 255.865 96.3067 255.132 96.64C254.399 96.9733 253.572 97.14 252.652 97.14C251.599 97.14 250.665 96.9133 249.852 96.46C249.039 96.0067 248.399 95.36 247.932 94.52C247.479 93.6667 247.252 92.6667 247.252 91.52C247.252 90.3733 247.479 89.3733 247.932 88.52C248.399 87.6667 249.039 87.0133 249.852 86.56C250.665 86.1067 251.599 85.88 252.652 85.88C253.719 85.88 254.645 86.1067 255.432 86.56C256.232 87.0133 256.839 87.62 257.252 88.38C257.679 89.14 257.892 89.98 257.892 90.9ZM256.052 91.02C256.092 90.2067 255.959 89.5267 255.652 88.98C255.345 88.4333 254.925 88.0267 254.392 87.76C253.859 87.4933 253.279 87.36 252.652 87.36C251.652 87.36 250.812 87.6733 250.132 88.3C249.452 88.9133 249.085 89.82 249.032 91.02H256.052ZM262.093 82.2V97H260.273V82.2H262.093ZM274.46 85.88C275.527 85.88 276.427 86.1467 277.16 86.68C277.907 87.2133 278.427 87.9267 278.72 88.82V86.02H280.54V97H278.72V94.2C278.427 95.0933 277.907 95.8067 277.16 96.34C276.427 96.8733 275.527 97.14 274.46 97.14C273.487 97.14 272.62 96.9133 271.86 96.46C271.1 96.0067 270.5 95.36 270.06 94.52C269.633 93.6667 269.42 92.6667 269.42 91.52C269.42 90.3733 269.633 89.3733 270.06 88.52C270.5 87.6667 271.1 87.0133 271.86 86.56C272.62 86.1067 273.487 85.88 274.46 85.88ZM274.98 87.5C273.86 87.5 272.96 87.86 272.28 88.58C271.613 89.2867 271.28 90.2667 271.28 91.52C271.28 92.7733 271.613 93.76 272.28 94.48C272.96 95.1867 273.86 95.54 274.98 95.54C275.7 95.54 276.34 95.3733 276.9 95.04C277.473 94.7067 277.92 94.24 278.24 93.64C278.56 93.0267 278.72 92.32 278.72 91.52C278.72 90.72 278.56 90.0133 278.24 89.4C277.92 88.7867 277.473 88.32 276.9 88C276.34 87.6667 275.7 87.5 274.98 87.5ZM289.217 85.84C290.497 85.84 291.53 86.2533 292.317 87.08C293.103 87.8933 293.497 89.0733 293.497 90.62V97H291.677V90.78C291.677 89.6867 291.397 88.8467 290.837 88.26C290.277 87.6733 289.517 87.38 288.557 87.38C287.557 87.38 286.757 87.7067 286.157 88.36C285.557 89 285.257 89.94 285.257 91.18V97H283.437V86.02H285.257V88.62C285.537 87.7267 286.03 87.04 286.737 86.56C287.457 86.08 288.283 85.84 289.217 85.84ZM301.528 95.4V97H300.168C299.048 97 298.208 96.7333 297.648 96.2C297.101 95.6667 296.828 94.7733 296.828 93.52V87.6H295.188V86.02H296.828V83.28H298.668V86.02H301.508V87.6H298.668V93.56C298.668 94.2667 298.795 94.7533 299.048 95.02C299.315 95.2733 299.768 95.4 300.408 95.4H301.528ZM313.849 90.9C313.849 91.2867 313.822 91.62 313.769 91.9H304.989C305.029 93.1533 305.382 94.0933 306.049 94.72C306.729 95.3467 307.556 95.66 308.529 95.66C309.409 95.66 310.142 95.44 310.729 95C311.329 94.5467 311.696 93.9467 311.829 93.2H313.769C313.636 93.96 313.336 94.64 312.869 95.24C312.416 95.84 311.822 96.3067 311.089 96.64C310.356 96.9733 309.529 97.14 308.609 97.14C307.556 97.14 306.622 96.9133 305.809 96.46C304.996 96.0067 304.356 95.36 303.889 94.52C303.436 93.6667 303.209 92.6667 303.209 91.52C303.209 90.3733 303.436 89.3733 303.889 88.52C304.356 87.6667 304.996 87.0133 305.809 86.56C306.622 86.1067 307.556 85.88 308.609 85.88C309.676 85.88 310.602 86.1067 311.389 86.56C312.189 87.0133 312.796 87.62 313.209 88.38C313.636 89.14 313.849 89.98 313.849 90.9ZM312.009 91.02C312.049 90.2067 311.916 89.5267 311.609 88.98C311.302 88.4333 310.882 88.0267 310.349 87.76C309.816 87.4933 309.236 87.36 308.609 87.36C307.609 87.36 306.769 87.6733 306.089 88.3C305.409 88.9133 305.042 89.82 304.989 91.02H312.009ZM331.271 90.9C331.271 91.2867 331.244 91.62 331.191 91.9H322.411C322.451 93.1533 322.804 94.0933 323.471 94.72C324.151 95.3467 324.978 95.66 325.951 95.66C326.831 95.66 327.564 95.44 328.151 95C328.751 94.5467 329.118 93.9467 329.251 93.2H331.191C331.058 93.96 330.758 94.64 330.291 95.24C329.838 95.84 329.244 96.3067 328.511 96.64C327.778 96.9733 326.951 97.14 326.031 97.14C324.978 97.14 324.044 96.9133 323.231 96.46C322.418 96.0067 321.778 95.36 321.311 94.52C320.858 93.6667 320.631 92.6667 320.631 91.52C320.631 90.3733 320.858 89.3733 321.311 88.52C321.778 87.6667 322.418 87.0133 323.231 86.56C324.044 86.1067 324.978 85.88 326.031 85.88C327.098 85.88 328.024 86.1067 328.811 86.56C329.611 87.0133 330.218 87.62 330.631 88.38C331.058 89.14 331.271 89.98 331.271 90.9ZM329.431 91.02C329.471 90.2067 329.338 89.5267 329.031 88.98C328.724 88.4333 328.304 88.0267 327.771 87.76C327.238 87.4933 326.658 87.36 326.031 87.36C325.031 87.36 324.191 87.6733 323.511 88.3C322.831 88.9133 322.464 89.82 322.411 91.02H329.431ZM335.471 82.2V97H333.651V82.2H335.471ZM348.498 90.9C348.498 91.2867 348.471 91.62 348.418 91.9H339.638C339.678 93.1533 340.031 94.0933 340.698 94.72C341.378 95.3467 342.204 95.66 343.178 95.66C344.058 95.66 344.791 95.44 345.378 95C345.978 94.5467 346.344 93.9467 346.478 93.2H348.418C348.284 93.96 347.984 94.64 347.518 95.24C347.064 95.84 346.471 96.3067 345.738 96.64C345.004 96.9733 344.178 97.14 343.258 97.14C342.204 97.14 341.271 96.9133 340.458 96.46C339.644 96.0067 339.004 95.36 338.538 94.52C338.084 93.6667 337.858 92.6667 337.858 91.52C337.858 90.3733 338.084 89.3733 338.538 88.52C339.004 87.6667 339.644 87.0133 340.458 86.56C341.271 86.1067 342.204 85.88 343.258 85.88C344.324 85.88 345.251 86.1067 346.038 86.56C346.838 87.0133 347.444 87.62 347.858 88.38C348.284 89.14 348.498 89.98 348.498 90.9ZM346.658 91.02C346.698 90.2067 346.564 89.5267 346.258 88.98C345.951 88.4333 345.531 88.0267 344.998 87.76C344.464 87.4933 343.884 87.36 343.258 87.36C342.258 87.36 341.418 87.6733 340.738 88.3C340.058 88.9133 339.691 89.82 339.638 91.02H346.658ZM364.378 85.84C365.658 85.84 366.685 86.2533 367.458 87.08C368.245 87.8933 368.638 89.0733 368.638 90.62V97H366.818V90.78C366.818 89.7 366.551 88.8733 366.018 88.3C365.498 87.7267 364.778 87.44 363.858 87.44C362.898 87.44 362.125 87.76 361.538 88.4C360.965 89.0267 360.678 89.9533 360.678 91.18V97H358.858V90.78C358.858 89.7 358.591 88.8733 358.058 88.3C357.525 87.7267 356.805 87.44 355.898 87.44C354.925 87.44 354.145 87.76 353.558 88.4C352.985 89.0267 352.698 89.9533 352.698 91.18V97H350.878V86.02H352.698V88.52C352.965 87.6533 353.438 86.9933 354.118 86.54C354.811 86.0733 355.605 85.84 356.498 85.84C357.431 85.84 358.238 86.08 358.918 86.56C359.611 87.0267 360.105 87.72 360.398 88.64C360.705 87.7467 361.218 87.06 361.938 86.58C362.658 86.0867 363.471 85.84 364.378 85.84ZM381.564 90.9C381.564 91.2867 381.537 91.62 381.484 91.9H372.704C372.744 93.1533 373.097 94.0933 373.764 94.72C374.444 95.3467 375.271 95.66 376.244 95.66C377.124 95.66 377.857 95.44 378.444 95C379.044 94.5467 379.411 93.9467 379.544 93.2H381.484C381.351 93.96 381.051 94.64 380.584 95.24C380.131 95.84 379.537 96.3067 378.804 96.64C378.071 96.9733 377.244 97.14 376.324 97.14C375.271 97.14 374.337 96.9133 373.524 96.46C372.711 96.0067 372.071 95.36 371.604 94.52C371.151 93.6667 370.924 92.6667 370.924 91.52C370.924 90.3733 371.151 89.3733 371.604 88.52C372.071 87.6667 372.711 87.0133 373.524 86.56C374.337 86.1067 375.271 85.88 376.324 85.88C377.391 85.88 378.317 86.1067 379.104 86.56C379.904 87.0133 380.511 87.62 380.924 88.38C381.351 89.14 381.564 89.98 381.564 90.9ZM379.724 91.02C379.764 90.2067 379.631 89.5267 379.324 88.98C379.017 88.4333 378.597 88.0267 378.064 87.76C377.531 87.4933 376.951 87.36 376.324 87.36C375.324 87.36 374.484 87.6733 373.804 88.3C373.124 88.9133 372.757 89.82 372.704 91.02H379.724ZM389.724 85.84C391.004 85.84 392.038 86.2533 392.824 87.08C393.611 87.8933 394.004 89.0733 394.004 90.62V97H392.184V90.78C392.184 89.6867 391.904 88.8467 391.344 88.26C390.784 87.6733 390.024 87.38 389.064 87.38C388.064 87.38 387.264 87.7067 386.664 88.36C386.064 89 385.764 89.94 385.764 91.18V97H383.944V86.02H385.764V88.62C386.044 87.7267 386.538 87.04 387.244 86.56C387.964 86.08 388.791 85.84 389.724 85.84ZM402.036 95.4V97H400.676C399.556 97 398.716 96.7333 398.156 96.2C397.609 95.6667 397.336 94.7733 397.336 93.52V87.6H395.696V86.02H397.336V83.28H399.176V86.02H402.016V87.6H399.176V93.56C399.176 94.2667 399.303 94.7533 399.556 95.02C399.823 95.2733 400.276 95.4 400.916 95.4H402.036ZM414.017 86.02V97H412.197V94.42C411.917 95.3133 411.417 96 410.697 96.48C409.99 96.9467 409.164 97.18 408.217 97.18C406.95 97.18 405.924 96.7733 405.137 95.96C404.35 95.1333 403.957 93.9533 403.957 92.42V86.02H405.777V92.24C405.777 93.3333 406.057 94.18 406.617 94.78C407.177 95.3667 407.937 95.66 408.897 95.66C409.897 95.66 410.697 95.34 411.297 94.7C411.897 94.0467 412.197 93.1 412.197 91.86V86.02H414.017ZM430.433 85.84C431.713 85.84 432.739 86.2533 433.513 87.08C434.299 87.8933 434.693 89.0733 434.693 90.62V97H432.873V90.78C432.873 89.7 432.606 88.8733 432.073 88.3C431.553 87.7267 430.833 87.44 429.913 87.44C428.953 87.44 428.179 87.76 427.593 88.4C427.019 89.0267 426.733 89.9533 426.733 91.18V97H424.913V90.78C424.913 89.7 424.646 88.8733 424.113 88.3C423.579 87.7267 422.859 87.44 421.953 87.44C420.979 87.44 420.199 87.76 419.613 88.4C419.039 89.0267 418.753 89.9533 418.753 91.18V97H416.933V86.02H418.753V88.52C419.019 87.6533 419.493 86.9933 420.173 86.54C420.866 86.0733 421.659 85.84 422.553 85.84C423.486 85.84 424.293 86.08 424.973 86.56C425.666 87.0267 426.159 87.72 426.453 88.64C426.759 87.7467 427.273 87.06 427.993 86.58C428.713 86.0867 429.526 85.84 430.433 85.84ZM452.22 86.02V97H450.4V94.42C450.12 95.3133 449.62 96 448.9 96.48C448.193 96.9467 447.367 97.18 446.42 97.18C445.153 97.18 444.127 96.7733 443.34 95.96C442.553 95.1333 442.16 93.9533 442.16 92.42V86.02H443.98V92.24C443.98 93.3333 444.26 94.18 444.82 94.78C445.38 95.3667 446.14 95.66 447.1 95.66C448.1 95.66 448.9 95.34 449.5 94.7C450.1 94.0467 450.4 93.1 450.4 91.86V86.02H452.22ZM456.956 82.2V97H455.136V82.2H456.956ZM465.122 95.4V97H463.762C462.642 97 461.802 96.7333 461.242 96.2C460.695 95.6667 460.422 94.7733 460.422 93.52V87.6H458.782V86.02H460.422V83.28H462.262V86.02H465.102V87.6H462.262V93.56C462.262 94.2667 462.389 94.7533 462.642 95.02C462.909 95.2733 463.362 95.4 464.002 95.4H465.122ZM469.163 88.24C469.523 87.48 470.049 86.8933 470.743 86.48C471.436 86.0533 472.263 85.84 473.223 85.84V87.82H472.663C471.636 87.82 470.796 88.0867 470.143 88.62C469.489 89.14 469.163 90.0067 469.163 91.22V97H467.343V86.02H469.163V88.24ZM474.699 82.8C474.699 82.4667 474.812 82.2 475.039 82C475.265 81.7867 475.565 81.68 475.939 81.68C476.312 81.68 476.612 81.7867 476.839 82C477.065 82.2 477.179 82.4667 477.179 82.8C477.179 83.1333 477.065 83.4067 476.839 83.62C476.612 83.82 476.312 83.92 475.939 83.92C475.565 83.92 475.265 83.82 475.039 83.62C474.812 83.4067 474.699 83.1333 474.699 82.8ZM476.839 86.02V97H475.019V86.02H476.839ZM484.625 85.88C486.025 85.88 487.185 86.2533 488.105 87C489.025 87.7467 489.591 88.7467 489.805 90H487.885C487.751 89.2133 487.385 88.6 486.785 88.16C486.198 87.7067 485.465 87.48 484.585 87.48C483.945 87.48 483.358 87.6267 482.825 87.92C482.305 88.2133 481.885 88.6667 481.565 89.28C481.245 89.88 481.085 90.6267 481.085 91.52C481.085 92.4133 481.245 93.1667 481.565 93.78C481.885 94.38 482.305 94.8267 482.825 95.12C483.358 95.4133 483.945 95.56 484.585 95.56C485.465 95.56 486.198 95.3333 486.785 94.88C487.385 94.4267 487.751 93.8067 487.885 93.02H489.805C489.591 94.2867 489.025 95.2933 488.105 96.04C487.185 96.7733 486.025 97.14 484.625 97.14C483.571 97.14 482.638 96.9133 481.825 96.46C481.011 96.0067 480.371 95.36 479.905 94.52C479.451 93.6667 479.225 92.6667 479.225 91.52C479.225 90.3733 479.451 89.3733 479.905 88.52C480.371 87.6667 481.011 87.0133 481.825 86.56C482.638 86.1067 483.571 85.88 484.625 85.88ZM502.287 90.9C502.287 91.2867 502.26 91.62 502.207 91.9H493.427C493.467 93.1533 493.82 94.0933 494.487 94.72C495.167 95.3467 495.993 95.66 496.967 95.66C497.847 95.66 498.58 95.44 499.167 95C499.767 94.5467 500.133 93.9467 500.267 93.2H502.207C502.073 93.96 501.773 94.64 501.307 95.24C500.853 95.84 500.26 96.3067 499.527 96.64C498.793 96.9733 497.967 97.14 497.047 97.14C495.993 97.14 495.06 96.9133 494.247 96.46C493.433 96.0067 492.793 95.36 492.327 94.52C491.873 93.6667 491.647 92.6667 491.647 91.52C491.647 90.3733 491.873 89.3733 492.327 88.52C492.793 87.6667 493.433 87.0133 494.247 86.56C495.06 86.1067 495.993 85.88 497.047 85.88C498.113 85.88 499.04 86.1067 499.827 86.56C500.627 87.0133 501.233 87.62 501.647 88.38C502.073 89.14 502.287 89.98 502.287 90.9ZM500.447 91.02C500.487 90.2067 500.353 89.5267 500.047 88.98C499.74 88.4333 499.32 88.0267 498.787 87.76C498.253 87.4933 497.673 87.36 497.047 87.36C496.047 87.36 495.207 87.6733 494.527 88.3C493.847 88.9133 493.48 89.82 493.427 91.02H500.447ZM508.107 85.88C509.347 85.88 510.34 86.2067 511.087 86.86C511.847 87.5 512.307 88.3667 512.467 89.46H510.727C510.647 88.8067 510.374 88.2733 509.907 87.86C509.454 87.4333 508.84 87.22 508.067 87.22C507.414 87.22 506.9 87.38 506.527 87.7C506.167 88.0067 505.987 88.4267 505.987 88.96C505.987 89.36 506.107 89.6867 506.347 89.94C506.6 90.18 506.907 90.3667 507.267 90.5C507.64 90.62 508.147 90.7533 508.787 90.9C509.6 91.0867 510.254 91.28 510.747 91.48C511.254 91.6667 511.68 91.9733 512.027 92.4C512.387 92.8267 512.567 93.4 512.567 94.12C512.567 95.0133 512.227 95.74 511.547 96.3C510.88 96.86 509.987 97.14 508.867 97.14C507.56 97.14 506.494 96.8267 505.667 96.2C504.84 95.5733 504.354 94.7 504.207 93.58H505.967C506.034 94.2467 506.32 94.7867 506.827 95.2C507.347 95.6133 508.027 95.82 508.867 95.82C509.494 95.82 509.98 95.66 510.327 95.34C510.687 95.02 510.867 94.6 510.867 94.08C510.867 93.6533 510.74 93.3133 510.487 93.06C510.234 92.8067 509.92 92.6133 509.547 92.48C509.174 92.3467 508.66 92.2067 508.007 92.06C507.194 91.8733 506.54 91.6867 506.047 91.5C505.567 91.3133 505.154 91.02 504.807 90.62C504.474 90.2067 504.307 89.6533 504.307 88.96C504.307 88.04 504.647 87.3 505.327 86.74C506.007 86.1667 506.934 85.88 508.107 85.88ZM516.339 94.86V97H514.139V94.86H516.339ZM44.28 151.32V157H42.46V142.9H46.94C48.5533 142.9 49.76 143.28 50.56 144.04C51.36 144.787 51.76 145.813 51.76 147.12C51.76 148.44 51.3467 149.473 50.52 150.22C49.6933 150.953 48.5 151.32 46.94 151.32H44.28ZM46.78 149.8C47.8867 149.8 48.68 149.567 49.16 149.1C49.6533 148.633 49.9 147.973 49.9 147.12C49.9 146.24 49.6533 145.573 49.16 145.12C48.68 144.653 47.8867 144.42 46.78 144.42H44.28V149.8H46.78ZM59.6658 145.84C60.9458 145.84 61.9791 146.253 62.7658 147.08C63.5524 147.893 63.9458 149.073 63.9458 150.62V157H62.1258V150.78C62.1258 149.687 61.8458 148.847 61.2858 148.26C60.7258 147.673 59.9658 147.38 59.0058 147.38C58.0058 147.38 57.2058 147.707 56.6058 148.36C56.0058 149 55.7058 149.94 55.7058 151.18V157H53.8858V142.2H55.7058V148.62C55.9858 147.727 56.4791 147.04 57.1858 146.56C57.9058 146.08 58.7324 145.84 59.6658 145.84ZM71.2373 145.88C72.304 145.88 73.204 146.147 73.9373 146.68C74.684 147.213 75.204 147.927 75.4973 148.82V146.02H77.3173V157H75.4973V154.2C75.204 155.093 74.684 155.807 73.9373 156.34C73.204 156.873 72.304 157.14 71.2373 157.14C70.264 157.14 69.3973 156.913 68.6373 156.46C67.8773 156.007 67.2773 155.36 66.8373 154.52C66.4107 153.667 66.1973 152.667 66.1973 151.52C66.1973 150.373 66.4107 149.373 66.8373 148.52C67.2773 147.667 67.8773 147.013 68.6373 146.56C69.3973 146.107 70.264 145.88 71.2373 145.88ZM71.7573 147.5C70.6373 147.5 69.7373 147.86 69.0573 148.58C68.3907 149.287 68.0573 150.267 68.0573 151.52C68.0573 152.773 68.3907 153.76 69.0573 154.48C69.7373 155.187 70.6373 155.54 71.7573 155.54C72.4773 155.54 73.1173 155.373 73.6773 155.04C74.2507 154.707 74.6973 154.24 75.0173 153.64C75.3373 153.027 75.4973 152.32 75.4973 151.52C75.4973 150.72 75.3373 150.013 75.0173 149.4C74.6973 148.787 74.2507 148.32 73.6773 148C73.1173 147.667 72.4773 147.5 71.7573 147.5ZM83.6539 145.88C84.8939 145.88 85.8872 146.207 86.6339 146.86C87.3939 147.5 87.8539 148.367 88.0139 149.46H86.2739C86.1939 148.807 85.9206 148.273 85.4539 147.86C85.0006 147.433 84.3872 147.22 83.6139 147.22C82.9606 147.22 82.4472 147.38 82.0739 147.7C81.7139 148.007 81.5339 148.427 81.5339 148.96C81.5339 149.36 81.6539 149.687 81.8939 149.94C82.1472 150.18 82.4539 150.367 82.8139 150.5C83.1872 150.62 83.6939 150.753 84.3339 150.9C85.1472 151.087 85.8006 151.28 86.2939 151.48C86.8006 151.667 87.2272 151.973 87.5739 152.4C87.9339 152.827 88.1139 153.4 88.1139 154.12C88.1139 155.013 87.7739 155.74 87.0939 156.3C86.4272 156.86 85.5339 157.14 84.4139 157.14C83.1072 157.14 82.0406 156.827 81.2139 156.2C80.3872 155.573 79.9006 154.7 79.7539 153.58H81.5139C81.5806 154.247 81.8672 154.787 82.3739 155.2C82.8939 155.613 83.5739 155.82 84.4139 155.82C85.0406 155.82 85.5272 155.66 85.8739 155.34C86.2339 155.02 86.4139 154.6 86.4139 154.08C86.4139 153.653 86.2872 153.313 86.0339 153.06C85.7806 152.807 85.4672 152.613 85.0939 152.48C84.7206 152.347 84.2072 152.207 83.5539 152.06C82.7406 151.873 82.0872 151.687 81.5939 151.5C81.1139 151.313 80.7006 151.02 80.3539 150.62C80.0206 150.207 79.8539 149.653 79.8539 148.96C79.8539 148.04 80.1939 147.3 80.8739 146.74C81.5539 146.167 82.4806 145.88 83.6539 145.88ZM100.646 150.9C100.646 151.287 100.619 151.62 100.566 151.9H91.7859C91.8259 153.153 92.1793 154.093 92.8459 154.72C93.5259 155.347 94.3526 155.66 95.3259 155.66C96.2059 155.66 96.9393 155.44 97.5259 155C98.1259 154.547 98.4926 153.947 98.6259 153.2H100.566C100.433 153.96 100.133 154.64 99.6659 155.24C99.2126 155.84 98.6193 156.307 97.8859 156.64C97.1526 156.973 96.3259 157.14 95.4059 157.14C94.3526 157.14 93.4193 156.913 92.6059 156.46C91.7926 156.007 91.1526 155.36 90.6859 154.52C90.2326 153.667 90.0059 152.667 90.0059 151.52C90.0059 150.373 90.2326 149.373 90.6859 148.52C91.1526 147.667 91.7926 147.013 92.6059 146.56C93.4193 146.107 94.3526 145.88 95.4059 145.88C96.4726 145.88 97.3993 146.107 98.1859 146.56C98.9859 147.013 99.5926 147.62 100.006 148.38C100.433 149.14 100.646 149.98 100.646 150.9ZM98.8059 151.02C98.8459 150.207 98.7126 149.527 98.4059 148.98C98.0993 148.433 97.6793 148.027 97.1459 147.76C96.6126 147.493 96.0326 147.36 95.4059 147.36C94.4059 147.36 93.5659 147.673 92.8859 148.3C92.2059 148.913 91.8393 149.82 91.7859 151.02H98.8059ZM104.846 142.2V157H103.026V142.2H104.846ZM109.593 142.2V157H107.773V142.2H109.593ZM122.279 146.02V157H120.459V154.42C120.179 155.313 119.679 156 118.959 156.48C118.252 156.947 117.425 157.18 116.479 157.18C115.212 157.18 114.185 156.773 113.399 155.96C112.612 155.133 112.219 153.953 112.219 152.42V146.02H114.039V152.24C114.039 153.333 114.319 154.18 114.879 154.78C115.439 155.367 116.199 155.66 117.159 155.66C118.159 155.66 118.959 155.34 119.559 154.7C120.159 154.047 120.459 153.1 120.459 151.86V146.02H122.279ZM128.634 145.88C129.874 145.88 130.868 146.207 131.614 146.86C132.374 147.5 132.834 148.367 132.994 149.46H131.254C131.174 148.807 130.901 148.273 130.434 147.86C129.981 147.433 129.368 147.22 128.594 147.22C127.941 147.22 127.428 147.38 127.054 147.7C126.694 148.007 126.514 148.427 126.514 148.96C126.514 149.36 126.634 149.687 126.874 149.94C127.128 150.18 127.434 150.367 127.794 150.5C128.168 150.62 128.674 150.753 129.314 150.9C130.128 151.087 130.781 151.28 131.274 151.48C131.781 151.667 132.208 151.973 132.554 152.4C132.914 152.827 133.094 153.4 133.094 154.12C133.094 155.013 132.754 155.74 132.074 156.3C131.408 156.86 130.514 157.14 129.394 157.14C128.088 157.14 127.021 156.827 126.194 156.2C125.368 155.573 124.881 154.7 124.734 153.58H126.494C126.561 154.247 126.848 154.787 127.354 155.2C127.874 155.613 128.554 155.82 129.394 155.82C130.021 155.82 130.508 155.66 130.854 155.34C131.214 155.02 131.394 154.6 131.394 154.08C131.394 153.653 131.268 153.313 131.014 153.06C130.761 152.807 130.448 152.613 130.074 152.48C129.701 152.347 129.188 152.207 128.534 152.06C127.721 151.873 127.068 151.687 126.574 151.5C126.094 151.313 125.681 151.02 125.334 150.62C125.001 150.207 124.834 149.653 124.834 148.96C124.834 148.04 125.174 147.3 125.854 146.74C126.534 146.167 127.461 145.88 128.634 145.88ZM150.228 146.02V157H148.408V154.42C148.128 155.313 147.628 156 146.908 156.48C146.201 156.947 145.374 157.18 144.428 157.18C143.161 157.18 142.134 156.773 141.348 155.96C140.561 155.133 140.168 153.953 140.168 152.42V146.02H141.988V152.24C141.988 153.333 142.268 154.18 142.828 154.78C143.388 155.367 144.148 155.66 145.108 155.66C146.108 155.66 146.908 155.34 147.508 154.7C148.108 154.047 148.408 153.1 148.408 151.86V146.02H150.228ZM158.384 155.4V157H157.024C155.904 157 155.064 156.733 154.504 156.2C153.957 155.667 153.684 154.773 153.684 153.52V147.6H152.044V146.02H153.684V143.28H155.524V146.02H158.364V147.6H155.524V153.56C155.524 154.267 155.65 154.753 155.904 155.02C156.17 155.273 156.624 155.4 157.264 155.4H158.384ZM167.366 148.24C167.726 147.48 168.253 146.893 168.946 146.48C169.639 146.053 170.466 145.84 171.426 145.84V147.82H170.866C169.839 147.82 168.999 148.087 168.346 148.62C167.693 149.14 167.366 150.007 167.366 151.22V157H165.546V146.02H167.366V148.24ZM172.902 142.8C172.902 142.467 173.015 142.2 173.242 142C173.468 141.787 173.768 141.68 174.142 141.68C174.515 141.68 174.815 141.787 175.042 142C175.268 142.2 175.382 142.467 175.382 142.8C175.382 143.133 175.268 143.407 175.042 143.62C174.815 143.82 174.515 143.92 174.142 143.92C173.768 143.92 173.468 143.82 173.242 143.62C173.015 143.407 172.902 143.133 172.902 142.8ZM175.042 146.02V157H173.222V146.02H175.042ZM181.408 145.88C182.648 145.88 183.641 146.207 184.388 146.86C185.148 147.5 185.608 148.367 185.768 149.46H184.028C183.948 148.807 183.674 148.273 183.208 147.86C182.754 147.433 182.141 147.22 181.368 147.22C180.714 147.22 180.201 147.38 179.828 147.7C179.468 148.007 179.288 148.427 179.288 148.96C179.288 149.36 179.408 149.687 179.648 149.94C179.901 150.18 180.208 150.367 180.568 150.5C180.941 150.62 181.448 150.753 182.088 150.9C182.901 151.087 183.554 151.28 184.048 151.48C184.554 151.667 184.981 151.973 185.328 152.4C185.688 152.827 185.868 153.4 185.868 154.12C185.868 155.013 185.528 155.74 184.848 156.3C184.181 156.86 183.288 157.14 182.168 157.14C180.861 157.14 179.794 156.827 178.968 156.2C178.141 155.573 177.654 154.7 177.508 153.58H179.268C179.334 154.247 179.621 154.787 180.128 155.2C180.648 155.613 181.328 155.82 182.168 155.82C182.794 155.82 183.281 155.66 183.628 155.34C183.988 155.02 184.168 154.6 184.168 154.08C184.168 153.653 184.041 153.313 183.788 153.06C183.534 152.807 183.221 152.613 182.848 152.48C182.474 152.347 181.961 152.207 181.308 152.06C180.494 151.873 179.841 151.687 179.348 151.5C178.868 151.313 178.454 151.02 178.108 150.62C177.774 150.207 177.608 149.653 177.608 148.96C177.608 148.04 177.948 147.3 178.628 146.74C179.308 146.167 180.234 145.88 181.408 145.88ZM198.06 146.02V157H196.24V154.42C195.96 155.313 195.46 156 194.74 156.48C194.033 156.947 193.207 157.18 192.26 157.18C190.993 157.18 189.967 156.773 189.18 155.96C188.393 155.133 188 153.953 188 152.42V146.02H189.82V152.24C189.82 153.333 190.1 154.18 190.66 154.78C191.22 155.367 191.98 155.66 192.94 155.66C193.94 155.66 194.74 155.34 195.34 154.7C195.94 154.047 196.24 153.1 196.24 151.86V146.02H198.06ZM204.416 145.88C205.656 145.88 206.649 146.207 207.396 146.86C208.156 147.5 208.616 148.367 208.776 149.46H207.036C206.956 148.807 206.682 148.273 206.216 147.86C205.762 147.433 205.149 147.22 204.376 147.22C203.722 147.22 203.209 147.38 202.836 147.7C202.476 148.007 202.296 148.427 202.296 148.96C202.296 149.36 202.416 149.687 202.656 149.94C202.909 150.18 203.216 150.367 203.576 150.5C203.949 150.62 204.456 150.753 205.096 150.9C205.909 151.087 206.562 151.28 207.056 151.48C207.562 151.667 207.989 151.973 208.336 152.4C208.696 152.827 208.876 153.4 208.876 154.12C208.876 155.013 208.536 155.74 207.856 156.3C207.189 156.86 206.296 157.14 205.176 157.14C203.869 157.14 202.802 156.827 201.976 156.2C201.149 155.573 200.662 154.7 200.516 153.58H202.276C202.342 154.247 202.629 154.787 203.136 155.2C203.656 155.613 204.336 155.82 205.176 155.82C205.802 155.82 206.289 155.66 206.636 155.34C206.996 155.02 207.176 154.6 207.176 154.08C207.176 153.653 207.049 153.313 206.796 153.06C206.542 152.807 206.229 152.613 205.856 152.48C205.482 152.347 204.969 152.207 204.316 152.06C203.502 151.873 202.849 151.687 202.356 151.5C201.876 151.313 201.462 151.02 201.116 150.62C200.782 150.207 200.616 149.653 200.616 148.96C200.616 148.04 200.956 147.3 201.636 146.74C202.316 146.167 203.242 145.88 204.416 145.88ZM219.689 145.88C220.929 145.88 221.922 146.207 222.669 146.86C223.429 147.5 223.889 148.367 224.049 149.46H222.309C222.229 148.807 221.956 148.273 221.489 147.86C221.036 147.433 220.422 147.22 219.649 147.22C218.996 147.22 218.482 147.38 218.109 147.7C217.749 148.007 217.569 148.427 217.569 148.96C217.569 149.36 217.689 149.687 217.929 149.94C218.182 150.18 218.489 150.367 218.849 150.5C219.222 150.62 219.729 150.753 220.369 150.9C221.182 151.087 221.836 151.28 222.329 151.48C222.836 151.667 223.262 151.973 223.609 152.4C223.969 152.827 224.149 153.4 224.149 154.12C224.149 155.013 223.809 155.74 223.129 156.3C222.462 156.86 221.569 157.14 220.449 157.14C219.142 157.14 218.076 156.827 217.249 156.2C216.422 155.573 215.936 154.7 215.789 153.58H217.549C217.616 154.247 217.902 154.787 218.409 155.2C218.929 155.613 219.609 155.82 220.449 155.82C221.076 155.82 221.562 155.66 221.909 155.34C222.269 155.02 222.449 154.6 222.449 154.08C222.449 153.653 222.322 153.313 222.069 153.06C221.816 152.807 221.502 152.613 221.129 152.48C220.756 152.347 220.242 152.207 219.589 152.06C218.776 151.873 218.122 151.687 217.629 151.5C217.149 151.313 216.736 151.02 216.389 150.62C216.056 150.207 215.889 149.653 215.889 148.96C215.889 148.04 216.229 147.3 216.909 146.74C217.589 146.167 218.516 145.88 219.689 145.88ZM236.681 150.9C236.681 151.287 236.654 151.62 236.601 151.9H227.821C227.861 153.153 228.214 154.093 228.881 154.72C229.561 155.347 230.388 155.66 231.361 155.66C232.241 155.66 232.974 155.44 233.561 155C234.161 154.547 234.528 153.947 234.661 153.2H236.601C236.468 153.96 236.168 154.64 235.701 155.24C235.248 155.84 234.654 156.307 233.921 156.64C233.188 156.973 232.361 157.14 231.441 157.14C230.388 157.14 229.454 156.913 228.641 156.46C227.828 156.007 227.188 155.36 226.721 154.52C226.268 153.667 226.041 152.667 226.041 151.52C226.041 150.373 226.268 149.373 226.721 148.52C227.188 147.667 227.828 147.013 228.641 146.56C229.454 146.107 230.388 145.88 231.441 145.88C232.508 145.88 233.434 146.107 234.221 146.56C235.021 147.013 235.628 147.62 236.041 148.38C236.468 149.14 236.681 149.98 236.681 150.9ZM234.841 151.02C234.881 150.207 234.748 149.527 234.441 148.98C234.134 148.433 233.714 148.027 233.181 147.76C232.648 147.493 232.068 147.36 231.441 147.36C230.441 147.36 229.601 147.673 228.921 148.3C228.241 148.913 227.874 149.82 227.821 151.02H234.841ZM243.562 145.88C244.628 145.88 245.528 146.147 246.262 146.68C247.008 147.213 247.528 147.927 247.822 148.82V142.2H249.642V157H247.822V154.2C247.528 155.093 247.008 155.807 246.262 156.34C245.528 156.873 244.628 157.14 243.562 157.14C242.588 157.14 241.722 156.913 240.962 156.46C240.202 156.007 239.602 155.36 239.162 154.52C238.735 153.667 238.522 152.667 238.522 151.52C238.522 150.373 238.735 149.373 239.162 148.52C239.602 147.667 240.202 147.013 240.962 146.56C241.722 146.107 242.588 145.88 243.562 145.88ZM244.082 147.5C242.962 147.5 242.062 147.86 241.382 148.58C240.715 149.287 240.382 150.267 240.382 151.52C240.382 152.773 240.715 153.76 241.382 154.48C242.062 155.187 242.962 155.54 244.082 155.54C244.802 155.54 245.442 155.373 246.002 155.04C246.575 154.707 247.022 154.24 247.342 153.64C247.662 153.027 247.822 152.32 247.822 151.52C247.822 150.72 247.662 150.013 247.342 149.4C247.022 148.787 246.575 148.32 246.002 148C245.442 147.667 244.802 147.5 244.082 147.5ZM262.46 145.88C263.513 145.88 264.453 146.107 265.28 146.56C266.12 147.013 266.773 147.667 267.24 148.52C267.72 149.373 267.96 150.373 267.96 151.52C267.96 152.667 267.72 153.667 267.24 154.52C266.773 155.36 266.12 156.007 265.28 156.46C264.453 156.913 263.513 157.14 262.46 157.14C261.406 157.14 260.46 156.913 259.62 156.46C258.793 156.007 258.14 155.36 257.66 154.52C257.18 153.667 256.94 152.667 256.94 151.52C256.94 150.373 257.18 149.373 257.66 148.52C258.14 147.667 258.793 147.013 259.62 146.56C260.46 146.107 261.406 145.88 262.46 145.88ZM262.46 147.48C261.806 147.48 261.2 147.627 260.64 147.92C260.093 148.213 259.646 148.667 259.3 149.28C258.966 149.88 258.8 150.627 258.8 151.52C258.8 152.4 258.966 153.147 259.3 153.76C259.646 154.36 260.093 154.807 260.64 155.1C261.2 155.393 261.806 155.54 262.46 155.54C263.113 155.54 263.713 155.393 264.26 155.1C264.82 154.807 265.266 154.36 265.6 153.76C265.946 153.147 266.12 152.4 266.12 151.52C266.12 150.627 265.946 149.88 265.6 149.28C265.266 148.667 264.82 148.213 264.26 147.92C263.713 147.627 263.113 147.48 262.46 147.48ZM272.151 148.24C272.511 147.48 273.038 146.893 273.731 146.48C274.424 146.053 275.251 145.84 276.211 145.84V147.82H275.651C274.624 147.82 273.784 148.087 273.131 148.62C272.478 149.14 272.151 150.007 272.151 151.22V157H270.331V146.02H272.151V148.24ZM282.867 145.88C284.267 145.88 285.427 146.253 286.347 147C287.267 147.747 287.834 148.747 288.047 150H286.127C285.994 149.213 285.627 148.6 285.027 148.16C284.44 147.707 283.707 147.48 282.827 147.48C282.187 147.48 281.6 147.627 281.067 147.92C280.547 148.213 280.127 148.667 279.807 149.28C279.487 149.88 279.327 150.627 279.327 151.52C279.327 152.413 279.487 153.167 279.807 153.78C280.127 154.38 280.547 154.827 281.067 155.12C281.6 155.413 282.187 155.56 282.827 155.56C283.707 155.56 284.44 155.333 285.027 154.88C285.627 154.427 285.994 153.807 286.127 153.02H288.047C287.834 154.287 287.267 155.293 286.347 156.04C285.427 156.773 284.267 157.14 282.867 157.14C281.814 157.14 280.88 156.913 280.067 156.46C279.254 156.007 278.614 155.36 278.147 154.52C277.694 153.667 277.467 152.667 277.467 151.52C277.467 150.373 277.694 149.373 278.147 148.52C278.614 147.667 279.254 147.013 280.067 146.56C280.88 146.107 281.814 145.88 282.867 145.88ZM290.109 142.8C290.109 142.467 290.222 142.2 290.449 142C290.675 141.787 290.975 141.68 291.349 141.68C291.722 141.68 292.022 141.787 292.249 142C292.475 142.2 292.589 142.467 292.589 142.8C292.589 143.133 292.475 143.407 292.249 143.62C292.022 143.82 291.722 143.92 291.349 143.92C290.975 143.92 290.675 143.82 290.449 143.62C290.222 143.407 290.109 143.133 290.109 142.8ZM292.249 146.02V157H290.429V146.02H292.249ZM303.556 145.88C304.796 145.88 305.79 146.207 306.536 146.86C307.296 147.5 307.756 148.367 307.916 149.46H306.176C306.096 148.807 305.823 148.273 305.356 147.86C304.903 147.433 304.29 147.22 303.516 147.22C302.863 147.22 302.35 147.38 301.976 147.7C301.616 148.007 301.436 148.427 301.436 148.96C301.436 149.36 301.556 149.687 301.796 149.94C302.05 150.18 302.356 150.367 302.716 150.5C303.09 150.62 303.596 150.753 304.236 150.9C305.05 151.087 305.703 151.28 306.196 151.48C306.703 151.667 307.13 151.973 307.476 152.4C307.836 152.827 308.016 153.4 308.016 154.12C308.016 155.013 307.676 155.74 306.996 156.3C306.33 156.86 305.436 157.14 304.316 157.14C303.01 157.14 301.943 156.827 301.116 156.2C300.29 155.573 299.803 154.7 299.656 153.58H301.416C301.483 154.247 301.77 154.787 302.276 155.2C302.796 155.613 303.476 155.82 304.316 155.82C304.943 155.82 305.43 155.66 305.776 155.34C306.136 155.02 306.316 154.6 306.316 154.08C306.316 153.653 306.19 153.313 305.936 153.06C305.683 152.807 305.37 152.613 304.996 152.48C304.623 152.347 304.11 152.207 303.456 152.06C302.643 151.873 301.99 151.687 301.496 151.5C301.016 151.313 300.603 151.02 300.256 150.62C299.923 150.207 299.756 149.653 299.756 148.96C299.756 148.04 300.096 147.3 300.776 146.74C301.456 146.167 302.383 145.88 303.556 145.88ZM320.208 146.02V157H318.388V154.42C318.108 155.313 317.608 156 316.888 156.48C316.182 156.947 315.355 157.18 314.408 157.18C313.142 157.18 312.115 156.773 311.328 155.96C310.542 155.133 310.148 153.953 310.148 152.42V146.02H311.968V152.24C311.968 153.333 312.248 154.18 312.808 154.78C313.368 155.367 314.128 155.66 315.088 155.66C316.088 155.66 316.888 155.34 317.488 154.7C318.088 154.047 318.388 153.1 318.388 151.86V146.02H320.208ZM326.564 145.88C327.804 145.88 328.797 146.207 329.544 146.86C330.304 147.5 330.764 148.367 330.924 149.46H329.184C329.104 148.807 328.831 148.273 328.364 147.86C327.911 147.433 327.297 147.22 326.524 147.22C325.871 147.22 325.357 147.38 324.984 147.7C324.624 148.007 324.444 148.427 324.444 148.96C324.444 149.36 324.564 149.687 324.804 149.94C325.057 150.18 325.364 150.367 325.724 150.5C326.097 150.62 326.604 150.753 327.244 150.9C328.057 151.087 328.711 151.28 329.204 151.48C329.711 151.667 330.137 151.973 330.484 152.4C330.844 152.827 331.024 153.4 331.024 154.12C331.024 155.013 330.684 155.74 330.004 156.3C329.337 156.86 328.444 157.14 327.324 157.14C326.017 157.14 324.951 156.827 324.124 156.2C323.297 155.573 322.811 154.7 322.664 153.58H324.424C324.491 154.247 324.777 154.787 325.284 155.2C325.804 155.613 326.484 155.82 327.324 155.82C327.951 155.82 328.437 155.66 328.784 155.34C329.144 155.02 329.324 154.6 329.324 154.08C329.324 153.653 329.197 153.313 328.944 153.06C328.691 152.807 328.377 152.613 328.004 152.48C327.631 152.347 327.117 152.207 326.464 152.06C325.651 151.873 324.997 151.687 324.504 151.5C324.024 151.313 323.611 151.02 323.264 150.62C322.931 150.207 322.764 149.653 322.764 148.96C322.764 148.04 323.104 147.3 323.784 146.74C324.464 146.167 325.391 145.88 326.564 145.88ZM338.316 145.88C339.716 145.88 340.876 146.253 341.796 147C342.716 147.747 343.283 148.747 343.496 150H341.576C341.443 149.213 341.076 148.6 340.476 148.16C339.889 147.707 339.156 147.48 338.276 147.48C337.636 147.48 337.049 147.627 336.516 147.92C335.996 148.213 335.576 148.667 335.256 149.28C334.936 149.88 334.776 150.627 334.776 151.52C334.776 152.413 334.936 153.167 335.256 153.78C335.576 154.38 335.996 154.827 336.516 155.12C337.049 155.413 337.636 155.56 338.276 155.56C339.156 155.56 339.889 155.333 340.476 154.88C341.076 154.427 341.443 153.807 341.576 153.02H343.496C343.283 154.287 342.716 155.293 341.796 156.04C340.876 156.773 339.716 157.14 338.316 157.14C337.263 157.14 336.329 156.913 335.516 156.46C334.703 156.007 334.063 155.36 333.596 154.52C333.143 153.667 332.916 152.667 332.916 151.52C332.916 150.373 333.143 149.373 333.596 148.52C334.063 147.667 334.703 147.013 335.516 146.56C336.329 146.107 337.263 145.88 338.316 145.88ZM345.558 142.8C345.558 142.467 345.671 142.2 345.898 142C346.125 141.787 346.425 141.68 346.798 141.68C347.171 141.68 347.471 141.787 347.698 142C347.925 142.2 348.038 142.467 348.038 142.8C348.038 143.133 347.925 143.407 347.698 143.62C347.471 143.82 347.171 143.92 346.798 143.92C346.425 143.92 346.125 143.82 345.898 143.62C345.671 143.407 345.558 143.133 345.558 142.8ZM347.698 146.02V157H345.878V146.02H347.698ZM356.684 145.88C357.657 145.88 358.524 146.107 359.284 146.56C360.044 147.013 360.637 147.667 361.064 148.52C361.504 149.373 361.724 150.373 361.724 151.52C361.724 152.667 361.504 153.667 361.064 154.52C360.637 155.36 360.044 156.007 359.284 156.46C358.524 156.913 357.657 157.14 356.684 157.14C355.617 157.14 354.711 156.873 353.964 156.34C353.231 155.793 352.724 155.08 352.444 154.2V162.2H350.624V146.02H352.444V148.82C352.724 147.94 353.231 147.233 353.964 146.7C354.711 146.153 355.617 145.88 356.684 145.88ZM356.164 147.5C355.457 147.5 354.817 147.667 354.244 148C353.671 148.32 353.224 148.787 352.904 149.4C352.584 150.013 352.424 150.72 352.424 151.52C352.424 152.32 352.584 153.027 352.904 153.64C353.224 154.24 353.671 154.707 354.244 155.04C354.817 155.373 355.457 155.54 356.164 155.54C357.297 155.54 358.197 155.187 358.864 154.48C359.544 153.76 359.884 152.773 359.884 151.52C359.884 150.267 359.544 149.287 358.864 148.58C358.197 147.86 357.297 147.5 356.164 147.5ZM363.781 142.8C363.781 142.467 363.894 142.2 364.121 142C364.347 141.787 364.647 141.68 365.021 141.68C365.394 141.68 365.694 141.787 365.921 142C366.147 142.2 366.261 142.467 366.261 142.8C366.261 143.133 366.147 143.407 365.921 143.62C365.694 143.82 365.394 143.92 365.021 143.92C364.647 143.92 364.347 143.82 364.121 143.62C363.894 143.407 363.781 143.133 363.781 142.8ZM365.921 146.02V157H364.101V146.02H365.921ZM374.087 155.4V157H372.727C371.607 157 370.767 156.733 370.207 156.2C369.66 155.667 369.387 154.773 369.387 153.52V147.6H367.747V146.02H369.387V143.28H371.227V146.02H374.067V147.6H371.227V153.56C371.227 154.267 371.353 154.753 371.607 155.02C371.873 155.273 372.327 155.4 372.967 155.4H374.087ZM383.069 148.24C383.429 147.48 383.956 146.893 384.649 146.48C385.342 146.053 386.169 145.84 387.129 145.84V147.82H386.569C385.542 147.82 384.702 148.087 384.049 148.62C383.396 149.14 383.069 150.007 383.069 151.22V157H381.249V146.02H383.069V148.24ZM394.705 145.84C395.985 145.84 397.018 146.253 397.805 147.08C398.592 147.893 398.985 149.073 398.985 150.62V157H397.165V150.78C397.165 149.687 396.885 148.847 396.325 148.26C395.765 147.673 395.005 147.38 394.045 147.38C393.045 147.38 392.245 147.707 391.645 148.36C391.045 149 390.745 149.94 390.745 151.18V157H388.925V142.2H390.745V148.62C391.025 147.727 391.518 147.04 392.225 146.56C392.945 146.08 393.772 145.84 394.705 145.84ZM406.756 145.88C407.81 145.88 408.75 146.107 409.576 146.56C410.416 147.013 411.07 147.667 411.536 148.52C412.016 149.373 412.256 150.373 412.256 151.52C412.256 152.667 412.016 153.667 411.536 154.52C411.07 155.36 410.416 156.007 409.576 156.46C408.75 156.913 407.81 157.14 406.756 157.14C405.703 157.14 404.756 156.913 403.916 156.46C403.09 156.007 402.436 155.36 401.956 154.52C401.476 153.667 401.236 152.667 401.236 151.52C401.236 150.373 401.476 149.373 401.956 148.52C402.436 147.667 403.09 147.013 403.916 146.56C404.756 146.107 405.703 145.88 406.756 145.88ZM406.756 147.48C406.103 147.48 405.496 147.627 404.936 147.92C404.39 148.213 403.943 148.667 403.596 149.28C403.263 149.88 403.096 150.627 403.096 151.52C403.096 152.4 403.263 153.147 403.596 153.76C403.943 154.36 404.39 154.807 404.936 155.1C405.496 155.393 406.103 155.54 406.756 155.54C407.41 155.54 408.01 155.393 408.556 155.1C409.116 154.807 409.563 154.36 409.896 153.76C410.243 153.147 410.416 152.4 410.416 151.52C410.416 150.627 410.243 149.88 409.896 149.28C409.563 148.667 409.116 148.213 408.556 147.92C408.01 147.627 407.41 147.48 406.756 147.48ZM420.408 145.84C421.688 145.84 422.721 146.253 423.508 147.08C424.295 147.893 424.688 149.073 424.688 150.62V157H422.868V150.78C422.868 149.687 422.588 148.847 422.028 148.26C421.468 147.673 420.708 147.38 419.748 147.38C418.748 147.38 417.948 147.707 417.348 148.36C416.748 149 416.448 149.94 416.448 151.18V157H414.628V146.02H416.448V148.62C416.728 147.727 417.221 147.04 417.928 146.56C418.648 146.08 419.475 145.84 420.408 145.84ZM432.34 145.88C433.74 145.88 434.9 146.253 435.82 147C436.74 147.747 437.306 148.747 437.52 150H435.6C435.466 149.213 435.1 148.6 434.5 148.16C433.913 147.707 433.18 147.48 432.3 147.48C431.66 147.48 431.073 147.627 430.54 147.92C430.02 148.213 429.6 148.667 429.28 149.28C428.96 149.88 428.8 150.627 428.8 151.52C428.8 152.413 428.96 153.167 429.28 153.78C429.6 154.38 430.02 154.827 430.54 155.12C431.073 155.413 431.66 155.56 432.3 155.56C433.18 155.56 433.913 155.333 434.5 154.88C435.1 154.427 435.466 153.807 435.6 153.02H437.52C437.306 154.287 436.74 155.293 435.82 156.04C434.9 156.773 433.74 157.14 432.34 157.14C431.286 157.14 430.353 156.913 429.54 156.46C428.726 156.007 428.086 155.36 427.62 154.52C427.166 153.667 426.94 152.667 426.94 151.52C426.94 150.373 427.166 149.373 427.62 148.52C428.086 147.667 428.726 147.013 429.54 146.56C430.353 146.107 431.286 145.88 432.34 145.88ZM449.661 146.02V157H447.841V154.42C447.561 155.313 447.061 156 446.341 156.48C445.635 156.947 444.808 157.18 443.861 157.18C442.595 157.18 441.568 156.773 440.781 155.96C439.995 155.133 439.601 153.953 439.601 152.42V146.02H441.421V152.24C441.421 153.333 441.701 154.18 442.261 154.78C442.821 155.367 443.581 155.66 444.541 155.66C445.541 155.66 446.341 155.34 446.941 154.7C447.541 154.047 447.841 153.1 447.841 151.86V146.02H449.661ZM456.017 145.88C457.257 145.88 458.251 146.207 458.997 146.86C459.757 147.5 460.217 148.367 460.377 149.46H458.637C458.557 148.807 458.284 148.273 457.817 147.86C457.364 147.433 456.751 147.22 455.977 147.22C455.324 147.22 454.811 147.38 454.437 147.7C454.077 148.007 453.897 148.427 453.897 148.96C453.897 149.36 454.017 149.687 454.257 149.94C454.511 150.18 454.817 150.367 455.177 150.5C455.551 150.62 456.057 150.753 456.697 150.9C457.511 151.087 458.164 151.28 458.657 151.48C459.164 151.667 459.591 151.973 459.937 152.4C460.297 152.827 460.477 153.4 460.477 154.12C460.477 155.013 460.137 155.74 459.457 156.3C458.791 156.86 457.897 157.14 456.777 157.14C455.471 157.14 454.404 156.827 453.577 156.2C452.751 155.573 452.264 154.7 452.117 153.58H453.877C453.944 154.247 454.231 154.787 454.737 155.2C455.257 155.613 455.937 155.82 456.777 155.82C457.404 155.82 457.891 155.66 458.237 155.34C458.597 155.02 458.777 154.6 458.777 154.08C458.777 153.653 458.651 153.313 458.397 153.06C458.144 152.807 457.831 152.613 457.457 152.48C457.084 152.347 456.571 152.207 455.917 152.06C455.104 151.873 454.451 151.687 453.957 151.5C453.477 151.313 453.064 151.02 452.717 150.62C452.384 150.207 452.217 149.653 452.217 148.96C452.217 148.04 452.557 147.3 453.237 146.74C453.917 146.167 454.844 145.88 456.017 145.88ZM464.249 154.86V157H462.049V154.86H464.249Z" fill="#606060"/>
<path d="M19.6 87.4C16.6154 87.4 14.2 89.8154 14.2 92.8C14.2 95.7846 16.6154 98.2 19.6 98.2C22.5846 98.2 25 95.7846 25 92.8C25 89.8154 22.5846 87.4 19.6 87.4ZM22 93.0359C22 93.2361 21.8361 93.4 21.6359 93.4H19.3645C19.1643 93.4 19.0004 93.2361 19.0004 93.0359V90.1645C19.0004 89.9643 19.1643 89.8004 19.3645 89.8004H19.8359C20.0361 89.8004 20.2 89.9643 20.2 90.1645V92.2H21.6359C21.8361 92.2 22 92.3639 22 92.5641V93.0359ZM19.6 86.2C19.8025 86.2 20.002 86.2124 20.2 86.2304V84.4C20.2 83.44 19.36 82.6 18.4 82.6H15.4V80.8C15.4 79.84 14.56 79 13.6 79H7.6C6.64 79 5.8 79.84 5.8 80.8V82.6H2.8C1.84 82.6 1 83.44 1 84.4V87.4H15.817C16.8895 86.6466 18.1926 86.2 19.6 86.2ZM13 82.6H8.2V81.4H13V82.6ZM13.2558 91H8.8C8.4685 91 8.2 90.7315 8.2 90.4V88.6H1V94C1 94.96 1.84 95.8 2.8 95.8H13.7286C13.2663 94.8985 13 93.8808 13 92.8C13 92.1753 13.093 91.573 13.2558 91Z" fill="#0852AC"/>
<path d="M20.7449 153.126C19.7175 153.96 18.5862 154.651 17.3594 155.138L19.5899 159.001L21.8027 159.946C22.2051 160.118 22.6596 159.856 22.7121 159.421L23 157.032L20.7449 153.126ZM22.4877 149.248C22.687 148.933 22.5652 148.51 22.2396 148.33L21.0882 147.691C20.7814 147.521 20.4069 147.631 20.2162 147.926C18.53 150.531 15.6277 152.125 12.5002 152.125C11.5187 152.125 10.563 151.95 9.65325 151.652L12.4161 146.866C12.4448 146.867 12.4711 146.875 12.4998 146.875C12.5285 146.875 12.5552 146.867 12.5835 146.866L14.679 150.496C15.9599 150.129 17.1219 149.44 18.0674 148.49L15.9431 144.81C16.2487 144.251 16.4378 143.62 16.4378 142.937C16.4378 140.763 14.6749 139 12.5002 139C10.3255 139 8.56263 140.763 8.56263 142.937C8.56263 143.62 8.75171 144.251 9.05688 144.81L6.25545 149.663C5.7407 149.186 5.2727 148.654 4.87402 148.063C4.67755 147.772 4.30102 147.669 3.99709 147.844L2.85888 148.504C2.53691 148.69 2.42288 149.115 2.62755 149.425C3.26618 150.395 4.05041 151.238 4.92365 151.969L2 157.033L2.28794 159.422C2.34044 159.856 2.7949 160.119 3.19727 159.947L5.41011 159.002L8.31407 153.972C9.63439 154.474 11.049 154.75 12.5002 154.75C16.5629 154.75 20.3294 152.658 22.4877 149.248ZM12.5002 141.625C13.225 141.625 13.8127 142.213 13.8127 142.937C13.8127 143.662 13.225 144.25 12.5002 144.25C11.7754 144.25 11.1877 143.662 11.1877 142.937C11.1877 142.213 11.7754 141.625 12.5002 141.625Z" fill="#0852AC"/>
<g clip-path="url(#clip0_75_11)">
<path d="M15.8215 37.1266L12.2639 40.6843C11.8428 41.1053 11.1602 41.1053 10.7392 40.6843L7.18154 37.1266C6.50237 36.4475 6.98339 35.2861 7.94391 35.2862H10.2422L10.2422 30.7578H5.71386V33.0561C5.71386 34.0167 4.55258 34.4977 3.87336 33.8185L0.315729 30.2609C-0.105324 29.8398 -0.105324 29.1572 0.315729 28.7362L3.87336 25.1785C4.55254 24.4994 5.71386 24.9804 5.71386 25.9409V28.2422H10.2422V23.7139H7.94081C6.98029 23.7139 6.49927 22.5526 7.17844 21.8734L10.7361 18.3158C11.1571 17.8947 11.8397 17.8947 12.2608 18.3158L15.8184 21.8734C16.4976 22.5526 16.0166 23.7139 15.056 23.7139H12.7577V28.2422H17.286V25.9439C17.286 24.9834 18.4473 24.5024 19.1265 25.1816L22.6841 28.7392C23.1052 29.1602 23.1052 29.8429 22.6841 30.2639L19.1265 33.8215C18.4473 34.5007 17.286 34.0197 17.286 33.0591V30.7578H12.7578V35.2861H15.0591C16.0197 35.2861 16.5007 36.4474 15.8215 37.1266Z" fill="#0852AC"/>
</g>
<rect x="0.5" y="203.5" width="264" height="76" rx="38" stroke="#959595"/>
<path d="M66.894 235.166C68.478 235.166 69.792 235.574 70.836 236.39C71.88 237.206 72.57 238.316 72.906 239.72H70.242C69.966 239.036 69.534 238.496 68.946 238.1C68.37 237.704 67.674 237.506 66.858 237.506C66.186 237.506 65.58 237.674 65.04 238.01C64.5 238.346 64.08 238.826 63.78 239.45C63.48 240.074 63.33 240.806 63.33 241.646C63.33 242.474 63.48 243.2 63.78 243.824C64.08 244.448 64.5 244.928 65.04 245.264C65.58 245.6 66.186 245.768 66.858 245.768C67.674 245.768 68.37 245.57 68.946 245.174C69.534 244.778 69.966 244.238 70.242 243.554H72.906C72.57 244.958 71.88 246.068 70.836 246.884C69.792 247.7 68.478 248.108 66.894 248.108C65.682 248.108 64.608 247.838 63.672 247.298C62.748 246.746 62.028 245.978 61.512 244.994C61.008 244.01 60.756 242.894 60.756 241.646C60.756 240.386 61.008 239.264 61.512 238.28C62.028 237.296 62.748 236.534 63.672 235.994C64.596 235.442 65.67 235.166 66.894 235.166ZM79.4182 237.902C80.3902 237.902 81.2602 238.106 82.0282 238.514C82.8082 238.922 83.4202 239.516 83.8642 240.296C84.3082 241.064 84.5302 241.97 84.5302 243.014C84.5302 244.058 84.3082 244.964 83.8642 245.732C83.4202 246.5 82.8082 247.094 82.0282 247.514C81.2602 247.922 80.3902 248.126 79.4182 248.126C78.4462 248.126 77.5702 247.922 76.7902 247.514C76.0222 247.094 75.4162 246.5 74.9722 245.732C74.5282 244.964 74.3062 244.058 74.3062 243.014C74.3062 241.97 74.5282 241.064 74.9722 240.296C75.4162 239.516 76.0222 238.922 76.7902 238.514C77.5702 238.106 78.4462 237.902 79.4182 237.902ZM79.4182 240.098C78.7102 240.098 78.1102 240.35 77.6182 240.854C77.1262 241.346 76.8802 242.066 76.8802 243.014C76.8802 243.962 77.1262 244.688 77.6182 245.192C78.1102 245.684 78.7102 245.93 79.4182 245.93C80.1262 245.93 80.7262 245.684 81.2182 245.192C81.7102 244.688 81.9562 243.962 81.9562 243.014C81.9562 242.066 81.7102 241.346 81.2182 240.854C80.7262 240.35 80.1262 240.098 79.4182 240.098ZM92.2639 237.884C93.4159 237.884 94.3339 238.262 95.0179 239.018C95.7019 239.774 96.0439 240.836 96.0439 242.204V248H93.5239V242.492C93.5239 241.7 93.3199 241.088 92.9119 240.656C92.5039 240.212 91.9459 239.99 91.2379 239.99C90.5179 239.99 89.9419 240.224 89.5099 240.692C89.0779 241.16 88.8619 241.832 88.8619 242.708V248H86.3239V238.028H88.8619V240.026C89.1259 239.354 89.5579 238.832 90.1579 238.46C90.7699 238.076 91.4719 237.884 92.2639 237.884ZM103.605 245.822V248H102.273C101.157 248 100.299 247.73 99.699 247.19C99.111 246.65 98.817 245.75 98.817 244.49V240.17H97.431V238.028H98.817V235.562H101.355V238.028H103.587V240.17H101.355V244.526C101.355 245.006 101.451 245.342 101.643 245.534C101.835 245.726 102.159 245.822 102.615 245.822H103.605ZM109.337 237.902C110.177 237.902 110.897 238.1 111.497 238.496C112.097 238.892 112.523 239.426 112.775 240.098V238.028H115.295V248H112.775V245.912C112.523 246.584 112.097 247.124 111.497 247.532C110.897 247.928 110.177 248.126 109.337 248.126C108.497 248.126 107.741 247.922 107.069 247.514C106.397 247.106 105.869 246.518 105.485 245.75C105.113 244.97 104.927 244.058 104.927 243.014C104.927 241.97 105.113 241.064 105.485 240.296C105.869 239.516 106.397 238.922 107.069 238.514C107.741 238.106 108.497 237.902 109.337 237.902ZM110.129 240.116C109.337 240.116 108.701 240.374 108.221 240.89C107.741 241.406 107.501 242.114 107.501 243.014C107.501 243.914 107.741 244.622 108.221 245.138C108.701 245.642 109.337 245.894 110.129 245.894C110.897 245.894 111.527 245.636 112.019 245.12C112.523 244.592 112.775 243.89 112.775 243.014C112.775 242.126 112.523 241.424 112.019 240.908C111.527 240.38 110.897 240.116 110.129 240.116ZM122.077 237.902C123.361 237.902 124.429 238.25 125.281 238.946C126.145 239.642 126.685 240.59 126.901 241.79H124.219C124.111 241.262 123.865 240.848 123.481 240.548C123.097 240.236 122.611 240.08 122.023 240.08C121.351 240.08 120.787 240.332 120.331 240.836C119.887 241.328 119.665 242.054 119.665 243.014C119.665 243.974 119.887 244.706 120.331 245.21C120.787 245.702 121.351 245.948 122.023 245.948C122.611 245.948 123.097 245.798 123.481 245.498C123.865 245.186 124.111 244.766 124.219 244.238H126.901C126.685 245.438 126.145 246.386 125.281 247.082C124.429 247.778 123.361 248.126 122.077 248.126C121.105 248.126 120.241 247.922 119.485 247.514C118.729 247.094 118.141 246.5 117.721 245.732C117.301 244.964 117.091 244.058 117.091 243.014C117.091 241.97 117.301 241.064 117.721 240.296C118.141 239.516 118.729 238.922 119.485 238.514C120.241 238.106 121.105 237.902 122.077 237.902ZM134.033 245.822V248H132.701C131.585 248 130.727 247.73 130.127 247.19C129.539 246.65 129.245 245.75 129.245 244.49V240.17H127.859V238.028H129.245V235.562H131.783V238.028H134.015V240.17H131.783V244.526C131.783 245.006 131.879 245.342 132.071 245.534C132.263 245.726 132.587 245.822 133.043 245.822H134.033ZM142.227 235.292V242.744C142.227 243.74 142.443 244.49 142.875 244.994C143.319 245.486 143.955 245.732 144.783 245.732C145.599 245.732 146.223 245.486 146.655 244.994C147.099 244.49 147.321 243.74 147.321 242.744V235.292H149.841V242.744C149.841 243.92 149.619 244.916 149.175 245.732C148.743 246.536 148.137 247.136 147.357 247.532C146.589 247.928 145.713 248.126 144.729 248.126C143.205 248.126 141.987 247.67 141.075 246.758C140.163 245.846 139.707 244.508 139.707 242.744V235.292H142.227ZM155.504 237.902C156.716 237.902 157.688 238.208 158.42 238.82C159.152 239.432 159.608 240.248 159.788 241.268H157.412C157.316 240.788 157.1 240.404 156.764 240.116C156.428 239.828 155.99 239.684 155.45 239.684C155.018 239.684 154.682 239.786 154.442 239.99C154.202 240.194 154.082 240.47 154.082 240.818C154.082 241.094 154.178 241.316 154.37 241.484C154.562 241.652 154.802 241.784 155.09 241.88C155.378 241.976 155.792 242.09 156.332 242.222C157.088 242.39 157.7 242.57 158.168 242.762C158.648 242.942 159.056 243.236 159.392 243.644C159.74 244.04 159.914 244.58 159.914 245.264C159.914 246.116 159.578 246.806 158.906 247.334C158.246 247.862 157.352 248.126 156.224 248.126C154.928 248.126 153.89 247.838 153.11 247.262C152.33 246.674 151.856 245.84 151.688 244.76H154.118C154.178 245.252 154.394 245.642 154.766 245.93C155.138 246.206 155.624 246.344 156.224 246.344C156.656 246.344 156.986 246.242 157.214 246.038C157.442 245.822 157.556 245.546 157.556 245.21C157.556 244.922 157.454 244.688 157.25 244.508C157.058 244.328 156.812 244.19 156.512 244.094C156.224 243.998 155.81 243.884 155.27 243.752C154.526 243.584 153.92 243.416 153.452 243.248C152.996 243.068 152.6 242.786 152.264 242.402C151.94 242.018 151.778 241.49 151.778 240.818C151.778 239.954 152.108 239.252 152.768 238.712C153.428 238.172 154.34 237.902 155.504 237.902ZM176.488 248H173.95L168.262 239.36V248H165.724V235.292H168.262L173.95 244.004V235.292H176.488V248ZM183.393 237.902C184.365 237.902 185.235 238.106 186.003 238.514C186.783 238.922 187.395 239.516 187.839 240.296C188.283 241.064 188.505 241.97 188.505 243.014C188.505 244.058 188.283 244.964 187.839 245.732C187.395 246.5 186.783 247.094 186.003 247.514C185.235 247.922 184.365 248.126 183.393 248.126C182.421 248.126 181.545 247.922 180.765 247.514C179.997 247.094 179.391 246.5 178.947 245.732C178.503 244.964 178.281 244.058 178.281 243.014C178.281 241.97 178.503 241.064 178.947 240.296C179.391 239.516 179.997 238.922 180.765 238.514C181.545 238.106 182.421 237.902 183.393 237.902ZM183.393 240.098C182.685 240.098 182.085 240.35 181.593 240.854C181.101 241.346 180.855 242.066 180.855 243.014C180.855 243.962 181.101 244.688 181.593 245.192C182.085 245.684 182.685 245.93 183.393 245.93C184.101 245.93 184.701 245.684 185.193 245.192C185.685 244.688 185.931 243.962 185.931 243.014C185.931 242.066 185.685 241.346 185.193 240.854C184.701 240.35 184.101 240.098 183.393 240.098ZM204.572 238.028L201.89 248H199.082L196.94 240.746L194.744 248H191.936L189.272 238.028H191.81L193.43 245.732L195.644 238.028H198.326L200.558 245.732L202.196 238.028H204.572Z" fill="#010731"/>
<defs>
<clipPath id="clip0_75_11">
<rect width="23" height="23" fill="white" transform="translate(0 18)"/>
</clipPath>
</defs>
</svg>
