<svg width="945" height="269" viewBox="0 0 945 269" fill="none" xmlns="http://www.w3.org/2000/svg">
<path d="M240.135 0H422L407.865 70H226L240.135 0Z" fill="#06629E"/>
<path d="M143.912 54.336C140.744 54.336 137.832 53.6 135.176 52.128C132.552 50.656 130.456 48.608 128.888 45.984C127.352 43.328 126.584 40.352 126.584 37.056C126.584 33.76 127.352 30.8 128.888 28.176C130.456 25.552 132.552 23.504 135.176 22.032C137.832 20.56 140.744 19.824 143.912 19.824C147.08 19.824 149.976 20.56 152.6 22.032C155.256 23.504 157.336 25.552 158.84 28.176C160.376 30.8 161.144 33.76 161.144 37.056C161.144 40.352 160.376 43.328 158.84 45.984C157.304 48.608 155.224 50.656 152.6 52.128C149.976 53.6 147.08 54.336 143.912 54.336ZM143.912 46.848C146.6 46.848 148.744 45.952 150.344 44.16C151.976 42.368 152.792 40 152.792 37.056C152.792 34.08 151.976 31.712 150.344 29.952C148.744 28.16 146.6 27.264 143.912 27.264C141.192 27.264 139.016 28.144 137.384 29.904C135.784 31.664 134.984 34.048 134.984 37.056C134.984 40.032 135.784 42.416 137.384 44.208C139.016 45.968 141.192 46.848 143.912 46.848ZM173.774 20.304V40.464C173.774 42.48 174.27 44.032 175.262 45.12C176.254 46.208 177.71 46.752 179.63 46.752C181.55 46.752 183.022 46.208 184.046 45.12C185.07 44.032 185.582 42.48 185.582 40.464V20.304H193.79V40.416C193.79 43.424 193.15 45.968 191.87 48.048C190.59 50.128 188.862 51.696 186.686 52.752C184.542 53.808 182.142 54.336 179.486 54.336C176.83 54.336 174.446 53.824 172.334 52.8C170.254 51.744 168.606 50.176 167.39 48.096C166.174 45.984 165.566 43.424 165.566 40.416V20.304H173.774ZM216.738 54L209.73 41.28H207.762V54H199.554V20.304H213.33C215.986 20.304 218.242 20.768 220.098 21.696C221.986 22.624 223.394 23.904 224.322 25.536C225.25 27.136 225.714 28.928 225.714 30.912C225.714 33.152 225.074 35.152 223.794 36.912C222.546 38.672 220.69 39.92 218.226 40.656L226.002 54H216.738ZM207.762 35.472H212.85C214.354 35.472 215.474 35.104 216.21 34.368C216.978 33.632 217.362 32.592 217.362 31.248C217.362 29.968 216.978 28.96 216.21 28.224C215.474 27.488 214.354 27.12 212.85 27.12H207.762V35.472Z" fill="#06629E"/>
<path d="M263.402 54.336C260.938 54.336 258.73 53.936 256.778 53.136C254.826 52.336 253.258 51.152 252.074 49.584C250.922 48.016 250.314 46.128 250.25 43.92H258.986C259.114 45.168 259.546 46.128 260.282 46.8C261.018 47.44 261.978 47.76 263.162 47.76C264.378 47.76 265.338 47.488 266.042 46.944C266.746 46.368 267.098 45.584 267.098 44.592C267.098 43.76 266.81 43.072 266.234 42.528C265.69 41.984 265.002 41.536 264.17 41.184C263.37 40.832 262.218 40.432 260.714 39.984C258.538 39.312 256.762 38.64 255.386 37.968C254.01 37.296 252.826 36.304 251.834 34.992C250.842 33.68 250.346 31.968 250.346 29.856C250.346 26.72 251.482 24.272 253.754 22.512C256.026 20.72 258.986 19.824 262.634 19.824C266.346 19.824 269.338 20.72 271.61 22.512C273.882 24.272 275.098 26.736 275.258 29.904H266.378C266.314 28.816 265.914 27.968 265.178 27.36C264.442 26.72 263.498 26.4 262.346 26.4C261.354 26.4 260.554 26.672 259.946 27.216C259.338 27.728 259.034 28.48 259.034 29.472C259.034 30.56 259.546 31.408 260.57 32.016C261.594 32.624 263.194 33.28 265.37 33.984C267.546 34.72 269.306 35.424 270.65 36.096C272.026 36.768 273.21 37.744 274.202 39.024C275.194 40.304 275.69 41.952 275.69 43.968C275.69 45.888 275.194 47.632 274.202 49.2C273.242 50.768 271.834 52.016 269.978 52.944C268.122 53.872 265.93 54.336 263.402 54.336ZM304.982 20.304V26.88H296.054V54H287.846V26.88H278.918V20.304H304.982ZM330.077 48.048H317.501L315.485 54H306.893L319.085 20.304H328.589L340.781 54H332.093L330.077 48.048ZM327.965 41.712L323.789 29.376L319.661 41.712H327.965ZM368.732 20.304V26.88H359.804V54H351.596V26.88H342.668V20.304H368.732ZM385.043 54.336C382.579 54.336 380.371 53.936 378.419 53.136C376.467 52.336 374.899 51.152 373.715 49.584C372.563 48.016 371.955 46.128 371.891 43.92H380.627C380.755 45.168 381.187 46.128 381.923 46.8C382.659 47.44 383.619 47.76 384.803 47.76C386.019 47.76 386.979 47.488 387.683 46.944C388.387 46.368 388.739 45.584 388.739 44.592C388.739 43.76 388.451 43.072 387.875 42.528C387.331 41.984 386.643 41.536 385.811 41.184C385.011 40.832 383.859 40.432 382.355 39.984C380.179 39.312 378.403 38.64 377.027 37.968C375.651 37.296 374.467 36.304 373.475 34.992C372.483 33.68 371.987 31.968 371.987 29.856C371.987 26.72 373.123 24.272 375.395 22.512C377.667 20.72 380.627 19.824 384.275 19.824C387.987 19.824 390.979 20.72 393.251 22.512C395.523 24.272 396.739 26.736 396.899 29.904H388.019C387.955 28.816 387.555 27.968 386.819 27.36C386.083 26.72 385.139 26.4 383.987 26.4C382.995 26.4 382.195 26.672 381.587 27.216C380.979 27.728 380.675 28.48 380.675 29.472C380.675 30.56 381.187 31.408 382.211 32.016C383.235 32.624 384.835 33.28 387.011 33.984C389.187 34.72 390.947 35.424 392.291 36.096C393.667 36.768 394.851 37.744 395.843 39.024C396.835 40.304 397.331 41.952 397.331 43.968C397.331 45.888 396.835 47.632 395.843 49.2C394.883 50.768 393.475 52.016 391.619 52.944C389.763 53.872 387.571 54.336 385.043 54.336Z" fill="white"/>
<path d="M9.184 110.72L5.488 117.728V122H4.016V117.728L0.304 110.72H2L4.768 116.176L7.52 110.72H9.184ZM14.6364 113.104C15.479 113.104 16.231 113.285 16.8924 113.648C17.5644 114.011 18.087 114.533 18.4604 115.216C18.8444 115.899 19.0364 116.699 19.0364 117.616C19.0364 118.533 18.8444 119.333 18.4604 120.016C18.087 120.688 17.5644 121.205 16.8924 121.568C16.231 121.931 15.479 122.112 14.6364 122.112C13.7937 122.112 13.0364 121.931 12.3644 121.568C11.703 121.205 11.1804 120.688 10.7964 120.016C10.4124 119.333 10.2204 118.533 10.2204 117.616C10.2204 116.699 10.4124 115.899 10.7964 115.216C11.1804 114.533 11.703 114.011 12.3644 113.648C13.0364 113.285 13.7937 113.104 14.6364 113.104ZM14.6364 114.384C14.1137 114.384 13.6284 114.501 13.1804 114.736C12.743 114.971 12.3857 115.333 12.1084 115.824C11.8417 116.304 11.7084 116.901 11.7084 117.616C11.7084 118.32 11.8417 118.917 12.1084 119.408C12.3857 119.888 12.743 120.245 13.1804 120.48C13.6284 120.715 14.1137 120.832 14.6364 120.832C15.159 120.832 15.639 120.715 16.0764 120.48C16.5244 120.245 16.8817 119.888 17.1484 119.408C17.4257 118.917 17.5644 118.32 17.5644 117.616C17.5644 116.901 17.4257 116.304 17.1484 115.824C16.8817 115.333 16.5244 114.971 16.0764 114.736C15.639 114.501 15.159 114.384 14.6364 114.384ZM28.7416 113.216V122H27.2856V119.936C27.0616 120.651 26.6616 121.2 26.0856 121.584C25.5203 121.957 24.859 122.144 24.1016 122.144C23.0883 122.144 22.267 121.819 21.6376 121.168C21.0083 120.507 20.6936 119.563 20.6936 118.336V113.216H22.1496V118.192C22.1496 119.067 22.3736 119.744 22.8216 120.224C23.2696 120.693 23.8776 120.928 24.6456 120.928C25.4456 120.928 26.0856 120.672 26.5656 120.16C27.0456 119.637 27.2856 118.88 27.2856 117.888V113.216H28.7416ZM38.9154 113.104C40.0354 113.104 40.9634 113.403 41.6994 114C42.4354 114.597 42.8887 115.397 43.0594 116.4H41.5234C41.4167 115.771 41.1234 115.28 40.6434 114.928C40.174 114.565 39.5874 114.384 38.8834 114.384C38.3714 114.384 37.902 114.501 37.4754 114.736C37.0594 114.971 36.7234 115.333 36.4674 115.824C36.2114 116.304 36.0834 116.901 36.0834 117.616C36.0834 118.331 36.2114 118.933 36.4674 119.424C36.7234 119.904 37.0594 120.261 37.4754 120.496C37.902 120.731 38.3714 120.848 38.8834 120.848C39.5874 120.848 40.174 120.667 40.6434 120.304C41.1234 119.941 41.4167 119.445 41.5234 118.816H43.0594C42.8887 119.829 42.4354 120.635 41.6994 121.232C40.9634 121.819 40.0354 122.112 38.9154 122.112C38.0727 122.112 37.326 121.931 36.6754 121.568C36.0247 121.205 35.5127 120.688 35.1394 120.016C34.7767 119.333 34.5954 118.533 34.5954 117.616C34.5954 116.699 34.7767 115.899 35.1394 115.216C35.5127 114.533 36.0247 114.011 36.6754 113.648C37.326 113.285 38.0727 113.104 38.9154 113.104ZM48.5649 113.104C49.4182 113.104 50.1382 113.317 50.7249 113.744C51.3222 114.171 51.7382 114.741 51.9729 115.456V113.216H53.4289V122H51.9729V119.76C51.7382 120.475 51.3222 121.045 50.7249 121.472C50.1382 121.899 49.4182 122.112 48.5649 122.112C47.7862 122.112 47.0929 121.931 46.4849 121.568C45.8769 121.205 45.3969 120.688 45.0449 120.016C44.7035 119.333 44.5329 118.533 44.5329 117.616C44.5329 116.699 44.7035 115.899 45.0449 115.216C45.3969 114.533 45.8769 114.011 46.4849 113.648C47.0929 113.285 47.7862 113.104 48.5649 113.104ZM48.9809 114.4C48.0849 114.4 47.3649 114.688 46.8209 115.264C46.2875 115.829 46.0209 116.613 46.0209 117.616C46.0209 118.619 46.2875 119.408 46.8209 119.984C47.3649 120.549 48.0849 120.832 48.9809 120.832C49.5569 120.832 50.0689 120.699 50.5169 120.432C50.9755 120.165 51.3329 119.792 51.5889 119.312C51.8449 118.821 51.9729 118.256 51.9729 117.616C51.9729 116.976 51.8449 116.411 51.5889 115.92C51.3329 115.429 50.9755 115.056 50.5169 114.8C50.0689 114.533 49.5569 114.4 48.9809 114.4ZM60.3701 113.072C61.3941 113.072 62.2208 113.403 62.8501 114.064C63.4795 114.715 63.7941 115.659 63.7941 116.896V122H62.3381V117.024C62.3381 116.149 62.1141 115.477 61.6661 115.008C61.2181 114.539 60.6101 114.304 59.8421 114.304C59.0421 114.304 58.4021 114.565 57.9221 115.088C57.4421 115.6 57.2021 116.352 57.2021 117.344V122H55.7461V113.216H57.2021V115.296C57.4261 114.581 57.8208 114.032 58.3861 113.648C58.9621 113.264 59.6235 113.072 60.3701 113.072ZM74.6045 113.072C75.6285 113.072 76.4552 113.403 77.0845 114.064C77.7138 114.715 78.0285 115.659 78.0285 116.896V122H76.5725V117.024C76.5725 116.149 76.3485 115.477 75.9005 115.008C75.4525 114.539 74.8445 114.304 74.0765 114.304C73.2765 114.304 72.6365 114.565 72.1565 115.088C71.6765 115.6 71.4365 116.352 71.4365 117.344V122H69.9805V113.216H71.4365V115.296C71.6605 114.581 72.0552 114.032 72.6205 113.648C73.1965 113.264 73.8578 113.072 74.6045 113.072ZM84.2458 113.104C85.0884 113.104 85.8404 113.285 86.5018 113.648C87.1738 114.011 87.6964 114.533 88.0698 115.216C88.4538 115.899 88.6458 116.699 88.6458 117.616C88.6458 118.533 88.4538 119.333 88.0698 120.016C87.6964 120.688 87.1738 121.205 86.5018 121.568C85.8404 121.931 85.0884 122.112 84.2458 122.112C83.4031 122.112 82.6458 121.931 81.9738 121.568C81.3124 121.205 80.7898 120.688 80.4058 120.016C80.0218 119.333 79.8298 118.533 79.8298 117.616C79.8298 116.699 80.0218 115.899 80.4058 115.216C80.7898 114.533 81.3124 114.011 81.9738 113.648C82.6458 113.285 83.4031 113.104 84.2458 113.104ZM84.2458 114.384C83.7231 114.384 83.2378 114.501 82.7898 114.736C82.3524 114.971 81.9951 115.333 81.7178 115.824C81.4511 116.304 81.3178 116.901 81.3178 117.616C81.3178 118.32 81.4511 118.917 81.7178 119.408C81.9951 119.888 82.3524 120.245 82.7898 120.48C83.2378 120.715 83.7231 120.832 84.2458 120.832C84.7684 120.832 85.2484 120.715 85.6858 120.48C86.1338 120.245 86.4911 119.888 86.7578 119.408C87.0351 118.917 87.1737 118.32 87.1737 117.616C87.1737 116.901 87.0351 116.304 86.7578 115.824C86.4911 115.333 86.1338 114.971 85.6858 114.736C85.2484 114.501 84.7684 114.384 84.2458 114.384ZM102.607 113.216L100.079 122H98.511L96.095 114.848L93.663 122H92.079L89.583 113.216H91.055L92.927 120.608L95.359 113.216H96.879L99.327 120.592L101.215 113.216H102.607ZM111.326 120.448L114.046 113.216H115.614L112.174 122H110.446L107.006 113.216H108.574L111.326 120.448ZM120.643 113.104C121.496 113.104 122.216 113.317 122.803 113.744C123.4 114.171 123.816 114.741 124.051 115.456V113.216H125.507V122H124.051V119.76C123.816 120.475 123.4 121.045 122.803 121.472C122.216 121.899 121.496 122.112 120.643 122.112C119.864 122.112 119.171 121.931 118.563 121.568C117.955 121.205 117.475 120.688 117.123 120.016C116.782 119.333 116.611 118.533 116.611 117.616C116.611 116.699 116.782 115.899 117.123 115.216C117.475 114.533 117.955 114.011 118.563 113.648C119.171 113.285 119.864 113.104 120.643 113.104ZM121.059 114.4C120.163 114.4 119.443 114.688 118.899 115.264C118.366 115.829 118.099 116.613 118.099 117.616C118.099 118.619 118.366 119.408 118.899 119.984C119.443 120.549 120.163 120.832 121.059 120.832C121.635 120.832 122.147 120.699 122.595 120.432C123.054 120.165 123.411 119.792 123.667 119.312C123.923 118.821 124.051 118.256 124.051 117.616C124.051 116.976 123.923 116.411 123.667 115.92C123.411 115.429 123.054 115.056 122.595 114.8C122.147 114.533 121.635 114.4 121.059 114.4ZM129.28 110.16V122H127.824V110.16H129.28ZM139.429 113.216V122H137.973V119.936C137.749 120.651 137.349 121.2 136.773 121.584C136.208 121.957 135.546 122.144 134.789 122.144C133.776 122.144 132.954 121.819 132.325 121.168C131.696 120.507 131.381 119.563 131.381 118.336V113.216H132.837V118.192C132.837 119.067 133.061 119.744 133.509 120.224C133.957 120.693 134.565 120.928 135.333 120.928C136.133 120.928 136.773 120.672 137.253 120.16C137.733 119.637 137.973 118.88 137.973 117.888V113.216H139.429ZM149.842 117.12C149.842 117.429 149.82 117.696 149.778 117.92H142.754C142.786 118.923 143.068 119.675 143.602 120.176C144.146 120.677 144.807 120.928 145.586 120.928C146.29 120.928 146.876 120.752 147.346 120.4C147.826 120.037 148.119 119.557 148.226 118.96H149.778C149.671 119.568 149.431 120.112 149.058 120.592C148.695 121.072 148.22 121.445 147.634 121.712C147.047 121.979 146.386 122.112 145.65 122.112C144.807 122.112 144.06 121.931 143.41 121.568C142.759 121.205 142.247 120.688 141.874 120.016C141.511 119.333 141.33 118.533 141.33 117.616C141.33 116.699 141.511 115.899 141.874 115.216C142.247 114.533 142.759 114.011 143.41 113.648C144.06 113.285 144.807 113.104 145.65 113.104C146.503 113.104 147.244 113.285 147.874 113.648C148.514 114.011 148.999 114.496 149.33 115.104C149.671 115.712 149.842 116.384 149.842 117.12ZM148.37 117.216C148.402 116.565 148.295 116.021 148.05 115.584C147.804 115.147 147.468 114.821 147.042 114.608C146.615 114.395 146.151 114.288 145.65 114.288C144.85 114.288 144.178 114.539 143.634 115.04C143.09 115.531 142.796 116.256 142.754 117.216H148.37ZM159.299 113.104C160.153 113.104 160.873 113.317 161.459 113.744C162.057 114.171 162.473 114.741 162.707 115.456V113.216H164.163V122H162.707V119.76C162.473 120.475 162.057 121.045 161.459 121.472C160.873 121.899 160.153 122.112 159.299 122.112C158.521 122.112 157.827 121.931 157.219 121.568C156.611 121.205 156.131 120.688 155.779 120.016C155.438 119.333 155.267 118.533 155.267 117.616C155.267 116.699 155.438 115.899 155.779 115.216C156.131 114.533 156.611 114.011 157.219 113.648C157.827 113.285 158.521 113.104 159.299 113.104ZM159.715 114.4C158.819 114.4 158.099 114.688 157.555 115.264C157.022 115.829 156.755 116.613 156.755 117.616C156.755 118.619 157.022 119.408 157.555 119.984C158.099 120.549 158.819 120.832 159.715 120.832C160.291 120.832 160.803 120.699 161.251 120.432C161.71 120.165 162.067 119.792 162.323 119.312C162.579 118.821 162.707 118.256 162.707 117.616C162.707 116.976 162.579 116.411 162.323 115.92C162.067 115.429 161.71 115.056 161.251 114.8C160.803 114.533 160.291 114.4 159.715 114.4ZM175.282 113.104C176.06 113.104 176.754 113.285 177.362 113.648C177.97 114.011 178.444 114.533 178.786 115.216C179.138 115.899 179.314 116.699 179.314 117.616C179.314 118.533 179.138 119.333 178.786 120.016C178.444 120.688 177.97 121.205 177.362 121.568C176.754 121.931 176.06 122.112 175.282 122.112C174.428 122.112 173.703 121.899 173.106 121.472C172.519 121.035 172.114 120.464 171.89 119.76V122H170.434V110.16H171.89V115.456C172.114 114.752 172.519 114.187 173.106 113.76C173.703 113.323 174.428 113.104 175.282 113.104ZM174.866 114.4C174.3 114.4 173.788 114.533 173.33 114.8C172.871 115.056 172.514 115.429 172.258 115.92C172.002 116.411 171.874 116.976 171.874 117.616C171.874 118.256 172.002 118.821 172.258 119.312C172.514 119.792 172.871 120.165 173.33 120.432C173.788 120.699 174.3 120.832 174.866 120.832C175.772 120.832 176.492 120.549 177.026 119.984C177.57 119.408 177.842 118.619 177.842 117.616C177.842 116.613 177.57 115.829 177.026 115.264C176.492 114.688 175.772 114.4 174.866 114.4ZM189.023 113.216V122H187.567V119.936C187.343 120.651 186.943 121.2 186.367 121.584C185.802 121.957 185.14 122.144 184.383 122.144C183.37 122.144 182.548 121.819 181.919 121.168C181.29 120.507 180.975 119.563 180.975 118.336V113.216H182.431V118.192C182.431 119.067 182.655 119.744 183.103 120.224C183.551 120.693 184.159 120.928 184.927 120.928C185.727 120.928 186.367 120.672 186.847 120.16C187.327 119.637 187.567 118.88 187.567 117.888V113.216H189.023ZM194.108 113.104C195.1 113.104 195.894 113.365 196.492 113.888C197.1 114.4 197.468 115.093 197.596 115.968H196.204C196.14 115.445 195.921 115.019 195.548 114.688C195.185 114.347 194.694 114.176 194.076 114.176C193.553 114.176 193.142 114.304 192.844 114.56C192.556 114.805 192.412 115.141 192.412 115.568C192.412 115.888 192.508 116.149 192.7 116.352C192.902 116.544 193.148 116.693 193.436 116.8C193.734 116.896 194.14 117.003 194.652 117.12C195.302 117.269 195.825 117.424 196.22 117.584C196.625 117.733 196.966 117.979 197.244 118.32C197.532 118.661 197.676 119.12 197.676 119.696C197.676 120.411 197.404 120.992 196.86 121.44C196.326 121.888 195.612 122.112 194.716 122.112C193.67 122.112 192.817 121.861 192.156 121.36C191.494 120.859 191.105 120.16 190.988 119.264H192.396C192.449 119.797 192.678 120.229 193.084 120.56C193.5 120.891 194.044 121.056 194.716 121.056C195.217 121.056 195.606 120.928 195.884 120.672C196.172 120.416 196.316 120.08 196.316 119.664C196.316 119.323 196.214 119.051 196.012 118.848C195.809 118.645 195.558 118.491 195.26 118.384C194.961 118.277 194.55 118.165 194.028 118.048C193.377 117.899 192.854 117.749 192.46 117.6C192.076 117.451 191.745 117.216 191.468 116.896C191.201 116.565 191.068 116.123 191.068 115.568C191.068 114.832 191.34 114.24 191.884 113.792C192.428 113.333 193.169 113.104 194.108 113.104ZM199.365 110.64C199.365 110.373 199.456 110.16 199.637 110C199.818 109.829 200.058 109.744 200.357 109.744C200.656 109.744 200.896 109.829 201.077 110C201.258 110.16 201.349 110.373 201.349 110.64C201.349 110.907 201.258 111.125 201.077 111.296C200.896 111.456 200.656 111.536 200.357 111.536C200.058 111.536 199.818 111.456 199.637 111.296C199.456 111.125 199.365 110.907 199.365 110.64ZM201.077 113.216V122H199.621V113.216H201.077ZM208.042 113.072C209.066 113.072 209.893 113.403 210.522 114.064C211.151 114.715 211.466 115.659 211.466 116.896V122H210.01V117.024C210.01 116.149 209.786 115.477 209.338 115.008C208.89 114.539 208.282 114.304 207.514 114.304C206.714 114.304 206.074 114.565 205.594 115.088C205.114 115.6 204.874 116.352 204.874 117.344V122H203.418V113.216H204.874V115.296C205.098 114.581 205.493 114.032 206.058 113.648C206.634 113.264 207.295 113.072 208.042 113.072ZM221.779 117.12C221.779 117.429 221.758 117.696 221.715 117.92H214.691C214.723 118.923 215.006 119.675 215.539 120.176C216.083 120.677 216.745 120.928 217.523 120.928C218.227 120.928 218.814 120.752 219.283 120.4C219.763 120.037 220.057 119.557 220.163 118.96H221.715C221.609 119.568 221.369 120.112 220.995 120.592C220.633 121.072 220.158 121.445 219.571 121.712C218.985 121.979 218.323 122.112 217.587 122.112C216.745 122.112 215.998 121.931 215.347 121.568C214.697 121.205 214.185 120.688 213.811 120.016C213.449 119.333 213.267 118.533 213.267 117.616C213.267 116.699 213.449 115.899 213.811 115.216C214.185 114.533 214.697 114.011 215.347 113.648C215.998 113.285 216.745 113.104 217.587 113.104C218.441 113.104 219.182 113.285 219.811 113.648C220.451 114.011 220.937 114.496 221.267 115.104C221.609 115.712 221.779 116.384 221.779 117.12ZM220.307 117.216C220.339 116.565 220.233 116.021 219.987 115.584C219.742 115.147 219.406 114.821 218.979 114.608C218.553 114.395 218.089 114.288 217.587 114.288C216.787 114.288 216.115 114.539 215.571 115.04C215.027 115.531 214.734 116.256 214.691 117.216H220.307ZM226.436 113.104C227.428 113.104 228.222 113.365 228.82 113.888C229.428 114.4 229.796 115.093 229.924 115.968H228.532C228.468 115.445 228.249 115.019 227.876 114.688C227.513 114.347 227.022 114.176 226.404 114.176C225.881 114.176 225.47 114.304 225.172 114.56C224.884 114.805 224.74 115.141 224.74 115.568C224.74 115.888 224.836 116.149 225.028 116.352C225.23 116.544 225.476 116.693 225.764 116.8C226.062 116.896 226.468 117.003 226.98 117.12C227.63 117.269 228.153 117.424 228.548 117.584C228.953 117.733 229.294 117.979 229.572 118.32C229.86 118.661 230.004 119.12 230.004 119.696C230.004 120.411 229.732 120.992 229.188 121.44C228.654 121.888 227.94 122.112 227.044 122.112C225.998 122.112 225.145 121.861 224.484 121.36C223.822 120.859 223.433 120.16 223.316 119.264H224.724C224.777 119.797 225.006 120.229 225.412 120.56C225.828 120.891 226.372 121.056 227.044 121.056C227.545 121.056 227.934 120.928 228.212 120.672C228.5 120.416 228.644 120.08 228.644 119.664C228.644 119.323 228.542 119.051 228.34 118.848C228.137 118.645 227.886 118.491 227.588 118.384C227.289 118.277 226.878 118.165 226.356 118.048C225.705 117.899 225.182 117.749 224.788 117.6C224.404 117.451 224.073 117.216 223.796 116.896C223.529 116.565 223.396 116.123 223.396 115.568C223.396 114.832 223.668 114.24 224.212 113.792C224.756 113.333 225.497 113.104 226.436 113.104ZM234.701 113.104C235.693 113.104 236.488 113.365 237.085 113.888C237.693 114.4 238.061 115.093 238.189 115.968H236.797C236.733 115.445 236.515 115.019 236.141 114.688C235.779 114.347 235.288 114.176 234.669 114.176C234.147 114.176 233.736 114.304 233.437 114.56C233.149 114.805 233.005 115.141 233.005 115.568C233.005 115.888 233.101 116.149 233.293 116.352C233.496 116.544 233.741 116.693 234.029 116.8C234.328 116.896 234.733 117.003 235.245 117.12C235.896 117.269 236.419 117.424 236.813 117.584C237.219 117.733 237.56 117.979 237.837 118.32C238.125 118.661 238.269 119.12 238.269 119.696C238.269 120.411 237.997 120.992 237.453 121.44C236.92 121.888 236.205 122.112 235.309 122.112C234.264 122.112 233.411 121.861 232.749 121.36C232.088 120.859 231.699 120.16 231.581 119.264H232.989C233.043 119.797 233.272 120.229 233.677 120.56C234.093 120.891 234.637 121.056 235.309 121.056C235.811 121.056 236.2 120.928 236.477 120.672C236.765 120.416 236.909 120.08 236.909 119.664C236.909 119.323 236.808 119.051 236.605 118.848C236.403 118.645 236.152 118.491 235.853 118.384C235.555 118.277 235.144 118.165 234.621 118.048C233.971 117.899 233.448 117.749 233.053 117.6C232.669 117.451 232.339 117.216 232.061 116.896C231.795 116.565 231.661 116.123 231.661 115.568C231.661 114.832 231.933 114.24 232.477 113.792C233.021 113.333 233.763 113.104 234.701 113.104ZM243.912 110.64C243.912 110.373 244.003 110.16 244.184 110C244.365 109.829 244.605 109.744 244.904 109.744C245.203 109.744 245.443 109.829 245.624 110C245.805 110.16 245.896 110.373 245.896 110.64C245.896 110.907 245.805 111.125 245.624 111.296C245.443 111.456 245.203 111.536 244.904 111.536C244.605 111.536 244.365 111.456 244.184 111.296C244.003 111.125 243.912 110.907 243.912 110.64ZM245.624 113.216V122H244.168V113.216H245.624ZM252.589 113.072C253.613 113.072 254.44 113.403 255.069 114.064C255.698 114.715 256.013 115.659 256.013 116.896V122H254.557V117.024C254.557 116.149 254.333 115.477 253.885 115.008C253.437 114.539 252.829 114.304 252.061 114.304C251.261 114.304 250.621 114.565 250.141 115.088C249.661 115.6 249.421 116.352 249.421 117.344V122H247.965V113.216H249.421V115.296C249.645 114.581 250.04 114.032 250.605 113.648C251.181 113.264 251.842 113.072 252.589 113.072ZM272.999 113.072C274.023 113.072 274.845 113.403 275.463 114.064C276.093 114.715 276.407 115.659 276.407 116.896V122H274.951V117.024C274.951 116.16 274.738 115.499 274.311 115.04C273.895 114.581 273.319 114.352 272.583 114.352C271.815 114.352 271.197 114.608 270.727 115.12C270.269 115.621 270.039 116.363 270.039 117.344V122H268.583V117.024C268.583 116.16 268.37 115.499 267.943 115.04C267.517 114.581 266.941 114.352 266.215 114.352C265.437 114.352 264.813 114.608 264.343 115.12C263.885 115.621 263.655 116.363 263.655 117.344V122H262.199V113.216H263.655V115.216C263.869 114.523 264.247 113.995 264.791 113.632C265.346 113.259 265.981 113.072 266.695 113.072C267.442 113.072 268.087 113.264 268.631 113.648C269.186 114.021 269.581 114.576 269.815 115.312C270.061 114.597 270.471 114.048 271.047 113.664C271.623 113.269 272.274 113.072 272.999 113.072ZM278.412 110.64C278.412 110.373 278.503 110.16 278.684 110C278.865 109.829 279.105 109.744 279.404 109.744C279.703 109.744 279.943 109.829 280.124 110C280.305 110.16 280.396 110.373 280.396 110.64C280.396 110.907 280.305 111.125 280.124 111.296C279.943 111.456 279.703 111.536 279.404 111.536C279.105 111.536 278.865 111.456 278.684 111.296C278.503 111.125 278.412 110.907 278.412 110.64ZM280.124 113.216V122H278.668V113.216H280.124ZM287.089 113.072C288.113 113.072 288.94 113.403 289.569 114.064C290.198 114.715 290.513 115.659 290.513 116.896V122H289.057V117.024C289.057 116.149 288.833 115.477 288.385 115.008C287.937 114.539 287.329 114.304 286.561 114.304C285.761 114.304 285.121 114.565 284.641 115.088C284.161 115.6 283.921 116.352 283.921 117.344V122H282.465V113.216H283.921V115.296C284.145 114.581 284.54 114.032 285.105 113.648C285.681 113.264 286.342 113.072 287.089 113.072ZM300.554 113.216V122H299.098V119.936C298.874 120.651 298.474 121.2 297.898 121.584C297.333 121.957 296.671 122.144 295.914 122.144C294.901 122.144 294.079 121.819 293.45 121.168C292.821 120.507 292.506 119.563 292.506 118.336V113.216H293.962V118.192C293.962 119.067 294.186 119.744 294.634 120.224C295.082 120.693 295.69 120.928 296.458 120.928C297.258 120.928 297.898 120.672 298.378 120.16C298.858 119.637 299.098 118.88 299.098 117.888V113.216H300.554ZM307.079 120.72V122H305.991C305.095 122 304.423 121.787 303.975 121.36C303.537 120.933 303.319 120.219 303.319 119.216V114.48H302.007V113.216H303.319V111.024H304.791V113.216H307.063V114.48H304.791V119.248C304.791 119.813 304.892 120.203 305.095 120.416C305.308 120.619 305.671 120.72 306.183 120.72H307.079ZM316.936 117.12C316.936 117.429 316.914 117.696 316.872 117.92H309.848C309.88 118.923 310.162 119.675 310.696 120.176C311.24 120.677 311.901 120.928 312.68 120.928C313.384 120.928 313.97 120.752 314.44 120.4C314.92 120.037 315.213 119.557 315.32 118.96H316.872C316.765 119.568 316.525 120.112 316.152 120.592C315.789 121.072 315.314 121.445 314.728 121.712C314.141 121.979 313.48 122.112 312.744 122.112C311.901 122.112 311.154 121.931 310.504 121.568C309.853 121.205 309.341 120.688 308.968 120.016C308.605 119.333 308.424 118.533 308.424 117.616C308.424 116.699 308.605 115.899 308.968 115.216C309.341 114.533 309.853 114.011 310.504 113.648C311.154 113.285 311.901 113.104 312.744 113.104C313.597 113.104 314.338 113.285 314.968 113.648C315.608 114.011 316.093 114.496 316.424 115.104C316.765 115.712 316.936 116.384 316.936 117.12ZM315.464 117.216C315.496 116.565 315.389 116.021 315.144 115.584C314.898 115.147 314.562 114.821 314.136 114.608C313.709 114.395 313.245 114.288 312.744 114.288C311.944 114.288 311.272 114.539 310.728 115.04C310.184 115.531 309.89 116.256 309.848 117.216H315.464ZM321.592 113.104C322.584 113.104 323.379 113.365 323.976 113.888C324.584 114.4 324.952 115.093 325.08 115.968H323.688C323.624 115.445 323.405 115.019 323.032 114.688C322.669 114.347 322.179 114.176 321.56 114.176C321.037 114.176 320.627 114.304 320.328 114.56C320.04 114.805 319.896 115.141 319.896 115.568C319.896 115.888 319.992 116.149 320.184 116.352C320.387 116.544 320.632 116.693 320.92 116.8C321.219 116.896 321.624 117.003 322.136 117.12C322.787 117.269 323.309 117.424 323.704 117.584C324.109 117.733 324.451 117.979 324.728 118.32C325.016 118.661 325.16 119.12 325.16 119.696C325.16 120.411 324.888 120.992 324.344 121.44C323.811 121.888 323.096 122.112 322.2 122.112C321.155 122.112 320.301 121.861 319.64 121.36C318.979 120.859 318.589 120.16 318.472 119.264H319.88C319.933 119.797 320.163 120.229 320.568 120.56C320.984 120.891 321.528 121.056 322.2 121.056C322.701 121.056 323.091 120.928 323.368 120.672C323.656 120.416 323.8 120.08 323.8 119.664C323.8 119.323 323.699 119.051 323.496 118.848C323.293 118.645 323.043 118.491 322.744 118.384C322.445 118.277 322.035 118.165 321.512 118.048C320.861 117.899 320.339 117.749 319.944 117.6C319.56 117.451 319.229 117.216 318.952 116.896C318.685 116.565 318.552 116.123 318.552 115.568C318.552 114.832 318.824 114.24 319.368 113.792C319.912 113.333 320.653 113.104 321.592 113.104ZM343.123 113.216L340.595 122H339.027L336.611 114.848L334.179 122H332.595L330.099 113.216H331.571L333.443 120.608L335.875 113.216H337.395L339.843 120.592L341.731 113.216H343.123ZM344.225 110.64C344.225 110.373 344.315 110.16 344.497 110C344.678 109.829 344.918 109.744 345.217 109.744C345.515 109.744 345.755 109.829 345.937 110C346.118 110.16 346.209 110.373 346.209 110.64C346.209 110.907 346.118 111.125 345.937 111.296C345.755 111.456 345.515 111.536 345.217 111.536C344.918 111.536 344.678 111.456 344.497 111.296C344.315 111.125 344.225 110.907 344.225 110.64ZM345.937 113.216V122H344.481V113.216H345.937ZM352.469 120.72V122H351.381C350.485 122 349.813 121.787 349.365 121.36C348.928 120.933 348.709 120.219 348.709 119.216V114.48H347.397V113.216H348.709V111.024H350.181V113.216H352.453V114.48H350.181V119.248C350.181 119.813 350.283 120.203 350.485 120.416C350.699 120.619 351.061 120.72 351.573 120.72H352.469ZM358.87 113.072C359.894 113.072 360.721 113.403 361.35 114.064C361.979 114.715 362.294 115.659 362.294 116.896V122H360.838V117.024C360.838 116.149 360.614 115.477 360.166 115.008C359.718 114.539 359.11 114.304 358.342 114.304C357.542 114.304 356.902 114.565 356.422 115.088C355.942 115.6 355.702 116.352 355.702 117.344V122H354.246V110.16H355.702V115.296C355.926 114.581 356.321 114.032 356.886 113.648C357.462 113.264 358.123 113.072 358.87 113.072ZM372.465 113.104C373.307 113.104 374.059 113.285 374.721 113.648C375.393 114.011 375.915 114.533 376.289 115.216C376.673 115.899 376.865 116.699 376.865 117.616C376.865 118.533 376.673 119.333 376.289 120.016C375.915 120.688 375.393 121.205 374.721 121.568C374.059 121.931 373.307 122.112 372.465 122.112C371.622 122.112 370.865 121.931 370.193 121.568C369.531 121.205 369.009 120.688 368.625 120.016C368.241 119.333 368.049 118.533 368.049 117.616C368.049 116.699 368.241 115.899 368.625 115.216C369.009 114.533 369.531 114.011 370.193 113.648C370.865 113.285 371.622 113.104 372.465 113.104ZM372.465 114.384C371.942 114.384 371.457 114.501 371.009 114.736C370.571 114.971 370.214 115.333 369.937 115.824C369.67 116.304 369.537 116.901 369.537 117.616C369.537 118.32 369.67 118.917 369.937 119.408C370.214 119.888 370.571 120.245 371.009 120.48C371.457 120.715 371.942 120.832 372.465 120.832C372.987 120.832 373.467 120.715 373.905 120.48C374.353 120.245 374.71 119.888 374.977 119.408C375.254 118.917 375.392 118.32 375.392 117.616C375.392 116.901 375.254 116.304 374.977 115.824C374.71 115.333 374.353 114.971 373.905 114.736C373.467 114.501 372.987 114.384 372.465 114.384ZM386.57 113.216V122H385.114V119.936C384.89 120.651 384.49 121.2 383.914 121.584C383.348 121.957 382.687 122.144 381.93 122.144C380.916 122.144 380.095 121.819 379.466 121.168C378.836 120.507 378.522 119.563 378.522 118.336V113.216H379.978V118.192C379.978 119.067 380.202 119.744 380.65 120.224C381.098 120.693 381.706 120.928 382.474 120.928C383.274 120.928 383.914 120.672 384.394 120.16C384.874 119.637 385.114 118.88 385.114 117.888V113.216H386.57ZM390.358 114.992C390.646 114.384 391.068 113.915 391.622 113.584C392.177 113.243 392.838 113.072 393.606 113.072V114.656H393.158C392.337 114.656 391.665 114.869 391.142 115.296C390.62 115.712 390.358 116.405 390.358 117.376V122H388.902V113.216H390.358V114.992ZM403.844 113.104C404.623 113.104 405.316 113.285 405.924 113.648C406.532 114.011 407.007 114.533 407.348 115.216C407.7 115.899 407.876 116.699 407.876 117.616C407.876 118.533 407.7 119.333 407.348 120.016C407.007 120.688 406.532 121.205 405.924 121.568C405.316 121.931 404.623 122.112 403.844 122.112C402.991 122.112 402.265 121.899 401.668 121.472C401.081 121.035 400.676 120.464 400.452 119.76V126.16H398.996V113.216H400.452V115.456C400.676 114.752 401.081 114.187 401.668 113.76C402.265 113.323 402.991 113.104 403.844 113.104ZM403.428 114.4C402.863 114.4 402.351 114.533 401.892 114.8C401.433 115.056 401.076 115.429 400.82 115.92C400.564 116.411 400.436 116.976 400.436 117.616C400.436 118.256 400.564 118.821 400.82 119.312C401.076 119.792 401.433 120.165 401.892 120.432C402.351 120.699 402.863 120.832 403.428 120.832C404.335 120.832 405.055 120.549 405.588 119.984C406.132 119.408 406.404 118.619 406.404 117.616C406.404 116.613 406.132 115.829 405.588 115.264C405.055 114.688 404.335 114.4 403.428 114.4ZM413.761 113.104C414.604 113.104 415.356 113.285 416.017 113.648C416.689 114.011 417.212 114.533 417.585 115.216C417.969 115.899 418.161 116.699 418.161 117.616C418.161 118.533 417.969 119.333 417.585 120.016C417.212 120.688 416.689 121.205 416.017 121.568C415.356 121.931 414.604 122.112 413.761 122.112C412.919 122.112 412.161 121.931 411.489 121.568C410.828 121.205 410.305 120.688 409.921 120.016C409.537 119.333 409.345 118.533 409.345 117.616C409.345 116.699 409.537 115.899 409.921 115.216C410.305 114.533 410.828 114.011 411.489 113.648C412.161 113.285 412.919 113.104 413.761 113.104ZM413.761 114.384C413.239 114.384 412.753 114.501 412.305 114.736C411.868 114.971 411.511 115.333 411.233 115.824C410.967 116.304 410.833 116.901 410.833 117.616C410.833 118.32 410.967 118.917 411.233 119.408C411.511 119.888 411.868 120.245 412.305 120.48C412.753 120.715 413.239 120.832 413.761 120.832C414.284 120.832 414.764 120.715 415.201 120.48C415.649 120.245 416.007 119.888 416.273 119.408C416.551 118.917 416.689 118.32 416.689 117.616C416.689 116.901 416.551 116.304 416.273 115.824C416.007 115.333 415.649 114.971 415.201 114.736C414.764 114.501 414.284 114.384 413.761 114.384ZM432.123 113.216L429.595 122H428.027L425.611 114.848L423.179 122H421.595L419.099 113.216H420.571L422.443 120.608L424.875 113.216H426.395L428.843 120.592L430.731 113.216H432.123ZM441.561 117.12C441.561 117.429 441.539 117.696 441.497 117.92H434.473C434.505 118.923 434.787 119.675 435.321 120.176C435.865 120.677 436.526 120.928 437.305 120.928C438.009 120.928 438.595 120.752 439.065 120.4C439.545 120.037 439.838 119.557 439.945 118.96H441.497C441.39 119.568 441.15 120.112 440.777 120.592C440.414 121.072 439.939 121.445 439.353 121.712C438.766 121.979 438.105 122.112 437.369 122.112C436.526 122.112 435.779 121.931 435.129 121.568C434.478 121.205 433.966 120.688 433.593 120.016C433.23 119.333 433.049 118.533 433.049 117.616C433.049 116.699 433.23 115.899 433.593 115.216C433.966 114.533 434.478 114.011 435.129 113.648C435.779 113.285 436.526 113.104 437.369 113.104C438.222 113.104 438.963 113.285 439.593 113.648C440.233 114.011 440.718 114.496 441.049 115.104C441.39 115.712 441.561 116.384 441.561 117.12ZM440.089 117.216C440.121 116.565 440.014 116.021 439.769 115.584C439.523 115.147 439.187 114.821 438.761 114.608C438.334 114.395 437.87 114.288 437.369 114.288C436.569 114.288 435.897 114.539 435.353 115.04C434.809 115.531 434.515 116.256 434.473 117.216H440.089ZM444.921 114.992C445.209 114.384 445.63 113.915 446.185 113.584C446.74 113.243 447.401 113.072 448.169 113.072V114.656H447.721C446.9 114.656 446.228 114.869 445.705 115.296C445.182 115.712 444.921 116.405 444.921 117.376V122H443.465V113.216H444.921V114.992ZM453.494 111.136C452.715 111.125 452.171 111.259 451.862 111.536C451.563 111.813 451.414 112.293 451.414 112.976V113.216H453.494V114.496H451.414V122H449.958V114.496H448.694V113.216H449.958V112.864C449.958 110.763 451.136 109.76 453.494 109.856V111.136ZM462.882 113.216V122H461.426V119.936C461.202 120.651 460.802 121.2 460.226 121.584C459.661 121.957 459 122.144 458.242 122.144C457.229 122.144 456.408 121.819 455.778 121.168C455.149 120.507 454.834 119.563 454.834 118.336V113.216H456.29V118.192C456.29 119.067 456.514 119.744 456.962 120.224C457.41 120.693 458.018 120.928 458.786 120.928C459.586 120.928 460.226 120.672 460.706 120.16C461.186 119.637 461.426 118.88 461.426 117.888V113.216H462.882ZM466.671 110.16V122H465.215V110.16H466.671ZM476.565 113.104C477.418 113.104 478.138 113.317 478.725 113.744C479.322 114.171 479.738 114.741 479.973 115.456V113.216H481.429V122H479.973V119.76C479.738 120.475 479.322 121.045 478.725 121.472C478.138 121.899 477.418 122.112 476.565 122.112C475.786 122.112 475.093 121.931 474.485 121.568C473.877 121.205 473.397 120.688 473.045 120.016C472.704 119.333 472.533 118.533 472.533 117.616C472.533 116.699 472.704 115.899 473.045 115.216C473.397 114.533 473.877 114.011 474.485 113.648C475.093 113.285 475.786 113.104 476.565 113.104ZM476.981 114.4C476.085 114.4 475.365 114.688 474.821 115.264C474.288 115.829 474.021 116.613 474.021 117.616C474.021 118.619 474.288 119.408 474.821 119.984C475.365 120.549 476.085 120.832 476.981 120.832C477.557 120.832 478.069 120.699 478.517 120.432C478.976 120.165 479.333 119.792 479.589 119.312C479.845 118.821 479.973 118.256 479.973 117.616C479.973 116.976 479.845 116.411 479.589 115.92C479.333 115.429 478.976 115.056 478.517 114.8C478.069 114.533 477.557 114.4 476.981 114.4ZM485.202 110.16V122H483.746V110.16H485.202ZM488.999 110.16V122H487.543V110.16H488.999ZM496.332 115.52V116.752H489.932V115.52H496.332ZM498.943 110.64C498.943 110.373 499.034 110.16 499.215 110C499.397 109.829 499.637 109.744 499.935 109.744C500.234 109.744 500.474 109.829 500.655 110C500.837 110.16 500.927 110.373 500.927 110.64C500.927 110.907 500.837 111.125 500.655 111.296C500.474 111.456 500.234 111.536 499.935 111.536C499.637 111.536 499.397 111.456 499.215 111.296C499.034 111.125 498.943 110.907 498.943 110.64ZM500.655 113.216V122H499.199V113.216H500.655ZM507.62 113.072C508.644 113.072 509.471 113.403 510.1 114.064C510.729 114.715 511.044 115.659 511.044 116.896V122H509.588V117.024C509.588 116.149 509.364 115.477 508.916 115.008C508.468 114.539 507.86 114.304 507.092 114.304C506.292 114.304 505.652 114.565 505.172 115.088C504.692 115.6 504.452 116.352 504.452 117.344V122H502.996V113.216H504.452V115.296C504.676 114.581 505.071 114.032 505.636 113.648C506.212 113.264 506.873 113.072 507.62 113.072ZM518.269 115.52V116.752H511.869V115.52H518.269ZM525.121 113.104C525.963 113.104 526.715 113.285 527.377 113.648C528.049 114.011 528.571 114.533 528.945 115.216C529.329 115.899 529.521 116.699 529.521 117.616C529.521 118.533 529.329 119.333 528.945 120.016C528.571 120.688 528.049 121.205 527.377 121.568C526.715 121.931 525.963 122.112 525.121 122.112C524.278 122.112 523.521 121.931 522.849 121.568C522.187 121.205 521.665 120.688 521.281 120.016C520.897 119.333 520.705 118.533 520.705 117.616C520.705 116.699 520.897 115.899 521.281 115.216C521.665 114.533 522.187 114.011 522.849 113.648C523.521 113.285 524.278 113.104 525.121 113.104ZM525.121 114.384C524.598 114.384 524.113 114.501 523.665 114.736C523.227 114.971 522.87 115.333 522.593 115.824C522.326 116.304 522.193 116.901 522.193 117.616C522.193 118.32 522.326 118.917 522.593 119.408C522.87 119.888 523.227 120.245 523.665 120.48C524.113 120.715 524.598 120.832 525.121 120.832C525.643 120.832 526.123 120.715 526.561 120.48C527.009 120.245 527.366 119.888 527.633 119.408C527.91 118.917 528.049 118.32 528.049 117.616C528.049 116.901 527.91 116.304 527.633 115.824C527.366 115.333 527.009 114.971 526.561 114.736C526.123 114.501 525.643 114.384 525.121 114.384ZM536.042 113.072C537.066 113.072 537.893 113.403 538.522 114.064C539.151 114.715 539.466 115.659 539.466 116.896V122H538.01V117.024C538.01 116.149 537.786 115.477 537.338 115.008C536.89 114.539 536.282 114.304 535.514 114.304C534.714 114.304 534.074 114.565 533.594 115.088C533.114 115.6 532.874 116.352 532.874 117.344V122H531.418V113.216H532.874V115.296C533.098 114.581 533.493 114.032 534.058 113.648C534.634 113.264 535.295 113.072 536.042 113.072ZM549.779 117.12C549.779 117.429 549.758 117.696 549.715 117.92H542.691C542.723 118.923 543.006 119.675 543.539 120.176C544.083 120.677 544.745 120.928 545.523 120.928C546.227 120.928 546.814 120.752 547.283 120.4C547.763 120.037 548.057 119.557 548.163 118.96H549.715C549.609 119.568 549.369 120.112 548.995 120.592C548.633 121.072 548.158 121.445 547.571 121.712C546.985 121.979 546.323 122.112 545.587 122.112C544.745 122.112 543.998 121.931 543.347 121.568C542.697 121.205 542.185 120.688 541.811 120.016C541.449 119.333 541.267 118.533 541.267 117.616C541.267 116.699 541.449 115.899 541.811 115.216C542.185 114.533 542.697 114.011 543.347 113.648C543.998 113.285 544.745 113.104 545.587 113.104C546.441 113.104 547.182 113.285 547.811 113.648C548.451 114.011 548.937 114.496 549.267 115.104C549.609 115.712 549.779 116.384 549.779 117.12ZM548.307 117.216C548.339 116.565 548.233 116.021 547.987 115.584C547.742 115.147 547.406 114.821 546.979 114.608C546.553 114.395 546.089 114.288 545.587 114.288C544.787 114.288 544.115 114.539 543.571 115.04C543.027 115.531 542.734 116.256 542.691 117.216H548.307Z" fill="#606060"/>
</svg>
