<svg width="602" height="271" viewBox="0 0 602 271" fill="none" xmlns="http://www.w3.org/2000/svg">
<path d="M32.0192 72H444L411.981 152H0L32.0192 72Z" fill="#06629E"/>
<path d="M83.89 13.966V61H72.433V41.637H54.611V61H43.154V13.966H54.611V32.391H72.433V13.966H83.89ZM114.405 61.469C109.983 61.469 105.918 60.4417 102.211 58.387C98.5482 56.3323 95.6225 53.4737 93.4338 49.811C91.2898 46.1037 90.2178 41.9497 90.2178 37.349C90.2178 32.7483 91.2898 28.6167 93.4338 24.954C95.6225 21.2913 98.5482 18.4327 102.211 16.378C105.918 14.3233 109.983 13.296 114.405 13.296C118.827 13.296 122.869 14.3233 126.532 16.378C130.239 18.4327 133.143 21.2913 135.242 24.954C137.386 28.6167 138.458 32.7483 138.458 37.349C138.458 41.9497 137.386 46.1037 135.242 49.811C133.098 53.4737 130.195 56.3323 126.532 58.387C122.869 60.4417 118.827 61.469 114.405 61.469ZM114.405 51.017C118.157 51.017 121.15 49.7663 123.383 47.265C125.661 44.7637 126.8 41.4583 126.8 37.349C126.8 33.195 125.661 29.8897 123.383 27.433C121.15 24.9317 118.157 23.681 114.405 23.681C110.608 23.681 107.571 24.9093 105.293 27.366C103.06 29.8227 101.943 33.1503 101.943 37.349C101.943 41.503 103.06 44.8307 105.293 47.332C107.571 49.7887 110.608 51.017 114.405 51.017ZM209.554 13.966L197.293 61H183.424L175.92 30.046L168.148 61H154.279L142.353 13.966H154.614L161.381 48.203L169.756 13.966H182.352L190.392 48.203L197.226 13.966H209.554ZM227.555 37.416C227.555 32.7707 228.56 28.639 230.57 25.021C232.58 21.3583 235.371 18.522 238.945 16.512C242.563 14.4573 246.65 13.43 251.206 13.43C256.789 13.43 261.568 14.904 265.544 17.852C269.519 20.8 272.177 24.82 273.517 29.912H260.921C259.983 27.9467 258.643 26.4503 256.901 25.423C255.203 24.3957 253.26 23.882 251.072 23.882C247.543 23.882 244.684 25.1103 242.496 27.567C240.307 30.0237 239.213 33.3067 239.213 37.416C239.213 41.5253 240.307 44.8083 242.496 47.265C244.684 49.7217 247.543 50.95 251.072 50.95C253.26 50.95 255.203 50.4363 256.901 49.409C258.643 48.3817 259.983 46.8853 260.921 44.92H273.517C272.177 50.012 269.519 54.032 265.544 56.98C261.568 59.8833 256.789 61.335 251.206 61.335C246.65 61.335 242.563 60.33 238.945 58.32C235.371 56.2653 232.58 53.429 230.57 49.811C228.56 46.193 227.555 42.0613 227.555 37.416ZM309.812 52.692H292.258L289.444 61H277.451L294.469 13.966H307.735L324.753 61H312.626L309.812 52.692ZM306.864 43.848L301.035 26.629L295.273 43.848H306.864ZM372.008 61H360.551L341.389 31.989V61H329.932V13.966H341.389L360.551 43.111V13.966H372.008V61ZM459.233 13.966L446.972 61H433.103L425.599 30.046L417.827 61H403.958L392.032 13.966H404.293L411.06 48.203L419.435 13.966H432.031L440.071 48.203L446.905 13.966H459.233ZM476.436 23.145V32.659H491.779V41.503H476.436V51.821H493.789V61H464.979V13.966H493.789V23.145H476.436ZM65.398 211.469C60.976 211.469 56.9113 210.442 53.204 208.387C49.5413 206.332 46.6157 203.474 44.427 199.811C42.283 196.104 41.211 191.95 41.211 187.349C41.211 182.748 42.283 178.617 44.427 174.954C46.6157 171.291 49.5413 168.433 53.204 166.378C56.9113 164.323 60.976 163.296 65.398 163.296C69.82 163.296 73.8623 164.323 77.525 166.378C81.2323 168.433 84.1357 171.291 86.235 174.954C88.379 178.617 89.451 182.748 89.451 187.349C89.451 191.95 88.379 196.104 86.235 199.811C84.091 203.474 81.1877 206.332 77.525 208.387C73.8623 210.442 69.82 211.469 65.398 211.469ZM65.398 201.017C69.15 201.017 72.1427 199.766 74.376 197.265C76.654 194.764 77.793 191.458 77.793 187.349C77.793 183.195 76.654 179.89 74.376 177.433C72.1427 174.932 69.15 173.681 65.398 173.681C61.6013 173.681 58.564 174.909 56.286 177.366C54.0527 179.823 52.936 183.15 52.936 187.349C52.936 191.503 54.0527 194.831 56.286 197.332C58.564 199.789 61.6013 201.017 65.398 201.017ZM119.811 211L110.029 193.245H107.282V211H95.8249V163.966H115.054C118.761 163.966 121.91 164.614 124.501 165.909C127.136 167.204 129.102 168.991 130.397 171.269C131.692 173.502 132.34 176.004 132.34 178.773C132.34 181.9 131.447 184.691 129.66 187.148C127.918 189.605 125.327 191.347 121.888 192.374L132.742 211H119.811ZM107.282 185.138H114.384C116.483 185.138 118.047 184.624 119.074 183.597C120.146 182.57 120.682 181.118 120.682 179.242C120.682 177.455 120.146 176.048 119.074 175.021C118.047 173.994 116.483 173.48 114.384 173.48H107.282V185.138ZM170.754 178.84C169.905 177.277 168.677 176.093 167.069 175.289C165.506 174.44 163.652 174.016 161.508 174.016C157.801 174.016 154.83 175.244 152.597 177.701C150.364 180.113 149.247 183.351 149.247 187.416C149.247 191.749 150.408 195.143 152.731 197.6C155.098 200.012 158.337 201.218 162.446 201.218C165.26 201.218 167.627 200.503 169.548 199.074C171.513 197.645 172.943 195.59 173.836 192.91H159.297V184.468H184.221V195.121C183.372 197.98 181.921 200.637 179.866 203.094C177.856 205.551 175.288 207.538 172.161 209.057C169.034 210.576 165.506 211.335 161.575 211.335C156.93 211.335 152.776 210.33 149.113 208.32C145.495 206.265 142.659 203.429 140.604 199.811C138.594 196.193 137.589 192.061 137.589 187.416C137.589 182.771 138.594 178.639 140.604 175.021C142.659 171.358 145.495 168.522 149.113 166.512C152.731 164.457 156.863 163.43 161.508 163.43C167.136 163.43 171.871 164.792 175.712 167.517C179.598 170.242 182.166 174.016 183.417 178.84H170.754ZM219.846 202.692H202.292L199.478 211H187.485L204.503 163.966H217.769L234.787 211H222.66L219.846 202.692ZM216.898 193.848L211.069 176.629L205.307 193.848H216.898ZM282.043 211H270.586L251.424 181.989V211H239.967V163.966H251.424L270.586 193.111V163.966H282.043V211ZM301.804 163.966V211H290.347V163.966H301.804ZM322.301 201.62H342.535V211H309.303V202.29L329.403 173.346H309.303V163.966H342.535V172.676L322.301 201.62ZM379.298 202.692H361.744L358.93 211H346.937L363.955 163.966H377.221L394.239 211H382.112L379.298 202.692ZM376.35 193.848L370.521 176.629L364.759 193.848H376.35ZM433.254 163.966V173.145H420.792V211H409.335V173.145H396.873V163.966H433.254ZM450.461 163.966V211H439.004V163.966H450.461ZM481.007 211.469C476.585 211.469 472.521 210.442 468.813 208.387C465.151 206.332 462.225 203.474 460.036 199.811C457.892 196.104 456.82 191.95 456.82 187.349C456.82 182.748 457.892 178.617 460.036 174.954C462.225 171.291 465.151 168.433 468.813 166.378C472.521 164.323 476.585 163.296 481.007 163.296C485.429 163.296 489.472 164.323 493.134 166.378C496.842 168.433 499.745 171.291 501.844 174.954C503.988 178.617 505.06 182.748 505.06 187.349C505.06 191.95 503.988 196.104 501.844 199.811C499.7 203.474 496.797 206.332 493.134 208.387C489.472 210.442 485.429 211.469 481.007 211.469ZM481.007 201.017C484.759 201.017 487.752 199.766 489.985 197.265C492.263 194.764 493.402 191.458 493.402 187.349C493.402 183.195 492.263 179.89 489.985 177.433C487.752 174.932 484.759 173.681 481.007 173.681C477.211 173.681 474.173 174.909 471.895 177.366C469.662 179.823 468.545 183.15 468.545 187.349C468.545 191.503 469.662 194.831 471.895 197.332C474.173 199.789 477.211 201.017 481.007 201.017ZM553.51 211H542.053L522.891 181.989V211H511.434V163.966H522.891L542.053 193.111V163.966H553.51V211ZM575.55 161.353C580.329 161.353 584.148 162.604 587.007 165.105C589.91 167.606 591.362 171.135 591.362 175.691C591.362 179.89 589.977 183.173 587.208 185.54C584.483 187.863 580.865 189.046 576.354 189.091L576.019 194.116H565.969L565.634 181.654H569.654C573.093 181.654 575.706 181.23 577.493 180.381C579.324 179.532 580.24 177.991 580.24 175.758C580.24 174.195 579.816 172.966 578.967 172.073C578.118 171.18 576.935 170.733 575.416 170.733C573.808 170.733 572.557 171.202 571.664 172.14C570.771 173.033 570.324 174.262 570.324 175.825H559.537C559.448 173.1 560.006 170.644 561.212 168.455C562.463 166.266 564.294 164.547 566.706 163.296C569.163 162.001 572.111 161.353 575.55 161.353ZM571.128 211.536C569.118 211.536 567.465 210.955 566.17 209.794C564.919 208.588 564.294 207.114 564.294 205.372C564.294 203.585 564.919 202.089 566.17 200.883C567.465 199.677 569.118 199.074 571.128 199.074C573.093 199.074 574.701 199.677 575.952 200.883C577.247 202.089 577.895 203.585 577.895 205.372C577.895 207.114 577.247 208.588 575.952 209.794C574.701 210.955 573.093 211.536 571.128 211.536Z" fill="#06629E"/>
<path d="M83.89 88.966V136H72.433V116.637H54.611V136H43.154V88.966H54.611V107.391H72.433V88.966H83.89ZM103.618 98.145V107.659H118.961V116.503H103.618V126.821H120.971V136H92.1608V88.966H120.971V98.145H103.618ZM139.866 127.156H154.874V136H128.409V88.966H139.866V127.156ZM196.184 104.108C196.184 106.833 195.558 109.334 194.308 111.612C193.057 113.845 191.136 115.654 188.546 117.039C185.955 118.424 182.739 119.116 178.898 119.116H171.796V136H160.339V88.966H178.898C182.65 88.966 185.821 89.6137 188.412 90.909C191.002 92.2043 192.945 93.991 194.241 96.269C195.536 98.547 196.184 101.16 196.184 104.108ZM178.027 110.004C180.215 110.004 181.846 109.49 182.918 108.463C183.99 107.436 184.526 105.984 184.526 104.108C184.526 102.232 183.99 100.78 182.918 99.753C181.846 98.7257 180.215 98.212 178.027 98.212H171.796V110.004H178.027ZM256.68 88.966L240.399 120.456V136H228.942V120.456L212.661 88.966H225.659L234.771 108.664L243.816 88.966H256.68ZM283.541 136.469C279.119 136.469 275.054 135.442 271.347 133.387C267.684 131.332 264.758 128.474 262.57 124.811C260.426 121.104 259.354 116.95 259.354 112.349C259.354 107.748 260.426 103.617 262.57 99.954C264.758 96.2913 267.684 93.4327 271.347 91.378C275.054 89.3233 279.119 88.296 283.541 88.296C287.963 88.296 292.005 89.3233 295.668 91.378C299.375 93.4327 302.278 96.2913 304.378 99.954C306.522 103.617 307.594 107.748 307.594 112.349C307.594 116.95 306.522 121.104 304.378 124.811C302.234 128.474 299.33 131.332 295.668 133.387C292.005 135.442 287.963 136.469 283.541 136.469ZM283.541 126.017C287.293 126.017 290.285 124.766 292.519 122.265C294.797 119.764 295.936 116.458 295.936 112.349C295.936 108.195 294.797 104.89 292.519 102.433C290.285 99.9317 287.293 98.681 283.541 98.681C279.744 98.681 276.707 99.9093 274.429 102.366C272.195 104.823 271.079 108.15 271.079 112.349C271.079 116.503 272.195 119.831 274.429 122.332C276.707 124.789 279.744 126.017 283.541 126.017ZM325.223 88.966V117.106C325.223 119.92 325.916 122.086 327.3 123.605C328.685 125.124 330.717 125.883 333.397 125.883C336.077 125.883 338.132 125.124 339.561 123.605C340.991 122.086 341.705 119.92 341.705 117.106V88.966H353.162V117.039C353.162 121.238 352.269 124.789 350.482 127.692C348.696 130.595 346.284 132.784 343.246 134.258C340.254 135.732 336.904 136.469 333.196 136.469C329.489 136.469 326.161 135.754 323.213 134.325C320.31 132.851 318.01 130.662 316.312 127.759C314.615 124.811 313.766 121.238 313.766 117.039V88.966H325.223ZM385.194 136L375.412 118.245H372.665V136H361.208V88.966H380.437C384.144 88.966 387.293 89.6137 389.884 90.909C392.519 92.2043 394.484 93.991 395.78 96.269C397.075 98.5023 397.723 101.004 397.723 103.773C397.723 106.9 396.829 109.691 395.043 112.148C393.301 114.605 390.71 116.347 387.271 117.374L398.125 136H385.194ZM372.665 110.138H379.767C381.866 110.138 383.429 109.624 384.457 108.597C385.529 107.57 386.065 106.118 386.065 104.242C386.065 102.455 385.529 101.048 384.457 100.021C383.429 98.9937 381.866 98.48 379.767 98.48H372.665V110.138Z" fill="white"/>
</svg>
