<svg width="300" height="48" viewBox="0 0 300 48" fill="none" xmlns="http://www.w3.org/2000/svg">
<path d="M48 24.1467C48 10.8108 37.2548 0 24 0C10.7452 0 0 10.8108 0 24.1467C0 36.199 8.7765 46.1885 20.25 48V31.1266H14.1562V24.1467H20.25V18.8269C20.25 12.7751 23.833 9.43229 29.3152 9.43229C31.941 9.43229 34.6875 9.90391 34.6875 9.90391V15.8463H31.6612C28.6798 15.8463 27.75 17.7075 27.75 19.6171V24.1467H34.4062L33.3422 31.1266H27.75V48C39.2236 46.1885 48 36.199 48 24.1467Z" fill="white"/>
<path fill-rule="evenodd" clip-rule="evenodd" d="M192 48C205.255 48 216 37.2548 216 24C216 10.7452 205.255 0 192 0C178.745 0 168 10.7452 168 24C168 37.2548 178.745 48 192 48Z" fill="white"/>
<path fill-rule="evenodd" clip-rule="evenodd" d="M185.506 35.0585V20.4195H180.982V35.0585H185.506ZM185.506 15.2306C185.479 13.9205 184.606 12.9231 183.188 12.9231C181.769 12.9231 180.842 13.9205 180.842 15.2306C180.842 16.5122 181.742 17.5385 183.134 17.5385H183.161C184.606 17.5385 185.506 16.5122 185.506 15.2306ZM192.888 35.0585V26.7179C192.888 26.2715 192.92 25.8252 193.052 25.507C193.41 24.6146 194.227 23.691 195.599 23.691C197.395 23.691 198.522 24.7105 198.522 26.7179V35.0585H203.077V26.4947C203.077 21.9072 200.628 19.7726 197.362 19.7726C194.683 19.7726 193.508 21.2699 192.855 22.2891L192.888 20.3311H188.34C188.406 21.7326 188.34 35.0585 188.34 35.0585H192.888Z" fill="#0E124A"/>
<path d="M275.805 28.4876C278.175 28.4876 280.097 26.5657 280.097 24.195C280.097 21.8242 278.175 19.9023 275.805 19.9023C273.434 19.9023 271.512 21.8242 271.512 24.195C271.512 26.5657 273.434 28.4876 275.805 28.4876Z" fill="white"/>
<path d="M281.17 13.6587H270.439C268.878 13.6587 267.512 14.1465 266.634 15.0245C265.756 15.9026 265.268 17.2684 265.268 18.8294V29.5609C265.268 31.1219 265.756 32.4877 266.731 33.4633C267.707 34.3413 268.975 34.8291 270.536 34.8291H281.17C282.731 34.8291 284.097 34.3413 284.975 33.4633C285.951 32.5853 286.439 31.2194 286.439 29.6585V18.9269C286.439 17.366 285.951 16.0977 285.073 15.1221C284.097 14.1465 282.829 13.6587 281.17 13.6587ZM275.805 30.8292C272.097 30.8292 269.17 27.8048 269.17 24.1951C269.17 20.4879 272.195 17.5611 275.805 17.5611C279.414 17.5611 282.536 20.4879 282.536 24.1951C282.536 27.9024 279.512 30.8292 275.805 30.8292ZM282.731 18.8294C281.853 18.8294 281.17 18.1464 281.17 17.2684C281.17 16.3904 281.853 15.7074 282.731 15.7074C283.609 15.7074 284.292 16.3904 284.292 17.2684C284.292 18.1464 283.609 18.8294 282.731 18.8294Z" fill="white"/>
<path d="M276 0C262.732 0 252 10.7316 252 23.9997C252 37.2678 262.732 47.9993 276 47.9993C289.268 47.9993 299.999 37.2678 299.999 23.9997C300.097 10.7316 289.268 0 276 0ZM288.78 29.6581C288.78 31.902 288 33.8532 286.634 35.219C285.268 36.5849 283.317 37.2678 281.17 37.2678H270.536C268.39 37.2678 266.439 36.5849 265.073 35.219C263.61 33.8532 262.927 31.902 262.927 29.6581V18.9266C262.927 14.4388 265.951 11.3169 270.536 11.3169H281.268C283.512 11.3169 285.365 12.0974 286.731 13.4632C288.097 14.8291 288.78 16.6827 288.78 18.9266V29.6581Z" fill="white"/>
<path d="M108.001 0C94.7456 0 84 10.7476 84 24.001C84 37.2563 94.7456 48 108.001 48C121.256 48 132 37.2563 132 24.001C132 10.7476 121.255 0 108.001 0ZM120.091 19.1618C120.103 19.4211 120.108 19.6813 120.108 19.9444C120.108 27.9376 114.024 37.153 102.9 37.153C99.4844 37.153 96.3041 36.152 93.6277 34.4366C94.1014 34.4922 94.5819 34.5205 95.0702 34.5205C97.9045 34.5205 100.513 33.5536 102.582 31.9318C99.9357 31.8821 97.7027 30.1326 96.9327 27.73C97.3012 27.8021 97.6803 27.8382 98.0702 27.8382C98.6218 27.8382 99.1559 27.7661 99.6637 27.6267C96.8957 27.0711 94.8109 24.6248 94.8109 21.6969C94.8109 21.6706 94.8109 21.6452 94.8119 21.6189C95.6267 22.0721 96.5595 22.3441 97.5517 22.3762C95.9279 21.2895 94.8606 19.4405 94.8606 17.3411C94.8606 16.2329 95.1589 15.193 95.6793 14.3002C98.6628 17.9591 103.12 20.3674 108.147 20.6189C108.044 20.1774 107.99 19.7144 107.99 19.2407C107.99 15.9016 110.698 13.193 114.039 13.193C115.779 13.193 117.35 13.9279 118.453 15.1023C119.831 14.8324 121.126 14.3275 122.294 13.6345C121.841 15.0478 120.883 16.2329 119.634 16.9805C120.859 16.8343 122.024 16.5088 123.108 16.0283C122.299 17.2437 121.273 18.309 120.091 19.1618Z" fill="white"/>
</svg>
