<svg width="1114" height="87" viewBox="0 0 1114 87" fill="none" xmlns="http://www.w3.org/2000/svg">
<path d="M45.38 23.34C45.38 24.0067 45.22 24.6267 44.9 25.2C44.58 25.7733 44.0933 26.24 43.44 26.6C42.7867 26.96 41.98 27.14 41.02 27.14C40.0867 27.14 39.2533 26.9733 38.52 26.64C37.8 26.2933 37.22 25.8267 36.78 25.24C36.3533 24.64 36.1067 23.96 36.04 23.2H37.98C38.02 23.6 38.1533 23.9933 38.38 24.38C38.62 24.7533 38.9533 25.0667 39.38 25.32C39.82 25.56 40.3467 25.68 40.96 25.68C41.76 25.68 42.3733 25.4667 42.8 25.04C43.2267 24.6133 43.44 24.0667 43.44 23.4C43.44 22.8267 43.2867 22.36 42.98 22C42.6867 21.64 42.32 21.36 41.88 21.16C41.44 20.9467 40.84 20.72 40.08 20.48C39.1867 20.1867 38.4667 19.9133 37.92 19.66C37.3867 19.3933 36.9267 19 36.54 18.48C36.1667 17.96 35.98 17.2733 35.98 16.42C35.98 15.6867 36.1533 15.04 36.5 14.48C36.86 13.92 37.3667 13.4867 38.02 13.18C38.6867 12.8733 39.4667 12.72 40.36 12.72C41.7467 12.72 42.8467 13.06 43.66 13.74C44.4733 14.4067 44.9467 15.26 45.08 16.3H43.12C43.0133 15.74 42.7267 15.2467 42.26 14.82C41.7933 14.3933 41.16 14.18 40.36 14.18C39.6267 14.18 39.04 14.3733 38.6 14.76C38.16 15.1333 37.94 15.6667 37.94 16.36C37.94 16.9067 38.08 17.3533 38.36 17.7C38.6533 18.0333 39.0133 18.3 39.44 18.5C39.8667 18.6867 40.4533 18.9 41.2 19.14C42.1067 19.4333 42.8333 19.7133 43.38 19.98C43.94 20.2467 44.4133 20.6533 44.8 21.2C45.1867 21.7333 45.38 22.4467 45.38 23.34ZM61.9472 13.14V27H60.1272V15.94L55.7072 27H54.0872L49.6472 15.98V27H47.8272V13.14H50.0072L54.9272 24.78L59.7672 13.14H61.9472ZM66.6784 14.38V19.2H72.0384V20.6H66.6784V25.52H72.6384V27H64.8584V12.9H72.6384V14.38H66.6784ZM78.4156 15.88C79.6556 15.88 80.649 16.2067 81.3956 16.86C82.1556 17.5 82.6156 18.3667 82.7756 19.46H81.0356C80.9556 18.8067 80.6823 18.2733 80.2156 17.86C79.7623 17.4333 79.149 17.22 78.3756 17.22C77.7223 17.22 77.209 17.38 76.8356 17.7C76.4756 18.0067 76.2956 18.4267 76.2956 18.96C76.2956 19.36 76.4156 19.6867 76.6556 19.94C76.909 20.18 77.2156 20.3667 77.5756 20.5C77.949 20.62 78.4556 20.7533 79.0956 20.9C79.909 21.0867 80.5623 21.28 81.0556 21.48C81.5623 21.6667 81.989 21.9733 82.3356 22.4C82.6956 22.8267 82.8756 23.4 82.8756 24.12C82.8756 25.0133 82.5356 25.74 81.8556 26.3C81.189 26.86 80.2956 27.14 79.1756 27.14C77.869 27.14 76.8023 26.8267 75.9756 26.2C75.149 25.5733 74.6623 24.7 74.5156 23.58H76.2756C76.3423 24.2467 76.629 24.7867 77.1356 25.2C77.6556 25.6133 78.3356 25.82 79.1756 25.82C79.8023 25.82 80.289 25.66 80.6356 25.34C80.9956 25.02 81.1756 24.6 81.1756 24.08C81.1756 23.6533 81.049 23.3133 80.7956 23.06C80.5423 22.8067 80.229 22.6133 79.8556 22.48C79.4823 22.3467 78.969 22.2067 78.3156 22.06C77.5023 21.8733 76.849 21.6867 76.3556 21.5C75.8756 21.3133 75.4623 21.02 75.1156 20.62C74.7823 20.2067 74.6156 19.6533 74.6156 18.96C74.6156 18.04 74.9556 17.3 75.6356 16.74C76.3156 16.1667 77.2423 15.88 78.4156 15.88ZM324.315 25.58H329.315V27H322.495V12.9H324.315V25.58ZM336.147 15.88C337.2 15.88 338.14 16.1067 338.967 16.56C339.807 17.0133 340.46 17.6667 340.927 18.52C341.407 19.3733 341.647 20.3733 341.647 21.52C341.647 22.6667 341.407 23.6667 340.927 24.52C340.46 25.36 339.807 26.0067 338.967 26.46C338.14 26.9133 337.2 27.14 336.147 27.14C335.094 27.14 334.147 26.9133 333.307 26.46C332.48 26.0067 331.827 25.36 331.347 24.52C330.867 23.6667 330.627 22.6667 330.627 21.52C330.627 20.3733 330.867 19.3733 331.347 18.52C331.827 17.6667 332.48 17.0133 333.307 16.56C334.147 16.1067 335.094 15.88 336.147 15.88ZM336.147 17.48C335.494 17.48 334.887 17.6267 334.327 17.92C333.78 18.2133 333.334 18.6667 332.987 19.28C332.654 19.88 332.487 20.6267 332.487 21.52C332.487 22.4 332.654 23.1467 332.987 23.76C333.334 24.36 333.78 24.8067 334.327 25.1C334.887 25.3933 335.494 25.54 336.147 25.54C336.8 25.54 337.4 25.3933 337.947 25.1C338.507 24.8067 338.954 24.36 339.287 23.76C339.634 23.1467 339.807 22.4 339.807 21.52C339.807 20.6267 339.634 19.88 339.287 19.28C338.954 18.6667 338.507 18.2133 337.947 17.92C337.4 17.6267 336.8 17.48 336.147 17.48ZM348.879 15.88C350.279 15.88 351.439 16.2533 352.359 17C353.279 17.7467 353.845 18.7467 354.059 20H352.139C352.005 19.2133 351.639 18.6 351.039 18.16C350.452 17.7067 349.719 17.48 348.839 17.48C348.199 17.48 347.612 17.6267 347.079 17.92C346.559 18.2133 346.139 18.6667 345.819 19.28C345.499 19.88 345.339 20.6267 345.339 21.52C345.339 22.4133 345.499 23.1667 345.819 23.78C346.139 24.38 346.559 24.8267 347.079 25.12C347.612 25.4133 348.199 25.56 348.839 25.56C349.719 25.56 350.452 25.3333 351.039 24.88C351.639 24.4267 352.005 23.8067 352.139 23.02H354.059C353.845 24.2867 353.279 25.2933 352.359 26.04C351.439 26.7733 350.279 27.14 348.879 27.14C347.825 27.14 346.892 26.9133 346.079 26.46C345.265 26.0067 344.625 25.36 344.159 24.52C343.705 23.6667 343.479 22.6667 343.479 21.52C343.479 20.3733 343.705 19.3733 344.159 18.52C344.625 17.6667 345.265 17.0133 346.079 16.56C346.892 16.1067 347.825 15.88 348.879 15.88ZM360.94 15.88C362.007 15.88 362.907 16.1467 363.64 16.68C364.387 17.2133 364.907 17.9267 365.2 18.82V16.02H367.02V27H365.2V24.2C364.907 25.0933 364.387 25.8067 363.64 26.34C362.907 26.8733 362.007 27.14 360.94 27.14C359.967 27.14 359.1 26.9133 358.34 26.46C357.58 26.0067 356.98 25.36 356.54 24.52C356.114 23.6667 355.9 22.6667 355.9 21.52C355.9 20.3733 356.114 19.3733 356.54 18.52C356.98 17.6667 357.58 17.0133 358.34 16.56C359.1 16.1067 359.967 15.88 360.94 15.88ZM361.46 17.5C360.34 17.5 359.44 17.86 358.76 18.58C358.094 19.2867 357.76 20.2667 357.76 21.52C357.76 22.7733 358.094 23.76 358.76 24.48C359.44 25.1867 360.34 25.54 361.46 25.54C362.18 25.54 362.82 25.3733 363.38 25.04C363.954 24.7067 364.4 24.24 364.72 23.64C365.04 23.0267 365.2 22.32 365.2 21.52C365.2 20.72 365.04 20.0133 364.72 19.4C364.4 18.7867 363.954 18.32 363.38 18C362.82 17.6667 362.18 17.5 361.46 17.5ZM371.737 12.2V27H369.917V12.2H371.737ZM386.485 19.7C387.351 19.8867 388.051 20.3 388.585 20.94C389.131 21.58 389.405 22.3333 389.405 23.2C389.405 24.3467 389.011 25.2667 388.225 25.96C387.451 26.6533 386.325 27 384.845 27H379.605V12.9H384.765C386.178 12.9 387.251 13.2133 387.985 13.84C388.718 14.4667 389.085 15.3267 389.085 16.42C389.085 17.3267 388.838 18.06 388.345 18.62C387.865 19.18 387.245 19.54 386.485 19.7ZM381.425 19.08H384.465C385.358 19.08 386.038 18.8733 386.505 18.46C386.985 18.0467 387.225 17.4667 387.225 16.72C387.225 16 386.991 15.4333 386.525 15.02C386.058 14.6067 385.345 14.4 384.385 14.4H381.425V19.08ZM384.505 25.48C385.465 25.48 386.205 25.26 386.725 24.82C387.258 24.38 387.525 23.76 387.525 22.96C387.525 22.1733 387.251 21.56 386.705 21.12C386.171 20.6667 385.425 20.44 384.465 20.44H381.425V25.48H384.505ZM401.435 16.02V27H399.615V24.42C399.335 25.3133 398.835 26 398.115 26.48C397.408 26.9467 396.582 27.18 395.635 27.18C394.368 27.18 393.342 26.7733 392.555 25.96C391.768 25.1333 391.375 23.9533 391.375 22.42V16.02H393.195V22.24C393.195 23.3333 393.475 24.18 394.035 24.78C394.595 25.3667 395.355 25.66 396.315 25.66C397.315 25.66 398.115 25.34 398.715 24.7C399.315 24.0467 399.615 23.1 399.615 21.86V16.02H401.435ZM407.791 15.88C409.031 15.88 410.024 16.2067 410.771 16.86C411.531 17.5 411.991 18.3667 412.151 19.46H410.411C410.331 18.8067 410.057 18.2733 409.591 17.86C409.137 17.4333 408.524 17.22 407.751 17.22C407.097 17.22 406.584 17.38 406.211 17.7C405.851 18.0067 405.671 18.4267 405.671 18.96C405.671 19.36 405.791 19.6867 406.031 19.94C406.284 20.18 406.591 20.3667 406.951 20.5C407.324 20.62 407.831 20.7533 408.471 20.9C409.284 21.0867 409.937 21.28 410.431 21.48C410.937 21.6667 411.364 21.9733 411.711 22.4C412.071 22.8267 412.251 23.4 412.251 24.12C412.251 25.0133 411.911 25.74 411.231 26.3C410.564 26.86 409.671 27.14 408.551 27.14C407.244 27.14 406.177 26.8267 405.351 26.2C404.524 25.5733 404.037 24.7 403.891 23.58H405.651C405.717 24.2467 406.004 24.7867 406.511 25.2C407.031 25.6133 407.711 25.82 408.551 25.82C409.177 25.82 409.664 25.66 410.011 25.34C410.371 25.02 410.551 24.6 410.551 24.08C410.551 23.6533 410.424 23.3133 410.171 23.06C409.917 22.8067 409.604 22.6133 409.231 22.48C408.857 22.3467 408.344 22.2067 407.691 22.06C406.877 21.8733 406.224 21.6867 405.731 21.5C405.251 21.3133 404.837 21.02 404.491 20.62C404.157 20.2067 403.991 19.6533 403.991 18.96C403.991 18.04 404.331 17.3 405.011 16.74C405.691 16.1667 406.617 15.88 407.791 15.88ZM414.363 12.8C414.363 12.4667 414.476 12.2 414.703 12C414.929 11.7867 415.229 11.68 415.603 11.68C415.976 11.68 416.276 11.7867 416.503 12C416.729 12.2 416.843 12.4667 416.843 12.8C416.843 13.1333 416.729 13.4067 416.503 13.62C416.276 13.82 415.976 13.92 415.603 13.92C415.229 13.92 414.929 13.82 414.703 13.62C414.476 13.4067 414.363 13.1333 414.363 12.8ZM416.503 16.02V27H414.683V16.02H416.503ZM425.209 15.84C426.489 15.84 427.522 16.2533 428.309 17.08C429.095 17.8933 429.489 19.0733 429.489 20.62V27H427.669V20.78C427.669 19.6867 427.389 18.8467 426.829 18.26C426.269 17.6733 425.509 17.38 424.549 17.38C423.549 17.38 422.749 17.7067 422.149 18.36C421.549 19 421.249 19.94 421.249 21.18V27H419.429V16.02H421.249V18.62C421.529 17.7267 422.022 17.04 422.729 16.56C423.449 16.08 424.275 15.84 425.209 15.84ZM442.38 20.9C442.38 21.2867 442.354 21.62 442.3 21.9H433.52C433.56 23.1533 433.914 24.0933 434.58 24.72C435.26 25.3467 436.087 25.66 437.06 25.66C437.94 25.66 438.674 25.44 439.26 25C439.86 24.5467 440.227 23.9467 440.36 23.2H442.3C442.167 23.96 441.867 24.64 441.4 25.24C440.947 25.84 440.354 26.3067 439.62 26.64C438.887 26.9733 438.06 27.14 437.14 27.14C436.087 27.14 435.154 26.9133 434.34 26.46C433.527 26.0067 432.887 25.36 432.42 24.52C431.967 23.6667 431.74 22.6667 431.74 21.52C431.74 20.3733 431.967 19.3733 432.42 18.52C432.887 17.6667 433.527 17.0133 434.34 16.56C435.154 16.1067 436.087 15.88 437.14 15.88C438.207 15.88 439.134 16.1067 439.92 16.56C440.72 17.0133 441.327 17.62 441.74 18.38C442.167 19.14 442.38 19.98 442.38 20.9ZM440.54 21.02C440.58 20.2067 440.447 19.5267 440.14 18.98C439.834 18.4333 439.414 18.0267 438.88 17.76C438.347 17.4933 437.767 17.36 437.14 17.36C436.14 17.36 435.3 17.6733 434.62 18.3C433.94 18.9133 433.574 19.82 433.52 21.02H440.54ZM448.201 15.88C449.441 15.88 450.434 16.2067 451.181 16.86C451.941 17.5 452.401 18.3667 452.561 19.46H450.821C450.741 18.8067 450.467 18.2733 450.001 17.86C449.547 17.4333 448.934 17.22 448.161 17.22C447.507 17.22 446.994 17.38 446.621 17.7C446.261 18.0067 446.081 18.4267 446.081 18.96C446.081 19.36 446.201 19.6867 446.441 19.94C446.694 20.18 447.001 20.3667 447.361 20.5C447.734 20.62 448.241 20.7533 448.881 20.9C449.694 21.0867 450.347 21.28 450.841 21.48C451.347 21.6667 451.774 21.9733 452.121 22.4C452.481 22.8267 452.661 23.4 452.661 24.12C452.661 25.0133 452.321 25.74 451.641 26.3C450.974 26.86 450.081 27.14 448.961 27.14C447.654 27.14 446.587 26.8267 445.761 26.2C444.934 25.5733 444.447 24.7 444.301 23.58H446.061C446.127 24.2467 446.414 24.7867 446.921 25.2C447.441 25.6133 448.121 25.82 448.961 25.82C449.587 25.82 450.074 25.66 450.421 25.34C450.781 25.02 450.961 24.6 450.961 24.08C450.961 23.6533 450.834 23.3133 450.581 23.06C450.327 22.8067 450.014 22.6133 449.641 22.48C449.267 22.3467 448.754 22.2067 448.101 22.06C447.287 21.8733 446.634 21.6867 446.141 21.5C445.661 21.3133 445.247 21.02 444.901 20.62C444.567 20.2067 444.401 19.6533 444.401 18.96C444.401 18.04 444.741 17.3 445.421 16.74C446.101 16.1667 447.027 15.88 448.201 15.88ZM458.533 15.88C459.773 15.88 460.766 16.2067 461.513 16.86C462.273 17.5 462.733 18.3667 462.893 19.46H461.153C461.073 18.8067 460.799 18.2733 460.333 17.86C459.879 17.4333 459.266 17.22 458.493 17.22C457.839 17.22 457.326 17.38 456.953 17.7C456.593 18.0067 456.413 18.4267 456.413 18.96C456.413 19.36 456.533 19.6867 456.773 19.94C457.026 20.18 457.333 20.3667 457.693 20.5C458.066 20.62 458.573 20.7533 459.213 20.9C460.026 21.0867 460.679 21.28 461.173 21.48C461.679 21.6667 462.106 21.9733 462.453 22.4C462.813 22.8267 462.993 23.4 462.993 24.12C462.993 25.0133 462.653 25.74 461.973 26.3C461.306 26.86 460.413 27.14 459.293 27.14C457.986 27.14 456.919 26.8267 456.093 26.2C455.266 25.5733 454.779 24.7 454.633 23.58H456.393C456.459 24.2467 456.746 24.7867 457.253 25.2C457.773 25.6133 458.453 25.82 459.293 25.82C459.919 25.82 460.406 25.66 460.753 25.34C461.113 25.02 461.293 24.6 461.293 24.08C461.293 23.6533 461.166 23.3133 460.913 23.06C460.659 22.8067 460.346 22.6133 459.973 22.48C459.599 22.3467 459.086 22.2067 458.433 22.06C457.619 21.8733 456.966 21.6867 456.473 21.5C455.993 21.3133 455.579 21.02 455.233 20.62C454.899 20.2067 454.733 19.6533 454.733 18.96C454.733 18.04 455.073 17.3 455.753 16.74C456.433 16.1667 457.359 15.88 458.533 15.88ZM667.06 23.34C667.06 24.0067 666.9 24.6267 666.58 25.2C666.26 25.7733 665.773 26.24 665.12 26.6C664.466 26.96 663.66 27.14 662.7 27.14C661.766 27.14 660.933 26.9733 660.2 26.64C659.48 26.2933 658.9 25.8267 658.46 25.24C658.033 24.64 657.786 23.96 657.72 23.2H659.66C659.7 23.6 659.833 23.9933 660.06 24.38C660.3 24.7533 660.633 25.0667 661.06 25.32C661.5 25.56 662.026 25.68 662.64 25.68C663.44 25.68 664.053 25.4667 664.48 25.04C664.906 24.6133 665.12 24.0667 665.12 23.4C665.12 22.8267 664.966 22.36 664.66 22C664.366 21.64 664 21.36 663.56 21.16C663.12 20.9467 662.52 20.72 661.76 20.48C660.866 20.1867 660.146 19.9133 659.6 19.66C659.066 19.3933 658.606 19 658.22 18.48C657.846 17.96 657.66 17.2733 657.66 16.42C657.66 15.6867 657.833 15.04 658.18 14.48C658.54 13.92 659.046 13.4867 659.7 13.18C660.366 12.8733 661.146 12.72 662.04 12.72C663.426 12.72 664.526 13.06 665.34 13.74C666.153 14.4067 666.626 15.26 666.76 16.3H664.8C664.693 15.74 664.406 15.2467 663.94 14.82C663.473 14.3933 662.84 14.18 662.04 14.18C661.306 14.18 660.72 14.3733 660.28 14.76C659.84 15.1333 659.62 15.6667 659.62 16.36C659.62 16.9067 659.76 17.3533 660.04 17.7C660.333 18.0333 660.693 18.3 661.12 18.5C661.546 18.6867 662.133 18.9 662.88 19.14C663.786 19.4333 664.513 19.7133 665.06 19.98C665.62 20.2467 666.093 20.6533 666.48 21.2C666.866 21.7333 667.06 22.4467 667.06 23.34ZM674.747 25.4V27H673.387C672.267 27 671.427 26.7333 670.867 26.2C670.32 25.6667 670.047 24.7733 670.047 23.52V17.6H668.407V16.02H670.047V13.28H671.887V16.02H674.727V17.6H671.887V23.56C671.887 24.2667 672.014 24.7533 672.267 25.02C672.534 25.2733 672.987 25.4 673.627 25.4H674.747ZM681.468 15.88C682.534 15.88 683.434 16.1467 684.168 16.68C684.914 17.2133 685.434 17.9267 685.728 18.82V16.02H687.548V27H685.728V24.2C685.434 25.0933 684.914 25.8067 684.168 26.34C683.434 26.8733 682.534 27.14 681.468 27.14C680.494 27.14 679.628 26.9133 678.868 26.46C678.108 26.0067 677.508 25.36 677.068 24.52C676.641 23.6667 676.428 22.6667 676.428 21.52C676.428 20.3733 676.641 19.3733 677.068 18.52C677.508 17.6667 678.108 17.0133 678.868 16.56C679.628 16.1067 680.494 15.88 681.468 15.88ZM681.988 17.5C680.868 17.5 679.968 17.86 679.288 18.58C678.621 19.2867 678.288 20.2667 678.288 21.52C678.288 22.7733 678.621 23.76 679.288 24.48C679.968 25.1867 680.868 25.54 681.988 25.54C682.708 25.54 683.348 25.3733 683.908 25.04C684.481 24.7067 684.928 24.24 685.248 23.64C685.568 23.0267 685.728 22.32 685.728 21.52C685.728 20.72 685.568 20.0133 685.248 19.4C684.928 18.7867 684.481 18.32 683.908 18C683.348 17.6667 682.708 17.5 681.988 17.5ZM692.264 18.24C692.624 17.48 693.151 16.8933 693.844 16.48C694.538 16.0533 695.364 15.84 696.324 15.84V17.82H695.764C694.738 17.82 693.898 18.0867 693.244 18.62C692.591 19.14 692.264 20.0067 692.264 21.22V27H690.444V16.02H692.264V18.24ZM703.36 25.4V27H702C700.88 27 700.04 26.7333 699.48 26.2C698.933 25.6667 698.66 24.7733 698.66 23.52V17.6H697.02V16.02H698.66V13.28H700.5V16.02H703.34V17.6H700.5V23.56C700.5 24.2667 700.627 24.7533 700.88 25.02C701.147 25.2733 701.6 25.4 702.24 25.4H703.36ZM715.341 16.02V27H713.521V24.42C713.241 25.3133 712.741 26 712.021 26.48C711.314 26.9467 710.488 27.18 709.541 27.18C708.274 27.18 707.248 26.7733 706.461 25.96C705.674 25.1333 705.281 23.9533 705.281 22.42V16.02H707.101V22.24C707.101 23.3333 707.381 24.18 707.941 24.78C708.501 25.3667 709.261 25.66 710.221 25.66C711.221 25.66 712.021 25.34 712.621 24.7C713.221 24.0467 713.521 23.1 713.521 21.86V16.02H715.341ZM724.317 15.88C725.29 15.88 726.157 16.1067 726.917 16.56C727.677 17.0133 728.27 17.6667 728.697 18.52C729.137 19.3733 729.357 20.3733 729.357 21.52C729.357 22.6667 729.137 23.6667 728.697 24.52C728.27 25.36 727.677 26.0067 726.917 26.46C726.157 26.9133 725.29 27.14 724.317 27.14C723.25 27.14 722.344 26.8733 721.597 26.34C720.864 25.7933 720.357 25.08 720.077 24.2V32.2H718.257V16.02H720.077V18.82C720.357 17.94 720.864 17.2333 721.597 16.7C722.344 16.1533 723.25 15.88 724.317 15.88ZM723.797 17.5C723.09 17.5 722.45 17.6667 721.877 18C721.304 18.32 720.857 18.7867 720.537 19.4C720.217 20.0133 720.057 20.72 720.057 21.52C720.057 22.32 720.217 23.0267 720.537 23.64C720.857 24.24 721.304 24.7067 721.877 25.04C722.45 25.3733 723.09 25.54 723.797 25.54C724.93 25.54 725.83 25.1867 726.497 24.48C727.177 23.76 727.517 22.7733 727.517 21.52C727.517 20.2667 727.177 19.2867 726.497 18.58C725.83 17.86 724.93 17.5 723.797 17.5ZM735.173 15.88C736.413 15.88 737.407 16.2067 738.153 16.86C738.913 17.5 739.373 18.3667 739.533 19.46H737.793C737.713 18.8067 737.44 18.2733 736.973 17.86C736.52 17.4333 735.907 17.22 735.133 17.22C734.48 17.22 733.967 17.38 733.593 17.7C733.233 18.0067 733.053 18.4267 733.053 18.96C733.053 19.36 733.173 19.6867 733.413 19.94C733.667 20.18 733.973 20.3667 734.333 20.5C734.707 20.62 735.213 20.7533 735.853 20.9C736.667 21.0867 737.32 21.28 737.813 21.48C738.32 21.6667 738.747 21.9733 739.093 22.4C739.453 22.8267 739.633 23.4 739.633 24.12C739.633 25.0133 739.293 25.74 738.613 26.3C737.947 26.86 737.053 27.14 735.933 27.14C734.627 27.14 733.56 26.8267 732.733 26.2C731.907 25.5733 731.42 24.7 731.273 23.58H733.033C733.1 24.2467 733.387 24.7867 733.893 25.2C734.413 25.6133 735.093 25.82 735.933 25.82C736.56 25.82 737.047 25.66 737.393 25.34C737.753 25.02 737.933 24.6 737.933 24.08C737.933 23.6533 737.807 23.3133 737.553 23.06C737.3 22.8067 736.987 22.6133 736.613 22.48C736.24 22.3467 735.727 22.2067 735.073 22.06C734.26 21.8733 733.607 21.6867 733.113 21.5C732.633 21.3133 732.22 21.02 731.873 20.62C731.54 20.2067 731.373 19.6533 731.373 18.96C731.373 18.04 731.713 17.3 732.393 16.74C733.073 16.1667 734 15.88 735.173 15.88ZM936.6 21.32V27H934.78V12.9H939.26C940.874 12.9 942.08 13.28 942.88 14.04C943.68 14.7867 944.08 15.8133 944.08 17.12C944.08 18.44 943.667 19.4733 942.84 20.22C942.014 20.9533 940.82 21.32 939.26 21.32H936.6ZM939.1 19.8C940.207 19.8 941 19.5667 941.48 19.1C941.974 18.6333 942.22 17.9733 942.22 17.12C942.22 16.24 941.974 15.5733 941.48 15.12C941 14.6533 940.207 14.42 939.1 14.42H936.6V19.8H939.1ZM955.966 16.02V27H954.146V24.42C953.866 25.3133 953.366 26 952.646 26.48C951.939 26.9467 951.113 27.18 950.166 27.18C948.899 27.18 947.873 26.7733 947.086 25.96C946.299 25.1333 945.906 23.9533 945.906 22.42V16.02H947.726V22.24C947.726 23.3333 948.006 24.18 948.566 24.78C949.126 25.3667 949.886 25.66 950.846 25.66C951.846 25.66 952.646 25.34 953.246 24.7C953.846 24.0467 954.146 23.1 954.146 21.86V16.02H955.966ZM964.942 15.88C965.915 15.88 966.782 16.1067 967.542 16.56C968.302 17.0133 968.895 17.6667 969.322 18.52C969.762 19.3733 969.982 20.3733 969.982 21.52C969.982 22.6667 969.762 23.6667 969.322 24.52C968.895 25.36 968.302 26.0067 967.542 26.46C966.782 26.9133 965.915 27.14 964.942 27.14C963.875 27.14 962.969 26.8733 962.222 26.34C961.489 25.7933 960.982 25.08 960.702 24.2V27H958.882V12.2H960.702V18.82C960.982 17.94 961.489 17.2333 962.222 16.7C962.969 16.1533 963.875 15.88 964.942 15.88ZM964.422 17.5C963.715 17.5 963.075 17.6667 962.502 18C961.929 18.32 961.482 18.7867 961.162 19.4C960.842 20.0133 960.682 20.72 960.682 21.52C960.682 22.32 960.842 23.0267 961.162 23.64C961.482 24.24 961.929 24.7067 962.502 25.04C963.075 25.3733 963.715 25.54 964.422 25.54C965.555 25.54 966.455 25.1867 967.122 24.48C967.802 23.76 968.142 22.7733 968.142 21.52C968.142 20.2667 967.802 19.2867 967.122 18.58C966.455 17.86 965.555 17.5 964.422 17.5ZM974.178 12.2V27H972.358V12.2H974.178ZM976.785 12.8C976.785 12.4667 976.898 12.2 977.125 12C977.351 11.7867 977.651 11.68 978.025 11.68C978.398 11.68 978.698 11.7867 978.925 12C979.151 12.2 979.265 12.4667 979.265 12.8C979.265 13.1333 979.151 13.4067 978.925 13.62C978.698 13.82 978.398 13.92 978.025 13.92C977.651 13.92 977.351 13.82 977.125 13.62C976.898 13.4067 976.785 13.1333 976.785 12.8ZM978.925 16.02V27H977.105V16.02H978.925ZM986.711 15.88C988.111 15.88 989.271 16.2533 990.191 17C991.111 17.7467 991.677 18.7467 991.891 20H989.971C989.837 19.2133 989.471 18.6 988.871 18.16C988.284 17.7067 987.551 17.48 986.671 17.48C986.031 17.48 985.444 17.6267 984.911 17.92C984.391 18.2133 983.971 18.6667 983.651 19.28C983.331 19.88 983.171 20.6267 983.171 21.52C983.171 22.4133 983.331 23.1667 983.651 23.78C983.971 24.38 984.391 24.8267 984.911 25.12C985.444 25.4133 986.031 25.56 986.671 25.56C987.551 25.56 988.284 25.3333 988.871 24.88C989.471 24.4267 989.837 23.8067 989.971 23.02H991.891C991.677 24.2867 991.111 25.2933 990.191 26.04C989.271 26.7733 988.111 27.14 986.711 27.14C985.657 27.14 984.724 26.9133 983.911 26.46C983.097 26.0067 982.457 25.36 981.991 24.52C981.537 23.6667 981.311 22.6667 981.311 21.52C981.311 20.3733 981.537 19.3733 981.991 18.52C982.457 17.6667 983.097 17.0133 983.911 16.56C984.724 16.1067 985.657 15.88 986.711 15.88ZM1005.45 12.76C1007.17 12.76 1008.59 13.1867 1009.71 14.04C1010.83 14.88 1011.61 16.0333 1012.03 17.5H1010.11C1009.75 16.5667 1009.17 15.8267 1008.37 15.28C1007.57 14.72 1006.59 14.44 1005.43 14.44C1004.51 14.44 1003.69 14.6667 1002.95 15.12C1002.23 15.56 1001.66 16.2 1001.23 17.04C1000.82 17.8667 1000.61 18.84 1000.61 19.96C1000.61 21.0667 1000.82 22.0333 1001.23 22.86C1001.66 23.6867 1002.23 24.3267 1002.95 24.78C1003.69 25.22 1004.51 25.44 1005.43 25.44C1006.59 25.44 1007.57 25.1667 1008.37 24.62C1009.17 24.06 1009.75 23.3133 1010.11 22.38H1012.03C1011.61 23.8467 1010.83 25.0067 1009.71 25.86C1008.59 26.7 1007.17 27.12 1005.45 27.12C1004.13 27.12 1002.97 26.82 1001.95 26.22C1000.94 25.6067 1000.15 24.76 999.574 23.68C999.014 22.5867 998.734 21.3467 998.734 19.96C998.734 18.56 999.014 17.3133 999.574 16.22C1000.15 15.1267 1000.94 14.28 1001.95 13.68C1002.97 13.0667 1004.13 12.76 1005.45 12.76ZM1019.45 15.88C1020.5 15.88 1021.44 16.1067 1022.27 16.56C1023.11 17.0133 1023.76 17.6667 1024.23 18.52C1024.71 19.3733 1024.95 20.3733 1024.95 21.52C1024.95 22.6667 1024.71 23.6667 1024.23 24.52C1023.76 25.36 1023.11 26.0067 1022.27 26.46C1021.44 26.9133 1020.5 27.14 1019.45 27.14C1018.39 27.14 1017.45 26.9133 1016.61 26.46C1015.78 26.0067 1015.13 25.36 1014.65 24.52C1014.17 23.6667 1013.93 22.6667 1013.93 21.52C1013.93 20.3733 1014.17 19.3733 1014.65 18.52C1015.13 17.6667 1015.78 17.0133 1016.61 16.56C1017.45 16.1067 1018.39 15.88 1019.45 15.88ZM1019.45 17.48C1018.79 17.48 1018.19 17.6267 1017.63 17.92C1017.08 18.2133 1016.63 18.6667 1016.29 19.28C1015.95 19.88 1015.79 20.6267 1015.79 21.52C1015.79 22.4 1015.95 23.1467 1016.29 23.76C1016.63 24.36 1017.08 24.8067 1017.63 25.1C1018.19 25.3933 1018.79 25.54 1019.45 25.54C1020.1 25.54 1020.7 25.3933 1021.25 25.1C1021.81 24.8067 1022.25 24.36 1022.59 23.76C1022.93 23.1467 1023.11 22.4 1023.11 21.52C1023.11 20.6267 1022.93 19.88 1022.59 19.28C1022.25 18.6667 1021.81 18.2133 1021.25 17.92C1020.7 17.6267 1020.1 17.48 1019.45 17.48ZM1040.82 15.84C1042.1 15.84 1043.13 16.2533 1043.9 17.08C1044.69 17.8933 1045.08 19.0733 1045.08 20.62V27H1043.26V20.78C1043.26 19.7 1042.99 18.8733 1042.46 18.3C1041.94 17.7267 1041.22 17.44 1040.3 17.44C1039.34 17.44 1038.57 17.76 1037.98 18.4C1037.41 19.0267 1037.12 19.9533 1037.12 21.18V27H1035.3V20.78C1035.3 19.7 1035.03 18.8733 1034.5 18.3C1033.97 17.7267 1033.25 17.44 1032.34 17.44C1031.37 17.44 1030.59 17.76 1030 18.4C1029.43 19.0267 1029.14 19.9533 1029.14 21.18V27H1027.32V16.02H1029.14V18.52C1029.41 17.6533 1029.88 16.9933 1030.56 16.54C1031.25 16.0733 1032.05 15.84 1032.94 15.84C1033.87 15.84 1034.68 16.08 1035.36 16.56C1036.05 17.0267 1036.55 17.72 1036.84 18.64C1037.15 17.7467 1037.66 17.06 1038.38 16.58C1039.1 16.0867 1039.91 15.84 1040.82 15.84ZM1053.97 15.88C1054.94 15.88 1055.81 16.1067 1056.57 16.56C1057.33 17.0133 1057.92 17.6667 1058.35 18.52C1058.79 19.3733 1059.01 20.3733 1059.01 21.52C1059.01 22.6667 1058.79 23.6667 1058.35 24.52C1057.92 25.36 1057.33 26.0067 1056.57 26.46C1055.81 26.9133 1054.94 27.14 1053.97 27.14C1052.9 27.14 1051.99 26.8733 1051.25 26.34C1050.51 25.7933 1050.01 25.08 1049.73 24.2V32.2H1047.91V16.02H1049.73V18.82C1050.01 17.94 1050.51 17.2333 1051.25 16.7C1051.99 16.1533 1052.9 15.88 1053.97 15.88ZM1053.45 17.5C1052.74 17.5 1052.1 17.6667 1051.53 18C1050.95 18.32 1050.51 18.7867 1050.19 19.4C1049.87 20.0133 1049.71 20.72 1049.71 21.52C1049.71 22.32 1049.87 23.0267 1050.19 23.64C1050.51 24.24 1050.95 24.7067 1051.53 25.04C1052.1 25.3733 1052.74 25.54 1053.45 25.54C1054.58 25.54 1055.48 25.1867 1056.15 24.48C1056.83 23.76 1057.17 22.7733 1057.17 21.52C1057.17 20.2667 1056.83 19.2867 1056.15 18.58C1055.48 17.86 1054.58 17.5 1053.45 17.5ZM1065.88 15.88C1066.95 15.88 1067.85 16.1467 1068.58 16.68C1069.33 17.2133 1069.85 17.9267 1070.14 18.82V16.02H1071.96V27H1070.14V24.2C1069.85 25.0933 1069.33 25.8067 1068.58 26.34C1067.85 26.8733 1066.95 27.14 1065.88 27.14C1064.91 27.14 1064.04 26.9133 1063.28 26.46C1062.52 26.0067 1061.92 25.36 1061.48 24.52C1061.06 23.6667 1060.84 22.6667 1060.84 21.52C1060.84 20.3733 1061.06 19.3733 1061.48 18.52C1061.92 17.6667 1062.52 17.0133 1063.28 16.56C1064.04 16.1067 1064.91 15.88 1065.88 15.88ZM1066.4 17.5C1065.28 17.5 1064.38 17.86 1063.7 18.58C1063.04 19.2867 1062.7 20.2667 1062.7 21.52C1062.7 22.7733 1063.04 23.76 1063.7 24.48C1064.38 25.1867 1065.28 25.54 1066.4 25.54C1067.12 25.54 1067.76 25.3733 1068.32 25.04C1068.9 24.7067 1069.34 24.24 1069.66 23.64C1069.98 23.0267 1070.14 22.32 1070.14 21.52C1070.14 20.72 1069.98 20.0133 1069.66 19.4C1069.34 18.7867 1068.9 18.32 1068.32 18C1067.76 17.6667 1067.12 17.5 1066.4 17.5ZM1080.64 15.84C1081.92 15.84 1082.95 16.2533 1083.74 17.08C1084.53 17.8933 1084.92 19.0733 1084.92 20.62V27H1083.1V20.78C1083.1 19.6867 1082.82 18.8467 1082.26 18.26C1081.7 17.6733 1080.94 17.38 1079.98 17.38C1078.98 17.38 1078.18 17.7067 1077.58 18.36C1076.98 19 1076.68 19.94 1076.68 21.18V27H1074.86V16.02H1076.68V18.62C1076.96 17.7267 1077.45 17.04 1078.16 16.56C1078.88 16.08 1079.71 15.84 1080.64 15.84ZM1087.39 12.8C1087.39 12.4667 1087.5 12.2 1087.73 12C1087.96 11.7867 1088.26 11.68 1088.63 11.68C1089 11.68 1089.3 11.7867 1089.53 12C1089.76 12.2 1089.87 12.4667 1089.87 12.8C1089.87 13.1333 1089.76 13.4067 1089.53 13.62C1089.3 13.82 1089 13.92 1088.63 13.92C1088.26 13.92 1087.96 13.82 1087.73 13.62C1087.5 13.4067 1087.39 13.1333 1087.39 12.8ZM1089.53 16.02V27H1087.71V16.02H1089.53ZM1102.56 20.9C1102.56 21.2867 1102.53 21.62 1102.48 21.9H1093.7C1093.74 23.1533 1094.09 24.0933 1094.76 24.72C1095.44 25.3467 1096.26 25.66 1097.24 25.66C1098.12 25.66 1098.85 25.44 1099.44 25C1100.04 24.5467 1100.4 23.9467 1100.54 23.2H1102.48C1102.34 23.96 1102.04 24.64 1101.58 25.24C1101.12 25.84 1100.53 26.3067 1099.8 26.64C1099.06 26.9733 1098.24 27.14 1097.32 27.14C1096.26 27.14 1095.33 26.9133 1094.52 26.46C1093.7 26.0067 1093.06 25.36 1092.6 24.52C1092.14 23.6667 1091.92 22.6667 1091.92 21.52C1091.92 20.3733 1092.14 19.3733 1092.6 18.52C1093.06 17.6667 1093.7 17.0133 1094.52 16.56C1095.33 16.1067 1096.26 15.88 1097.32 15.88C1098.38 15.88 1099.31 16.1067 1100.1 16.56C1100.9 17.0133 1101.5 17.62 1101.92 18.38C1102.34 19.14 1102.56 19.98 1102.56 20.9ZM1100.72 21.02C1100.76 20.2067 1100.62 19.5267 1100.32 18.98C1100.01 18.4333 1099.59 18.0267 1099.06 17.76C1098.52 17.4933 1097.94 17.36 1097.32 17.36C1096.32 17.36 1095.48 17.6733 1094.8 18.3C1094.12 18.9133 1093.75 19.82 1093.7 21.02H1100.72ZM1108.38 15.88C1109.62 15.88 1110.61 16.2067 1111.36 16.86C1112.12 17.5 1112.58 18.3667 1112.74 19.46H1111C1110.92 18.8067 1110.64 18.2733 1110.18 17.86C1109.72 17.4333 1109.11 17.22 1108.34 17.22C1107.68 17.22 1107.17 17.38 1106.8 17.7C1106.44 18.0067 1106.26 18.4267 1106.26 18.96C1106.26 19.36 1106.38 19.6867 1106.62 19.94C1106.87 20.18 1107.18 20.3667 1107.54 20.5C1107.91 20.62 1108.42 20.7533 1109.06 20.9C1109.87 21.0867 1110.52 21.28 1111.02 21.48C1111.52 21.6667 1111.95 21.9733 1112.3 22.4C1112.66 22.8267 1112.84 23.4 1112.84 24.12C1112.84 25.0133 1112.5 25.74 1111.82 26.3C1111.15 26.86 1110.26 27.14 1109.14 27.14C1107.83 27.14 1106.76 26.8267 1105.94 26.2C1105.11 25.5733 1104.62 24.7 1104.48 23.58H1106.24C1106.3 24.2467 1106.59 24.7867 1107.1 25.2C1107.62 25.6133 1108.3 25.82 1109.14 25.82C1109.76 25.82 1110.25 25.66 1110.6 25.34C1110.96 25.02 1111.14 24.6 1111.14 24.08C1111.14 23.6533 1111.01 23.3133 1110.76 23.06C1110.5 22.8067 1110.19 22.6133 1109.82 22.48C1109.44 22.3467 1108.93 22.2067 1108.28 22.06C1107.46 21.8733 1106.81 21.6867 1106.32 21.5C1105.84 21.3133 1105.42 21.02 1105.08 20.62C1104.74 20.2067 1104.58 19.6533 1104.58 18.96C1104.58 18.04 1104.92 17.3 1105.6 16.74C1106.28 16.1667 1107.2 15.88 1108.38 15.88Z" fill="white" fill-opacity="0.5"/>
<path d="M301.6 19.4C298.615 19.4 296.2 21.8154 296.2 24.8C296.2 27.7846 298.615 30.2 301.6 30.2C304.585 30.2 307 27.7846 307 24.8C307 21.8154 304.585 19.4 301.6 19.4ZM304 25.0359C304 25.2361 303.836 25.4 303.636 25.4H301.365C301.164 25.4 301 25.2361 301 25.0359V22.1645C301 21.9643 301.164 21.8004 301.365 21.8004H301.836C302.036 21.8004 302.2 21.9643 302.2 22.1645V24.2H303.636C303.836 24.2 304 24.3639 304 24.5641V25.0359ZM301.6 18.2C301.803 18.2 302.002 18.2124 302.2 18.2304V16.4C302.2 15.44 301.36 14.6 300.4 14.6H297.4V12.8C297.4 11.84 296.56 11 295.6 11H289.6C288.64 11 287.8 11.84 287.8 12.8V14.6H284.8C283.84 14.6 283 15.44 283 16.4V19.4H297.817C298.89 18.6466 300.193 18.2 301.6 18.2ZM295 14.6H290.2V13.4H295V14.6ZM295.256 23H290.8C290.469 23 290.2 22.7315 290.2 22.4V20.6H283V26C283 26.96 283.84 27.8 284.8 27.8H295.729C295.266 26.8985 295 25.8808 295 24.8C295 24.1753 295.093 23.573 295.256 23Z" fill="#0852AC"/>
<path d="M641.745 23.1264C640.717 23.9602 639.586 24.6513 638.359 25.1382L640.59 29.0014L642.803 29.9464C643.205 30.1182 643.66 29.8557 643.712 29.4214L644 27.0322L641.745 23.1264ZM643.488 19.248C643.687 18.9334 643.565 18.5101 643.24 18.3297L642.088 17.6911C641.781 17.5209 641.407 17.6312 641.216 17.9257C639.53 20.5314 636.628 22.1248 633.5 22.1248C632.519 22.1248 631.563 21.9505 630.653 21.6519L633.416 16.8663C633.445 16.8671 633.471 16.8749 633.5 16.8749C633.529 16.8749 633.555 16.8671 633.583 16.8663L635.679 20.4961C636.96 20.1286 638.122 19.44 639.067 18.4896L636.943 14.8102C637.249 14.2511 637.438 13.6195 637.438 12.9374C637.438 10.7628 635.675 9 633.5 9C631.326 9 629.563 10.7628 629.563 12.9374C629.563 13.6195 629.752 14.2511 630.057 14.8102L627.255 19.6627C626.741 19.1865 626.273 18.6541 625.874 18.0631C625.678 17.7719 625.301 17.6685 624.997 17.8445L623.859 18.5036C623.537 18.6898 623.423 19.1147 623.628 19.4252C624.266 20.3948 625.05 21.2385 625.924 21.9689L623 27.0326L623.288 29.4218C623.34 29.8561 623.795 30.1186 624.197 29.9468L626.41 29.0018L629.314 23.9721C630.634 24.4741 632.049 24.7498 633.5 24.7498C637.563 24.7498 641.329 22.6576 643.488 19.248ZM633.5 11.625C634.225 11.625 634.813 12.2127 634.813 12.9374C634.813 13.6622 634.225 14.2499 633.5 14.2499C632.775 14.2499 632.188 13.6622 632.188 12.9374C632.188 12.2127 632.775 11.625 633.5 11.625Z" fill="#0852AC"/>
<path d="M919.137 17.9H914.25V11.8625C914.25 11.386 913.864 11 913.387 11H908.212C907.736 11 907.35 11.386 907.35 11.8625V14.45H905.05V11.575C905.05 11.2573 904.793 11 904.475 11H903.9C903.582 11 903.325 11.2573 903.325 11.575V14.45H901.025V11.575C901.025 11.2573 900.768 11 900.45 11H899.875C899.557 11 899.3 11.2573 899.3 11.575V14.45H897.862C897.386 14.45 897 14.836 897 15.3125V28.25C897 28.885 897.515 29.4 898.15 29.4H918.85C919.485 29.4 920 28.885 920 28.25V18.7625C920 18.286 919.614 17.9 919.137 17.9ZM901.6 25.5188C901.6 25.757 901.407 25.95 901.169 25.95H899.731C899.493 25.95 899.3 25.757 899.3 25.5188V24.0813C899.3 23.843 899.493 23.65 899.731 23.65H901.169C901.407 23.65 901.6 23.843 901.6 24.0813V25.5188ZM901.6 22.0688C901.6 22.307 901.407 22.5 901.169 22.5H899.731C899.493 22.5 899.3 22.307 899.3 22.0688V20.6313C899.3 20.393 899.493 20.2 899.731 20.2H901.169C901.407 20.2 901.6 20.393 901.6 20.6313V22.0688ZM901.6 18.6188C901.6 18.857 901.407 19.05 901.169 19.05H899.731C899.493 19.05 899.3 18.857 899.3 18.6188V17.1813C899.3 16.943 899.493 16.75 899.731 16.75H901.169C901.407 16.75 901.6 16.943 901.6 17.1813V18.6188ZM906.2 25.5188C906.2 25.757 906.007 25.95 905.769 25.95H904.331C904.093 25.95 903.9 25.757 903.9 25.5188V24.0813C903.9 23.843 904.093 23.65 904.331 23.65H905.769C906.007 23.65 906.2 23.843 906.2 24.0813V25.5188ZM906.2 22.0688C906.2 22.307 906.007 22.5 905.769 22.5H904.331C904.093 22.5 903.9 22.307 903.9 22.0688V20.6313C903.9 20.393 904.093 20.2 904.331 20.2H905.769C906.007 20.2 906.2 20.393 906.2 20.6313V22.0688ZM906.2 18.6188C906.2 18.857 906.007 19.05 905.769 19.05H904.331C904.093 19.05 903.9 18.857 903.9 18.6188V17.1813C903.9 16.943 904.093 16.75 904.331 16.75H905.769C906.007 16.75 906.2 16.943 906.2 17.1813V18.6188ZM911.95 22.0688C911.95 22.307 911.757 22.5 911.519 22.5H910.081C909.843 22.5 909.65 22.307 909.65 22.0688V20.6313C909.65 20.393 909.843 20.2 910.081 20.2H911.519C911.757 20.2 911.95 20.393 911.95 20.6313V22.0688ZM911.95 18.6188C911.95 18.857 911.757 19.05 911.519 19.05H910.081C909.843 19.05 909.65 18.857 909.65 18.6188V17.1813C909.65 16.943 909.843 16.75 910.081 16.75H911.519C911.757 16.75 911.95 16.943 911.95 17.1813V18.6188ZM911.95 15.1688C911.95 15.407 911.757 15.6 911.519 15.6H910.081C909.843 15.6 909.65 15.407 909.65 15.1688V13.7313C909.65 13.493 909.843 13.3 910.081 13.3H911.519C911.757 13.3 911.95 13.493 911.95 13.7313V15.1688ZM917.7 25.5188C917.7 25.757 917.507 25.95 917.269 25.95H915.831C915.593 25.95 915.4 25.757 915.4 25.5188V24.0813C915.4 23.843 915.593 23.65 915.831 23.65H917.269C917.507 23.65 917.7 23.843 917.7 24.0813V25.5188ZM917.7 22.0688C917.7 22.307 917.507 22.5 917.269 22.5H915.831C915.593 22.5 915.4 22.307 915.4 22.0688V20.6313C915.4 20.393 915.593 20.2 915.831 20.2H917.269C917.507 20.2 917.7 20.393 917.7 20.6313V22.0688Z" fill="#0852AC"/>
<g clip-path="url(#clip0_75_83)">
<path d="M15.8215 26.1266L12.2639 29.6843C11.8428 30.1053 11.1602 30.1053 10.7392 29.6843L7.18154 26.1266C6.50237 25.4475 6.98339 24.2861 7.94391 24.2862H10.2422L10.2422 19.7578H5.71386V22.0561C5.71386 23.0167 4.55258 23.4977 3.87336 22.8185L0.315729 19.2609C-0.105324 18.8398 -0.105324 18.1572 0.315729 17.7362L3.87336 14.1785C4.55254 13.4994 5.71386 13.9804 5.71386 14.9409V17.2422H10.2422V12.7139H7.94081C6.98029 12.7139 6.49927 11.5526 7.17844 10.8734L10.7361 7.31579C11.1571 6.89474 11.8397 6.89474 12.2608 7.31579L15.8184 10.8734C16.4976 11.5526 16.0166 12.7139 15.056 12.7139H12.7577V17.2422H17.286V14.9439C17.286 13.9834 18.4473 13.5024 19.1265 14.1816L22.6841 17.7392C23.1052 18.1602 23.1052 18.8429 22.6841 19.2639L19.1265 22.8215C18.4473 23.5007 17.286 23.0197 17.286 22.0591V19.7578H12.7578V24.2861H15.0591C16.0197 24.2861 16.5007 25.4474 15.8215 26.1266Z" fill="#0852AC"/>
</g>
<defs>
<clipPath id="clip0_75_83">
<rect width="23" height="23" fill="white" transform="translate(0 7)"/>
</clipPath>
</defs>
</svg>
