<svg width="590" height="62" viewBox="0 0 590 62" fill="none" xmlns="http://www.w3.org/2000/svg">
<path d="M13.3698 2.08L7.82575 12.592V19H5.61775V12.592L0.04975 2.08H2.59375L6.74575 10.264L10.8738 2.08H13.3698ZM21.5483 5.656C22.8123 5.656 23.9403 5.928 24.9323 6.472C25.9403 7.016 26.7243 7.8 27.2843 8.824C27.8603 9.848 28.1483 11.048 28.1483 12.424C28.1483 13.8 27.8603 15 27.2843 16.024C26.7243 17.032 25.9403 17.808 24.9323 18.352C23.9403 18.896 22.8123 19.168 21.5483 19.168C20.2843 19.168 19.1483 18.896 18.1403 18.352C17.1483 17.808 16.3643 17.032 15.7883 16.024C15.2123 15 14.9243 13.8 14.9243 12.424C14.9243 11.048 15.2123 9.848 15.7883 8.824C16.3643 7.8 17.1483 7.016 18.1403 6.472C19.1483 5.928 20.2843 5.656 21.5483 5.656ZM21.5483 7.576C20.7643 7.576 20.0363 7.752 19.3643 8.104C18.7083 8.456 18.1723 9 17.7563 9.736C17.3563 10.456 17.1563 11.352 17.1563 12.424C17.1563 13.48 17.3563 14.376 17.7563 15.112C18.1723 15.832 18.7083 16.368 19.3643 16.72C20.0363 17.072 20.7643 17.248 21.5483 17.248C22.3323 17.248 23.0523 17.072 23.7083 16.72C24.3803 16.368 24.9163 15.832 25.3163 15.112C25.7323 14.376 25.9403 13.48 25.9403 12.424C25.9403 11.352 25.7323 10.456 25.3163 9.736C24.9163 9 24.3803 8.456 23.7083 8.104C23.0523 7.752 22.3323 7.576 21.5483 7.576ZM42.7062 5.824V19H40.5222V15.904C40.1862 16.976 39.5862 17.8 38.7222 18.376C37.8742 18.936 36.8822 19.216 35.7462 19.216C34.2262 19.216 32.9942 18.728 32.0502 17.752C31.1062 16.76 30.6342 15.344 30.6342 13.504V5.824H32.8182V13.288C32.8182 14.6 33.1542 15.616 33.8262 16.336C34.4982 17.04 35.4102 17.392 36.5622 17.392C37.7622 17.392 38.7222 17.008 39.4422 16.24C40.1622 15.456 40.5222 14.32 40.5222 12.832V5.824H42.7062ZM57.9668 5.656C59.6468 5.656 61.0388 6.104 62.1428 7C63.2468 7.896 63.9268 9.096 64.1828 10.6H61.8788C61.7188 9.656 61.2788 8.92 60.5588 8.392C59.8548 7.848 58.9748 7.576 57.9188 7.576C57.1508 7.576 56.4468 7.752 55.8068 8.104C55.1828 8.456 54.6788 9 54.2948 9.736C53.9108 10.456 53.7188 11.352 53.7188 12.424C53.7188 13.496 53.9108 14.4 54.2948 15.136C54.6788 15.856 55.1828 16.392 55.8068 16.744C56.4468 17.096 57.1508 17.272 57.9188 17.272C58.9748 17.272 59.8548 17 60.5588 16.456C61.2788 15.912 61.7188 15.168 61.8788 14.224H64.1828C63.9268 15.744 63.2468 16.952 62.1428 17.848C61.0388 18.728 59.6468 19.168 57.9668 19.168C56.7028 19.168 55.5828 18.896 54.6068 18.352C53.6308 17.808 52.8628 17.032 52.3028 16.024C51.7588 15 51.4868 13.8 51.4868 12.424C51.4868 11.048 51.7588 9.848 52.3028 8.824C52.8628 7.8 53.6308 7.016 54.6068 6.472C55.5828 5.928 56.7028 5.656 57.9668 5.656ZM72.4411 5.656C73.7211 5.656 74.8011 5.976 75.6811 6.616C76.5771 7.256 77.2011 8.112 77.5531 9.184V5.824H79.7371V19H77.5531V15.64C77.2011 16.712 76.5771 17.568 75.6811 18.208C74.8011 18.848 73.7211 19.168 72.4411 19.168C71.2731 19.168 70.2331 18.896 69.3211 18.352C68.4091 17.808 67.6891 17.032 67.1611 16.024C66.6491 15 66.3931 13.8 66.3931 12.424C66.3931 11.048 66.6491 9.848 67.1611 8.824C67.6891 7.8 68.4091 7.016 69.3211 6.472C70.2331 5.928 71.2731 5.656 72.4411 5.656ZM73.0651 7.6C71.7211 7.6 70.6411 8.032 69.8251 8.896C69.0251 9.744 68.6251 10.92 68.6251 12.424C68.6251 13.928 69.0251 15.112 69.8251 15.976C70.6411 16.824 71.7211 17.248 73.0651 17.248C73.9291 17.248 74.6971 17.048 75.3691 16.648C76.0571 16.248 76.5931 15.688 76.9771 14.968C77.3611 14.232 77.5531 13.384 77.5531 12.424C77.5531 11.464 77.3611 10.616 76.9771 9.88C76.5931 9.144 76.0571 8.584 75.3691 8.2C74.6971 7.8 73.9291 7.6 73.0651 7.6ZM90.1489 5.608C91.6849 5.608 92.9249 6.104 93.8689 7.096C94.8129 8.072 95.2849 9.488 95.2849 11.344V19H93.1009V11.536C93.1009 10.224 92.7649 9.216 92.0929 8.512C91.4209 7.808 90.5089 7.456 89.3569 7.456C88.1569 7.456 87.1969 7.848 86.4769 8.632C85.7569 9.4 85.3969 10.528 85.3969 12.016V19H83.2129V5.824H85.3969V8.944C85.7329 7.872 86.3249 7.048 87.1729 6.472C88.0369 5.896 89.0289 5.608 90.1489 5.608ZM111.501 5.608C113.037 5.608 114.277 6.104 115.221 7.096C116.165 8.072 116.637 9.488 116.637 11.344V19H114.453V11.536C114.453 10.224 114.117 9.216 113.445 8.512C112.773 7.808 111.861 7.456 110.709 7.456C109.509 7.456 108.549 7.848 107.829 8.632C107.109 9.4 106.749 10.528 106.749 12.016V19H104.565V5.824H106.749V8.944C107.085 7.872 107.677 7.048 108.525 6.472C109.389 5.896 110.381 5.608 111.501 5.608ZM125.962 5.656C127.226 5.656 128.354 5.928 129.346 6.472C130.354 7.016 131.138 7.8 131.698 8.824C132.274 9.848 132.562 11.048 132.562 12.424C132.562 13.8 132.274 15 131.698 16.024C131.138 17.032 130.354 17.808 129.346 18.352C128.354 18.896 127.226 19.168 125.962 19.168C124.698 19.168 123.562 18.896 122.554 18.352C121.562 17.808 120.778 17.032 120.202 16.024C119.626 15 119.338 13.8 119.338 12.424C119.338 11.048 119.626 9.848 120.202 8.824C120.778 7.8 121.562 7.016 122.554 6.472C123.562 5.928 124.698 5.656 125.962 5.656ZM125.962 7.576C125.178 7.576 124.45 7.752 123.778 8.104C123.122 8.456 122.586 9 122.17 9.736C121.77 10.456 121.57 11.352 121.57 12.424C121.57 13.48 121.77 14.376 122.17 15.112C122.586 15.832 123.122 16.368 123.778 16.72C124.45 17.072 125.178 17.248 125.962 17.248C126.746 17.248 127.466 17.072 128.122 16.72C128.794 16.368 129.33 15.832 129.73 15.112C130.146 14.376 130.354 13.48 130.354 12.424C130.354 11.352 130.146 10.456 129.73 9.736C129.33 9 128.794 8.456 128.122 8.104C127.466 7.752 126.746 7.576 125.962 7.576ZM153.504 5.824L149.712 19H147.36L143.736 8.272L140.088 19H137.712L133.968 5.824H136.176L138.984 16.912L142.632 5.824H144.912L148.584 16.888L151.416 5.824H153.504ZM166.583 16.672L170.663 5.824H173.015L167.855 19H165.263L160.103 5.824H162.455L166.583 16.672ZM180.558 5.656C181.838 5.656 182.918 5.976 183.798 6.616C184.694 7.256 185.318 8.112 185.67 9.184V5.824H187.854V19H185.67V15.64C185.318 16.712 184.694 17.568 183.798 18.208C182.918 18.848 181.838 19.168 180.558 19.168C179.39 19.168 178.35 18.896 177.438 18.352C176.526 17.808 175.806 17.032 175.278 16.024C174.766 15 174.51 13.8 174.51 12.424C174.51 11.048 174.766 9.848 175.278 8.824C175.806 7.8 176.526 7.016 177.438 6.472C178.35 5.928 179.39 5.656 180.558 5.656ZM181.182 7.6C179.838 7.6 178.758 8.032 177.942 8.896C177.142 9.744 176.742 10.92 176.742 12.424C176.742 13.928 177.142 15.112 177.942 15.976C178.758 16.824 179.838 17.248 181.182 17.248C182.046 17.248 182.814 17.048 183.486 16.648C184.174 16.248 184.71 15.688 185.094 14.968C185.478 14.232 185.67 13.384 185.67 12.424C185.67 11.464 185.478 10.616 185.094 9.88C184.71 9.144 184.174 8.584 183.486 8.2C182.814 7.8 182.046 7.6 181.182 7.6ZM193.514 1.24V19H191.33V1.24H193.514ZM208.737 5.824V19H206.553V15.904C206.217 16.976 205.617 17.8 204.753 18.376C203.905 18.936 202.913 19.216 201.777 19.216C200.257 19.216 199.025 18.728 198.081 17.752C197.137 16.76 196.665 15.344 196.665 13.504V5.824H198.849V13.288C198.849 14.6 199.185 15.616 199.857 16.336C200.529 17.04 201.441 17.392 202.593 17.392C203.793 17.392 204.753 17.008 205.473 16.24C206.193 15.456 206.553 14.32 206.553 12.832V5.824H208.737ZM224.356 11.68C224.356 12.144 224.324 12.544 224.26 12.88H213.724C213.772 14.384 214.196 15.512 214.996 16.264C215.812 17.016 216.804 17.392 217.972 17.392C219.028 17.392 219.908 17.128 220.612 16.6C221.332 16.056 221.772 15.336 221.932 14.44H224.26C224.1 15.352 223.74 16.168 223.18 16.888C222.636 17.608 221.924 18.168 221.044 18.568C220.164 18.968 219.172 19.168 218.068 19.168C216.804 19.168 215.684 18.896 214.708 18.352C213.732 17.808 212.964 17.032 212.404 16.024C211.86 15 211.588 13.8 211.588 12.424C211.588 11.048 211.86 9.848 212.404 8.824C212.964 7.8 213.732 7.016 214.708 6.472C215.684 5.928 216.804 5.656 218.068 5.656C219.348 5.656 220.46 5.928 221.404 6.472C222.364 7.016 223.092 7.744 223.588 8.656C224.1 9.568 224.356 10.576 224.356 11.68ZM222.148 11.824C222.196 10.848 222.036 10.032 221.668 9.376C221.3 8.72 220.796 8.232 220.156 7.912C219.516 7.592 218.82 7.432 218.068 7.432C216.868 7.432 215.86 7.808 215.044 8.56C214.228 9.296 213.788 10.384 213.724 11.824H222.148ZM238.543 5.656C239.823 5.656 240.903 5.976 241.783 6.616C242.679 7.256 243.303 8.112 243.655 9.184V5.824H245.839V19H243.655V15.64C243.303 16.712 242.679 17.568 241.783 18.208C240.903 18.848 239.823 19.168 238.543 19.168C237.375 19.168 236.335 18.896 235.423 18.352C234.511 17.808 233.791 17.032 233.263 16.024C232.751 15 232.495 13.8 232.495 12.424C232.495 11.048 232.751 9.848 233.263 8.824C233.791 7.8 234.511 7.016 235.423 6.472C236.335 5.928 237.375 5.656 238.543 5.656ZM239.167 7.6C237.823 7.6 236.743 8.032 235.927 8.896C235.127 9.744 234.727 10.92 234.727 12.424C234.727 13.928 235.127 15.112 235.927 15.976C236.743 16.824 237.823 17.248 239.167 17.248C240.031 17.248 240.799 17.048 241.471 16.648C242.159 16.248 242.695 15.688 243.079 14.968C243.463 14.232 243.655 13.384 243.655 12.424C243.655 11.464 243.463 10.616 243.079 9.88C242.695 9.144 242.159 8.584 241.471 8.2C240.799 7.8 240.031 7.6 239.167 7.6ZM262.516 5.656C263.684 5.656 264.724 5.928 265.636 6.472C266.548 7.016 267.26 7.8 267.772 8.824C268.3 9.848 268.564 11.048 268.564 12.424C268.564 13.8 268.3 15 267.772 16.024C267.26 17.032 266.548 17.808 265.636 18.352C264.724 18.896 263.684 19.168 262.516 19.168C261.236 19.168 260.148 18.848 259.252 18.208C258.372 17.552 257.764 16.696 257.428 15.64V19H255.244V1.24H257.428V9.184C257.764 8.128 258.372 7.28 259.252 6.64C260.148 5.984 261.236 5.656 262.516 5.656ZM261.892 7.6C261.044 7.6 260.276 7.8 259.588 8.2C258.9 8.584 258.364 9.144 257.98 9.88C257.596 10.616 257.404 11.464 257.404 12.424C257.404 13.384 257.596 14.232 257.98 14.968C258.364 15.688 258.9 16.248 259.588 16.648C260.276 17.048 261.044 17.248 261.892 17.248C263.252 17.248 264.332 16.824 265.132 15.976C265.948 15.112 266.356 13.928 266.356 12.424C266.356 10.92 265.948 9.744 265.132 8.896C264.332 8.032 263.252 7.6 261.892 7.6ZM283.128 5.824V19H280.944V15.904C280.608 16.976 280.008 17.8 279.144 18.376C278.296 18.936 277.304 19.216 276.168 19.216C274.648 19.216 273.416 18.728 272.472 17.752C271.528 16.76 271.056 15.344 271.056 13.504V5.824H273.24V13.288C273.24 14.6 273.576 15.616 274.248 16.336C274.92 17.04 275.832 17.392 276.984 17.392C278.184 17.392 279.144 17.008 279.864 16.24C280.584 15.456 280.944 14.32 280.944 12.832V5.824H283.128ZM290.755 5.656C292.243 5.656 293.435 6.048 294.331 6.832C295.243 7.6 295.795 8.64 295.987 9.952H293.899C293.803 9.168 293.475 8.528 292.915 8.032C292.371 7.52 291.635 7.264 290.707 7.264C289.923 7.264 289.307 7.456 288.859 7.84C288.427 8.208 288.211 8.712 288.211 9.352C288.211 9.832 288.355 10.224 288.643 10.528C288.947 10.816 289.315 11.04 289.747 11.2C290.195 11.344 290.803 11.504 291.571 11.68C292.547 11.904 293.331 12.136 293.923 12.376C294.531 12.6 295.043 12.968 295.459 13.48C295.891 13.992 296.107 14.68 296.107 15.544C296.107 16.616 295.699 17.488 294.883 18.16C294.083 18.832 293.011 19.168 291.667 19.168C290.099 19.168 288.819 18.792 287.827 18.04C286.835 17.288 286.251 16.24 286.075 14.896H288.187C288.267 15.696 288.611 16.344 289.219 16.84C289.843 17.336 290.659 17.584 291.667 17.584C292.419 17.584 293.003 17.392 293.419 17.008C293.851 16.624 294.067 16.12 294.067 15.496C294.067 14.984 293.915 14.576 293.611 14.272C293.307 13.968 292.931 13.736 292.483 13.576C292.035 13.416 291.419 13.248 290.635 13.072C289.659 12.848 288.875 12.624 288.283 12.4C287.707 12.176 287.211 11.824 286.795 11.344C286.395 10.848 286.195 10.184 286.195 9.352C286.195 8.248 286.603 7.36 287.419 6.688C288.235 6 289.347 5.656 290.755 5.656ZM298.641 1.96C298.641 1.56 298.777 1.24 299.049 0.999999C299.321 0.743999 299.681 0.615999 300.129 0.615999C300.577 0.615999 300.937 0.743999 301.209 0.999999C301.481 1.24 301.617 1.56 301.617 1.96C301.617 2.36 301.481 2.688 301.209 2.944C300.937 3.184 300.577 3.304 300.129 3.304C299.681 3.304 299.321 3.184 299.049 2.944C298.777 2.688 298.641 2.36 298.641 1.96ZM301.209 5.824V19H299.025V5.824H301.209ZM311.657 5.608C313.193 5.608 314.433 6.104 315.377 7.096C316.321 8.072 316.793 9.488 316.793 11.344V19H314.609V11.536C314.609 10.224 314.273 9.216 313.601 8.512C312.929 7.808 312.017 7.456 310.865 7.456C309.665 7.456 308.705 7.848 307.985 8.632C307.265 9.4 306.905 10.528 306.905 12.016V19H304.721V5.824H306.905V8.944C307.241 7.872 307.833 7.048 308.681 6.472C309.545 5.896 310.537 5.608 311.657 5.608ZM332.263 11.68C332.263 12.144 332.231 12.544 332.167 12.88H321.631C321.679 14.384 322.103 15.512 322.903 16.264C323.719 17.016 324.711 17.392 325.879 17.392C326.935 17.392 327.815 17.128 328.519 16.6C329.239 16.056 329.679 15.336 329.839 14.44H332.167C332.007 15.352 331.647 16.168 331.087 16.888C330.543 17.608 329.831 18.168 328.951 18.568C328.071 18.968 327.079 19.168 325.975 19.168C324.711 19.168 323.591 18.896 322.615 18.352C321.639 17.808 320.871 17.032 320.311 16.024C319.767 15 319.495 13.8 319.495 12.424C319.495 11.048 319.767 9.848 320.311 8.824C320.871 7.8 321.639 7.016 322.615 6.472C323.591 5.928 324.711 5.656 325.975 5.656C327.255 5.656 328.367 5.928 329.311 6.472C330.271 7.016 330.999 7.744 331.495 8.656C332.007 9.568 332.263 10.576 332.263 11.68ZM330.055 11.824C330.103 10.848 329.943 10.032 329.575 9.376C329.207 8.72 328.703 8.232 328.063 7.912C327.423 7.592 326.727 7.432 325.975 7.432C324.775 7.432 323.767 7.808 322.951 8.56C322.135 9.296 321.695 10.384 321.631 11.824H330.055ZM339.247 5.656C340.735 5.656 341.927 6.048 342.823 6.832C343.735 7.6 344.287 8.64 344.479 9.952H342.391C342.295 9.168 341.967 8.528 341.407 8.032C340.863 7.52 340.127 7.264 339.199 7.264C338.415 7.264 337.799 7.456 337.351 7.84C336.919 8.208 336.703 8.712 336.703 9.352C336.703 9.832 336.847 10.224 337.135 10.528C337.439 10.816 337.807 11.04 338.239 11.2C338.687 11.344 339.295 11.504 340.063 11.68C341.039 11.904 341.823 12.136 342.415 12.376C343.023 12.6 343.535 12.968 343.951 13.48C344.383 13.992 344.599 14.68 344.599 15.544C344.599 16.616 344.191 17.488 343.375 18.16C342.575 18.832 341.503 19.168 340.159 19.168C338.591 19.168 337.311 18.792 336.319 18.04C335.327 17.288 334.743 16.24 334.567 14.896H336.679C336.759 15.696 337.103 16.344 337.711 16.84C338.335 17.336 339.151 17.584 340.159 17.584C340.911 17.584 341.495 17.392 341.911 17.008C342.343 16.624 342.559 16.12 342.559 15.496C342.559 14.984 342.407 14.576 342.103 14.272C341.799 13.968 341.423 13.736 340.975 13.576C340.527 13.416 339.911 13.248 339.127 13.072C338.151 12.848 337.367 12.624 336.775 12.4C336.199 12.176 335.703 11.824 335.287 11.344C334.887 10.848 334.687 10.184 334.687 9.352C334.687 8.248 335.095 7.36 335.911 6.688C336.727 6 337.839 5.656 339.247 5.656ZM351.646 5.656C353.134 5.656 354.326 6.048 355.222 6.832C356.134 7.6 356.686 8.64 356.878 9.952H354.79C354.694 9.168 354.366 8.528 353.806 8.032C353.262 7.52 352.526 7.264 351.598 7.264C350.814 7.264 350.198 7.456 349.75 7.84C349.318 8.208 349.102 8.712 349.102 9.352C349.102 9.832 349.246 10.224 349.534 10.528C349.838 10.816 350.206 11.04 350.638 11.2C351.086 11.344 351.694 11.504 352.462 11.68C353.438 11.904 354.222 12.136 354.814 12.376C355.422 12.6 355.934 12.968 356.35 13.48C356.782 13.992 356.998 14.68 356.998 15.544C356.998 16.616 356.59 17.488 355.774 18.16C354.974 18.832 353.902 19.168 352.558 19.168C350.99 19.168 349.71 18.792 348.718 18.04C347.726 17.288 347.142 16.24 346.966 14.896H349.078C349.158 15.696 349.502 16.344 350.11 16.84C350.734 17.336 351.55 17.584 352.558 17.584C353.31 17.584 353.894 17.392 354.31 17.008C354.742 16.624 354.958 16.12 354.958 15.496C354.958 14.984 354.806 14.576 354.502 14.272C354.198 13.968 353.822 13.736 353.374 13.576C352.926 13.416 352.31 13.248 351.526 13.072C350.55 12.848 349.766 12.624 349.174 12.4C348.598 12.176 348.102 11.824 347.686 11.344C347.286 10.848 347.086 10.184 347.086 9.352C347.086 8.248 347.494 7.36 348.31 6.688C349.126 6 350.238 5.656 351.646 5.656ZM365.462 1.96C365.462 1.56 365.598 1.24 365.87 0.999999C366.142 0.743999 366.502 0.615999 366.95 0.615999C367.398 0.615999 367.758 0.743999 368.03 0.999999C368.302 1.24 368.438 1.56 368.438 1.96C368.438 2.36 368.302 2.688 368.03 2.944C367.758 3.184 367.398 3.304 366.95 3.304C366.502 3.304 366.142 3.184 365.87 2.944C365.598 2.688 365.462 2.36 365.462 1.96ZM368.03 5.824V19H365.846V5.824H368.03ZM378.477 5.608C380.013 5.608 381.253 6.104 382.197 7.096C383.141 8.072 383.613 9.488 383.613 11.344V19H381.429V11.536C381.429 10.224 381.093 9.216 380.421 8.512C379.749 7.808 378.837 7.456 377.685 7.456C376.485 7.456 375.525 7.848 374.805 8.632C374.085 9.4 373.725 10.528 373.725 12.016V19H371.541V5.824H373.725V8.944C374.061 7.872 374.653 7.048 375.501 6.472C376.365 5.896 377.357 5.608 378.477 5.608ZM409.093 5.608C410.629 5.608 411.861 6.104 412.789 7.096C413.733 8.072 414.205 9.488 414.205 11.344V19H412.021V11.536C412.021 10.24 411.701 9.248 411.061 8.56C410.437 7.872 409.573 7.528 408.469 7.528C407.317 7.528 406.389 7.912 405.685 8.68C404.997 9.432 404.653 10.544 404.653 12.016V19H402.469V11.536C402.469 10.24 402.149 9.248 401.509 8.56C400.869 7.872 400.005 7.528 398.917 7.528C397.749 7.528 396.813 7.912 396.109 8.68C395.421 9.432 395.077 10.544 395.077 12.016V19H392.893V5.824H395.077V8.824C395.397 7.784 395.965 6.992 396.781 6.448C397.613 5.888 398.565 5.608 399.637 5.608C400.757 5.608 401.725 5.896 402.541 6.472C403.373 7.032 403.965 7.864 404.317 8.968C404.685 7.896 405.301 7.072 406.165 6.496C407.029 5.904 408.005 5.608 409.093 5.608ZM417.212 1.96C417.212 1.56 417.348 1.24 417.62 0.999999C417.892 0.743999 418.252 0.615999 418.7 0.615999C419.148 0.615999 419.508 0.743999 419.78 0.999999C420.052 1.24 420.188 1.56 420.188 1.96C420.188 2.36 420.052 2.688 419.78 2.944C419.508 3.184 419.148 3.304 418.7 3.304C418.252 3.304 417.892 3.184 417.62 2.944C417.348 2.688 417.212 2.36 417.212 1.96ZM419.78 5.824V19H417.596V5.824H419.78ZM430.227 5.608C431.763 5.608 433.003 6.104 433.947 7.096C434.891 8.072 435.363 9.488 435.363 11.344V19H433.179V11.536C433.179 10.224 432.843 9.216 432.171 8.512C431.499 7.808 430.587 7.456 429.435 7.456C428.235 7.456 427.275 7.848 426.555 8.632C425.835 9.4 425.475 10.528 425.475 12.016V19H423.291V5.824H425.475V8.944C425.811 7.872 426.403 7.048 427.251 6.472C428.115 5.896 429.107 5.608 430.227 5.608ZM450.425 5.824V19H448.241V15.904C447.905 16.976 447.305 17.8 446.441 18.376C445.593 18.936 444.601 19.216 443.465 19.216C441.945 19.216 440.713 18.728 439.769 17.752C438.825 16.76 438.353 15.344 438.353 13.504V5.824H440.537V13.288C440.537 14.6 440.873 15.616 441.545 16.336C442.217 17.04 443.129 17.392 444.281 17.392C445.481 17.392 446.441 17.008 447.161 16.24C447.881 15.456 448.241 14.32 448.241 12.832V5.824H450.425ZM460.212 17.08V19H458.58C457.236 19 456.228 18.68 455.556 18.04C454.9 17.4 454.572 16.328 454.572 14.824V7.72H452.604V5.824H454.572V2.536H456.78V5.824H460.188V7.72H456.78V14.872C456.78 15.72 456.932 16.304 457.236 16.624C457.556 16.928 458.1 17.08 458.868 17.08H460.212ZM474.997 11.68C474.997 12.144 474.965 12.544 474.901 12.88H464.365C464.413 14.384 464.837 15.512 465.637 16.264C466.453 17.016 467.445 17.392 468.613 17.392C469.669 17.392 470.549 17.128 471.253 16.6C471.973 16.056 472.413 15.336 472.573 14.44H474.901C474.741 15.352 474.381 16.168 473.821 16.888C473.277 17.608 472.565 18.168 471.685 18.568C470.805 18.968 469.813 19.168 468.709 19.168C467.445 19.168 466.325 18.896 465.349 18.352C464.373 17.808 463.605 17.032 463.045 16.024C462.501 15 462.229 13.8 462.229 12.424C462.229 11.048 462.501 9.848 463.045 8.824C463.605 7.8 464.373 7.016 465.349 6.472C466.325 5.928 467.445 5.656 468.709 5.656C469.989 5.656 471.101 5.928 472.045 6.472C473.005 7.016 473.733 7.744 474.229 8.656C474.741 9.568 474.997 10.576 474.997 11.68ZM472.789 11.824C472.837 10.848 472.677 10.032 472.309 9.376C471.941 8.72 471.437 8.232 470.797 7.912C470.157 7.592 469.461 7.432 468.709 7.432C467.509 7.432 466.501 7.808 465.685 8.56C464.869 9.296 464.429 10.384 464.365 11.824H472.789ZM481.982 5.656C483.47 5.656 484.662 6.048 485.558 6.832C486.47 7.6 487.022 8.64 487.214 9.952H485.126C485.03 9.168 484.702 8.528 484.142 8.032C483.598 7.52 482.862 7.264 481.934 7.264C481.15 7.264 480.534 7.456 480.086 7.84C479.654 8.208 479.438 8.712 479.438 9.352C479.438 9.832 479.582 10.224 479.87 10.528C480.174 10.816 480.542 11.04 480.974 11.2C481.422 11.344 482.03 11.504 482.798 11.68C483.774 11.904 484.558 12.136 485.15 12.376C485.758 12.6 486.27 12.968 486.686 13.48C487.118 13.992 487.334 14.68 487.334 15.544C487.334 16.616 486.926 17.488 486.11 18.16C485.31 18.832 484.238 19.168 482.894 19.168C481.326 19.168 480.046 18.792 479.054 18.04C478.062 17.288 477.478 16.24 477.302 14.896H479.414C479.494 15.696 479.838 16.344 480.446 16.84C481.07 17.336 481.886 17.584 482.894 17.584C483.646 17.584 484.23 17.392 484.646 17.008C485.078 16.624 485.294 16.12 485.294 15.496C485.294 14.984 485.142 14.576 484.838 14.272C484.534 13.968 484.158 13.736 483.71 13.576C483.262 13.416 482.646 13.248 481.862 13.072C480.886 12.848 480.102 12.624 479.51 12.4C478.934 12.176 478.438 11.824 478.022 11.344C477.622 10.848 477.422 10.184 477.422 9.352C477.422 8.248 477.83 7.36 478.646 6.688C479.462 6 480.574 5.656 481.982 5.656ZM514.278 5.824L510.486 19H508.134L504.51 8.272L500.862 19H498.486L494.742 5.824H496.95L499.758 16.912L503.406 5.824H505.686L509.358 16.888L512.19 5.824H514.278ZM515.931 1.96C515.931 1.56 516.067 1.24 516.339 0.999999C516.611 0.743999 516.971 0.615999 517.419 0.615999C517.867 0.615999 518.227 0.743999 518.499 0.999999C518.771 1.24 518.907 1.56 518.907 1.96C518.907 2.36 518.771 2.688 518.499 2.944C518.227 3.184 517.867 3.304 517.419 3.304C516.971 3.304 516.611 3.184 516.339 2.944C516.067 2.688 515.931 2.36 515.931 1.96ZM518.499 5.824V19H516.315V5.824H518.499ZM528.298 17.08V19H526.666C525.322 19 524.314 18.68 523.642 18.04C522.986 17.4 522.658 16.328 522.658 14.824V7.72H520.69V5.824H522.658V2.536H524.866V5.824H528.274V7.72H524.866V14.872C524.866 15.72 525.018 16.304 525.322 16.624C525.642 16.928 526.186 17.08 526.954 17.08H528.298ZM537.899 5.608C539.435 5.608 540.675 6.104 541.619 7.096C542.563 8.072 543.035 9.488 543.035 11.344V19H540.851V11.536C540.851 10.224 540.515 9.216 539.843 8.512C539.171 7.808 538.259 7.456 537.107 7.456C535.907 7.456 534.947 7.848 534.227 8.632C533.507 9.4 533.147 10.528 533.147 12.016V19H530.963V1.24H533.147V8.944C533.483 7.872 534.075 7.048 534.923 6.472C535.787 5.896 536.779 5.608 537.899 5.608ZM558.291 5.656C559.555 5.656 560.683 5.928 561.675 6.472C562.683 7.016 563.467 7.8 564.027 8.824C564.603 9.848 564.891 11.048 564.891 12.424C564.891 13.8 564.603 15 564.027 16.024C563.467 17.032 562.683 17.808 561.675 18.352C560.683 18.896 559.555 19.168 558.291 19.168C557.027 19.168 555.891 18.896 554.883 18.352C553.891 17.808 553.107 17.032 552.531 16.024C551.955 15 551.667 13.8 551.667 12.424C551.667 11.048 551.955 9.848 552.531 8.824C553.107 7.8 553.891 7.016 554.883 6.472C555.891 5.928 557.027 5.656 558.291 5.656ZM558.291 7.576C557.507 7.576 556.779 7.752 556.107 8.104C555.451 8.456 554.915 9 554.499 9.736C554.099 10.456 553.899 11.352 553.899 12.424C553.899 13.48 554.099 14.376 554.499 15.112C554.915 15.832 555.451 16.368 556.107 16.72C556.779 17.072 557.507 17.248 558.291 17.248C559.075 17.248 559.795 17.072 560.451 16.72C561.123 16.368 561.659 15.832 562.059 15.112C562.475 14.376 562.682 13.48 562.682 12.424C562.682 11.352 562.475 10.456 562.059 9.736C561.659 9 561.123 8.456 560.451 8.104C559.795 7.752 559.075 7.576 558.291 7.576ZM579.448 5.824V19H577.264V15.904C576.928 16.976 576.328 17.8 575.464 18.376C574.616 18.936 573.624 19.216 572.488 19.216C570.968 19.216 569.736 18.728 568.792 17.752C567.848 16.76 567.376 15.344 567.376 13.504V5.824H569.56V13.288C569.56 14.6 569.896 15.616 570.568 16.336C571.24 17.04 572.152 17.392 573.304 17.392C574.504 17.392 575.464 17.008 576.184 16.24C576.904 15.456 577.264 14.32 577.264 12.832V5.824H579.448ZM585.131 8.488C585.563 7.576 586.195 6.872 587.027 6.376C587.859 5.864 588.851 5.608 590.003 5.608V7.984H589.331C588.099 7.984 587.091 8.304 586.307 8.944C585.523 9.568 585.131 10.608 585.131 12.064V19H582.947V5.824H585.131V8.488ZM189.508 41.656C190.676 41.656 191.716 41.928 192.628 42.472C193.54 43.016 194.252 43.8 194.764 44.824C195.292 45.848 195.556 47.048 195.556 48.424C195.556 49.8 195.292 51 194.764 52.024C194.252 53.032 193.54 53.808 192.628 54.352C191.716 54.896 190.676 55.168 189.508 55.168C188.228 55.168 187.14 54.848 186.244 54.208C185.364 53.552 184.756 52.696 184.42 51.64V61.24H182.236V41.824H184.42V45.184C184.756 44.128 185.364 43.28 186.244 42.64C187.14 41.984 188.228 41.656 189.508 41.656ZM188.884 43.6C188.036 43.6 187.268 43.8 186.58 44.2C185.892 44.584 185.356 45.144 184.972 45.88C184.588 46.616 184.396 47.464 184.396 48.424C184.396 49.384 184.588 50.232 184.972 50.968C185.356 51.688 185.892 52.248 186.58 52.648C187.268 53.048 188.036 53.248 188.884 53.248C190.244 53.248 191.324 52.824 192.124 51.976C192.94 51.112 193.348 49.928 193.348 48.424C193.348 46.92 192.94 45.744 192.124 44.896C191.324 44.032 190.244 43.6 188.884 43.6ZM204.384 41.656C205.648 41.656 206.776 41.928 207.768 42.472C208.776 43.016 209.56 43.8 210.12 44.824C210.696 45.848 210.984 47.048 210.984 48.424C210.984 49.8 210.696 51 210.12 52.024C209.56 53.032 208.776 53.808 207.768 54.352C206.776 54.896 205.648 55.168 204.384 55.168C203.12 55.168 201.984 54.896 200.976 54.352C199.984 53.808 199.2 53.032 198.624 52.024C198.048 51 197.76 49.8 197.76 48.424C197.76 47.048 198.048 45.848 198.624 44.824C199.2 43.8 199.984 43.016 200.976 42.472C201.984 41.928 203.12 41.656 204.384 41.656ZM204.384 43.576C203.6 43.576 202.872 43.752 202.2 44.104C201.544 44.456 201.008 45 200.592 45.736C200.192 46.456 199.992 47.352 199.992 48.424C199.992 49.48 200.192 50.376 200.592 51.112C201.008 51.832 201.544 52.368 202.2 52.72C202.872 53.072 203.6 53.248 204.384 53.248C205.168 53.248 205.888 53.072 206.544 52.72C207.216 52.368 207.752 51.832 208.152 51.112C208.568 50.376 208.776 49.48 208.776 48.424C208.776 47.352 208.568 46.456 208.152 45.736C207.752 45 207.216 44.456 206.544 44.104C205.888 43.752 205.168 43.576 204.384 43.576ZM231.926 41.824L228.134 55H225.782L222.158 44.272L218.51 55H216.134L212.39 41.824H214.598L217.406 52.912L221.054 41.824H223.334L227.006 52.888L229.838 41.824H231.926ZM246.083 47.68C246.083 48.144 246.051 48.544 245.987 48.88H235.451C235.499 50.384 235.923 51.512 236.723 52.264C237.539 53.016 238.531 53.392 239.699 53.392C240.755 53.392 241.635 53.128 242.339 52.6C243.059 52.056 243.499 51.336 243.659 50.44H245.987C245.827 51.352 245.467 52.168 244.907 52.888C244.363 53.608 243.651 54.168 242.771 54.568C241.891 54.968 240.899 55.168 239.795 55.168C238.531 55.168 237.411 54.896 236.435 54.352C235.459 53.808 234.691 53.032 234.131 52.024C233.587 51 233.315 49.8 233.315 48.424C233.315 47.048 233.587 45.848 234.131 44.824C234.691 43.8 235.459 43.016 236.435 42.472C237.411 41.928 238.531 41.656 239.795 41.656C241.075 41.656 242.187 41.928 243.131 42.472C244.091 43.016 244.819 43.744 245.315 44.656C245.827 45.568 246.083 46.576 246.083 47.68ZM243.875 47.824C243.923 46.848 243.763 46.032 243.395 45.376C243.027 44.72 242.523 44.232 241.883 43.912C241.243 43.592 240.547 43.432 239.795 43.432C238.595 43.432 237.587 43.808 236.771 44.56C235.955 45.296 235.515 46.384 235.451 47.824H243.875ZM251.124 44.488C251.556 43.576 252.188 42.872 253.02 42.376C253.852 41.864 254.844 41.608 255.996 41.608V43.984H255.324C254.092 43.984 253.084 44.304 252.3 44.944C251.516 45.568 251.124 46.608 251.124 48.064V55H248.94V41.824H251.124V44.488ZM263.982 38.704C262.814 38.688 261.998 38.888 261.534 39.304C261.086 39.72 260.862 40.44 260.862 41.464V41.824H263.982V43.744H260.862V55H258.678V43.744H256.782V41.824H258.678V41.296C258.678 38.144 260.446 36.64 263.982 36.784V38.704ZM278.066 41.824V55H275.882V51.904C275.546 52.976 274.946 53.8 274.082 54.376C273.234 54.936 272.242 55.216 271.106 55.216C269.586 55.216 268.354 54.728 267.41 53.752C266.466 52.76 265.994 51.344 265.994 49.504V41.824H268.178V49.288C268.178 50.6 268.514 51.616 269.186 52.336C269.858 53.04 270.77 53.392 271.922 53.392C273.122 53.392 274.082 53.008 274.802 52.24C275.522 51.456 275.882 50.32 275.882 48.832V41.824H278.066ZM283.749 37.24V55H281.565V37.24H283.749ZM298.59 41.656C299.87 41.656 300.95 41.976 301.83 42.616C302.726 43.256 303.35 44.112 303.702 45.184V41.824H305.886V55H303.702V51.64C303.35 52.712 302.726 53.568 301.83 54.208C300.95 54.848 299.87 55.168 298.59 55.168C297.422 55.168 296.382 54.896 295.47 54.352C294.558 53.808 293.838 53.032 293.31 52.024C292.798 51 292.542 49.8 292.542 48.424C292.542 47.048 292.798 45.848 293.31 44.824C293.838 43.8 294.558 43.016 295.47 42.472C296.382 41.928 297.422 41.656 298.59 41.656ZM299.214 43.6C297.87 43.6 296.79 44.032 295.974 44.896C295.174 45.744 294.774 46.92 294.774 48.424C294.774 49.928 295.174 51.112 295.974 51.976C296.79 52.824 297.87 53.248 299.214 53.248C300.078 53.248 300.846 53.048 301.518 52.648C302.206 52.248 302.742 51.688 303.126 50.968C303.51 50.232 303.702 49.384 303.702 48.424C303.702 47.464 303.51 46.616 303.126 45.88C302.742 45.144 302.206 44.584 301.518 44.2C300.846 43.8 300.078 43.6 299.214 43.6ZM311.545 37.24V55H309.361V37.24H311.545ZM317.241 37.24V55H315.057V37.24H317.241ZM328.24 45.28V47.128H318.64V45.28H328.24ZM332.157 37.96C332.157 37.56 332.293 37.24 332.565 37C332.837 36.744 333.197 36.616 333.645 36.616C334.093 36.616 334.453 36.744 334.725 37C334.997 37.24 335.133 37.56 335.133 37.96C335.133 38.36 334.997 38.688 334.725 38.944C334.453 39.184 334.093 39.304 333.645 39.304C333.197 39.304 332.837 39.184 332.565 38.944C332.293 38.688 332.157 38.36 332.157 37.96ZM334.725 41.824V55H332.541V41.824H334.725ZM345.172 41.608C346.708 41.608 347.948 42.104 348.892 43.096C349.836 44.072 350.308 45.488 350.308 47.344V55H348.124V47.536C348.124 46.224 347.788 45.216 347.116 44.512C346.444 43.808 345.532 43.456 344.38 43.456C343.18 43.456 342.22 43.848 341.5 44.632C340.78 45.4 340.42 46.528 340.42 48.016V55H338.236V41.824H340.42V44.944C340.756 43.872 341.348 43.048 342.196 42.472C343.06 41.896 344.052 41.608 345.172 41.608ZM361.146 45.28V47.128H351.546V45.28H361.146ZM371.423 41.656C372.687 41.656 373.815 41.928 374.807 42.472C375.815 43.016 376.599 43.8 377.159 44.824C377.735 45.848 378.023 47.048 378.023 48.424C378.023 49.8 377.735 51 377.159 52.024C376.599 53.032 375.815 53.808 374.807 54.352C373.815 54.896 372.687 55.168 371.423 55.168C370.159 55.168 369.023 54.896 368.015 54.352C367.023 53.808 366.239 53.032 365.663 52.024C365.087 51 364.799 49.8 364.799 48.424C364.799 47.048 365.087 45.848 365.663 44.824C366.239 43.8 367.023 43.016 368.015 42.472C369.023 41.928 370.159 41.656 371.423 41.656ZM371.423 43.576C370.639 43.576 369.911 43.752 369.239 44.104C368.583 44.456 368.047 45 367.631 45.736C367.231 46.456 367.031 47.352 367.031 48.424C367.031 49.48 367.231 50.376 367.631 51.112C368.047 51.832 368.583 52.368 369.239 52.72C369.911 53.072 370.639 53.248 371.423 53.248C372.207 53.248 372.927 53.072 373.583 52.72C374.255 52.368 374.791 51.832 375.191 51.112C375.607 50.376 375.815 49.48 375.815 48.424C375.815 47.352 375.607 46.456 375.191 45.736C374.791 45 374.255 44.456 373.583 44.104C372.927 43.752 372.207 43.576 371.423 43.576ZM387.805 41.608C389.341 41.608 390.581 42.104 391.525 43.096C392.469 44.072 392.941 45.488 392.941 47.344V55H390.757V47.536C390.757 46.224 390.421 45.216 389.749 44.512C389.077 43.808 388.165 43.456 387.013 43.456C385.813 43.456 384.853 43.848 384.133 44.632C383.413 45.4 383.053 46.528 383.053 48.016V55H380.869V41.824H383.053V44.944C383.389 43.872 383.981 43.048 384.829 42.472C385.693 41.896 386.685 41.608 387.805 41.608ZM408.411 47.68C408.411 48.144 408.379 48.544 408.315 48.88H397.779C397.827 50.384 398.251 51.512 399.051 52.264C399.867 53.016 400.859 53.392 402.027 53.392C403.083 53.392 403.963 53.128 404.667 52.6C405.387 52.056 405.827 51.336 405.987 50.44H408.315C408.155 51.352 407.795 52.168 407.235 52.888C406.691 53.608 405.979 54.168 405.099 54.568C404.219 54.968 403.227 55.168 402.123 55.168C400.859 55.168 399.739 54.896 398.763 54.352C397.787 53.808 397.019 53.032 396.459 52.024C395.915 51 395.643 49.8 395.643 48.424C395.643 47.048 395.915 45.848 396.459 44.824C397.019 43.8 397.787 43.016 398.763 42.472C399.739 41.928 400.859 41.656 402.123 41.656C403.403 41.656 404.515 41.928 405.459 42.472C406.419 43.016 407.147 43.744 407.643 44.656C408.155 45.568 408.411 46.576 408.411 47.68ZM406.203 47.824C406.251 46.848 406.091 46.032 405.723 45.376C405.355 44.72 404.851 44.232 404.211 43.912C403.571 43.592 402.875 43.432 402.123 43.432C400.923 43.432 399.915 43.808 399.099 44.56C398.283 45.296 397.843 46.384 397.779 47.824H406.203Z" fill="white" fill-opacity="0.6"/>
</svg>
