<svg width="405" height="71" viewBox="0 0 405 71" fill="none" xmlns="http://www.w3.org/2000/svg">
<path d="M0.944 4.784C0.762667 4.176 0.672 3.59467 0.672 3.04C0.672 2.35733 0.842667 1.824 1.184 1.44C1.52533 1.04533 2.02667 0.848 2.688 0.848V1.728C2.41067 1.728 2.20267 1.81333 2.064 1.984C1.936 2.144 1.872 2.39467 1.872 2.736V3.024H2.8V4.784H0.944ZM3.648 4.784C3.46667 4.176 3.376 3.59467 3.376 3.04C3.376 2.35733 3.54667 1.824 3.888 1.44C4.22933 1.04533 4.73067 0.848 5.392 0.848V1.728C5.11467 1.728 4.90667 1.81333 4.768 1.984C4.64 2.144 4.576 2.39467 4.576 2.736V3.024H5.504V4.784H3.648ZM15.9279 2.592C17.3039 2.592 18.4452 2.93333 19.3519 3.616C20.2585 4.288 20.8399 5.2 21.0959 6.352H18.7279C18.5039 5.84 18.1465 5.43467 17.6559 5.136C17.1759 4.82667 16.6052 4.672 15.9439 4.672C15.2932 4.672 14.7172 4.82133 14.2159 5.12C13.7145 5.41867 13.3252 5.84533 13.0479 6.4C12.7705 6.95467 12.6319 7.60533 12.6319 8.352C12.6319 9.536 12.9465 10.4587 13.5759 11.12C14.2159 11.7813 15.0852 12.112 16.1839 12.112C16.9945 12.112 17.6879 11.872 18.2639 11.392C18.8505 10.912 19.2292 10.2453 19.3999 9.392H15.5759V7.776H21.2879V9.952C21.1279 10.6987 20.8132 11.3867 20.3439 12.016C19.8852 12.6453 19.2772 13.152 18.5199 13.536C17.7732 13.9093 16.9145 14.096 15.9439 14.096C14.8345 14.096 13.8532 13.856 12.9999 13.376C12.1572 12.8853 11.5012 12.208 11.0319 11.344C10.5732 10.4693 10.3439 9.472 10.3439 8.352C10.3439 7.232 10.5732 6.24 11.0319 5.376C11.5012 4.50133 12.1572 3.81867 12.9999 3.328C13.8425 2.83733 14.8185 2.592 15.9279 2.592ZM25.2331 2.16V14H22.9771V2.16H25.2331ZM30.746 5.024C31.4927 5.024 32.1327 5.2 32.666 5.552C33.1993 5.904 33.578 6.37867 33.802 6.976V5.136H36.042V14H33.802V12.144C33.578 12.7413 33.1993 13.2213 32.666 13.584C32.1327 13.936 31.4927 14.112 30.746 14.112C29.9993 14.112 29.3273 13.9307 28.73 13.568C28.1327 13.2053 27.6633 12.6827 27.322 12C26.9913 11.3067 26.826 10.496 26.826 9.568C26.826 8.64 26.9913 7.83467 27.322 7.152C27.6633 6.45867 28.1327 5.93067 28.73 5.568C29.3273 5.20533 29.9993 5.024 30.746 5.024ZM31.45 6.992C30.746 6.992 30.1807 7.22133 29.754 7.68C29.3273 8.13867 29.114 8.768 29.114 9.568C29.114 10.368 29.3273 10.9973 29.754 11.456C30.1807 11.904 30.746 12.128 31.45 12.128C32.1327 12.128 32.6927 11.8987 33.13 11.44C33.578 10.9707 33.802 10.3467 33.802 9.568C33.802 8.77867 33.578 8.15467 33.13 7.696C32.6927 7.22667 32.1327 6.992 31.45 6.992ZM46.5665 5.136V14H44.3105V12.208C44.0758 12.8053 43.6865 13.2747 43.1425 13.616C42.6092 13.9467 41.9905 14.112 41.2865 14.112C40.2625 14.112 39.4465 13.776 38.8385 13.104C38.2305 12.432 37.9265 11.4933 37.9265 10.288V5.136H40.1665V10.032C40.1665 10.736 40.3478 11.2853 40.7105 11.68C41.0732 12.064 41.5638 12.256 42.1825 12.256C42.8332 12.256 43.3505 12.048 43.7345 11.632C44.1185 11.216 44.3105 10.6187 44.3105 9.84V5.136H46.5665ZM53.9138 5.024C54.6604 5.024 55.3324 5.20533 55.9298 5.568C56.5271 5.93067 56.9911 6.45867 57.3218 7.152C57.6631 7.83467 57.8338 8.64 57.8338 9.568C57.8338 10.496 57.6631 11.3067 57.3218 12C56.9911 12.6827 56.5271 13.2053 55.9298 13.568C55.3324 13.9307 54.6604 14.112 53.9138 14.112C53.1671 14.112 52.5271 13.936 51.9938 13.584C51.4711 13.2213 51.0978 12.7413 50.8738 12.144V14H48.6178V2.16H50.8738V6.976C51.0978 6.37867 51.4711 5.904 51.9938 5.552C52.5271 5.2 53.1671 5.024 53.9138 5.024ZM53.2098 6.992C52.5271 6.992 51.9618 7.22667 51.5138 7.696C51.0764 8.15467 50.8578 8.77867 50.8578 9.568C50.8578 10.3467 51.0764 10.9707 51.5138 11.44C51.9618 11.8987 52.5271 12.128 53.2098 12.128C53.9138 12.128 54.4791 11.904 54.9058 11.456C55.3324 10.9973 55.5458 10.368 55.5458 9.568C55.5458 8.768 55.3324 8.13867 54.9058 7.68C54.4791 7.22133 53.9138 6.992 53.2098 6.992ZM67.7663 9.232C67.7663 9.456 67.7396 9.712 67.6863 10H61.1903C61.2223 10.7893 61.4356 11.3707 61.8303 11.744C62.2249 12.1173 62.7156 12.304 63.3023 12.304C63.8249 12.304 64.2569 12.176 64.5983 11.92C64.9503 11.664 65.1743 11.3173 65.2703 10.88H67.6543C67.5369 11.4987 67.2863 12.0533 66.9023 12.544C66.5183 13.0347 66.0223 13.4187 65.4143 13.696C64.8169 13.9733 64.1503 14.112 63.4143 14.112C62.5503 14.112 61.7823 13.9307 61.1103 13.568C60.4383 13.1947 59.9156 12.6667 59.5423 11.984C59.1689 11.3013 58.9823 10.496 58.9823 9.568C58.9823 8.64 59.1689 7.83467 59.5423 7.152C59.9156 6.45867 60.4383 5.93067 61.1103 5.568C61.7823 5.20533 62.5503 5.024 63.4143 5.024C64.2889 5.024 65.0516 5.20533 65.7023 5.568C66.3636 5.93067 66.8703 6.432 67.2222 7.072C67.5849 7.70133 67.7663 8.42133 67.7663 9.232ZM65.4943 9.008C65.5263 8.28267 65.3343 7.73333 64.9183 7.36C64.5129 6.98667 64.0116 6.8 63.4143 6.8C62.8063 6.8 62.2943 6.98667 61.8783 7.36C61.4623 7.73333 61.2329 8.28267 61.1903 9.008H65.4943ZM74.6478 5.008C75.6718 5.008 76.4878 5.344 77.0958 6.016C77.7038 6.688 78.0078 7.632 78.0078 8.848V14H75.7678V9.104C75.7678 8.4 75.5864 7.856 75.2238 7.472C74.8611 7.07733 74.3651 6.88 73.7358 6.88C73.0958 6.88 72.5838 7.088 72.1998 7.504C71.8158 7.92 71.6238 8.51733 71.6238 9.296V14H69.3678V5.136H71.6238V6.912C71.8584 6.31467 72.2424 5.85067 72.7758 5.52C73.3198 5.17867 73.9438 5.008 74.6478 5.008ZM87.5731 5.024C88.4371 5.024 89.2105 5.20533 89.8931 5.568C90.5865 5.93067 91.1305 6.45867 91.5251 7.152C91.9198 7.83467 92.1171 8.64 92.1171 9.568C92.1171 10.496 91.9198 11.3013 91.5251 11.984C91.1305 12.6667 90.5865 13.1947 89.8931 13.568C89.2105 13.9307 88.4371 14.112 87.5731 14.112C86.7091 14.112 85.9305 13.9307 85.2371 13.568C84.5545 13.1947 84.0158 12.6667 83.6211 11.984C83.2265 11.3013 83.0291 10.496 83.0291 9.568C83.0291 8.64 83.2265 7.83467 83.6211 7.152C84.0158 6.45867 84.5545 5.93067 85.2371 5.568C85.9305 5.20533 86.7091 5.024 87.5731 5.024ZM87.5731 6.976C86.9438 6.976 86.4105 7.2 85.9731 7.648C85.5358 8.08533 85.3171 8.72533 85.3171 9.568C85.3171 10.4107 85.5358 11.056 85.9731 11.504C86.4105 11.9413 86.9438 12.16 87.5731 12.16C88.2025 12.16 88.7358 11.9413 89.1731 11.504C89.6105 11.056 89.8291 10.4107 89.8291 9.568C89.8291 8.72533 89.6105 8.08533 89.1731 7.648C88.7358 7.2 88.2025 6.976 87.5731 6.976ZM97.1835 5.024C97.9302 5.024 98.5648 5.2 99.0875 5.552C99.6208 5.904 100.005 6.37867 100.24 6.976V2.16H102.48V14H100.24V12.144C100.005 12.7413 99.6208 13.2213 99.0875 13.584C98.5648 13.936 97.9302 14.112 97.1835 14.112C96.4368 14.112 95.7648 13.9307 95.1675 13.568C94.5702 13.2053 94.1008 12.6827 93.7595 12C93.4288 11.3067 93.2635 10.496 93.2635 9.568C93.2635 8.64 93.4288 7.83467 93.7595 7.152C94.1008 6.45867 94.5702 5.93067 95.1675 5.568C95.7648 5.20533 96.4368 5.024 97.1835 5.024ZM97.8875 6.992C97.1835 6.992 96.6182 7.22133 96.1915 7.68C95.7648 8.13867 95.5515 8.768 95.5515 9.568C95.5515 10.368 95.7648 10.9973 96.1915 11.456C96.6182 11.904 97.1835 12.128 97.8875 12.128C98.5702 12.128 99.1302 11.8987 99.5675 11.44C100.016 10.9707 100.24 10.3467 100.24 9.568C100.24 8.77867 100.016 8.15467 99.5675 7.696C99.1302 7.22667 98.5702 6.992 97.8875 6.992ZM112.86 9.232C112.86 9.456 112.833 9.712 112.78 10H106.284C106.316 10.7893 106.529 11.3707 106.924 11.744C107.319 12.1173 107.809 12.304 108.396 12.304C108.919 12.304 109.351 12.176 109.692 11.92C110.044 11.664 110.268 11.3173 110.364 10.88H112.748C112.631 11.4987 112.38 12.0533 111.996 12.544C111.612 13.0347 111.116 13.4187 110.508 13.696C109.911 13.9733 109.244 14.112 108.508 14.112C107.644 14.112 106.876 13.9307 106.204 13.568C105.532 13.1947 105.009 12.6667 104.636 11.984C104.263 11.3013 104.076 10.496 104.076 9.568C104.076 8.64 104.263 7.83467 104.636 7.152C105.009 6.45867 105.532 5.93067 106.204 5.568C106.876 5.20533 107.644 5.024 108.508 5.024C109.383 5.024 110.145 5.20533 110.796 5.568C111.457 5.93067 111.964 6.432 112.316 7.072C112.679 7.70133 112.86 8.42133 112.86 9.232ZM110.588 9.008C110.62 8.28267 110.428 7.73333 110.012 7.36C109.607 6.98667 109.105 6.8 108.508 6.8C107.9 6.8 107.388 6.98667 106.972 7.36C106.556 7.73333 106.327 8.28267 106.284 9.008H110.588ZM116.718 6.832C117.048 6.26667 117.486 5.824 118.03 5.504C118.574 5.17333 119.182 5.008 119.854 5.008V7.424H119.198C117.544 7.424 116.718 8.192 116.718 9.728V14H114.462V5.136H116.718V6.832ZM129.867 5.008C130.891 5.008 131.707 5.344 132.315 6.016C132.923 6.688 133.227 7.632 133.227 8.848V14H130.987V9.104C130.987 8.4 130.805 7.856 130.443 7.472C130.08 7.07733 129.584 6.88 128.955 6.88C128.315 6.88 127.803 7.088 127.419 7.504C127.035 7.92 126.843 8.51733 126.843 9.296V14H124.587V5.136H126.843V6.912C127.077 6.31467 127.461 5.85067 127.995 5.52C128.539 5.17867 129.163 5.008 129.867 5.008ZM134.956 2.592C134.956 2.22933 135.084 1.936 135.34 1.712C135.596 1.47733 135.932 1.36 136.348 1.36C136.764 1.36 137.1 1.47733 137.356 1.712C137.612 1.936 137.74 2.22933 137.74 2.592C137.74 2.944 137.612 3.23733 137.356 3.472C137.1 3.696 136.764 3.808 136.348 3.808C135.932 3.808 135.596 3.696 135.34 3.472C135.084 3.23733 134.956 2.944 134.956 2.592ZM137.468 5.136V14H135.212V5.136H137.468ZM143.492 5.024C144.634 5.024 145.583 5.33333 146.34 5.952C147.108 6.57067 147.588 7.41333 147.78 8.48H145.396C145.3 8.01067 145.082 7.64267 144.74 7.376C144.399 7.09867 143.967 6.96 143.444 6.96C142.847 6.96 142.346 7.184 141.94 7.632C141.546 8.06933 141.348 8.71467 141.348 9.568C141.348 10.4213 141.546 11.072 141.94 11.52C142.346 11.9573 142.847 12.176 143.444 12.176C143.967 12.176 144.399 12.0427 144.74 11.776C145.082 11.4987 145.3 11.1253 145.396 10.656H147.78C147.588 11.7227 147.108 12.5653 146.34 13.184C145.583 13.8027 144.634 14.112 143.492 14.112C142.628 14.112 141.86 13.9307 141.188 13.568C140.516 13.1947 139.994 12.6667 139.62 11.984C139.247 11.3013 139.06 10.496 139.06 9.568C139.06 8.64 139.247 7.83467 139.62 7.152C139.994 6.45867 140.516 5.93067 141.188 5.568C141.86 5.20533 142.628 5.024 143.492 5.024ZM154.663 5.008C155.687 5.008 156.503 5.344 157.111 6.016C157.719 6.688 158.023 7.632 158.023 8.848V14H155.783V9.104C155.783 8.4 155.602 7.856 155.239 7.472C154.877 7.07733 154.381 6.88 153.751 6.88C153.111 6.88 152.599 7.088 152.215 7.504C151.831 7.92 151.639 8.51733 151.639 9.296V14H149.383V2.16H151.639V6.912C151.874 6.31467 152.258 5.85067 152.791 5.52C153.335 5.17867 153.959 5.008 154.663 5.008ZM164.744 12.064V14H163.56C162.568 14 161.806 13.76 161.272 13.28C160.75 12.8 160.488 12 160.488 10.88V7.04H159.256V5.136H160.488V2.944H162.744V5.136H164.728V7.04H162.744V10.912C162.744 11.3387 162.83 11.6373 163 11.808C163.171 11.9787 163.459 12.064 163.864 12.064H164.744ZM173.324 5.024C174.071 5.024 174.711 5.2 175.244 5.552C175.777 5.904 176.156 6.37867 176.38 6.976V5.136H178.62V14.032C178.62 14.8533 178.455 15.5893 178.124 16.24C177.804 16.9013 177.319 17.4187 176.668 17.792C176.028 18.1653 175.249 18.352 174.332 18.352C173.052 18.352 172.017 18.048 171.228 17.44C170.439 16.832 169.959 16.0053 169.788 14.96H172.012C172.14 15.408 172.385 15.7547 172.748 16C173.121 16.256 173.596 16.384 174.172 16.384C174.833 16.384 175.367 16.1867 175.772 15.792C176.177 15.408 176.38 14.8213 176.38 14.032V12.144C176.156 12.7413 175.777 13.2213 175.244 13.584C174.711 13.936 174.071 14.112 173.324 14.112C172.577 14.112 171.905 13.9307 171.308 13.568C170.711 13.2053 170.241 12.6827 169.9 12C169.569 11.3067 169.404 10.496 169.404 9.568C169.404 8.64 169.569 7.83467 169.9 7.152C170.241 6.45867 170.711 5.93067 171.308 5.568C171.905 5.20533 172.577 5.024 173.324 5.024ZM174.028 6.992C173.324 6.992 172.759 7.22133 172.332 7.68C171.905 8.13867 171.692 8.768 171.692 9.568C171.692 10.368 171.905 10.9973 172.332 11.456C172.759 11.904 173.324 12.128 174.028 12.128C174.711 12.128 175.271 11.8987 175.708 11.44C176.156 10.9707 176.38 10.3467 176.38 9.568C176.38 8.77867 176.156 8.15467 175.708 7.696C175.271 7.22667 174.711 6.992 174.028 6.992ZM182.921 2.16V14H180.665V2.16H182.921ZM188.434 5.024C189.18 5.024 189.82 5.2 190.354 5.552C190.887 5.904 191.266 6.37867 191.49 6.976V5.136H193.73V14H191.49V12.144C191.266 12.7413 190.887 13.2213 190.354 13.584C189.82 13.936 189.18 14.112 188.434 14.112C187.687 14.112 187.015 13.9307 186.418 13.568C185.82 13.2053 185.351 12.6827 185.01 12C184.679 11.3067 184.514 10.496 184.514 9.568C184.514 8.64 184.679 7.83467 185.01 7.152C185.351 6.45867 185.82 5.93067 186.418 5.568C187.015 5.20533 187.687 5.024 188.434 5.024ZM189.138 6.992C188.434 6.992 187.868 7.22133 187.442 7.68C187.015 8.13867 186.802 8.768 186.802 9.568C186.802 10.368 187.015 10.9973 187.442 11.456C187.868 11.904 188.434 12.128 189.138 12.128C189.82 12.128 190.38 11.8987 190.818 11.44C191.266 10.9707 191.49 10.3467 191.49 9.568C191.49 8.77867 191.266 8.15467 190.818 7.696C190.38 7.22667 189.82 6.992 189.138 6.992ZM204.254 5.136V14H201.998V12.208C201.763 12.8053 201.374 13.2747 200.83 13.616C200.297 13.9467 199.678 14.112 198.974 14.112C197.95 14.112 197.134 13.776 196.526 13.104C195.918 12.432 195.614 11.4933 195.614 10.288V5.136H197.854V10.032C197.854 10.736 198.035 11.2853 198.398 11.68C198.761 12.064 199.251 12.256 199.87 12.256C200.521 12.256 201.038 12.048 201.422 11.632C201.806 11.216 201.998 10.6187 201.998 9.84V5.136H204.254ZM211.601 5.024C212.348 5.024 213.02 5.20533 213.617 5.568C214.215 5.93067 214.679 6.45867 215.009 7.152C215.351 7.83467 215.521 8.64 215.521 9.568C215.521 10.496 215.351 11.3067 215.009 12C214.679 12.6827 214.215 13.2053 213.617 13.568C213.02 13.9307 212.348 14.112 211.601 14.112C210.855 14.112 210.215 13.936 209.681 13.584C209.159 13.2213 208.785 12.7413 208.561 12.144V14H206.305V2.16H208.561V6.976C208.785 6.37867 209.159 5.904 209.681 5.552C210.215 5.2 210.855 5.024 211.601 5.024ZM210.897 6.992C210.215 6.992 209.649 7.22667 209.201 7.696C208.764 8.15467 208.545 8.77867 208.545 9.568C208.545 10.3467 208.764 10.9707 209.201 11.44C209.649 11.8987 210.215 12.128 210.897 12.128C211.601 12.128 212.167 11.904 212.593 11.456C213.02 10.9973 213.233 10.368 213.233 9.568C213.233 8.768 213.02 8.13867 212.593 7.68C212.167 7.22133 211.601 6.992 210.897 6.992ZM225.454 9.232C225.454 9.456 225.427 9.712 225.374 10H218.878C218.91 10.7893 219.123 11.3707 219.518 11.744C219.912 12.1173 220.403 12.304 220.99 12.304C221.512 12.304 221.944 12.176 222.286 11.92C222.638 11.664 222.862 11.3173 222.958 10.88H225.342C225.224 11.4987 224.974 12.0533 224.59 12.544C224.206 13.0347 223.71 13.4187 223.102 13.696C222.504 13.9733 221.838 14.112 221.102 14.112C220.238 14.112 219.47 13.9307 218.798 13.568C218.126 13.1947 217.603 12.6667 217.23 11.984C216.856 11.3013 216.67 10.496 216.67 9.568C216.67 8.64 216.856 7.83467 217.23 7.152C217.603 6.45867 218.126 5.93067 218.798 5.568C219.47 5.20533 220.238 5.024 221.102 5.024C221.976 5.024 222.739 5.20533 223.39 5.568C224.051 5.93067 224.558 6.432 224.91 7.072C225.272 7.70133 225.454 8.42133 225.454 9.232ZM223.182 9.008C223.214 8.28267 223.022 7.73333 222.606 7.36C222.2 6.98667 221.699 6.8 221.102 6.8C220.494 6.8 219.982 6.98667 219.566 7.36C219.15 7.73333 218.92 8.28267 218.878 9.008H223.182ZM232.335 5.008C233.359 5.008 234.175 5.344 234.783 6.016C235.391 6.688 235.695 7.632 235.695 8.848V14H233.455V9.104C233.455 8.4 233.274 7.856 232.911 7.472C232.549 7.07733 232.053 6.88 231.423 6.88C230.783 6.88 230.271 7.088 229.887 7.504C229.503 7.92 229.311 8.51733 229.311 9.296V14H227.055V5.136H229.311V6.912C229.546 6.31467 229.93 5.85067 230.463 5.52C231.007 5.17867 231.631 5.008 232.335 5.008ZM239.104 12.544C239.36 13.12 239.488 13.7013 239.488 14.288C239.488 14.9493 239.312 15.4933 238.96 15.92C238.619 16.3467 238.086 16.56 237.36 16.56V15.696C237.638 15.696 237.84 15.6267 237.968 15.488C238.096 15.36 238.16 15.1253 238.16 14.784V14.624H237.136V12.544H239.104ZM246.843 12.272H250.635V14H244.587V2.704H246.843V12.272ZM256.073 5.024C256.937 5.024 257.71 5.20533 258.393 5.568C259.086 5.93067 259.63 6.45867 260.025 7.152C260.42 7.83467 260.617 8.64 260.617 9.568C260.617 10.496 260.42 11.3013 260.025 11.984C259.63 12.6667 259.086 13.1947 258.393 13.568C257.71 13.9307 256.937 14.112 256.073 14.112C255.209 14.112 254.43 13.9307 253.737 13.568C253.054 13.1947 252.516 12.6667 252.121 11.984C251.726 11.3013 251.529 10.496 251.529 9.568C251.529 8.64 251.726 7.83467 252.121 7.152C252.516 6.45867 253.054 5.93067 253.737 5.568C254.43 5.20533 255.209 5.024 256.073 5.024ZM256.073 6.976C255.444 6.976 254.91 7.2 254.473 7.648C254.036 8.08533 253.817 8.72533 253.817 9.568C253.817 10.4107 254.036 11.056 254.473 11.504C254.91 11.9413 255.444 12.16 256.073 12.16C256.702 12.16 257.236 11.9413 257.673 11.504C258.11 11.056 258.329 10.4107 258.329 9.568C258.329 8.72533 258.11 8.08533 257.673 7.648C257.236 7.2 256.702 6.976 256.073 6.976ZM264.468 6.832C264.798 6.26667 265.236 5.824 265.78 5.504C266.324 5.17333 266.932 5.008 267.604 5.008V7.424H266.948C265.294 7.424 264.468 8.192 264.468 9.728V14H262.212V5.136H264.468V6.832ZM277.188 9.232C277.188 9.456 277.161 9.712 277.108 10H270.612C270.644 10.7893 270.857 11.3707 271.252 11.744C271.647 12.1173 272.137 12.304 272.724 12.304C273.247 12.304 273.679 12.176 274.02 11.92C274.372 11.664 274.596 11.3173 274.692 10.88H277.076C276.959 11.4987 276.708 12.0533 276.324 12.544C275.94 13.0347 275.444 13.4187 274.836 13.696C274.239 13.9733 273.572 14.112 272.836 14.112C271.972 14.112 271.204 13.9307 270.532 13.568C269.86 13.1947 269.337 12.6667 268.964 11.984C268.591 11.3013 268.404 10.496 268.404 9.568C268.404 8.64 268.591 7.83467 268.964 7.152C269.337 6.45867 269.86 5.93067 270.532 5.568C271.204 5.20533 271.972 5.024 272.836 5.024C273.711 5.024 274.473 5.20533 275.124 5.568C275.785 5.93067 276.292 6.432 276.644 7.072C277.007 7.70133 277.188 8.42133 277.188 9.232ZM274.916 9.008C274.948 8.28267 274.756 7.73333 274.34 7.36C273.935 6.98667 273.433 6.8 272.836 6.8C272.228 6.8 271.716 6.98667 271.3 7.36C270.884 7.73333 270.655 8.28267 270.612 9.008H274.916ZM290.07 5.008C291.147 5.008 291.995 5.344 292.614 6.016C293.243 6.67733 293.558 7.62133 293.558 8.848V14H291.318V9.104C291.318 8.42133 291.142 7.89867 290.79 7.536C290.448 7.16267 289.974 6.976 289.366 6.976C288.736 6.976 288.235 7.17333 287.862 7.568C287.488 7.96267 287.302 8.53867 287.302 9.296V14H285.062V9.104C285.062 8.42133 284.886 7.89867 284.534 7.536C284.192 7.16267 283.718 6.976 283.11 6.976C282.48 6.976 281.979 7.17333 281.606 7.568C281.232 7.96267 281.046 8.53867 281.046 9.296V14H278.79V5.136H281.046V6.816C281.28 6.24 281.648 5.79733 282.15 5.488C282.662 5.168 283.254 5.008 283.926 5.008C284.64 5.008 285.259 5.17867 285.782 5.52C286.315 5.86133 286.715 6.352 286.982 6.992C287.259 6.384 287.67 5.904 288.214 5.552C288.768 5.18933 289.387 5.008 290.07 5.008ZM301.28 2.704V14H299.024V2.704H301.28ZM308.617 5.024C309.364 5.024 310.036 5.20533 310.633 5.568C311.23 5.93067 311.694 6.45867 312.025 7.152C312.366 7.83467 312.537 8.64 312.537 9.568C312.537 10.496 312.366 11.3067 312.025 12C311.694 12.6827 311.23 13.2053 310.633 13.568C310.036 13.9307 309.364 14.112 308.617 14.112C307.87 14.112 307.23 13.936 306.697 13.584C306.174 13.2213 305.801 12.7413 305.577 12.144V18.224H303.321V5.136H305.577V6.976C305.801 6.37867 306.174 5.904 306.697 5.552C307.23 5.2 307.87 5.024 308.617 5.024ZM307.913 6.992C307.23 6.992 306.665 7.22667 306.217 7.696C305.78 8.15467 305.561 8.77867 305.561 9.568C305.561 10.3467 305.78 10.9707 306.217 11.44C306.665 11.8987 307.23 12.128 307.913 12.128C308.617 12.128 309.182 11.904 309.609 11.456C310.036 10.9973 310.249 10.368 310.249 9.568C310.249 8.768 310.036 8.13867 309.609 7.68C309.182 7.22133 308.617 6.992 307.913 6.992ZM317.189 5.024C318.267 5.024 319.131 5.296 319.781 5.84C320.432 6.384 320.837 7.10933 320.997 8.016H318.885C318.8 7.58933 318.608 7.248 318.309 6.992C318.011 6.736 317.621 6.608 317.141 6.608C316.757 6.608 316.459 6.69867 316.245 6.88C316.032 7.06133 315.925 7.30667 315.925 7.616C315.925 7.86133 316.011 8.05867 316.181 8.208C316.352 8.35733 316.565 8.47467 316.821 8.56C317.077 8.64533 317.445 8.74667 317.925 8.864C318.597 9.01333 319.141 9.17333 319.557 9.344C319.984 9.504 320.347 9.76533 320.645 10.128C320.955 10.48 321.109 10.96 321.109 11.568C321.109 12.3253 320.811 12.9387 320.213 13.408C319.627 13.8773 318.832 14.112 317.829 14.112C316.677 14.112 315.755 13.856 315.061 13.344C314.368 12.8213 313.947 12.08 313.797 11.12H315.957C316.011 11.5573 316.203 11.904 316.533 12.16C316.864 12.4053 317.296 12.528 317.829 12.528C318.213 12.528 318.507 12.4373 318.709 12.256C318.912 12.064 319.013 11.8187 319.013 11.52C319.013 11.264 318.923 11.056 318.741 10.896C318.571 10.736 318.352 10.6133 318.085 10.528C317.829 10.4427 317.461 10.3413 316.981 10.224C316.32 10.0747 315.781 9.92533 315.365 9.776C314.96 9.616 314.608 9.36533 314.309 9.024C314.021 8.68267 313.877 8.21333 313.877 7.616C313.877 6.848 314.171 6.224 314.757 5.744C315.344 5.264 316.155 5.024 317.189 5.024ZM331.27 5.136V14H329.014V12.208C328.779 12.8053 328.39 13.2747 327.846 13.616C327.312 13.9467 326.694 14.112 325.99 14.112C324.966 14.112 324.15 13.776 323.542 13.104C322.934 12.432 322.63 11.4933 322.63 10.288V5.136H324.87V10.032C324.87 10.736 325.051 11.2853 325.414 11.68C325.776 12.064 326.267 12.256 326.886 12.256C327.536 12.256 328.054 12.048 328.438 11.632C328.822 11.216 329.014 10.6187 329.014 9.84V5.136H331.27ZM344.601 5.008C345.678 5.008 346.526 5.344 347.145 6.016C347.774 6.67733 348.089 7.62133 348.089 8.848V14H345.849V9.104C345.849 8.42133 345.673 7.89867 345.321 7.536C344.98 7.16267 344.505 6.976 343.897 6.976C343.268 6.976 342.766 7.17333 342.393 7.568C342.02 7.96267 341.833 8.53867 341.833 9.296V14H339.593V9.104C339.593 8.42133 339.417 7.89867 339.065 7.536C338.724 7.16267 338.249 6.976 337.641 6.976C337.012 6.976 336.51 7.17333 336.137 7.568C335.764 7.96267 335.577 8.53867 335.577 9.296V14H333.321V5.136H335.577V6.816C335.812 6.24 336.18 5.79733 336.681 5.488C337.193 5.168 337.785 5.008 338.457 5.008C339.172 5.008 339.79 5.17867 340.313 5.52C340.846 5.86133 341.246 6.352 341.513 6.992C341.79 6.384 342.201 5.904 342.745 5.552C343.3 5.18933 343.918 5.008 344.601 5.008ZM353.299 2.592C353.299 2.22933 353.427 1.936 353.683 1.712C353.939 1.47733 354.275 1.36 354.691 1.36C355.107 1.36 355.443 1.47733 355.699 1.712C355.955 1.936 356.083 2.22933 356.083 2.592C356.083 2.944 355.955 3.23733 355.699 3.472C355.443 3.696 355.107 3.808 354.691 3.808C354.275 3.808 353.939 3.696 353.683 3.472C353.427 3.23733 353.299 2.944 353.299 2.592ZM355.811 5.136V14H353.555V5.136H355.811ZM360.908 5.024C361.985 5.024 362.849 5.296 363.5 5.84C364.151 6.384 364.556 7.10933 364.716 8.016H362.604C362.519 7.58933 362.327 7.248 362.028 6.992C361.729 6.736 361.34 6.608 360.86 6.608C360.476 6.608 360.177 6.69867 359.964 6.88C359.751 7.06133 359.644 7.30667 359.644 7.616C359.644 7.86133 359.729 8.05867 359.9 8.208C360.071 8.35733 360.284 8.47467 360.54 8.56C360.796 8.64533 361.164 8.74667 361.644 8.864C362.316 9.01333 362.86 9.17333 363.276 9.344C363.703 9.504 364.065 9.76533 364.364 10.128C364.673 10.48 364.828 10.96 364.828 11.568C364.828 12.3253 364.529 12.9387 363.932 13.408C363.345 13.8773 362.551 14.112 361.548 14.112C360.396 14.112 359.473 13.856 358.78 13.344C358.087 12.8213 357.665 12.08 357.516 11.12H359.676C359.729 11.5573 359.921 11.904 360.252 12.16C360.583 12.4053 361.015 12.528 361.548 12.528C361.932 12.528 362.225 12.4373 362.428 12.256C362.631 12.064 362.732 11.8187 362.732 11.52C362.732 11.264 362.641 11.056 362.46 10.896C362.289 10.736 362.071 10.6133 361.804 10.528C361.548 10.4427 361.18 10.3413 360.7 10.224C360.039 10.0747 359.5 9.92533 359.084 9.776C358.679 9.616 358.327 9.36533 358.028 9.024C357.74 8.68267 357.596 8.21333 357.596 7.616C357.596 6.848 357.889 6.224 358.476 5.744C359.063 5.264 359.873 5.024 360.908 5.024ZM371.244 12.064V14H370.06C369.068 14 368.306 13.76 367.772 13.28C367.25 12.8 366.988 12 366.988 10.88V7.04H365.756V5.136H366.988V2.944H369.244V5.136H371.228V7.04H369.244V10.912C369.244 11.3387 369.33 11.6373 369.5 11.808C369.671 11.9787 369.959 12.064 370.364 12.064H371.244ZM6.304 33.008C7.328 33.008 8.144 33.344 8.752 34.016C9.36 34.688 9.664 35.632 9.664 36.848V42H7.424V37.104C7.424 36.4 7.24267 35.856 6.88 35.472C6.51733 35.0773 6.02133 34.88 5.392 34.88C4.752 34.88 4.24 35.088 3.856 35.504C3.472 35.92 3.28 36.5173 3.28 37.296V42H1.024V33.136H3.28V34.912C3.51467 34.3147 3.89867 33.8507 4.432 33.52C4.976 33.1787 5.6 33.008 6.304 33.008ZM11.393 30.592C11.393 30.2293 11.521 29.936 11.777 29.712C12.033 29.4773 12.369 29.36 12.785 29.36C13.201 29.36 13.537 29.4773 13.793 29.712C14.049 29.936 14.177 30.2293 14.177 30.592C14.177 30.944 14.049 31.2373 13.793 31.472C13.537 31.696 13.201 31.808 12.785 31.808C12.369 31.808 12.033 31.696 11.777 31.472C11.521 31.2373 11.393 30.944 11.393 30.592ZM13.905 33.136V42H11.649V33.136H13.905ZM19.9299 33.024C21.0712 33.024 22.0205 33.3333 22.7779 33.952C23.5459 34.5707 24.0259 35.4133 24.2179 36.48H21.8339C21.7379 36.0107 21.5192 35.6427 21.1779 35.376C20.8365 35.0987 20.4045 34.96 19.8819 34.96C19.2845 34.96 18.7832 35.184 18.3779 35.632C17.9832 36.0693 17.7859 36.7147 17.7859 37.568C17.7859 38.4213 17.9832 39.072 18.3779 39.52C18.7832 39.9573 19.2845 40.176 19.8819 40.176C20.4045 40.176 20.8365 40.0427 21.1779 39.776C21.5192 39.4987 21.7379 39.1253 21.8339 38.656H24.2179C24.0259 39.7227 23.5459 40.5653 22.7779 41.184C22.0205 41.8027 21.0712 42.112 19.9299 42.112C19.0659 42.112 18.2979 41.9307 17.6259 41.568C16.9539 41.1947 16.4312 40.6667 16.0579 39.984C15.6845 39.3013 15.4979 38.496 15.4979 37.568C15.4979 36.64 15.6845 35.8347 16.0579 35.152C16.4312 34.4587 16.9539 33.9307 17.6259 33.568C18.2979 33.2053 19.0659 33.024 19.9299 33.024ZM31.1009 33.008C32.1249 33.008 32.9409 33.344 33.5489 34.016C34.1569 34.688 34.4609 35.632 34.4609 36.848V42H32.2209V37.104C32.2209 36.4 32.0395 35.856 31.6769 35.472C31.3142 35.0773 30.8182 34.88 30.1889 34.88C29.5489 34.88 29.0369 35.088 28.6529 35.504C28.2689 35.92 28.0769 36.5173 28.0769 37.296V42H25.8209V30.16H28.0769V34.912C28.3115 34.3147 28.6955 33.8507 29.2289 33.52C29.7729 33.1787 30.3969 33.008 31.1009 33.008ZM41.1819 40.064V42H39.9979C39.0059 42 38.2432 41.76 37.7099 41.28C37.1872 40.8 36.9259 40 36.9259 38.88V35.04H35.6939V33.136H36.9259V30.944H39.1819V33.136H41.1659V35.04H39.1819V38.912C39.1819 39.3387 39.2672 39.6373 39.4379 39.808C39.6085 39.9787 39.8965 40.064 40.3019 40.064H41.1819ZM51.5696 33.008C52.5936 33.008 53.4096 33.344 54.0176 34.016C54.6256 34.688 54.9296 35.632 54.9296 36.848V42H52.6896V37.104C52.6896 36.4 52.5083 35.856 52.1456 35.472C51.783 35.0773 51.287 34.88 50.6576 34.88C50.0176 34.88 49.5056 35.088 49.1216 35.504C48.7376 35.92 48.5456 36.5173 48.5456 37.296V42H46.2896V33.136H48.5456V34.912C48.7803 34.3147 49.1643 33.8507 49.6976 33.52C50.2416 33.1787 50.8656 33.008 51.5696 33.008ZM65.3946 33.136V42H63.1386V40.208C62.904 40.8053 62.5146 41.2747 61.9706 41.616C61.4373 41.9467 60.8186 42.112 60.1146 42.112C59.0906 42.112 58.2746 41.776 57.6666 41.104C57.0586 40.432 56.7546 39.4933 56.7546 38.288V33.136H58.9946V38.032C58.9946 38.736 59.176 39.2853 59.5386 39.68C59.9013 40.064 60.392 40.256 61.0106 40.256C61.6613 40.256 62.1786 40.048 62.5626 39.632C62.9466 39.216 63.1386 38.6187 63.1386 37.84V33.136H65.3946ZM69.7019 34.832C70.0325 34.2667 70.4699 33.824 71.0139 33.504C71.5579 33.1733 72.1659 33.008 72.8379 33.008V35.424H72.1819C70.5285 35.424 69.7019 36.192 69.7019 37.728V42H67.4459V33.136H69.7019V34.832ZM85.9069 37.232C85.9069 37.456 85.8802 37.712 85.8269 38H79.3309C79.3629 38.7893 79.5762 39.3707 79.9709 39.744C80.3655 40.1173 80.8562 40.304 81.4429 40.304C81.9655 40.304 82.3975 40.176 82.7389 39.92C83.0909 39.664 83.3149 39.3173 83.4109 38.88H85.7949C85.6775 39.4987 85.4269 40.0533 85.0429 40.544C84.6589 41.0347 84.1629 41.4187 83.5549 41.696C82.9575 41.9733 82.2909 42.112 81.5549 42.112C80.6909 42.112 79.9229 41.9307 79.2509 41.568C78.5789 41.1947 78.0562 40.6667 77.6829 39.984C77.3095 39.3013 77.1229 38.496 77.1229 37.568C77.1229 36.64 77.3095 35.8347 77.6829 35.152C78.0562 34.4587 78.5789 33.9307 79.2509 33.568C79.9229 33.2053 80.6909 33.024 81.5549 33.024C82.4295 33.024 83.1922 33.2053 83.8429 33.568C84.5042 33.9307 85.0109 34.432 85.3629 35.072C85.7255 35.7013 85.9069 36.4213 85.9069 37.232ZM83.6349 37.008C83.6669 36.2827 83.4749 35.7333 83.0589 35.36C82.6535 34.9867 82.1522 34.8 81.5549 34.8C80.9469 34.8 80.4349 34.9867 80.0189 35.36C79.6029 35.7333 79.3735 36.2827 79.3309 37.008H83.6349ZM87.2524 30.592C87.2524 30.2293 87.3804 29.936 87.6364 29.712C87.8924 29.4773 88.2284 29.36 88.6444 29.36C89.0604 29.36 89.3964 29.4773 89.6524 29.712C89.9084 29.936 90.0364 30.2293 90.0364 30.592C90.0364 30.944 89.9084 31.2373 89.6524 31.472C89.3964 31.696 89.0604 31.808 88.6444 31.808C88.2284 31.808 87.8924 31.696 87.6364 31.472C87.3804 31.2373 87.2524 30.944 87.2524 30.592ZM89.7644 33.136V42H87.5084V33.136H89.7644ZM97.0853 33.008C98.1093 33.008 98.9253 33.344 99.5333 34.016C100.141 34.688 100.445 35.632 100.445 36.848V42H98.2053V37.104C98.2053 36.4 98.0239 35.856 97.6613 35.472C97.2986 35.0773 96.8026 34.88 96.1733 34.88C95.5333 34.88 95.0213 35.088 94.6373 35.504C94.2533 35.92 94.0613 36.5173 94.0613 37.296V42H91.8053V33.136H94.0613V34.912C94.2959 34.3147 94.6799 33.8507 95.2133 33.52C95.7573 33.1787 96.3813 33.008 97.0853 33.008ZM107.739 40.112H112.091V42H105.275V40.208L109.355 35.008H105.371V33.136H111.931V34.912L107.739 40.112ZM121.973 33.136V42H119.717V40.208C119.482 40.8053 119.093 41.2747 118.549 41.616C118.015 41.9467 117.397 42.112 116.693 42.112C115.669 42.112 114.853 41.776 114.245 41.104C113.637 40.432 113.333 39.4933 113.333 38.288V33.136H115.573V38.032C115.573 38.736 115.754 39.2853 116.117 39.68C116.479 40.064 116.97 40.256 117.589 40.256C118.239 40.256 118.757 40.048 119.141 39.632C119.525 39.216 119.717 38.6187 119.717 37.84V33.136H121.973ZM128.408 31.6C127.747 31.5573 127.283 31.6533 127.016 31.888C126.749 32.1227 126.616 32.5333 126.616 33.12V33.136H128.408V35.04H126.616V42H124.36V35.04H123.224V33.136H124.36V32.928C124.36 31.872 124.659 31.0613 125.256 30.496C125.864 29.92 126.76 29.632 127.944 29.632C128.147 29.632 128.301 29.6373 128.408 29.648V31.6ZM133.23 33.024C133.977 33.024 134.617 33.2 135.15 33.552C135.684 33.904 136.062 34.3787 136.286 34.976V33.136H138.526V42H136.286V40.144C136.062 40.7413 135.684 41.2213 135.15 41.584C134.617 41.936 133.977 42.112 133.23 42.112C132.484 42.112 131.812 41.9307 131.214 41.568C130.617 41.2053 130.148 40.6827 129.806 40C129.476 39.3067 129.31 38.496 129.31 37.568C129.31 36.64 129.476 35.8347 129.806 35.152C130.148 34.4587 130.617 33.9307 131.214 33.568C131.812 33.2053 132.484 33.024 133.23 33.024ZM133.934 34.992C133.23 34.992 132.665 35.2213 132.238 35.68C131.812 36.1387 131.598 36.768 131.598 37.568C131.598 38.368 131.812 38.9973 132.238 39.456C132.665 39.904 133.23 40.128 133.934 40.128C134.617 40.128 135.177 39.8987 135.614 39.44C136.062 38.9707 136.286 38.3467 136.286 37.568C136.286 36.7787 136.062 36.1547 135.614 35.696C135.177 35.2267 134.617 34.992 133.934 34.992ZM131.406 31.024C131.406 30.736 131.502 30.496 131.694 30.304C131.897 30.1013 132.137 30 132.414 30C132.713 30 132.958 30.1013 133.15 30.304C133.342 30.496 133.438 30.736 133.438 31.024C133.438 31.3013 133.342 31.5413 133.15 31.744C132.958 31.936 132.713 32.032 132.414 32.032C132.137 32.032 131.897 31.936 131.694 31.744C131.502 31.5413 131.406 31.3013 131.406 31.024ZM134.43 31.024C134.43 30.736 134.526 30.496 134.718 30.304C134.91 30.1013 135.15 30 135.438 30C135.726 30 135.966 30.1013 136.158 30.304C136.361 30.496 136.462 30.736 136.462 31.024C136.462 31.3013 136.361 31.5413 136.158 31.744C135.966 31.936 135.726 32.032 135.438 32.032C135.15 32.032 134.91 31.936 134.718 31.744C134.526 31.5413 134.43 31.3013 134.43 31.024ZM142.827 30.16V42H140.571V30.16H142.827ZM147.124 30.16V42H144.868V30.16H147.124ZM148.909 30.592C148.909 30.2293 149.037 29.936 149.293 29.712C149.549 29.4773 149.885 29.36 150.301 29.36C150.717 29.36 151.053 29.4773 151.309 29.712C151.565 29.936 151.693 30.2293 151.693 30.592C151.693 30.944 151.565 31.2373 151.309 31.472C151.053 31.696 150.717 31.808 150.301 31.808C149.885 31.808 149.549 31.696 149.293 31.472C149.037 31.2373 148.909 30.944 148.909 30.592ZM151.421 33.136V42H149.165V33.136H151.421ZM156.934 33.024C157.68 33.024 158.32 33.2 158.854 33.552C159.387 33.904 159.766 34.3787 159.99 34.976V33.136H162.23V42.032C162.23 42.8533 162.064 43.5893 161.734 44.24C161.414 44.9013 160.928 45.4187 160.278 45.792C159.638 46.1653 158.859 46.352 157.942 46.352C156.662 46.352 155.627 46.048 154.838 45.44C154.048 44.832 153.568 44.0053 153.398 42.96H155.622C155.75 43.408 155.995 43.7547 156.358 44C156.731 44.256 157.206 44.384 157.782 44.384C158.443 44.384 158.976 44.1867 159.382 43.792C159.787 43.408 159.99 42.8213 159.99 42.032V40.144C159.766 40.7413 159.387 41.2213 158.854 41.584C158.32 41.936 157.68 42.112 156.934 42.112C156.187 42.112 155.515 41.9307 154.918 41.568C154.32 41.2053 153.851 40.6827 153.51 40C153.179 39.3067 153.014 38.496 153.014 37.568C153.014 36.64 153.179 35.8347 153.51 35.152C153.851 34.4587 154.32 33.9307 154.918 33.568C155.515 33.2053 156.187 33.024 156.934 33.024ZM157.638 34.992C156.934 34.992 156.368 35.2213 155.942 35.68C155.515 36.1387 155.302 36.768 155.302 37.568C155.302 38.368 155.515 38.9973 155.942 39.456C156.368 39.904 156.934 40.128 157.638 40.128C158.32 40.128 158.88 39.8987 159.318 39.44C159.766 38.9707 159.99 38.3467 159.99 37.568C159.99 36.7787 159.766 36.1547 159.318 35.696C158.88 35.2267 158.32 34.992 157.638 34.992ZM172.61 37.232C172.61 37.456 172.583 37.712 172.53 38H166.034C166.066 38.7893 166.279 39.3707 166.674 39.744C167.069 40.1173 167.559 40.304 168.146 40.304C168.669 40.304 169.101 40.176 169.442 39.92C169.794 39.664 170.018 39.3173 170.114 38.88H172.498C172.381 39.4987 172.13 40.0533 171.746 40.544C171.362 41.0347 170.866 41.4187 170.258 41.696C169.661 41.9733 168.994 42.112 168.258 42.112C167.394 42.112 166.626 41.9307 165.954 41.568C165.282 41.1947 164.759 40.6667 164.386 39.984C164.013 39.3013 163.826 38.496 163.826 37.568C163.826 36.64 164.013 35.8347 164.386 35.152C164.759 34.4587 165.282 33.9307 165.954 33.568C166.626 33.2053 167.394 33.024 168.258 33.024C169.133 33.024 169.895 33.2053 170.546 33.568C171.207 33.9307 171.714 34.432 172.066 35.072C172.429 35.7013 172.61 36.4213 172.61 37.232ZM170.338 37.008C170.37 36.2827 170.178 35.7333 169.762 35.36C169.357 34.9867 168.855 34.8 168.258 34.8C167.65 34.8 167.138 34.9867 166.722 35.36C166.306 35.7333 166.077 36.2827 166.034 37.008H170.338ZM176.468 34.832C176.798 34.2667 177.236 33.824 177.78 33.504C178.324 33.1733 178.932 33.008 179.604 33.008V35.424H178.948C177.294 35.424 176.468 36.192 176.468 37.728V42H174.212V33.136H176.468V34.832ZM192.017 30.704V32.496H188.897V42H186.641V32.496H183.537V30.704H192.017ZM201.594 37.232C201.594 37.456 201.568 37.712 201.514 38H195.018C195.05 38.7893 195.264 39.3707 195.658 39.744C196.053 40.1173 196.544 40.304 197.13 40.304C197.653 40.304 198.085 40.176 198.426 39.92C198.778 39.664 199.002 39.3173 199.098 38.88H201.482C201.365 39.4987 201.114 40.0533 200.73 40.544C200.346 41.0347 199.85 41.4187 199.242 41.696C198.645 41.9733 197.978 42.112 197.242 42.112C196.378 42.112 195.61 41.9307 194.938 41.568C194.266 41.1947 193.744 40.6667 193.37 39.984C192.997 39.3013 192.81 38.496 192.81 37.568C192.81 36.64 192.997 35.8347 193.37 35.152C193.744 34.4587 194.266 33.9307 194.938 33.568C195.61 33.2053 196.378 33.024 197.242 33.024C198.117 33.024 198.88 33.2053 199.53 33.568C200.192 33.9307 200.698 34.432 201.05 35.072C201.413 35.7013 201.594 36.4213 201.594 37.232ZM199.322 37.008C199.354 36.2827 199.162 35.7333 198.746 35.36C198.341 34.9867 197.84 34.8 197.242 34.8C196.634 34.8 196.122 34.9867 195.706 35.36C195.29 35.7333 195.061 36.2827 195.018 37.008H199.322ZM208.588 42L206.572 39.152L204.876 42H202.396L205.324 37.376L202.332 33.136H204.86L206.828 35.936L208.524 33.136H211.004L208.028 37.632L211.116 42H208.588ZM217.01 40.064V42H215.826C214.834 42 214.071 41.76 213.538 41.28C213.015 40.8 212.754 40 212.754 38.88V35.04H211.522V33.136H212.754V30.944H215.01V33.136H216.994V35.04H215.01V38.912C215.01 39.3387 215.095 39.6373 215.266 39.808C215.437 39.9787 215.725 40.064 216.13 40.064H217.01ZM220.505 39.648V42H218.073V39.648H220.505ZM227.749 32.496V35.424H231.749V37.152H227.749V40.192H232.229V42H225.493V30.704H232.229V32.496H227.749ZM236.155 34.832C236.486 34.2667 236.923 33.824 237.467 33.504C238.011 33.1733 238.619 33.008 239.291 33.008V35.424H238.635C236.982 35.424 236.155 36.192 236.155 37.728V42H233.899V33.136H236.155V34.832ZM249.304 33.008C250.328 33.008 251.144 33.344 251.752 34.016C252.36 34.688 252.664 35.632 252.664 36.848V42H250.424V37.104C250.424 36.4 250.243 35.856 249.88 35.472C249.517 35.0773 249.021 34.88 248.392 34.88C247.752 34.88 247.24 35.088 246.856 35.504C246.472 35.92 246.28 36.5173 246.28 37.296V42H244.024V30.16H246.28V34.912C246.515 34.3147 246.899 33.8507 247.432 33.52C247.976 33.1787 248.6 33.008 249.304 33.008ZM258.121 33.024C258.868 33.024 259.508 33.2 260.041 33.552C260.574 33.904 260.953 34.3787 261.177 34.976V33.136H263.417V42H261.177V40.144C260.953 40.7413 260.574 41.2213 260.041 41.584C259.508 41.936 258.868 42.112 258.121 42.112C257.374 42.112 256.702 41.9307 256.105 41.568C255.508 41.2053 255.038 40.6827 254.697 40C254.366 39.3067 254.201 38.496 254.201 37.568C254.201 36.64 254.366 35.8347 254.697 35.152C255.038 34.4587 255.508 33.9307 256.105 33.568C256.702 33.2053 257.374 33.024 258.121 33.024ZM258.825 34.992C258.121 34.992 257.556 35.2213 257.129 35.68C256.702 36.1387 256.489 36.768 256.489 37.568C256.489 38.368 256.702 38.9973 257.129 39.456C257.556 39.904 258.121 40.128 258.825 40.128C259.508 40.128 260.068 39.8987 260.505 39.44C260.953 38.9707 261.177 38.3467 261.177 37.568C261.177 36.7787 260.953 36.1547 260.505 35.696C260.068 35.2267 259.508 34.992 258.825 34.992ZM270.198 40.064V42H269.014C268.022 42 267.259 41.76 266.726 41.28C266.203 40.8 265.942 40 265.942 38.88V35.04H264.71V33.136H265.942V30.944H268.198V33.136H270.182V35.04H268.198V38.912C268.198 39.3387 268.283 39.6373 268.454 39.808C268.624 39.9787 268.912 40.064 269.318 40.064H270.198ZM290.121 30.704L287.353 42H284.569L282.457 33.808L280.329 42H277.561L274.793 30.704H277.241L278.969 39.456L281.209 30.704H283.689L285.945 39.456L287.673 30.704H290.121ZM300.145 33.136V42H297.889V40.208C297.654 40.8053 297.265 41.2747 296.721 41.616C296.187 41.9467 295.569 42.112 294.865 42.112C293.841 42.112 293.025 41.776 292.417 41.104C291.809 40.432 291.505 39.4933 291.505 38.288V33.136H293.745V38.032C293.745 38.736 293.926 39.2853 294.289 39.68C294.651 40.064 295.142 40.256 295.761 40.256C296.411 40.256 296.929 40.048 297.313 39.632C297.697 39.216 297.889 38.6187 297.889 37.84V33.136H300.145ZM304.452 34.832C304.783 34.2667 305.22 33.824 305.764 33.504C306.308 33.1733 306.916 33.008 307.588 33.008V35.424H306.932C305.279 35.424 304.452 36.192 304.452 37.728V42H302.196V33.136H304.452V34.832ZM310.661 40.112H315.013V42H308.197V40.208L312.277 35.008H308.293V33.136H314.853V34.912L310.661 40.112ZM324.751 37.232C324.751 37.456 324.724 37.712 324.671 38H318.175C318.207 38.7893 318.42 39.3707 318.815 39.744C319.209 40.1173 319.7 40.304 320.287 40.304C320.809 40.304 321.241 40.176 321.583 39.92C321.935 39.664 322.159 39.3173 322.255 38.88H324.639C324.521 39.4987 324.271 40.0533 323.887 40.544C323.503 41.0347 323.007 41.4187 322.399 41.696C321.801 41.9733 321.135 42.112 320.399 42.112C319.535 42.112 318.767 41.9307 318.095 41.568C317.423 41.1947 316.9 40.6667 316.527 39.984C316.153 39.3013 315.967 38.496 315.967 37.568C315.967 36.64 316.153 35.8347 316.527 35.152C316.9 34.4587 317.423 33.9307 318.095 33.568C318.767 33.2053 319.535 33.024 320.399 33.024C321.273 33.024 322.036 33.2053 322.687 33.568C323.348 33.9307 323.855 34.432 324.207 35.072C324.569 35.7013 324.751 36.4213 324.751 37.232ZM322.479 37.008C322.511 36.2827 322.319 35.7333 321.903 35.36C321.497 34.9867 320.996 34.8 320.399 34.8C319.791 34.8 319.279 34.9867 318.863 35.36C318.447 35.7333 318.217 36.2827 318.175 37.008H322.479ZM328.608 30.16V42H326.352V30.16H328.608ZM335.929 33.008C336.953 33.008 337.769 33.344 338.377 34.016C338.985 34.688 339.289 35.632 339.289 36.848V42H337.049V37.104C337.049 36.4 336.868 35.856 336.505 35.472C336.142 35.0773 335.646 34.88 335.017 34.88C334.377 34.88 333.865 35.088 333.481 35.504C333.097 35.92 332.905 36.5173 332.905 37.296V42H330.649V33.136H332.905V34.912C333.14 34.3147 333.524 33.8507 334.057 33.52C334.601 33.1787 335.225 33.008 335.929 33.008ZM348.23 33.024C348.977 33.024 349.617 33.2 350.15 33.552C350.684 33.904 351.062 34.3787 351.286 34.976V33.136H353.526V42H351.286V40.144C351.062 40.7413 350.684 41.2213 350.15 41.584C349.617 41.936 348.977 42.112 348.23 42.112C347.484 42.112 346.812 41.9307 346.214 41.568C345.617 41.2053 345.148 40.6827 344.806 40C344.476 39.3067 344.31 38.496 344.31 37.568C344.31 36.64 344.476 35.8347 344.806 35.152C345.148 34.4587 345.617 33.9307 346.214 33.568C346.812 33.2053 347.484 33.024 348.23 33.024ZM348.934 34.992C348.23 34.992 347.665 35.2213 347.238 35.68C346.812 36.1387 346.598 36.768 346.598 37.568C346.598 38.368 346.812 38.9973 347.238 39.456C347.665 39.904 348.23 40.128 348.934 40.128C349.617 40.128 350.177 39.8987 350.614 39.44C351.062 38.9707 351.286 38.3467 351.286 37.568C351.286 36.7787 351.062 36.1547 350.614 35.696C350.177 35.2267 349.617 34.992 348.934 34.992ZM364.051 33.136V42H361.795V40.208C361.56 40.8053 361.171 41.2747 360.627 41.616C360.094 41.9467 359.475 42.112 358.771 42.112C357.747 42.112 356.931 41.776 356.323 41.104C355.715 40.432 355.411 39.4933 355.411 38.288V33.136H357.651V38.032C357.651 38.736 357.832 39.2853 358.195 39.68C358.558 40.064 359.048 40.256 359.667 40.256C360.318 40.256 360.835 40.048 361.219 39.632C361.603 39.216 361.795 38.6187 361.795 37.84V33.136H364.051ZM369.158 33.024C370.235 33.024 371.099 33.296 371.75 33.84C372.401 34.384 372.806 35.1093 372.966 36.016H370.854C370.769 35.5893 370.577 35.248 370.278 34.992C369.979 34.736 369.59 34.608 369.11 34.608C368.726 34.608 368.427 34.6987 368.214 34.88C368.001 35.0613 367.894 35.3067 367.894 35.616C367.894 35.8613 367.979 36.0587 368.15 36.208C368.321 36.3573 368.534 36.4747 368.79 36.56C369.046 36.6453 369.414 36.7467 369.894 36.864C370.566 37.0133 371.11 37.1733 371.526 37.344C371.953 37.504 372.315 37.7653 372.614 38.128C372.923 38.48 373.078 38.96 373.078 39.568C373.078 40.3253 372.779 40.9387 372.182 41.408C371.595 41.8773 370.801 42.112 369.798 42.112C368.646 42.112 367.723 41.856 367.03 41.344C366.337 40.8213 365.915 40.08 365.766 39.12H367.926C367.979 39.5573 368.171 39.904 368.502 40.16C368.833 40.4053 369.265 40.528 369.798 40.528C370.182 40.528 370.475 40.4373 370.678 40.256C370.881 40.064 370.982 39.8187 370.982 39.52C370.982 39.264 370.891 39.056 370.71 38.896C370.539 38.736 370.321 38.6133 370.054 38.528C369.798 38.4427 369.43 38.3413 368.95 38.224C368.289 38.0747 367.75 37.9253 367.334 37.776C366.929 37.616 366.577 37.3653 366.278 37.024C365.99 36.6827 365.846 36.2133 365.846 35.616C365.846 34.848 366.139 34.224 366.726 33.744C367.313 33.264 368.123 33.024 369.158 33.024ZM381.715 33.024C382.461 33.024 383.096 33.2 383.619 33.552C384.152 33.904 384.536 34.3787 384.771 34.976V30.16H387.011V42H384.771V40.144C384.536 40.7413 384.152 41.2213 383.619 41.584C383.096 41.936 382.461 42.112 381.715 42.112C380.968 42.112 380.296 41.9307 379.699 41.568C379.101 41.2053 378.632 40.6827 378.291 40C377.96 39.3067 377.795 38.496 377.795 37.568C377.795 36.64 377.96 35.8347 378.291 35.152C378.632 34.4587 379.101 33.9307 379.699 33.568C380.296 33.2053 380.968 33.024 381.715 33.024ZM382.419 34.992C381.715 34.992 381.149 35.2213 380.723 35.68C380.296 36.1387 380.083 36.768 380.083 37.568C380.083 38.368 380.296 38.9973 380.723 39.456C381.149 39.904 381.715 40.128 382.419 40.128C383.101 40.128 383.661 39.8987 384.099 39.44C384.547 38.9707 384.771 38.3467 384.771 37.568C384.771 36.7787 384.547 36.1547 384.099 35.696C383.661 35.2267 383.101 34.992 382.419 34.992ZM397.391 37.232C397.391 37.456 397.365 37.712 397.311 38H390.815C390.847 38.7893 391.061 39.3707 391.455 39.744C391.85 40.1173 392.341 40.304 392.927 40.304C393.45 40.304 393.882 40.176 394.223 39.92C394.575 39.664 394.799 39.3173 394.895 38.88H397.279C397.162 39.4987 396.911 40.0533 396.527 40.544C396.143 41.0347 395.647 41.4187 395.039 41.696C394.442 41.9733 393.775 42.112 393.039 42.112C392.175 42.112 391.407 41.9307 390.735 41.568C390.063 41.1947 389.541 40.6667 389.167 39.984C388.794 39.3013 388.607 38.496 388.607 37.568C388.607 36.64 388.794 35.8347 389.167 35.152C389.541 34.4587 390.063 33.9307 390.735 33.568C391.407 33.2053 392.175 33.024 393.039 33.024C393.914 33.024 394.677 33.2053 395.327 33.568C395.989 33.9307 396.495 34.432 396.847 35.072C397.21 35.7013 397.391 36.4213 397.391 37.232ZM395.119 37.008C395.151 36.2827 394.959 35.7333 394.543 35.36C394.138 34.9867 393.637 34.8 393.039 34.8C392.431 34.8 391.919 34.9867 391.503 35.36C391.087 35.7333 390.858 36.2827 390.815 37.008H395.119ZM401.249 34.832C401.579 34.2667 402.017 33.824 402.561 33.504C403.105 33.1733 403.713 33.008 404.385 33.008V35.424H403.729C402.075 35.424 401.249 36.192 401.249 37.728V42H398.993V33.136H401.249V34.832ZM3.28 68.272H7.072V70H1.024V58.704H3.28V68.272ZM11.8866 61.024C12.6333 61.024 13.2733 61.2 13.8066 61.552C14.34 61.904 14.7186 62.3787 14.9426 62.976V61.136H17.1826V70H14.9426V68.144C14.7186 68.7413 14.34 69.2213 13.8066 69.584C13.2733 69.936 12.6333 70.112 11.8866 70.112C11.14 70.112 10.468 69.9307 9.87063 69.568C9.27329 69.2053 8.80396 68.6827 8.46263 68C8.13196 67.3067 7.96663 66.496 7.96663 65.568C7.96663 64.64 8.13196 63.8347 8.46263 63.152C8.80396 62.4587 9.27329 61.9307 9.87063 61.568C10.468 61.2053 11.14 61.024 11.8866 61.024ZM12.5906 62.992C11.8866 62.992 11.3213 63.2213 10.8946 63.68C10.468 64.1387 10.2546 64.768 10.2546 65.568C10.2546 66.368 10.468 66.9973 10.8946 67.456C11.3213 67.904 11.8866 68.128 12.5906 68.128C13.2733 68.128 13.8333 67.8987 14.2706 67.44C14.7186 66.9707 14.9426 66.3467 14.9426 65.568C14.9426 64.7787 14.7186 64.1547 14.2706 63.696C13.8333 63.2267 13.2733 62.992 12.5906 62.992ZM23.9631 68.064V70H22.7791C21.7871 70 21.0245 69.76 20.4911 69.28C19.9685 68.8 19.7071 68 19.7071 66.88V63.04H18.4751V61.136H19.7071V58.944H21.9631V61.136H23.9471V63.04H21.9631V66.912C21.9631 67.3387 22.0485 67.6373 22.2191 67.808C22.3898 67.9787 22.6778 68.064 23.0831 68.064H23.9631ZM33.9225 65.232C33.9225 65.456 33.8958 65.712 33.8425 66H27.3465C27.3785 66.7893 27.5918 67.3707 27.9865 67.744C28.3812 68.1173 28.8718 68.304 29.4585 68.304C29.9812 68.304 30.4132 68.176 30.7545 67.92C31.1065 67.664 31.3305 67.3173 31.4265 66.88H33.8105C33.6932 67.4987 33.4425 68.0533 33.0585 68.544C32.6745 69.0347 32.1785 69.4187 31.5705 69.696C30.9732 69.9733 30.3065 70.112 29.5705 70.112C28.7065 70.112 27.9385 69.9307 27.2665 69.568C26.5945 69.1947 26.0718 68.6667 25.6985 67.984C25.3252 67.3013 25.1385 66.496 25.1385 65.568C25.1385 64.64 25.3252 63.8347 25.6985 63.152C26.0718 62.4587 26.5945 61.9307 27.2665 61.568C27.9385 61.2053 28.7065 61.024 29.5705 61.024C30.4452 61.024 31.2078 61.2053 31.8585 61.568C32.5198 61.9307 33.0265 62.432 33.3785 63.072C33.7412 63.7013 33.9225 64.4213 33.9225 65.232ZM31.6505 65.008C31.6825 64.2827 31.4905 63.7333 31.0745 63.36C30.6692 62.9867 30.1678 62.8 29.5705 62.8C28.9625 62.8 28.4505 62.9867 28.0345 63.36C27.6185 63.7333 27.3892 64.2827 27.3465 65.008H31.6505ZM35.268 58.592C35.268 58.2293 35.396 57.936 35.652 57.712C35.908 57.4773 36.244 57.36 36.66 57.36C37.076 57.36 37.412 57.4773 37.668 57.712C37.924 57.936 38.052 58.2293 38.052 58.592C38.052 58.944 37.924 59.2373 37.668 59.472C37.412 59.696 37.076 59.808 36.66 59.808C36.244 59.808 35.908 59.696 35.652 59.472C35.396 59.2373 35.268 58.944 35.268 58.592ZM37.78 61.136V70H35.524V61.136H37.78ZM45.1009 61.008C46.1249 61.008 46.9409 61.344 47.5489 62.016C48.1569 62.688 48.4609 63.632 48.4609 64.848V70H46.2209V65.104C46.2209 64.4 46.0395 63.856 45.6769 63.472C45.3142 63.0773 44.8182 62.88 44.1889 62.88C43.5489 62.88 43.0369 63.088 42.6529 63.504C42.2689 63.92 42.0769 64.5173 42.0769 65.296V70H39.8209V61.136H42.0769V62.912C42.3115 62.3147 42.6955 61.8507 43.2289 61.52C43.7729 61.1787 44.3969 61.008 45.1009 61.008ZM50.1899 58.592C50.1899 58.2293 50.3179 57.936 50.5739 57.712C50.8299 57.4773 51.1659 57.36 51.5819 57.36C51.9979 57.36 52.3339 57.4773 52.5899 57.712C52.8459 57.936 52.9739 58.2293 52.9739 58.592C52.9739 58.944 52.8459 59.2373 52.5899 59.472C52.3339 59.696 51.9979 59.808 51.5819 59.808C51.1659 59.808 50.8299 59.696 50.5739 59.472C50.3179 59.2373 50.1899 58.944 50.1899 58.592ZM52.7019 61.136V70H50.4459V61.136H52.7019ZM57.7988 61.024C58.8761 61.024 59.7401 61.296 60.3908 61.84C61.0414 62.384 61.4468 63.1093 61.6068 64.016H59.4948C59.4094 63.5893 59.2174 63.248 58.9188 62.992C58.6201 62.736 58.2308 62.608 57.7508 62.608C57.3668 62.608 57.0681 62.6987 56.8548 62.88C56.6414 63.0613 56.5348 63.3067 56.5348 63.616C56.5348 63.8613 56.6201 64.0587 56.7908 64.208C56.9614 64.3573 57.1748 64.4747 57.4308 64.56C57.6868 64.6453 58.0548 64.7467 58.5348 64.864C59.2068 65.0133 59.7508 65.1733 60.1668 65.344C60.5934 65.504 60.9561 65.7653 61.2548 66.128C61.5641 66.48 61.7188 66.96 61.7188 67.568C61.7188 68.3253 61.4201 68.9387 60.8228 69.408C60.2361 69.8773 59.4414 70.112 58.4388 70.112C57.2868 70.112 56.3641 69.856 55.6708 69.344C54.9774 68.8213 54.5561 68.08 54.4068 67.12H56.5668C56.6201 67.5573 56.8121 67.904 57.1428 68.16C57.4734 68.4053 57.9054 68.528 58.4388 68.528C58.8228 68.528 59.1161 68.4373 59.3188 68.256C59.5214 68.064 59.6228 67.8187 59.6228 67.52C59.6228 67.264 59.5321 67.056 59.3508 66.896C59.1801 66.736 58.9614 66.6133 58.6948 66.528C58.4388 66.4427 58.0708 66.3413 57.5908 66.224C56.9294 66.0747 56.3908 65.9253 55.9748 65.776C55.5694 65.616 55.2174 65.3653 54.9188 65.024C54.6308 64.6827 54.4868 64.2133 54.4868 63.616C54.4868 62.848 54.7801 62.224 55.3668 61.744C55.9534 61.264 56.7641 61.024 57.7988 61.024ZM67.383 61.024C68.5243 61.024 69.4737 61.3333 70.231 61.952C70.999 62.5707 71.479 63.4133 71.671 64.48H69.287C69.191 64.0107 68.9723 63.6427 68.631 63.376C68.2897 63.0987 67.8577 62.96 67.335 62.96C66.7377 62.96 66.2363 63.184 65.831 63.632C65.4363 64.0693 65.239 64.7147 65.239 65.568C65.239 66.4213 65.4363 67.072 65.831 67.52C66.2363 67.9573 66.7377 68.176 67.335 68.176C67.8577 68.176 68.2897 68.0427 68.631 67.776C68.9723 67.4987 69.191 67.1253 69.287 66.656H71.671C71.479 67.7227 70.999 68.5653 70.231 69.184C69.4737 69.8027 68.5243 70.112 67.383 70.112C66.519 70.112 65.751 69.9307 65.079 69.568C64.407 69.1947 63.8843 68.6667 63.511 67.984C63.1377 67.3013 62.951 66.496 62.951 65.568C62.951 64.64 63.1377 63.8347 63.511 63.152C63.8843 62.4587 64.407 61.9307 65.079 61.568C65.751 61.2053 66.519 61.024 67.383 61.024ZM78.554 61.008C79.578 61.008 80.394 61.344 81.002 62.016C81.61 62.688 81.914 63.632 81.914 64.848V70H79.674V65.104C79.674 64.4 79.4927 63.856 79.13 63.472C78.7673 63.0773 78.2713 62.88 77.642 62.88C77.002 62.88 76.49 63.088 76.106 63.504C75.722 63.92 75.53 64.5173 75.53 65.296V70H73.274V58.16H75.53V62.912C75.7647 62.3147 76.1487 61.8507 76.682 61.52C77.226 61.1787 77.85 61.008 78.554 61.008ZM92.235 65.232C92.235 65.456 92.2083 65.712 92.155 66H85.659C85.691 66.7893 85.9043 67.3707 86.299 67.744C86.6937 68.1173 87.1843 68.304 87.771 68.304C88.2937 68.304 88.7257 68.176 89.067 67.92C89.419 67.664 89.643 67.3173 89.739 66.88H92.123C92.0057 67.4987 91.755 68.0533 91.371 68.544C90.987 69.0347 90.491 69.4187 89.883 69.696C89.2857 69.9733 88.619 70.112 87.883 70.112C87.019 70.112 86.251 69.9307 85.579 69.568C84.907 69.1947 84.3843 68.6667 84.011 67.984C83.6377 67.3013 83.451 66.496 83.451 65.568C83.451 64.64 83.6377 63.8347 84.011 63.152C84.3843 62.4587 84.907 61.9307 85.579 61.568C86.251 61.2053 87.019 61.024 87.883 61.024C88.7577 61.024 89.5203 61.2053 90.171 61.568C90.8323 61.9307 91.339 62.432 91.691 63.072C92.0537 63.7013 92.235 64.4213 92.235 65.232ZM89.963 65.008C89.995 64.2827 89.803 63.7333 89.387 63.36C88.9817 62.9867 88.4803 62.8 87.883 62.8C87.275 62.8 86.763 62.9867 86.347 63.36C85.931 63.7333 85.7017 64.2827 85.659 65.008H89.963ZM99.1165 61.008C100.141 61.008 100.957 61.344 101.565 62.016C102.173 62.688 102.477 63.632 102.477 64.848V70H100.237V65.104C100.237 64.4 100.055 63.856 99.6925 63.472C99.3298 63.0773 98.8338 62.88 98.2045 62.88C97.5645 62.88 97.0525 63.088 96.6685 63.504C96.2845 63.92 96.0925 64.5173 96.0925 65.296V70H93.8365V61.136H96.0925V62.912C96.3272 62.3147 96.7112 61.8507 97.2445 61.52C97.7885 61.1787 98.4125 61.008 99.1165 61.008ZM107.866 60.784C107.685 60.176 107.594 59.5947 107.594 59.04C107.594 58.3573 107.765 57.824 108.106 57.44C108.447 57.0453 108.949 56.848 109.61 56.848V57.728C109.333 57.728 109.125 57.8133 108.986 57.984C108.858 58.144 108.794 58.3947 108.794 58.736V59.024H109.722V60.784H107.866ZM110.57 60.784C110.389 60.176 110.298 59.5947 110.298 59.04C110.298 58.3573 110.469 57.824 110.81 57.44C111.151 57.0453 111.653 56.848 112.314 56.848V57.728C112.037 57.728 111.829 57.8133 111.69 57.984C111.562 58.144 111.498 58.3947 111.498 58.736V59.024H112.426V60.784H110.57Z" fill="#21264B"/>
</svg>
