<svg width="1215" height="118" viewBox="0 0 1215 118" fill="none" xmlns="http://www.w3.org/2000/svg">
<mask id="mask0_75_42" style="mask-type:alpha" maskUnits="userSpaceOnUse" x="0" y="0" width="185" height="118">
<path d="M161.654 73.4987C161.741 73.4996 161.828 73.4832 161.909 73.4506C161.989 73.4181 162.062 73.37 162.122 73.3095C162.183 73.2489 162.229 73.1771 162.259 73.0986C162.29 73.02 162.303 72.9364 162.298 72.8528C162.298 72.3948 162.009 72.1759 161.416 72.1759H160.458V74.5742H160.819V73.5288H161.261L161.271 73.5415L161.958 74.5742H162.343L161.604 73.5054L161.654 73.4987ZM161.237 73.2585H160.82V72.4477H161.349C161.622 72.4477 161.934 72.4904 161.934 72.833C161.934 73.2269 161.619 73.2585 161.235 73.2585M21.3461 47.2751H26.6623V65.8019H36.504V70.4958H21.3461V47.2751ZM38.8543 54.7515H43.9613V70.4871H38.8543V54.7515ZM41.4078 46.9285C41.9937 46.9286 42.5665 47.0949 43.0536 47.4064C43.5407 47.7179 43.9204 48.1607 44.1445 48.6786C44.3687 49.1966 44.4273 49.7665 44.3129 50.3163C44.1985 50.8661 43.9163 51.3711 43.502 51.7675C43.0876 52.1638 42.5597 52.4337 41.985 52.5431C41.4104 52.6524 40.8147 52.5962 40.2734 52.3817C39.7321 52.1671 39.2694 51.8038 38.9439 51.3377C38.6184 50.8716 38.4446 50.3236 38.4446 49.763C38.4446 49.3907 38.5213 49.0221 38.6702 48.6781C38.8191 48.3342 39.0374 48.0217 39.3126 47.7585C39.5877 47.4953 39.9144 47.2865 40.2739 47.1441C40.6334 47.0017 41.0187 46.9284 41.4078 46.9285ZM65.3248 47.2715H70.4318V61.1489L76.2198 54.7444H82.4813L75.7782 62.0294L82.3403 70.4937H75.9213L70.4999 62.7155H70.4329V70.4927H65.3258L65.3248 47.2715ZM46.7931 54.753H51.6974V56.9035H51.7671C52.257 56.1005 52.9656 55.4399 53.8173 54.9922C54.669 54.5445 55.6318 54.3266 56.6029 54.3616C61.7817 54.3616 62.7351 57.6216 62.7351 61.8568V70.4861H57.628V62.8356C57.628 61.0094 57.5929 58.662 54.9681 58.662C52.3135 58.662 51.9039 60.6506 51.9039 62.7028V70.484H46.7968L46.7931 54.753Z" fill="#959595"/>
<path d="M93.2364 60.789C93.2461 60.3926 93.1717 59.9984 93.0176 59.6303C92.8634 59.2622 92.6328 58.9279 92.3396 58.6476C92.0465 58.3673 91.6969 58.1469 91.3121 57.9997C90.9272 57.8524 90.5152 57.7815 90.1009 57.7911C89.2085 57.738 88.3301 58.0225 87.655 58.5833C86.9799 59.1441 86.5622 59.9362 86.4919 60.789H93.2364ZM97.5625 67.762C96.7138 68.7466 95.6469 69.5383 94.439 70.0798C93.2311 70.6213 91.9125 70.899 90.5786 70.8927C85.4715 70.8927 81.3827 67.6312 81.3827 62.5806C81.3827 57.53 85.471 54.27 90.5786 54.27C95.3521 54.27 98.3456 57.5274 98.3456 62.5806V64.1126H86.4919C86.6395 64.9815 87.1103 65.77 87.8176 66.333C88.5248 66.896 89.4209 67.1954 90.3408 67.1762C91.0677 67.1719 91.7819 66.9937 92.4185 66.6578C93.055 66.322 93.5937 65.8391 93.9854 65.2532L97.5625 67.762ZM108.991 58.5551C106.437 58.5551 104.905 60.1863 104.905 62.5633C104.905 64.9402 106.437 66.573 108.991 66.573C111.545 66.573 113.08 64.9443 113.08 62.5633C113.08 60.1823 111.547 58.5551 108.991 58.5551ZM117.782 70.484H113.08V68.3972H113.01C112.42 69.1563 111.655 69.7748 110.775 70.2045C109.894 70.6343 108.922 70.8637 107.933 70.8749C103.026 70.8749 99.7936 67.4866 99.7936 62.6951C99.7936 58.2945 102.654 54.2537 107.356 54.2537C109.47 54.2537 111.444 54.8069 112.602 56.3405H112.669V47.27H117.781L117.782 70.484ZM152.259 70.4932H147.152V62.8412C147.152 61.0165 147.118 58.6676 144.496 58.6676C141.836 58.6676 141.429 60.6556 141.429 62.7083V70.4927H136.322V54.7571H141.225V56.9075H141.293C141.784 56.1049 142.493 55.4446 143.345 54.997C144.197 54.5493 145.159 54.3312 146.131 54.3657C151.307 54.3657 152.261 57.6231 152.261 61.8609L152.259 70.4932ZM130.559 52.6061C129.973 52.6062 129.4 52.44 128.913 52.1285C128.425 51.817 128.045 51.3743 127.821 50.8562C127.597 50.3381 127.538 49.768 127.652 49.2179C127.766 48.6678 128.048 48.1626 128.463 47.7659C128.877 47.3693 129.405 47.0992 129.98 46.9896C130.555 46.8801 131.151 46.9362 131.692 47.1507C132.234 47.3652 132.697 47.7286 133.023 48.1948C133.348 48.6611 133.522 49.2093 133.522 49.7701C133.523 50.1424 133.446 50.5112 133.297 50.8552C133.148 51.1993 132.93 51.5119 132.655 51.7752C132.38 52.0386 132.053 52.2475 131.693 52.3901C131.334 52.5326 130.949 52.606 130.559 52.6061ZM133.113 70.4932H128V54.7571H133.113V70.4932ZM154.805 42.3975H125.434C124.768 42.3903 124.125 42.6366 123.648 43.0823C123.171 43.528 122.899 44.1366 122.891 44.7744V72.9918C122.899 73.6299 123.171 74.2389 123.648 74.6851C124.125 75.1312 124.767 75.378 125.434 75.3713H154.805C155.473 75.3793 156.118 75.1332 156.596 74.687C157.075 74.2409 157.349 73.6311 157.359 72.9918V44.7724C157.349 44.1333 157.075 43.524 156.596 43.0783C156.117 42.6327 155.473 42.387 154.805 42.3955M161.281 71.1075C160.66 71.1132 160.066 71.3542 159.63 71.7776C159.193 72.201 158.95 72.7724 158.953 73.3669C158.956 73.9614 159.205 74.5306 159.646 74.95C160.086 75.3693 160.682 75.6048 161.304 75.6048C161.925 75.6048 162.521 75.3693 162.961 74.95C163.402 74.5306 163.651 73.9614 163.654 73.3669C163.657 72.7724 163.414 72.201 162.977 71.7776C162.541 71.3542 161.947 71.1132 161.326 71.1075H161.281ZM161.281 75.3473C160.873 75.3538 160.473 75.2445 160.13 75.0333C159.788 74.8221 159.518 74.5184 159.356 74.1606C159.194 73.8028 159.146 73.4071 159.219 73.0234C159.292 72.6397 159.482 72.2853 159.765 72.005C160.049 71.7246 160.413 71.531 160.811 71.4486C161.209 71.3661 161.624 71.3986 162.003 71.5418C162.383 71.685 162.709 71.9326 162.941 72.2532C163.173 72.5738 163.3 72.953 163.307 73.343V73.376C163.319 73.8876 163.117 74.3825 162.747 74.752C162.377 75.1214 161.869 75.3352 161.335 75.3463H161.281" fill="#959595"/>
</mask>
<g mask="url(#mask0_75_42)">
<rect x="-20" y="10" width="200" height="87" fill="url(#paint0_linear_75_42)"/>
</g>
<rect width="156" height="105" transform="translate(196 6)" fill="white"/>
<path d="M217.932 62.3928C217.932 63.796 218.237 64.8734 218.635 65.5251C219.158 66.3788 219.938 66.7405 220.733 66.7405C221.758 66.7405 222.696 66.4836 224.504 63.9596C225.952 61.9365 227.658 59.0968 228.806 57.3166L230.751 54.3005C232.101 52.2059 233.665 49.8774 235.457 48.2991C236.92 47.0108 238.499 46.2952 240.087 46.2952C242.754 46.2952 245.295 47.8556 247.239 50.7822C249.367 53.9874 250.4 58.0246 250.4 62.1909C250.4 64.6676 249.916 66.4875 249.094 67.9252C248.299 69.3157 246.749 70.7049 244.143 70.7049V66.7405C246.375 66.7405 246.932 64.6702 246.932 62.3008C246.932 58.9243 246.152 55.1772 244.434 52.4998C243.215 50.6007 241.635 49.4403 239.897 49.4403C238.018 49.4403 236.505 50.8717 234.805 53.4238C233.901 54.7798 232.973 56.4322 231.932 58.2968L230.785 60.348C228.481 64.4721 227.897 65.4114 226.746 66.9616C224.727 69.6761 223.003 70.7049 220.733 70.7049C218.041 70.7049 216.338 69.5278 215.284 67.754C214.423 66.3086 214 64.412 214 62.2509L217.932 62.3928Z" fill="#959595"/>
<path d="M217.1 51.0621C218.903 48.2569 221.504 46.2952 224.487 46.2952C226.215 46.2952 227.933 46.8115 229.727 48.2901C231.689 49.9068 233.78 52.5688 236.389 56.9562L237.324 58.5307C239.582 62.3289 240.867 64.2829 241.619 65.2044C242.586 66.3878 243.263 66.7405 244.143 66.7405C246.375 66.7405 246.932 64.6702 246.932 62.3008L250.4 62.1909C250.4 64.6676 249.916 66.4875 249.094 67.9252C248.299 69.3157 246.749 70.7049 244.143 70.7049C242.523 70.7049 241.087 70.3496 239.5 68.8377C238.28 67.6773 236.853 65.6159 235.756 63.7628L232.491 58.2572C230.853 55.4942 229.351 53.434 228.481 52.5011C227.546 51.4979 226.343 50.2863 224.424 50.2863C222.871 50.2863 221.552 51.3867 220.448 53.0698L217.1 51.0621Z" fill="#959595"/>
<path d="M224.424 50.2863C222.871 50.2863 221.552 51.3867 220.448 53.0698C218.887 55.4482 217.932 58.9908 217.932 62.3928C217.932 63.796 218.237 64.8734 218.635 65.5251L215.284 67.754C214.423 66.3086 214 64.412 214 62.2509C214 58.3211 215.068 54.2251 217.1 51.0621C218.903 48.2569 221.504 46.2952 224.487 46.2952L224.424 50.2863Z" fill="#959595"/>
<path d="M258.043 47.0671H262.591L270.324 61.1915L278.058 47.0671H282.508V70.2755H278.797V52.4884L272.015 64.8057H268.534L261.753 52.4884V70.2755H258.043V47.0671ZM294.133 55.7204C291.472 55.7204 289.87 57.7422 289.486 60.2458H298.516C298.33 57.6668 296.857 55.7204 294.133 55.7204ZM285.808 61.6721C285.808 56.4042 289.18 52.5702 294.197 52.5702C299.133 52.5702 302.08 56.3556 302.08 61.9532V62.982H289.486C289.933 65.7054 291.723 67.5406 294.609 67.5406C296.911 67.5406 298.351 66.8313 299.715 65.5342L301.686 67.9713C299.829 69.6953 297.467 70.6896 294.477 70.6896C289.046 70.6896 285.808 66.6907 285.808 61.6721ZM306.578 56.0527H303.163V52.9855H306.578V47.9132H310.158V52.9855H315.347V56.0527H310.158V63.8268C310.158 66.4811 310.999 67.4243 313.065 67.4243C314.008 67.4243 314.548 67.3425 315.347 67.2083V70.2423C314.352 70.526 313.403 70.6564 312.375 70.6564C308.51 70.6564 306.578 68.5247 306.578 64.2574V56.0527ZM330.42 59.0356C329.701 57.2029 328.097 55.8533 325.741 55.8533C322.677 55.8533 320.716 58.0477 320.716 61.6222C320.716 65.1073 322.522 67.4077 325.594 67.4077C328.009 67.4077 329.733 65.9891 330.42 64.2242V59.0356ZM334 70.2755H330.486V67.855C329.504 69.28 327.716 70.6896 324.822 70.6896C320.166 70.6896 317.054 66.7546 317.054 61.6222C317.054 56.4412 320.24 52.5702 325.019 52.5702C327.381 52.5702 329.234 53.5236 330.486 55.2067V52.9855H334V70.2755Z" fill="#959595"/>
<rect width="143" height="95" transform="translate(363 14)" fill="white"/>
<path d="M426.574 62.4471C426.574 67.6385 422.498 71.4639 417.497 71.4639C412.495 71.4639 408.42 67.6385 408.42 62.4471C408.42 57.2192 412.495 53.4304 417.497 53.4304C422.498 53.4304 426.574 57.2192 426.574 62.4471ZM422.6 62.4471C422.6 59.2031 420.238 56.9834 417.497 56.9834C414.755 56.9834 412.393 59.2031 412.393 62.4471C412.393 65.6587 414.755 67.9108 417.497 67.9108C420.238 67.9108 422.6 65.6546 422.6 62.4471Z" fill="#959595"/>
<path d="M446.155 62.4471C446.155 67.6385 442.08 71.4639 437.078 71.4639C432.077 71.4639 428.001 67.6385 428.001 62.4471C428.001 57.2233 432.077 53.4304 437.078 53.4304C442.08 53.4304 446.155 57.2192 446.155 62.4471ZM442.182 62.4471C442.182 59.2031 439.82 56.9834 437.078 56.9834C434.337 56.9834 431.975 59.2031 431.975 62.4471C431.975 65.6587 434.337 67.9108 437.078 67.9108C439.82 67.9108 442.182 65.6546 442.182 62.4471Z" fill="#959595"/>
<path d="M464.921 53.9752V70.163C464.921 76.8219 460.98 79.5415 456.321 79.5415C451.936 79.5415 449.296 76.6186 448.301 74.2282L451.76 72.7932C452.376 74.2608 453.886 75.9926 456.317 75.9926C459.299 75.9926 461.147 74.1591 461.147 70.7077V69.4109H461.009C460.119 70.5045 458.406 71.4598 456.244 71.4598C451.72 71.4598 447.575 67.5328 447.575 62.4797C447.575 57.39 451.72 53.4304 456.244 53.4304C458.402 53.4304 460.115 54.3858 461.009 55.4468H461.147V53.9792H464.921V53.9752ZM461.429 62.4797C461.429 59.3047 459.303 56.9834 456.599 56.9834C453.857 56.9834 451.561 59.3047 451.561 62.4797C451.561 65.6221 453.857 67.9108 456.599 67.9108C459.303 67.9108 461.429 65.6221 461.429 62.4797Z" fill="#959595"/>
<path d="M471.142 44.4868V70.9109H467.267V44.4868H471.142Z" fill="#959595"/>
<path d="M486.245 65.4149L489.329 67.4638C488.333 68.9314 485.935 71.46 481.79 71.46C476.65 71.46 472.811 67.5004 472.811 62.4432C472.811 57.0812 476.682 53.4265 481.345 53.4265C486.041 53.4265 488.337 57.1503 489.088 59.1626L489.5 60.187L477.404 65.1792C478.33 66.9882 479.77 67.911 481.79 67.911C483.813 67.911 485.217 66.9191 486.245 65.4149ZM476.752 62.1709L484.837 58.8252C484.392 57.6991 483.054 56.9145 481.48 56.9145C479.46 56.9145 476.65 58.691 476.752 62.1709Z" fill="#959595"/>
<path d="M393.75 60.1016V56.2762H406.686C406.812 56.9429 406.878 57.7316 406.878 58.5853C406.878 61.4554 406.09 65.0043 403.553 67.5329C401.085 70.094 397.931 71.4599 393.754 71.4599C386.011 71.4599 379.5 65.1751 379.5 57.4592C379.5 49.7434 386.011 43.4585 393.754 43.4585C398.037 43.4585 401.089 45.1334 403.381 47.3164L400.673 50.0157C399.029 48.4791 396.801 47.2839 393.75 47.2839C388.096 47.2839 383.673 51.8248 383.673 57.4592C383.673 63.0937 388.096 67.6345 393.75 67.6345C397.417 67.6345 399.506 66.167 400.844 64.8336C401.929 63.7522 402.643 62.2074 402.925 60.0976L393.75 60.1016Z" fill="#959595"/>
<rect width="153" height="101" transform="translate(517 15)" fill="white"/>
<path fill-rule="evenodd" clip-rule="evenodd" d="M607.668 75.4048C600.829 80.3965 590.915 83.0598 582.38 83.0598C570.413 83.0598 559.639 78.6768 551.488 71.3872C550.848 70.8138 551.422 70.0326 552.19 70.4791C560.986 75.5469 571.863 78.5957 583.098 78.5957C590.675 78.5957 599.01 77.0434 606.674 73.8221C607.832 73.3351 608.8 74.5729 607.668 75.4048Z" fill="#959595"/>
<path fill-rule="evenodd" clip-rule="evenodd" d="M610.511 72.1834C609.64 71.0774 604.732 71.6608 602.529 71.9195C601.858 72.0007 601.756 71.4224 602.36 71.0064C606.269 68.2824 612.683 69.0686 613.431 69.9817C614.179 70.8999 613.237 77.2663 609.563 80.3049C609 80.7717 608.462 80.5231 608.713 79.9042C609.538 77.865 611.387 73.2943 610.511 72.1834Z" fill="#959595"/>
<path fill-rule="evenodd" clip-rule="evenodd" d="M602.683 51.7755V49.1275C602.683 48.7267 602.99 48.4579 603.359 48.4579H615.332C615.716 48.4579 616.024 48.7317 616.024 49.1275V51.395C616.018 51.7755 615.696 52.2726 615.122 53.0589L608.918 61.8298C611.223 61.7741 613.657 62.114 615.747 63.2807C616.218 63.5445 616.346 63.9301 616.382 64.3105V67.1361C616.382 67.5216 615.952 67.973 615.501 67.7397C611.818 65.8273 606.925 65.6193 602.852 67.76C602.437 67.9833 602.002 67.5368 602.002 67.1513V64.4678C602.002 64.0366 602.007 63.301 602.442 62.6467L609.63 52.4401H603.375C602.99 52.4401 602.683 52.1712 602.683 51.7755ZM559.009 68.2977H555.366C555.018 68.2724 554.741 68.0137 554.716 67.6839V49.1732C554.716 48.8028 555.028 48.5086 555.418 48.5086H558.814C559.168 48.5237 559.449 48.7927 559.475 49.1274V51.5473H559.542C560.428 49.2087 562.093 48.1182 564.337 48.1182C566.617 48.1182 568.041 49.2087 569.066 51.5473C569.947 49.2087 571.95 48.1182 574.096 48.1182C575.623 48.1182 577.293 48.7421 578.313 50.1422C579.465 51.6995 579.23 53.962 579.23 55.9455L579.225 67.6282C579.225 67.9986 578.912 68.2978 578.523 68.2978H574.885C574.522 68.2725 574.23 67.9834 574.23 67.6282V57.8173C574.23 57.036 574.301 55.088 574.127 54.3475C573.856 53.1046 573.041 52.7545 571.986 52.7545C571.104 52.7545 570.182 53.3379 569.808 54.2714C569.434 55.2049 569.47 56.7672 569.47 57.8173V67.6281C569.47 67.9984 569.158 68.2977 568.768 68.2977H565.131C564.762 68.2724 564.475 67.9833 564.475 67.6281L564.47 57.8173C564.47 55.7526 564.813 52.7141 562.226 52.7141C559.608 52.7141 559.711 55.6765 559.711 57.8173V67.6281C559.711 67.9984 559.398 68.2977 559.009 68.2977ZM626.331 48.118C631.736 48.118 634.661 52.714 634.661 58.5579C634.661 64.204 631.429 68.6833 626.331 68.6833C621.024 68.6833 618.134 64.0873 618.134 58.36C618.134 52.5973 621.06 48.118 626.331 48.118ZM626.362 51.8973C623.677 51.8973 623.508 55.5193 623.508 57.7766C623.508 60.0392 623.473 64.8685 626.331 64.8685C629.154 64.8685 629.287 60.9726 629.287 58.5985C629.287 57.036 629.221 55.1692 628.744 53.688C628.334 52.3994 627.52 51.8973 626.362 51.8973ZM641.67 68.2977H638.043C637.679 68.2724 637.387 67.9833 637.387 67.6281L637.382 49.1122C637.412 48.7724 637.715 48.5086 638.083 48.5086H641.46C641.777 48.5237 642.039 48.737 642.11 49.026V51.8567H642.177C643.196 49.3254 644.626 48.118 647.141 48.118C648.775 48.118 650.369 48.7013 651.393 50.2993C652.346 51.7805 652.346 54.2714 652.346 56.0621V67.7143C652.305 68.039 652.003 68.2977 651.644 68.2977H647.992C647.658 68.2724 647.382 68.0289 647.346 67.7143V57.66C647.346 55.6359 647.582 52.6733 645.066 52.6733C644.18 52.6733 643.365 53.2618 642.961 54.1546C642.448 55.286 642.382 56.4121 642.382 57.6601V67.6281C642.377 67.9984 642.059 68.2977 641.67 68.2977ZM593.139 59.4558C593.139 60.8609 593.175 62.0328 592.457 63.2806C591.879 64.2953 590.956 64.9191 589.937 64.9191C588.538 64.9191 587.719 63.8641 587.719 62.3067C587.719 59.2325 590.5 58.6746 593.139 58.6746V59.4558ZM596.812 68.247C596.571 68.4601 596.223 68.4753 595.951 68.3333C594.742 67.339 594.522 66.8773 593.861 65.9287C591.863 67.9478 590.444 68.5514 587.857 68.5514C584.788 68.5514 582.406 66.6795 582.406 62.9308C582.406 60.0037 584.004 58.0101 586.289 57.036C588.267 56.1736 591.028 56.0214 593.139 55.783V55.3164C593.139 54.459 593.205 53.4444 592.693 52.7038C592.253 52.0393 591.402 51.7653 590.649 51.7653C589.261 51.7653 588.026 52.4704 587.724 53.9314C587.662 54.2561 587.421 54.5757 587.088 54.5909L583.559 54.2156C583.262 54.1496 582.929 53.9112 583.016 53.4597C583.825 49.2189 587.698 47.9404 591.161 47.9404C592.934 47.9404 595.25 48.4072 596.648 49.7363C598.421 51.3748 598.252 53.5611 598.252 55.9403V61.561C598.252 63.2503 598.959 63.9908 599.625 64.904C599.855 65.2287 599.906 65.6193 599.609 65.8628C598.867 66.4766 597.545 67.6179 596.817 68.2572L596.812 68.247M545.387 59.4558C545.387 60.8609 545.423 62.0328 544.705 63.2806C544.126 64.2953 543.209 64.9191 542.185 64.9191C540.786 64.9191 539.972 63.8641 539.972 62.3067C539.972 59.2325 542.753 58.6746 545.387 58.6746V59.4558ZM549.06 68.247C548.819 68.4601 548.471 68.4753 548.199 68.3333C546.99 67.339 546.775 66.8773 546.109 65.9287C544.111 67.9478 542.697 68.5514 540.105 68.5514C537.041 68.5514 534.654 66.6795 534.654 62.9308C534.654 60.0037 536.257 58.0101 538.537 57.036C540.515 56.1736 543.276 56.0214 545.387 55.783V55.3164C545.387 54.459 545.453 53.4444 544.946 52.7038C544.5 52.0393 543.65 51.7653 542.902 51.7653C541.514 51.7653 540.274 52.4704 539.972 53.9314C539.91 54.2561 539.669 54.5757 539.341 54.5909L535.807 54.2156C535.509 54.1496 535.182 53.9112 535.263 53.4597C536.078 49.2189 539.946 47.9404 543.409 47.9404C545.182 47.9404 547.497 48.4072 548.896 49.7363C550.668 51.3748 550.499 53.5611 550.499 55.9403V61.561C550.499 63.2503 551.206 63.9908 551.872 64.904C552.108 65.2287 552.159 65.6193 551.862 65.8628C551.119 66.4766 549.798 67.6179 549.07 68.2572L549.06 68.247Z" fill="#959595"/>
<path d="M769.535 51.3784C769.535 52.8447 768.351 54.0259 766.88 54.0259C765.409 54.0259 764.225 52.8447 764.225 51.3784C764.225 49.912 765.369 48.7308 766.88 48.7308C768.392 48.7716 769.535 49.9528 769.535 51.3784ZM758.587 56.7142V57.3659C758.587 57.3659 757.321 55.7366 754.625 55.7366C750.172 55.7366 746.699 59.1173 746.699 63.8014C746.699 68.4448 750.131 71.8663 754.625 71.8663C757.362 71.8663 758.587 70.1963 758.587 70.1963V70.8887C758.587 71.2146 758.832 71.459 759.159 71.459H762.468V56.1439H759.159C758.832 56.1439 758.587 56.4291 758.587 56.7142ZM758.587 66.5304C757.974 67.4265 756.749 68.2004 755.278 68.2004C752.664 68.2004 750.662 66.5712 750.662 63.8014C750.662 61.0317 752.664 59.4025 755.278 59.4025C756.708 59.4025 758.015 60.2171 758.587 61.0724V66.5304ZM764.919 56.1439H768.841V71.459H764.919V56.1439ZM823.5 55.7366C820.804 55.7366 819.538 57.3659 819.538 57.3659V48.7716H815.616V71.459H818.925C819.252 71.459 819.497 71.1738 819.497 70.8887V70.1963C819.497 70.1963 820.763 71.8663 823.459 71.8663C827.912 71.8663 831.385 68.4448 831.385 63.8014C831.385 59.1581 827.912 55.7366 823.5 55.7366ZM822.847 68.1597C821.335 68.1597 820.15 67.3858 819.538 66.4897V61.0317C820.15 60.2171 821.458 59.3617 822.847 59.3617C825.461 59.3617 827.463 60.991 827.463 63.7607C827.463 66.5304 825.461 68.1597 822.847 68.1597ZM813.573 62.3758V71.4997H809.652V62.8239C809.652 60.2985 808.835 59.2803 806.629 59.2803C805.444 59.2803 804.218 59.8912 803.442 60.7873V71.459H799.52V56.1439H802.625C802.952 56.1439 803.197 56.4291 803.197 56.7142V57.3659C804.341 56.1847 805.852 55.7366 807.364 55.7366C809.08 55.7366 810.509 56.2254 811.653 57.203C813.042 58.3434 813.573 59.8098 813.573 62.3758ZM790.002 55.7366C787.306 55.7366 786.039 57.3659 786.039 57.3659V48.7716H782.118V71.459H785.427C785.753 71.459 785.999 71.1738 785.999 70.8887V70.1963C785.999 70.1963 787.265 71.8663 789.961 71.8663C794.414 71.8663 797.886 68.4448 797.886 63.8014C797.927 59.1581 794.455 55.7366 790.002 55.7366ZM789.348 68.1597C787.837 68.1597 786.652 67.3858 786.039 66.4897V61.0317C786.652 60.2171 787.959 59.3617 789.348 59.3617C791.963 59.3617 793.965 60.991 793.965 63.7607C793.965 66.5304 791.963 68.1597 789.348 68.1597ZM778.727 55.7366C779.912 55.7366 780.524 55.9403 780.524 55.9403V59.5654C780.524 59.5654 777.256 58.4656 775.214 60.7873V71.4997H771.292V56.1439H774.601C774.928 56.1439 775.173 56.4291 775.173 56.7142V57.3659C775.908 56.5105 777.501 55.7366 778.727 55.7366ZM737.998 70.0741C737.794 69.5853 737.589 69.0558 737.385 68.6078C737.058 67.8746 736.732 67.1822 736.446 66.5304L736.405 66.4897C733.586 60.38 730.563 54.1888 727.377 48.0791L727.254 47.8347C726.927 47.2238 726.6 46.5721 726.274 45.9204C725.865 45.1872 725.457 44.4133 724.803 43.6801C723.496 42.0509 721.616 41.1548 719.615 41.1548C717.572 41.1548 715.734 42.0509 714.386 43.5987C713.773 44.3318 713.324 45.1057 712.915 45.8389C712.588 46.4906 712.261 47.1423 711.935 47.7533L711.812 47.9977C708.667 54.1074 705.603 60.2985 702.784 66.4083L702.743 66.4897C702.457 67.1414 702.13 67.8339 701.803 68.567C701.599 69.0151 701.395 69.5038 701.191 70.0333C700.66 71.5404 700.496 72.966 700.7 74.4323C701.15 77.4872 703.192 80.0533 706.011 81.1938C707.073 81.6418 708.176 81.8455 709.32 81.8455C709.647 81.8455 710.056 81.8047 710.382 81.764C711.73 81.6011 713.119 81.153 714.467 80.3791C716.142 79.4423 717.736 78.0982 719.533 76.1431C721.331 78.0982 722.965 79.4423 724.599 80.3791C725.947 81.153 727.336 81.6011 728.684 81.764C729.011 81.8047 729.419 81.8455 729.746 81.8455C730.89 81.8455 732.034 81.6418 733.055 81.1938C735.915 80.0533 737.916 77.4465 738.366 74.4323C738.692 73.0067 738.529 71.5811 737.998 70.0741ZM719.574 72.1921C717.368 69.4224 715.938 66.8156 715.448 64.6161C715.244 63.6793 715.203 62.8646 715.325 62.1315C715.407 61.4798 715.652 60.9095 715.979 60.4207C716.755 59.321 718.062 58.6286 719.574 58.6286C721.085 58.6286 722.434 59.2803 723.169 60.4207C723.496 60.9095 723.741 61.4798 723.822 62.1315C723.945 62.8646 723.904 63.72 723.7 64.6161C723.21 66.7748 721.78 69.3816 719.574 72.1921ZM735.874 74.1065C735.588 76.2245 734.158 78.0574 732.156 78.8721C731.176 79.2794 730.114 79.4016 729.051 79.2794C728.03 79.1572 727.009 78.8313 725.947 78.2204C724.476 77.4057 723.005 76.1431 721.29 74.2694C723.986 70.9702 725.62 67.956 726.233 65.2678C726.519 64.0051 726.56 62.8646 726.437 61.8056C726.274 60.7873 725.906 59.8505 725.334 59.0359C724.068 57.203 721.943 56.1439 719.574 56.1439C717.205 56.1439 715.08 57.2437 713.814 59.0359C713.242 59.8505 712.874 60.7873 712.711 61.8056C712.547 62.8646 712.588 64.0458 712.915 65.2678C713.528 67.956 715.203 71.0109 717.858 74.3101C716.183 76.1838 714.672 77.4465 713.201 78.2611C712.139 78.8721 711.118 79.1979 710.096 79.3201C708.993 79.4423 707.931 79.2794 706.992 78.9128C704.99 78.0982 703.56 76.2653 703.274 74.1472C703.152 73.1289 703.233 72.1107 703.642 70.9702C703.764 70.5629 703.969 70.1555 704.173 69.6668C704.459 69.0151 704.786 68.3226 705.112 67.6302L705.153 67.5487C707.972 61.4798 710.995 55.2886 714.141 49.2603L714.263 49.0159C714.59 48.405 714.917 47.7533 715.244 47.1423C715.57 46.4906 715.938 45.8796 716.387 45.3501C717.245 44.3726 718.389 43.8431 719.656 43.8431C720.922 43.8431 722.066 44.3726 722.924 45.3501C723.373 45.8796 723.741 46.4906 724.068 47.1423C724.394 47.7533 724.721 48.405 725.048 49.0159L725.171 49.2603C728.275 55.3293 731.298 61.5205 734.117 67.5895V67.6302C734.444 68.2819 734.73 69.0151 735.057 69.6668C735.261 70.1555 735.465 70.5629 735.588 70.9702C735.915 72.0292 736.037 73.0475 735.874 74.1065Z" fill="#959595"/>
<path d="M909.056 62.9096C907.211 70.4602 899.716 75.0554 892.316 73.1725C884.918 71.29 880.414 63.6421 882.26 56.0919C884.104 48.5404 891.599 43.9448 898.998 45.8273C906.398 47.7098 910.901 55.3586 909.056 62.9096Z" fill="#959595"/>
<path d="M901.748 57.4922C902.023 55.6168 900.624 54.6086 898.71 53.9361L899.331 51.3956L897.815 51.0102L897.211 53.4837C896.813 53.3824 896.403 53.2868 895.997 53.1921L896.605 50.7023L895.091 50.3169L894.47 52.8565C894.14 52.7799 893.816 52.7041 893.502 52.6244L893.503 52.6165L891.413 52.084L891.01 53.7356C891.01 53.7356 892.135 53.9986 892.111 54.0149C892.725 54.1713 892.836 54.5857 892.817 54.9143L892.11 57.8085C892.152 57.8195 892.207 57.8353 892.268 57.86C892.217 57.8472 892.163 57.8331 892.107 57.8195L891.116 61.8738C891.041 62.0641 890.851 62.3495 890.422 62.2411C890.437 62.2636 889.32 61.9606 889.32 61.9606L888.568 63.7307L890.54 64.2324C890.907 64.3262 891.267 64.4244 891.621 64.5169L890.993 67.0865L892.507 67.4719L893.128 64.9296C893.542 65.0441 893.943 65.1498 894.336 65.2494L893.717 67.7798L895.233 68.1652L895.86 65.6004C898.444 66.0995 900.388 65.8982 901.206 63.5131C901.865 61.5928 901.173 60.4851 899.813 59.7627C900.803 59.5297 901.549 58.8651 901.748 57.4922ZM898.285 62.4468C897.817 64.3672 894.648 63.329 893.621 63.0687L894.453 59.6645C895.48 59.9261 898.775 60.4441 898.285 62.4468ZM898.754 57.4645C898.327 59.2113 895.689 58.3238 894.834 58.1062L895.588 55.0187C896.444 55.2363 899.199 55.6423 898.754 57.4645Z" fill="white"/>
<path d="M922.326 53.9332C923.446 53.9332 924.414 54.138 925.227 54.5401C926.044 54.9462 926.718 55.4933 927.259 56.1813C927.793 56.8728 928.19 57.681 928.446 58.6072C928.701 59.5361 928.829 60.5346 928.829 61.6036C928.829 63.2456 928.534 64.7968 927.939 66.2591C927.343 67.7236 926.536 68.9939 925.508 70.0774C924.482 71.1596 923.27 72.0127 921.872 72.643C920.476 73.2737 918.959 73.5891 917.33 73.5891C917.119 73.5891 916.749 73.5829 916.226 73.5719C915.703 73.5609 915.101 73.5058 914.428 73.4129C913.75 73.3164 913.034 73.1737 912.277 72.9826C911.521 72.7949 910.802 72.532 910.126 72.1981L916.174 46.2663L921.592 45.4097L919.426 54.6119C919.89 54.3988 920.357 54.2336 920.823 54.1134C921.29 53.9949 921.79 53.9332 922.326 53.9332ZM917.782 69.204C918.597 69.204 919.366 68.9992 920.088 68.597C920.813 68.1945 921.438 67.6509 921.961 66.974C922.485 66.2939 922.899 65.528 923.201 64.6722C923.504 63.8164 923.656 62.9236 923.656 61.9947C923.656 60.8535 923.47 59.9634 923.097 59.3199C922.724 58.679 922.035 58.3566 921.034 58.3566C920.706 58.3566 920.283 58.4205 919.759 58.5346C919.234 58.6557 918.763 58.9072 918.341 59.2855L916.035 69.0582C916.174 69.0833 916.297 69.1071 916.402 69.1295C916.505 69.1538 916.619 69.1709 916.732 69.1828C916.851 69.1965 916.988 69.2035 917.153 69.2035C917.319 69.2035 917.526 69.204 917.782 69.204ZM934.447 73.0927H929.272L933.642 54.3309H938.852L934.447 73.0927ZM936.965 52.045C936.242 52.045 935.588 51.8257 935.007 51.3861C934.421 50.9492 934.131 50.2766 934.131 49.3702C934.131 48.8716 934.23 48.4038 934.427 47.9625C934.627 47.5221 934.888 47.1428 935.215 46.8204C935.542 46.5007 935.92 46.2452 936.35 46.0527C936.783 45.8633 937.243 45.7686 937.733 45.7686C938.455 45.7686 939.107 45.988 939.69 46.4275C940.271 46.8693 940.563 47.5419 940.563 48.4435C940.563 48.9438 940.464 49.4133 940.266 49.8538C940.068 50.2942 939.807 50.6735 939.48 50.9959C939.156 51.3161 938.774 51.5706 938.345 51.7614C937.912 51.9538 937.453 52.045 936.965 52.045ZM943.387 49.6565L948.806 48.7998L947.475 54.3301H953.279L952.231 58.6808H946.462L944.925 65.2435C944.784 65.7905 944.704 66.3014 944.681 66.7762C944.656 67.2532 944.715 67.6628 944.855 68.0077C944.994 68.3535 945.244 68.6199 945.606 68.8084C945.967 69 946.484 69.0965 947.161 69.0965C947.72 69.0965 948.263 69.0423 948.789 68.9349C949.312 68.8291 949.842 68.682 950.378 68.4896L950.764 72.5575C950.064 72.8192 949.307 73.0442 948.491 73.2336C947.674 73.4257 946.707 73.5182 945.589 73.5182C943.981 73.5182 942.735 73.2746 941.847 72.7897C940.961 72.3012 940.334 71.6339 939.959 70.7891C939.589 69.9474 939.423 68.9771 939.47 67.8839C939.517 66.7881 939.679 65.6363 939.959 64.4233L943.387 49.6565ZM953.051 65.6007C953.051 63.9847 953.308 62.4607 953.82 61.0341C954.332 59.6062 955.069 58.3575 956.025 57.2859C956.977 56.2196 958.138 55.3748 959.504 54.7546C960.864 54.138 962.387 53.8271 964.064 53.8271C965.115 53.8271 966.053 53.9284 966.878 54.1314C967.707 54.3362 968.457 54.6009 969.135 54.933L967.35 59.0732C966.884 58.8803 966.4 58.7103 965.9 58.5561C965.399 58.3989 964.788 58.3232 964.065 58.3232C962.338 58.3232 960.972 58.9305 959.956 60.1413C958.944 61.353 958.434 62.984 958.434 65.0298C958.434 66.2424 958.691 67.2228 959.205 67.9729C959.717 68.723 960.663 69.0961 962.036 69.0961C962.714 69.0961 963.368 69.0238 963.994 68.8829C964.625 68.7402 965.182 68.5605 965.673 68.3482L966.06 72.5923C965.405 72.8513 964.683 73.0852 963.892 73.29C963.098 73.4878 962.154 73.5904 961.059 73.5904C959.613 73.5904 958.389 73.3746 957.388 72.9495C956.387 72.5179 955.559 71.9449 954.908 71.219C954.252 70.4914 953.782 69.6418 953.491 68.6666C953.2 67.6924 953.051 66.6688 953.051 65.6007ZM976.038 73.5904C974.803 73.5904 973.73 73.3983 972.82 73.0182C971.913 72.6381 971.161 72.1048 970.567 71.4133C969.971 70.7253 969.526 69.91 969.221 68.9705C968.916 68.0315 968.769 66.9916 968.769 65.8522C968.769 64.4229 968.994 62.9941 969.448 61.5693C969.901 60.1413 970.572 58.8583 971.46 57.718C972.342 56.5759 973.429 55.6421 974.709 54.9141C975.988 54.1909 977.459 53.8271 979.112 53.8271C980.324 53.8271 981.391 54.0195 982.314 54.3996C983.232 54.7789 983.988 55.3167 984.586 56.0046C985.178 56.6961 985.627 57.5079 985.929 58.4487C986.233 59.386 986.384 60.4285 986.384 61.5688C986.384 62.9937 986.162 64.4225 985.721 65.8517C985.281 67.2739 984.627 68.56 983.763 69.703C982.902 70.8433 981.824 71.7766 980.53 72.5016C979.238 73.2266 977.739 73.5904 976.038 73.5904ZM978.624 58.3236C977.857 58.3236 977.178 58.5509 976.598 58.9997C976.015 59.4538 975.526 60.0246 975.131 60.713C974.732 61.4045 974.437 62.1586 974.237 62.9782C974.039 63.7997 973.941 64.5762 973.941 65.3139C973.941 66.5045 974.13 67.4316 974.5 68.0989C974.875 68.7626 975.548 69.0965 976.528 69.0965C977.298 69.0965 977.972 68.871 978.556 68.4173C979.136 67.9668 979.626 67.3955 980.023 66.7057C980.419 66.0178 980.718 65.2615 980.918 64.4405C981.113 63.6217 981.213 62.8408 981.213 62.1044C981.213 60.9169 981.025 59.9876 980.652 59.3212C980.279 58.6575 979.602 58.3236 978.624 58.3236ZM992.022 73.0927H986.843L991.213 54.3309H996.425L992.022 73.0927ZM994.536 52.045C993.814 52.045 993.16 51.8257 992.58 51.3861C991.997 50.9492 991.704 50.2766 991.704 49.3702C991.704 48.8716 991.805 48.4038 992.002 47.9625C992.199 47.5221 992.462 47.1428 992.79 46.8204C993.115 46.5007 993.497 46.2452 993.926 46.0527C994.356 45.8633 994.816 45.7686 995.304 45.7686C996.028 45.7686 996.681 45.988 997.263 46.4275C997.846 46.8693 998.14 47.5419 998.14 48.4435C998.14 48.9438 998.035 49.4133 997.84 49.8538C997.644 50.2942 997.381 50.6735 997.055 50.9959C996.727 51.3161 996.35 51.5706 995.92 51.7614C995.487 51.9538 995.027 52.045 994.536 52.045ZM1000.15 55.1841C1000.55 55.0669 1000.99 54.926 1001.46 54.7727C1001.94 54.6194 1002.48 54.4767 1003.07 54.3481C1003.66 54.2155 1004.33 54.1081 1005.07 54.0248C1005.8 53.9398 1006.63 53.8984 1007.56 53.8984C1010.29 53.8984 1012.17 54.7093 1013.21 56.3262C1014.25 57.943 1014.43 60.1559 1013.76 62.9606L1011.38 73.0909H1006.17L1008.47 63.1738C1008.61 62.5545 1008.72 61.956 1008.81 61.371C1008.89 60.7914 1008.88 60.2805 1008.79 59.8383C1008.7 59.4014 1008.48 59.0437 1008.14 58.7667C1007.8 58.494 1007.29 58.3571 1006.59 58.3571C1005.91 58.3571 1005.22 58.4311 1004.52 58.5738L1001.13 73.0905H995.922L1000.15 55.1841Z" fill="#959595"/>
<mask id="mask1_75_42" style="mask-type:alpha" maskUnits="userSpaceOnUse" x="1045" y="3" width="170" height="113">
<path fill-rule="evenodd" clip-rule="evenodd" d="M1072.5 56.5076C1078.42 54.4714 1079.43 49.1672 1078.68 44.2904C1078.68 44.1144 1078.83 43.9887 1078.98 44.039C1084.65 46.8042 1091.03 52.8374 1091.03 61.8871C1091.03 68.8253 1085.64 74.959 1077.79 74.959C1075 75.0859 1072.24 74.2801 1069.95 72.6688C1067.66 71.0576 1065.98 68.7326 1065.16 66.061C1064.35 63.3893 1064.45 60.523 1065.45 57.9146C1066.45 55.3061 1068.29 53.104 1070.68 51.6559C1070.84 51.5553 1071.04 51.6559 1071.04 51.8318C1071.11 52.762 1071.36 55.0998 1072.4 56.5076H1072.5Z" fill="#959595"/>
<path fill-rule="evenodd" clip-rule="evenodd" d="M1107.72 69.4536L1108.15 68.9509L1109.49 73.1741L1109.31 73.3501C1108.3 74.2802 1106.79 74.7578 1104.85 74.7578H1104.77C1103.01 74.7578 1101.62 74.255 1100.66 73.3249C1099.7 72.3697 1099.2 70.9368 1099.2 69.1268V57.6135H1095.8V52.963H1099.2V47.3571H1104.44V52.963H1108.6V57.6135H1104.42V67.9956C1104.42 68.4732 1104.54 70.0067 1106.01 70.0067C1106.76 70.0067 1107.47 69.7302 1107.72 69.4285V69.4536ZM1110.49 74.2802V52.9881H1115.74V74.2802H1110.49ZM1113.09 44.2903C1113.71 44.2903 1114.32 44.474 1114.84 44.8182C1115.36 45.1623 1115.76 45.6516 1116 46.2243C1116.24 46.797 1116.3 47.4276 1116.18 48.0364C1116.06 48.6452 1115.77 49.2052 1115.33 49.6456C1114.89 50.0861 1114.33 50.3873 1113.72 50.5114C1113.11 50.6354 1112.48 50.5768 1111.9 50.3428C1111.33 50.1088 1110.83 49.71 1110.48 49.1966C1110.13 48.6831 1109.94 48.0781 1109.94 47.4577C1109.94 45.7483 1111.38 44.2903 1113.09 44.2903ZM1129.83 52.4602C1134.37 52.4602 1136.87 54.9237 1136.87 59.4235V74.255H1131.62V60.6804C1131.52 58.2671 1130.36 57.161 1127.89 57.161C1125.67 57.161 1123.88 58.5185 1122.97 59.6749V74.255H1117.73V53.0132H1122.97V55.2757C1124.49 53.8177 1126.91 52.5105 1129.83 52.5105V52.4602ZM1154.31 55.2003V45.1953H1159.56V74.3053H1154.31V72.0931C1153.51 72.937 1152.55 73.6103 1151.48 74.0726C1150.41 74.5348 1149.25 74.7765 1148.09 74.7829C1142.36 74.7829 1138.53 70.3083 1138.53 63.6467C1138.53 56.9599 1142.36 52.4853 1148.09 52.4853C1149.26 52.4907 1150.41 52.7342 1151.48 53.2011C1152.55 53.668 1153.52 54.3483 1154.31 55.2003ZM1154.31 59.7C1153.73 58.9411 1152.98 58.3216 1152.13 57.8867C1151.27 57.4519 1150.33 57.2125 1149.37 57.1862C1146.12 57.1862 1143.95 59.7754 1143.95 63.6467C1143.95 67.4929 1146.12 70.0821 1149.37 70.0821C1151.26 70.0821 1153.33 69.0766 1154.31 67.6185V59.7ZM1171.81 52.4853C1178.01 52.4853 1182.32 57.2616 1182.32 64.0489V65.4818H1166.47C1167 68.4732 1169.37 70.3838 1172.59 70.3838C1174.63 70.3838 1176.88 69.5039 1178.16 68.2219L1178.52 67.9202L1181.01 71.4898L1180.76 71.7161C1178.4 73.8046 1175.32 74.9033 1172.16 74.7829C1165.61 74.7829 1160.99 70.1826 1160.99 63.6216C1160.94 62.173 1161.19 60.7291 1161.71 59.3765C1162.23 58.024 1163.02 56.7907 1164.04 55.7506C1165.05 54.7105 1166.26 53.8852 1167.6 53.3241C1168.94 52.763 1170.38 52.4777 1171.84 52.4853H1171.81ZM1166.44 61.5351H1177.21C1176.9 58.3425 1174.26 56.8845 1171.81 56.8845C1168.13 56.8845 1166.74 59.6497 1166.44 61.5602V61.5351ZM1195.01 52.4853H1195.38V57.7644L1194.93 57.689C1194.55 57.6135 1194.07 57.5633 1193.59 57.5633C1191.91 57.5633 1189.56 58.7448 1188.68 60.0017V74.255H1183.43V52.9881H1188.7V55.3511C1190.44 53.5411 1192.74 52.4853 1195.01 52.4853Z" fill="#959595"/>
</mask>
<g mask="url(#mask1_75_42)">
<rect x="1026" y="20" width="200" height="87" fill="url(#paint1_linear_75_42)"/>
</g>
<defs>
<linearGradient id="paint0_linear_75_42" x1="180" y1="53" x2="-20" y2="53" gradientUnits="userSpaceOnUse">
<stop stop-color="#D9D9D9"/>
<stop offset="1" stop-color="#D9D9D9" stop-opacity="0"/>
</linearGradient>
<linearGradient id="paint1_linear_75_42" x1="1026" y1="45.5" x2="1233.5" y2="45.5" gradientUnits="userSpaceOnUse">
<stop stop-color="#D9D9D9"/>
<stop offset="1" stop-color="#D9D9D9" stop-opacity="0"/>
</linearGradient>
</defs>
</svg>
