<svg width="855" height="292" viewBox="0 0 855 292" fill="none" xmlns="http://www.w3.org/2000/svg">
<path d="M34.9038 71H484L449.096 151H0L34.9038 71Z" fill="#06629E"/>
<path d="M72.989 13.966V23.145H60.527V61H49.07V23.145H36.608V13.966H72.989ZM119.475 13.966V61H108.018V41.637H90.196V61H78.739V13.966H90.196V32.391H108.018V13.966H119.475ZM139.203 23.145V32.659H154.546V41.503H139.203V51.821H156.556V61H127.746V13.966H156.556V23.145H139.203ZM220.268 61H208.811L189.649 31.989V61H178.192V13.966H189.649L208.811 43.111V13.966H220.268V61ZM240.03 23.145V32.659H255.373V41.503H240.03V51.821H257.383V61H228.573V13.966H257.383V23.145H240.03ZM329.543 13.966L317.282 61H303.413L295.909 30.046L288.137 61H274.268L262.342 13.966H274.603L281.37 48.203L289.745 13.966H302.341L310.381 48.203L317.215 13.966H329.543ZM414.209 13.966L401.948 61H388.079L380.575 30.046L372.803 61H358.934L347.008 13.966H359.269L366.036 48.203L374.411 13.966H387.007L395.047 48.203L401.881 13.966H414.209ZM449.234 52.692H431.68L428.866 61H416.873L433.891 13.966H447.157L464.175 61H452.048L449.234 52.692ZM446.286 43.848L440.457 26.629L434.695 43.848H446.286ZM509.688 13.966L493.407 45.456V61H481.95V45.456L465.669 13.966H478.667L487.779 33.664L496.824 13.966H509.688ZM562.338 13.966V23.145H549.876V61H538.419V23.145H525.957V13.966H562.338ZM590.332 61.469C585.91 61.469 581.845 60.4417 578.138 58.387C574.475 56.3323 571.549 53.4737 569.361 49.811C567.217 46.1037 566.145 41.9497 566.145 37.349C566.145 32.7483 567.217 28.6167 569.361 24.954C571.549 21.2913 574.475 18.4327 578.138 16.378C581.845 14.3233 585.91 13.296 590.332 13.296C594.754 13.296 598.796 14.3233 602.459 16.378C606.166 18.4327 609.069 21.2913 611.169 24.954C613.313 28.6167 614.385 32.7483 614.385 37.349C614.385 41.9497 613.313 46.1037 611.169 49.811C609.025 53.4737 606.121 56.3323 602.459 58.387C598.796 60.4417 594.754 61.469 590.332 61.469ZM590.332 51.017C594.084 51.017 597.076 49.7663 599.31 47.265C601.588 44.7637 602.727 41.4583 602.727 37.349C602.727 33.195 601.588 29.8897 599.31 27.433C597.076 24.9317 594.084 23.681 590.332 23.681C586.535 23.681 583.498 24.9093 581.22 27.366C578.986 29.8227 577.87 33.1503 577.87 37.349C577.87 41.503 578.986 44.8307 581.22 47.332C583.498 49.7887 586.535 51.017 590.332 51.017ZM679.11 13.966L662.427 61H648.089L631.406 13.966H643.6L655.258 49.476L666.983 13.966H679.11ZM713.177 52.692H695.623L692.809 61H680.816L697.834 13.966H711.1L728.118 61H715.991L713.177 52.692ZM710.229 43.848L704.4 26.629L698.638 43.848H710.229ZM744.755 52.156H759.763V61H733.298V13.966H744.755V52.156ZM776.483 13.966V42.106C776.483 44.92 777.176 47.0863 778.56 48.605C779.945 50.1237 781.977 50.883 784.657 50.883C787.337 50.883 789.392 50.1237 790.821 48.605C792.251 47.0863 792.965 44.92 792.965 42.106V13.966H804.422V42.039C804.422 46.2377 803.529 49.7887 801.742 52.692C799.956 55.5953 797.544 57.784 794.506 59.258C791.514 60.732 788.164 61.469 784.456 61.469C780.749 61.469 777.421 60.7543 774.473 59.325C771.57 57.851 769.27 55.6623 767.572 52.759C765.875 49.811 765.026 46.2377 765.026 42.039V13.966H776.483ZM823.924 23.145V32.659H839.267V41.503H823.924V51.821H841.277V61H812.467V13.966H841.277V23.145H823.924Z" fill="#06629E"/>
<path d="M37.211 112.416C37.211 107.771 38.216 103.639 40.226 100.021C42.236 96.3583 45.0277 93.522 48.601 91.512C52.219 89.4573 56.306 88.43 60.862 88.43C66.4453 88.43 71.2247 89.904 75.2 92.852C79.1753 95.8 81.833 99.82 83.173 104.912H70.577C69.639 102.947 68.299 101.45 66.557 100.423C64.8597 99.3957 62.9167 98.882 60.728 98.882C57.1993 98.882 54.3407 100.11 52.152 102.567C49.9633 105.024 48.869 108.307 48.869 112.416C48.869 116.525 49.9633 119.808 52.152 122.265C54.3407 124.722 57.1993 125.95 60.728 125.95C62.9167 125.95 64.8597 125.436 66.557 124.409C68.299 123.382 69.639 121.885 70.577 119.92H83.173C81.833 125.012 79.1753 129.032 75.2 131.98C71.2247 134.883 66.4453 136.335 60.862 136.335C56.306 136.335 52.219 135.33 48.601 133.32C45.0277 131.265 42.236 128.429 40.226 124.811C38.216 121.193 37.211 117.061 37.211 112.416ZM112.433 136.469C108.011 136.469 103.946 135.442 100.239 133.387C96.5765 131.332 93.6508 128.474 91.4622 124.811C89.3182 121.104 88.2462 116.95 88.2462 112.349C88.2462 107.748 89.3182 103.617 91.4622 99.954C93.6508 96.2913 96.5765 93.4327 100.239 91.378C103.946 89.3233 108.011 88.296 112.433 88.296C116.855 88.296 120.897 89.3233 124.56 91.378C128.267 93.4327 131.171 96.2913 133.27 99.954C135.414 103.617 136.486 107.748 136.486 112.349C136.486 116.95 135.414 121.104 133.27 124.811C131.126 128.474 128.223 131.332 124.56 133.387C120.897 135.442 116.855 136.469 112.433 136.469ZM112.433 126.017C116.185 126.017 119.178 124.766 121.411 122.265C123.689 119.764 124.828 116.458 124.828 112.349C124.828 108.195 123.689 104.89 121.411 102.433C119.178 99.9317 116.185 98.681 112.433 98.681C108.636 98.681 105.599 99.9093 103.321 102.366C101.088 104.823 99.9712 108.15 99.9712 112.349C99.9712 116.503 101.088 119.831 103.321 122.332C105.599 124.789 108.636 126.017 112.433 126.017ZM196.125 88.966V136H184.668V107.793L174.149 136H164.903L154.317 107.726V136H142.86V88.966H156.394L169.593 121.528L182.658 88.966H196.125ZM240.209 104.108C240.209 106.833 239.584 109.334 238.333 111.612C237.082 113.845 235.162 115.654 232.571 117.039C229.98 118.424 226.764 119.116 222.923 119.116H215.821V136H204.364V88.966H222.923C226.675 88.966 229.846 89.6137 232.437 90.909C235.028 92.2043 236.971 93.991 238.266 96.269C239.561 98.547 240.209 101.16 240.209 104.108ZM222.052 110.004C224.241 110.004 225.871 109.49 226.943 108.463C228.015 107.436 228.551 105.984 228.551 104.108C228.551 102.232 228.015 100.78 226.943 99.753C225.871 98.7257 224.241 98.212 222.052 98.212H215.821V110.004H222.052ZM275.453 127.692H257.899L255.085 136H243.092L260.11 88.966H273.376L290.394 136H278.267L275.453 127.692ZM272.505 118.848L266.676 101.629L260.914 118.848H272.505ZM337.649 136H326.192L307.03 106.989V136H295.573V88.966H307.03L326.192 118.111V88.966H337.649V136ZM357.411 88.966V136H345.954V88.966H357.411ZM377.171 98.145V107.659H392.514V116.503H377.171V126.821H394.524V136H365.714V88.966H394.524V98.145H377.171ZM418.98 136.469C415.54 136.469 412.458 135.911 409.734 134.794C407.009 133.677 404.82 132.025 403.168 129.836C401.56 127.647 400.711 125.012 400.622 121.93H412.816C412.994 123.672 413.597 125.012 414.625 125.95C415.652 126.843 416.992 127.29 418.645 127.29C420.342 127.29 421.682 126.91 422.665 126.151C423.647 125.347 424.139 124.253 424.139 122.868C424.139 121.707 423.737 120.746 422.933 119.987C422.173 119.228 421.213 118.602 420.052 118.111C418.935 117.62 417.327 117.061 415.228 116.436C412.19 115.498 409.711 114.56 407.791 113.622C405.87 112.684 404.217 111.299 402.833 109.468C401.448 107.637 400.756 105.247 400.756 102.299C400.756 97.9217 402.341 94.5047 405.513 92.048C408.684 89.5467 412.816 88.296 417.908 88.296C423.089 88.296 427.265 89.5467 430.437 92.048C433.608 94.5047 435.305 97.944 435.529 102.366H423.134C423.044 100.847 422.486 99.6637 421.459 98.815C420.431 97.9217 419.114 97.475 417.506 97.475C416.121 97.475 415.004 97.8547 414.156 98.614C413.307 99.3287 412.883 100.378 412.883 101.763C412.883 103.282 413.597 104.465 415.027 105.314C416.456 106.163 418.689 107.078 421.727 108.061C424.764 109.088 427.221 110.071 429.097 111.009C431.017 111.947 432.67 113.309 434.055 115.096C435.439 116.883 436.132 119.183 436.132 121.997C436.132 124.677 435.439 127.111 434.055 129.3C432.715 131.489 430.749 133.231 428.159 134.526C425.568 135.821 422.508 136.469 418.98 136.469Z" fill="white"/>
<path d="M44.184 187.72L40.488 194.728V199H39.016V194.728L35.304 187.72H37L39.768 193.176L42.52 187.72H44.184ZM49.6364 190.104C50.479 190.104 51.231 190.285 51.8924 190.648C52.5644 191.011 53.087 191.533 53.4604 192.216C53.8444 192.899 54.0364 193.699 54.0364 194.616C54.0364 195.533 53.8444 196.333 53.4604 197.016C53.087 197.688 52.5644 198.205 51.8924 198.568C51.231 198.931 50.479 199.112 49.6364 199.112C48.7937 199.112 48.0364 198.931 47.3644 198.568C46.703 198.205 46.1804 197.688 45.7964 197.016C45.4124 196.333 45.2204 195.533 45.2204 194.616C45.2204 193.699 45.4124 192.899 45.7964 192.216C46.1804 191.533 46.703 191.011 47.3644 190.648C48.0364 190.285 48.7937 190.104 49.6364 190.104ZM49.6364 191.384C49.1137 191.384 48.6284 191.501 48.1804 191.736C47.743 191.971 47.3857 192.333 47.1084 192.824C46.8417 193.304 46.7084 193.901 46.7084 194.616C46.7084 195.32 46.8417 195.917 47.1084 196.408C47.3857 196.888 47.743 197.245 48.1804 197.48C48.6284 197.715 49.1137 197.832 49.6364 197.832C50.159 197.832 50.639 197.715 51.0764 197.48C51.5244 197.245 51.8817 196.888 52.1484 196.408C52.4257 195.917 52.5644 195.32 52.5644 194.616C52.5644 193.901 52.4257 193.304 52.1484 192.824C51.8817 192.333 51.5244 191.971 51.0764 191.736C50.639 191.501 50.159 191.384 49.6364 191.384ZM63.7416 190.216V199H62.2856V196.936C62.0616 197.651 61.6616 198.2 61.0856 198.584C60.5203 198.957 59.859 199.144 59.1016 199.144C58.0883 199.144 57.267 198.819 56.6376 198.168C56.0083 197.507 55.6936 196.563 55.6936 195.336V190.216H57.1496V195.192C57.1496 196.067 57.3736 196.744 57.8216 197.224C58.2696 197.693 58.8776 197.928 59.6456 197.928C60.4456 197.928 61.0856 197.672 61.5656 197.16C62.0456 196.637 62.2856 195.88 62.2856 194.888V190.216H63.7416ZM73.9154 190.104C75.0354 190.104 75.9634 190.403 76.6994 191C77.4354 191.597 77.8887 192.397 78.0594 193.4H76.5234C76.4167 192.771 76.1234 192.28 75.6434 191.928C75.174 191.565 74.5874 191.384 73.8834 191.384C73.3714 191.384 72.902 191.501 72.4754 191.736C72.0594 191.971 71.7234 192.333 71.4674 192.824C71.2114 193.304 71.0834 193.901 71.0834 194.616C71.0834 195.331 71.2114 195.933 71.4674 196.424C71.7234 196.904 72.0594 197.261 72.4754 197.496C72.902 197.731 73.3714 197.848 73.8834 197.848C74.5874 197.848 75.174 197.667 75.6434 197.304C76.1234 196.941 76.4167 196.445 76.5234 195.816H78.0594C77.8887 196.829 77.4354 197.635 76.6994 198.232C75.9634 198.819 75.0354 199.112 73.9154 199.112C73.0727 199.112 72.326 198.931 71.6754 198.568C71.0247 198.205 70.5127 197.688 70.1394 197.016C69.7767 196.333 69.5954 195.533 69.5954 194.616C69.5954 193.699 69.7767 192.899 70.1394 192.216C70.5127 191.533 71.0247 191.011 71.6754 190.648C72.326 190.285 73.0727 190.104 73.9154 190.104ZM83.5649 190.104C84.4182 190.104 85.1382 190.317 85.7249 190.744C86.3222 191.171 86.7382 191.741 86.9729 192.456V190.216H88.4289V199H86.9729V196.76C86.7382 197.475 86.3222 198.045 85.7249 198.472C85.1382 198.899 84.4182 199.112 83.5649 199.112C82.7862 199.112 82.0929 198.931 81.4849 198.568C80.8769 198.205 80.3969 197.688 80.0449 197.016C79.7035 196.333 79.5329 195.533 79.5329 194.616C79.5329 193.699 79.7035 192.899 80.0449 192.216C80.3969 191.533 80.8769 191.011 81.4849 190.648C82.0929 190.285 82.7862 190.104 83.5649 190.104ZM83.9809 191.4C83.0849 191.4 82.3649 191.688 81.8209 192.264C81.2875 192.829 81.0209 193.613 81.0209 194.616C81.0209 195.619 81.2875 196.408 81.8209 196.984C82.3649 197.549 83.0849 197.832 83.9809 197.832C84.5569 197.832 85.0689 197.699 85.5169 197.432C85.9755 197.165 86.3329 196.792 86.5889 196.312C86.8449 195.821 86.9729 195.256 86.9729 194.616C86.9729 193.976 86.8449 193.411 86.5889 192.92C86.3329 192.429 85.9755 192.056 85.5169 191.8C85.0689 191.533 84.5569 191.4 83.9809 191.4ZM95.3701 190.072C96.3941 190.072 97.2208 190.403 97.8501 191.064C98.4795 191.715 98.7941 192.659 98.7941 193.896V199H97.3381V194.024C97.3381 193.149 97.1141 192.477 96.6661 192.008C96.2181 191.539 95.6101 191.304 94.8421 191.304C94.0421 191.304 93.4021 191.565 92.9221 192.088C92.4421 192.6 92.2021 193.352 92.2021 194.344V199H90.7461V190.216H92.2021V192.296C92.4261 191.581 92.8208 191.032 93.3861 190.648C93.9621 190.264 94.6235 190.072 95.3701 190.072ZM109.605 190.072C110.629 190.072 111.455 190.403 112.085 191.064C112.714 191.715 113.029 192.659 113.029 193.896V199H111.573V194.024C111.573 193.149 111.349 192.477 110.901 192.008C110.453 191.539 109.845 191.304 109.077 191.304C108.277 191.304 107.637 191.565 107.157 192.088C106.677 192.6 106.437 193.352 106.437 194.344V199H104.981V190.216H106.437V192.296C106.661 191.581 107.055 191.032 107.621 190.648C108.197 190.264 108.858 190.072 109.605 190.072ZM119.246 190.104C120.088 190.104 120.84 190.285 121.502 190.648C122.174 191.011 122.696 191.533 123.07 192.216C123.454 192.899 123.646 193.699 123.646 194.616C123.646 195.533 123.454 196.333 123.07 197.016C122.696 197.688 122.174 198.205 121.502 198.568C120.84 198.931 120.088 199.112 119.246 199.112C118.403 199.112 117.646 198.931 116.974 198.568C116.312 198.205 115.79 197.688 115.406 197.016C115.022 196.333 114.83 195.533 114.83 194.616C114.83 193.699 115.022 192.899 115.406 192.216C115.79 191.533 116.312 191.011 116.974 190.648C117.646 190.285 118.403 190.104 119.246 190.104ZM119.246 191.384C118.723 191.384 118.238 191.501 117.79 191.736C117.352 191.971 116.995 192.333 116.718 192.824C116.451 193.304 116.318 193.901 116.318 194.616C116.318 195.32 116.451 195.917 116.718 196.408C116.995 196.888 117.352 197.245 117.79 197.48C118.238 197.715 118.723 197.832 119.246 197.832C119.768 197.832 120.248 197.715 120.686 197.48C121.134 197.245 121.491 196.888 121.758 196.408C122.035 195.917 122.174 195.32 122.174 194.616C122.174 193.901 122.035 193.304 121.758 192.824C121.491 192.333 121.134 191.971 120.686 191.736C120.248 191.501 119.768 191.384 119.246 191.384ZM137.607 190.216L135.079 199H133.511L131.095 191.848L128.663 199H127.079L124.583 190.216H126.055L127.927 197.608L130.359 190.216H131.879L134.327 197.592L136.215 190.216H137.607ZM146.326 197.448L149.046 190.216H150.614L147.174 199H145.446L142.006 190.216H143.574L146.326 197.448ZM155.643 190.104C156.496 190.104 157.216 190.317 157.803 190.744C158.4 191.171 158.816 191.741 159.051 192.456V190.216H160.507V199H159.051V196.76C158.816 197.475 158.4 198.045 157.803 198.472C157.216 198.899 156.496 199.112 155.643 199.112C154.864 199.112 154.171 198.931 153.563 198.568C152.955 198.205 152.475 197.688 152.123 197.016C151.782 196.333 151.611 195.533 151.611 194.616C151.611 193.699 151.782 192.899 152.123 192.216C152.475 191.533 152.955 191.011 153.563 190.648C154.171 190.285 154.864 190.104 155.643 190.104ZM156.059 191.4C155.163 191.4 154.443 191.688 153.899 192.264C153.366 192.829 153.099 193.613 153.099 194.616C153.099 195.619 153.366 196.408 153.899 196.984C154.443 197.549 155.163 197.832 156.059 197.832C156.635 197.832 157.147 197.699 157.595 197.432C158.054 197.165 158.411 196.792 158.667 196.312C158.923 195.821 159.051 195.256 159.051 194.616C159.051 193.976 158.923 193.411 158.667 192.92C158.411 192.429 158.054 192.056 157.595 191.8C157.147 191.533 156.635 191.4 156.059 191.4ZM164.28 187.16V199H162.824V187.16H164.28ZM174.429 190.216V199H172.973V196.936C172.749 197.651 172.349 198.2 171.773 198.584C171.208 198.957 170.546 199.144 169.789 199.144C168.776 199.144 167.954 198.819 167.325 198.168C166.696 197.507 166.381 196.563 166.381 195.336V190.216H167.837V195.192C167.837 196.067 168.061 196.744 168.509 197.224C168.957 197.693 169.565 197.928 170.333 197.928C171.133 197.928 171.773 197.672 172.253 197.16C172.733 196.637 172.973 195.88 172.973 194.888V190.216H174.429ZM184.842 194.12C184.842 194.429 184.82 194.696 184.778 194.92H177.754C177.786 195.923 178.068 196.675 178.602 197.176C179.146 197.677 179.807 197.928 180.586 197.928C181.29 197.928 181.876 197.752 182.346 197.4C182.826 197.037 183.119 196.557 183.226 195.96H184.778C184.671 196.568 184.431 197.112 184.058 197.592C183.695 198.072 183.22 198.445 182.634 198.712C182.047 198.979 181.386 199.112 180.65 199.112C179.807 199.112 179.06 198.931 178.41 198.568C177.759 198.205 177.247 197.688 176.874 197.016C176.511 196.333 176.33 195.533 176.33 194.616C176.33 193.699 176.511 192.899 176.874 192.216C177.247 191.533 177.759 191.011 178.41 190.648C179.06 190.285 179.807 190.104 180.65 190.104C181.503 190.104 182.244 190.285 182.874 190.648C183.514 191.011 183.999 191.496 184.33 192.104C184.671 192.712 184.842 193.384 184.842 194.12ZM183.37 194.216C183.402 193.565 183.295 193.021 183.05 192.584C182.804 192.147 182.468 191.821 182.042 191.608C181.615 191.395 181.151 191.288 180.65 191.288C179.85 191.288 179.178 191.539 178.634 192.04C178.09 192.531 177.796 193.256 177.754 194.216H183.37ZM194.299 190.104C195.153 190.104 195.873 190.317 196.459 190.744C197.057 191.171 197.473 191.741 197.707 192.456V190.216H199.163V199H197.707V196.76C197.473 197.475 197.057 198.045 196.459 198.472C195.873 198.899 195.153 199.112 194.299 199.112C193.521 199.112 192.827 198.931 192.219 198.568C191.611 198.205 191.131 197.688 190.779 197.016C190.438 196.333 190.267 195.533 190.267 194.616C190.267 193.699 190.438 192.899 190.779 192.216C191.131 191.533 191.611 191.011 192.219 190.648C192.827 190.285 193.521 190.104 194.299 190.104ZM194.715 191.4C193.819 191.4 193.099 191.688 192.555 192.264C192.022 192.829 191.755 193.613 191.755 194.616C191.755 195.619 192.022 196.408 192.555 196.984C193.099 197.549 193.819 197.832 194.715 197.832C195.291 197.832 195.803 197.699 196.251 197.432C196.71 197.165 197.067 196.792 197.323 196.312C197.579 195.821 197.707 195.256 197.707 194.616C197.707 193.976 197.579 193.411 197.323 192.92C197.067 192.429 196.71 192.056 196.251 191.8C195.803 191.533 195.291 191.4 194.715 191.4ZM210.282 190.104C211.06 190.104 211.754 190.285 212.362 190.648C212.97 191.011 213.444 191.533 213.786 192.216C214.138 192.899 214.314 193.699 214.314 194.616C214.314 195.533 214.138 196.333 213.786 197.016C213.444 197.688 212.97 198.205 212.362 198.568C211.754 198.931 211.06 199.112 210.282 199.112C209.428 199.112 208.703 198.899 208.106 198.472C207.519 198.035 207.114 197.464 206.89 196.76V199H205.434V187.16H206.89V192.456C207.114 191.752 207.519 191.187 208.106 190.76C208.703 190.323 209.428 190.104 210.282 190.104ZM209.866 191.4C209.3 191.4 208.788 191.533 208.33 191.8C207.871 192.056 207.514 192.429 207.258 192.92C207.002 193.411 206.874 193.976 206.874 194.616C206.874 195.256 207.002 195.821 207.258 196.312C207.514 196.792 207.871 197.165 208.33 197.432C208.788 197.699 209.3 197.832 209.866 197.832C210.772 197.832 211.492 197.549 212.026 196.984C212.57 196.408 212.842 195.619 212.842 194.616C212.842 193.613 212.57 192.829 212.026 192.264C211.492 191.688 210.772 191.4 209.866 191.4ZM224.023 190.216V199H222.567V196.936C222.343 197.651 221.943 198.2 221.367 198.584C220.802 198.957 220.14 199.144 219.383 199.144C218.37 199.144 217.548 198.819 216.919 198.168C216.29 197.507 215.975 196.563 215.975 195.336V190.216H217.431V195.192C217.431 196.067 217.655 196.744 218.103 197.224C218.551 197.693 219.159 197.928 219.927 197.928C220.727 197.928 221.367 197.672 221.847 197.16C222.327 196.637 222.567 195.88 222.567 194.888V190.216H224.023ZM229.108 190.104C230.1 190.104 230.894 190.365 231.492 190.888C232.1 191.4 232.468 192.093 232.596 192.968H231.204C231.14 192.445 230.921 192.019 230.548 191.688C230.185 191.347 229.694 191.176 229.076 191.176C228.553 191.176 228.142 191.304 227.844 191.56C227.556 191.805 227.412 192.141 227.412 192.568C227.412 192.888 227.508 193.149 227.7 193.352C227.902 193.544 228.148 193.693 228.436 193.8C228.734 193.896 229.14 194.003 229.652 194.12C230.302 194.269 230.825 194.424 231.22 194.584C231.625 194.733 231.966 194.979 232.244 195.32C232.532 195.661 232.676 196.12 232.676 196.696C232.676 197.411 232.404 197.992 231.86 198.44C231.326 198.888 230.612 199.112 229.716 199.112C228.67 199.112 227.817 198.861 227.156 198.36C226.494 197.859 226.105 197.16 225.988 196.264H227.396C227.449 196.797 227.678 197.229 228.084 197.56C228.5 197.891 229.044 198.056 229.716 198.056C230.217 198.056 230.606 197.928 230.884 197.672C231.172 197.416 231.316 197.08 231.316 196.664C231.316 196.323 231.214 196.051 231.012 195.848C230.809 195.645 230.558 195.491 230.26 195.384C229.961 195.277 229.55 195.165 229.028 195.048C228.377 194.899 227.854 194.749 227.46 194.6C227.076 194.451 226.745 194.216 226.468 193.896C226.201 193.565 226.068 193.123 226.068 192.568C226.068 191.832 226.34 191.24 226.884 190.792C227.428 190.333 228.169 190.104 229.108 190.104ZM234.365 187.64C234.365 187.373 234.456 187.16 234.637 187C234.818 186.829 235.058 186.744 235.357 186.744C235.656 186.744 235.896 186.829 236.077 187C236.258 187.16 236.349 187.373 236.349 187.64C236.349 187.907 236.258 188.125 236.077 188.296C235.896 188.456 235.656 188.536 235.357 188.536C235.058 188.536 234.818 188.456 234.637 188.296C234.456 188.125 234.365 187.907 234.365 187.64ZM236.077 190.216V199H234.621V190.216H236.077ZM243.042 190.072C244.066 190.072 244.893 190.403 245.522 191.064C246.151 191.715 246.466 192.659 246.466 193.896V199H245.01V194.024C245.01 193.149 244.786 192.477 244.338 192.008C243.89 191.539 243.282 191.304 242.514 191.304C241.714 191.304 241.074 191.565 240.594 192.088C240.114 192.6 239.874 193.352 239.874 194.344V199H238.418V190.216H239.874V192.296C240.098 191.581 240.493 191.032 241.058 190.648C241.634 190.264 242.295 190.072 243.042 190.072ZM256.779 194.12C256.779 194.429 256.758 194.696 256.715 194.92H249.691C249.723 195.923 250.006 196.675 250.539 197.176C251.083 197.677 251.745 197.928 252.523 197.928C253.227 197.928 253.814 197.752 254.283 197.4C254.763 197.037 255.057 196.557 255.163 195.96H256.715C256.609 196.568 256.369 197.112 255.995 197.592C255.633 198.072 255.158 198.445 254.571 198.712C253.985 198.979 253.323 199.112 252.587 199.112C251.745 199.112 250.998 198.931 250.347 198.568C249.697 198.205 249.185 197.688 248.811 197.016C248.449 196.333 248.267 195.533 248.267 194.616C248.267 193.699 248.449 192.899 248.811 192.216C249.185 191.533 249.697 191.011 250.347 190.648C250.998 190.285 251.745 190.104 252.587 190.104C253.441 190.104 254.182 190.285 254.811 190.648C255.451 191.011 255.937 191.496 256.267 192.104C256.609 192.712 256.779 193.384 256.779 194.12ZM255.307 194.216C255.339 193.565 255.233 193.021 254.987 192.584C254.742 192.147 254.406 191.821 253.979 191.608C253.553 191.395 253.089 191.288 252.587 191.288C251.787 191.288 251.115 191.539 250.571 192.04C250.027 192.531 249.734 193.256 249.691 194.216H255.307ZM261.436 190.104C262.428 190.104 263.222 190.365 263.82 190.888C264.428 191.4 264.796 192.093 264.924 192.968H263.532C263.468 192.445 263.249 192.019 262.876 191.688C262.513 191.347 262.022 191.176 261.404 191.176C260.881 191.176 260.47 191.304 260.172 191.56C259.884 191.805 259.74 192.141 259.74 192.568C259.74 192.888 259.836 193.149 260.028 193.352C260.23 193.544 260.476 193.693 260.764 193.8C261.062 193.896 261.468 194.003 261.98 194.12C262.63 194.269 263.153 194.424 263.548 194.584C263.953 194.733 264.294 194.979 264.572 195.32C264.86 195.661 265.004 196.12 265.004 196.696C265.004 197.411 264.732 197.992 264.188 198.44C263.654 198.888 262.94 199.112 262.044 199.112C260.998 199.112 260.145 198.861 259.484 198.36C258.822 197.859 258.433 197.16 258.316 196.264H259.724C259.777 196.797 260.006 197.229 260.412 197.56C260.828 197.891 261.372 198.056 262.044 198.056C262.545 198.056 262.934 197.928 263.212 197.672C263.5 197.416 263.644 197.08 263.644 196.664C263.644 196.323 263.542 196.051 263.34 195.848C263.137 195.645 262.886 195.491 262.588 195.384C262.289 195.277 261.878 195.165 261.356 195.048C260.705 194.899 260.182 194.749 259.788 194.6C259.404 194.451 259.073 194.216 258.796 193.896C258.529 193.565 258.396 193.123 258.396 192.568C258.396 191.832 258.668 191.24 259.212 190.792C259.756 190.333 260.497 190.104 261.436 190.104ZM269.701 190.104C270.693 190.104 271.488 190.365 272.085 190.888C272.693 191.4 273.061 192.093 273.189 192.968H271.797C271.733 192.445 271.515 192.019 271.141 191.688C270.779 191.347 270.288 191.176 269.669 191.176C269.147 191.176 268.736 191.304 268.437 191.56C268.149 191.805 268.005 192.141 268.005 192.568C268.005 192.888 268.101 193.149 268.293 193.352C268.496 193.544 268.741 193.693 269.029 193.8C269.328 193.896 269.733 194.003 270.245 194.12C270.896 194.269 271.419 194.424 271.813 194.584C272.219 194.733 272.56 194.979 272.837 195.32C273.125 195.661 273.269 196.12 273.269 196.696C273.269 197.411 272.997 197.992 272.453 198.44C271.92 198.888 271.205 199.112 270.309 199.112C269.264 199.112 268.411 198.861 267.749 198.36C267.088 197.859 266.699 197.16 266.581 196.264H267.989C268.043 196.797 268.272 197.229 268.677 197.56C269.093 197.891 269.637 198.056 270.309 198.056C270.811 198.056 271.2 197.928 271.477 197.672C271.765 197.416 271.909 197.08 271.909 196.664C271.909 196.323 271.808 196.051 271.605 195.848C271.403 195.645 271.152 195.491 270.853 195.384C270.555 195.277 270.144 195.165 269.621 195.048C268.971 194.899 268.448 194.749 268.053 194.6C267.669 194.451 267.339 194.216 267.061 193.896C266.795 193.565 266.661 193.123 266.661 192.568C266.661 191.832 266.933 191.24 267.477 190.792C268.021 190.333 268.763 190.104 269.701 190.104ZM278.912 187.64C278.912 187.373 279.003 187.16 279.184 187C279.365 186.829 279.605 186.744 279.904 186.744C280.203 186.744 280.443 186.829 280.624 187C280.805 187.16 280.896 187.373 280.896 187.64C280.896 187.907 280.805 188.125 280.624 188.296C280.443 188.456 280.203 188.536 279.904 188.536C279.605 188.536 279.365 188.456 279.184 188.296C279.003 188.125 278.912 187.907 278.912 187.64ZM280.624 190.216V199H279.168V190.216H280.624ZM287.589 190.072C288.613 190.072 289.44 190.403 290.069 191.064C290.698 191.715 291.013 192.659 291.013 193.896V199H289.557V194.024C289.557 193.149 289.333 192.477 288.885 192.008C288.437 191.539 287.829 191.304 287.061 191.304C286.261 191.304 285.621 191.565 285.141 192.088C284.661 192.6 284.421 193.352 284.421 194.344V199H282.965V190.216H284.421V192.296C284.645 191.581 285.04 191.032 285.605 190.648C286.181 190.264 286.842 190.072 287.589 190.072ZM307.999 190.072C309.023 190.072 309.845 190.403 310.463 191.064C311.093 191.715 311.407 192.659 311.407 193.896V199H309.951V194.024C309.951 193.16 309.738 192.499 309.311 192.04C308.895 191.581 308.319 191.352 307.583 191.352C306.815 191.352 306.197 191.608 305.727 192.12C305.269 192.621 305.039 193.363 305.039 194.344V199H303.583V194.024C303.583 193.16 303.37 192.499 302.943 192.04C302.517 191.581 301.941 191.352 301.215 191.352C300.437 191.352 299.813 191.608 299.343 192.12C298.885 192.621 298.655 193.363 298.655 194.344V199H297.199V190.216H298.655V192.216C298.869 191.523 299.247 190.995 299.791 190.632C300.346 190.259 300.981 190.072 301.695 190.072C302.442 190.072 303.087 190.264 303.631 190.648C304.186 191.021 304.581 191.576 304.815 192.312C305.061 191.597 305.471 191.048 306.047 190.664C306.623 190.269 307.274 190.072 307.999 190.072ZM313.412 187.64C313.412 187.373 313.503 187.16 313.684 187C313.865 186.829 314.105 186.744 314.404 186.744C314.703 186.744 314.943 186.829 315.124 187C315.305 187.16 315.396 187.373 315.396 187.64C315.396 187.907 315.305 188.125 315.124 188.296C314.943 188.456 314.703 188.536 314.404 188.536C314.105 188.536 313.865 188.456 313.684 188.296C313.503 188.125 313.412 187.907 313.412 187.64ZM315.124 190.216V199H313.668V190.216H315.124ZM322.089 190.072C323.113 190.072 323.94 190.403 324.569 191.064C325.198 191.715 325.513 192.659 325.513 193.896V199H324.057V194.024C324.057 193.149 323.833 192.477 323.385 192.008C322.937 191.539 322.329 191.304 321.561 191.304C320.761 191.304 320.121 191.565 319.641 192.088C319.161 192.6 318.921 193.352 318.921 194.344V199H317.465V190.216H318.921V192.296C319.145 191.581 319.54 191.032 320.105 190.648C320.681 190.264 321.342 190.072 322.089 190.072ZM335.554 190.216V199H334.098V196.936C333.874 197.651 333.474 198.2 332.898 198.584C332.333 198.957 331.671 199.144 330.914 199.144C329.901 199.144 329.079 198.819 328.45 198.168C327.821 197.507 327.506 196.563 327.506 195.336V190.216H328.962V195.192C328.962 196.067 329.186 196.744 329.634 197.224C330.082 197.693 330.69 197.928 331.458 197.928C332.258 197.928 332.898 197.672 333.378 197.16C333.858 196.637 334.098 195.88 334.098 194.888V190.216H335.554ZM342.079 197.72V199H340.991C340.095 199 339.423 198.787 338.975 198.36C338.537 197.933 338.319 197.219 338.319 196.216V191.48H337.007V190.216H338.319V188.024H339.791V190.216H342.063V191.48H339.791V196.248C339.791 196.813 339.892 197.203 340.095 197.416C340.308 197.619 340.671 197.72 341.183 197.72H342.079ZM351.936 194.12C351.936 194.429 351.914 194.696 351.872 194.92H344.848C344.88 195.923 345.162 196.675 345.696 197.176C346.24 197.677 346.901 197.928 347.68 197.928C348.384 197.928 348.97 197.752 349.44 197.4C349.92 197.037 350.213 196.557 350.32 195.96H351.872C351.765 196.568 351.525 197.112 351.152 197.592C350.789 198.072 350.314 198.445 349.728 198.712C349.141 198.979 348.48 199.112 347.744 199.112C346.901 199.112 346.154 198.931 345.504 198.568C344.853 198.205 344.341 197.688 343.968 197.016C343.605 196.333 343.424 195.533 343.424 194.616C343.424 193.699 343.605 192.899 343.968 192.216C344.341 191.533 344.853 191.011 345.504 190.648C346.154 190.285 346.901 190.104 347.744 190.104C348.597 190.104 349.338 190.285 349.968 190.648C350.608 191.011 351.093 191.496 351.424 192.104C351.765 192.712 351.936 193.384 351.936 194.12ZM350.464 194.216C350.496 193.565 350.389 193.021 350.144 192.584C349.898 192.147 349.562 191.821 349.136 191.608C348.709 191.395 348.245 191.288 347.744 191.288C346.944 191.288 346.272 191.539 345.728 192.04C345.184 192.531 344.89 193.256 344.848 194.216H350.464ZM356.592 190.104C357.584 190.104 358.379 190.365 358.976 190.888C359.584 191.4 359.952 192.093 360.08 192.968H358.688C358.624 192.445 358.405 192.019 358.032 191.688C357.669 191.347 357.179 191.176 356.56 191.176C356.037 191.176 355.627 191.304 355.328 191.56C355.04 191.805 354.896 192.141 354.896 192.568C354.896 192.888 354.992 193.149 355.184 193.352C355.387 193.544 355.632 193.693 355.92 193.8C356.219 193.896 356.624 194.003 357.136 194.12C357.787 194.269 358.309 194.424 358.704 194.584C359.109 194.733 359.451 194.979 359.728 195.32C360.016 195.661 360.16 196.12 360.16 196.696C360.16 197.411 359.888 197.992 359.344 198.44C358.811 198.888 358.096 199.112 357.2 199.112C356.155 199.112 355.301 198.861 354.64 198.36C353.979 197.859 353.589 197.16 353.472 196.264H354.88C354.933 196.797 355.163 197.229 355.568 197.56C355.984 197.891 356.528 198.056 357.2 198.056C357.701 198.056 358.091 197.928 358.368 197.672C358.656 197.416 358.8 197.08 358.8 196.664C358.8 196.323 358.699 196.051 358.496 195.848C358.293 195.645 358.043 195.491 357.744 195.384C357.445 195.277 357.035 195.165 356.512 195.048C355.861 194.899 355.339 194.749 354.944 194.6C354.56 194.451 354.229 194.216 353.952 193.896C353.685 193.565 353.552 193.123 353.552 192.568C353.552 191.832 353.824 191.24 354.368 190.792C354.912 190.333 355.653 190.104 356.592 190.104ZM378.123 190.216L375.595 199H374.027L371.611 191.848L369.179 199H367.595L365.099 190.216H366.571L368.443 197.608L370.875 190.216H372.395L374.843 197.592L376.731 190.216H378.123ZM379.225 187.64C379.225 187.373 379.315 187.16 379.497 187C379.678 186.829 379.918 186.744 380.217 186.744C380.515 186.744 380.755 186.829 380.937 187C381.118 187.16 381.209 187.373 381.209 187.64C381.209 187.907 381.118 188.125 380.937 188.296C380.755 188.456 380.515 188.536 380.217 188.536C379.918 188.536 379.678 188.456 379.497 188.296C379.315 188.125 379.225 187.907 379.225 187.64ZM380.937 190.216V199H379.481V190.216H380.937ZM387.469 197.72V199H386.381C385.485 199 384.813 198.787 384.365 198.36C383.928 197.933 383.709 197.219 383.709 196.216V191.48H382.397V190.216H383.709V188.024H385.181V190.216H387.453V191.48H385.181V196.248C385.181 196.813 385.283 197.203 385.485 197.416C385.699 197.619 386.061 197.72 386.573 197.72H387.469ZM393.87 190.072C394.894 190.072 395.721 190.403 396.35 191.064C396.979 191.715 397.294 192.659 397.294 193.896V199H395.838V194.024C395.838 193.149 395.614 192.477 395.166 192.008C394.718 191.539 394.11 191.304 393.342 191.304C392.542 191.304 391.902 191.565 391.422 192.088C390.942 192.6 390.702 193.352 390.702 194.344V199H389.246V187.16H390.702V192.296C390.926 191.581 391.321 191.032 391.886 190.648C392.462 190.264 393.123 190.072 393.87 190.072ZM407.465 190.104C408.307 190.104 409.059 190.285 409.721 190.648C410.393 191.011 410.915 191.533 411.289 192.216C411.673 192.899 411.865 193.699 411.865 194.616C411.865 195.533 411.673 196.333 411.289 197.016C410.915 197.688 410.393 198.205 409.721 198.568C409.059 198.931 408.307 199.112 407.465 199.112C406.622 199.112 405.865 198.931 405.193 198.568C404.531 198.205 404.009 197.688 403.625 197.016C403.241 196.333 403.049 195.533 403.049 194.616C403.049 193.699 403.241 192.899 403.625 192.216C404.009 191.533 404.531 191.011 405.193 190.648C405.865 190.285 406.622 190.104 407.465 190.104ZM407.465 191.384C406.942 191.384 406.457 191.501 406.009 191.736C405.571 191.971 405.214 192.333 404.937 192.824C404.67 193.304 404.537 193.901 404.537 194.616C404.537 195.32 404.67 195.917 404.937 196.408C405.214 196.888 405.571 197.245 406.009 197.48C406.457 197.715 406.942 197.832 407.465 197.832C407.987 197.832 408.467 197.715 408.905 197.48C409.353 197.245 409.71 196.888 409.977 196.408C410.254 195.917 410.392 195.32 410.392 194.616C410.392 193.901 410.254 193.304 409.977 192.824C409.71 192.333 409.353 191.971 408.905 191.736C408.467 191.501 407.987 191.384 407.465 191.384ZM421.57 190.216V199H420.114V196.936C419.89 197.651 419.49 198.2 418.914 198.584C418.348 198.957 417.687 199.144 416.93 199.144C415.916 199.144 415.095 198.819 414.466 198.168C413.836 197.507 413.522 196.563 413.522 195.336V190.216H414.978V195.192C414.978 196.067 415.202 196.744 415.65 197.224C416.098 197.693 416.706 197.928 417.474 197.928C418.274 197.928 418.914 197.672 419.394 197.16C419.874 196.637 420.114 195.88 420.114 194.888V190.216H421.57ZM425.358 191.992C425.646 191.384 426.068 190.915 426.622 190.584C427.177 190.243 427.838 190.072 428.606 190.072V191.656H428.158C427.337 191.656 426.665 191.869 426.142 192.296C425.62 192.712 425.358 193.405 425.358 194.376V199H423.902V190.216H425.358V191.992ZM41.016 214.104C41.7947 214.104 42.488 214.285 43.096 214.648C43.704 215.011 44.1787 215.533 44.52 216.216C44.872 216.899 45.048 217.699 45.048 218.616C45.048 219.533 44.872 220.333 44.52 221.016C44.1787 221.688 43.704 222.205 43.096 222.568C42.488 222.931 41.7947 223.112 41.016 223.112C40.1627 223.112 39.4373 222.899 38.84 222.472C38.2533 222.035 37.848 221.464 37.624 220.76V227.16H36.168V214.216H37.624V216.456C37.848 215.752 38.2533 215.187 38.84 214.76C39.4373 214.323 40.1627 214.104 41.016 214.104ZM40.6 215.4C40.0347 215.4 39.5227 215.533 39.064 215.8C38.6053 216.056 38.248 216.429 37.992 216.92C37.736 217.411 37.608 217.976 37.608 218.616C37.608 219.256 37.736 219.821 37.992 220.312C38.248 220.792 38.6053 221.165 39.064 221.432C39.5227 221.699 40.0347 221.832 40.6 221.832C41.5067 221.832 42.2267 221.549 42.76 220.984C43.304 220.408 43.576 219.619 43.576 218.616C43.576 217.613 43.304 216.829 42.76 216.264C42.2267 215.688 41.5067 215.4 40.6 215.4ZM50.9333 214.104C51.7759 214.104 52.5279 214.285 53.1893 214.648C53.8613 215.011 54.3839 215.533 54.7573 216.216C55.1413 216.899 55.3333 217.699 55.3333 218.616C55.3333 219.533 55.1413 220.333 54.7573 221.016C54.3839 221.688 53.8613 222.205 53.1893 222.568C52.5279 222.931 51.7759 223.112 50.9333 223.112C50.0906 223.112 49.3333 222.931 48.6613 222.568C47.9999 222.205 47.4773 221.688 47.0933 221.016C46.7093 220.333 46.5173 219.533 46.5173 218.616C46.5173 217.699 46.7093 216.899 47.0933 216.216C47.4773 215.533 47.9999 215.011 48.6613 214.648C49.3333 214.285 50.0906 214.104 50.9333 214.104ZM50.9333 215.384C50.4106 215.384 49.9253 215.501 49.4773 215.736C49.0399 215.971 48.6826 216.333 48.4053 216.824C48.1386 217.304 48.0053 217.901 48.0053 218.616C48.0053 219.32 48.1386 219.917 48.4053 220.408C48.6826 220.888 49.0399 221.245 49.4773 221.48C49.9253 221.715 50.4106 221.832 50.9333 221.832C51.4559 221.832 51.9359 221.715 52.3733 221.48C52.8213 221.245 53.1786 220.888 53.4453 220.408C53.7226 219.917 53.8612 219.32 53.8612 218.616C53.8612 217.901 53.7226 217.304 53.4453 216.824C53.1786 216.333 52.8213 215.971 52.3733 215.736C51.9359 215.501 51.4559 215.384 50.9333 215.384ZM69.2945 214.216L66.7665 223H65.1985L62.7825 215.848L60.3505 223H58.7665L56.2705 214.216H57.7425L59.6145 221.608L62.0465 214.216H63.5665L66.0145 221.592L67.9025 214.216H69.2945ZM78.7324 218.12C78.7324 218.429 78.711 218.696 78.6684 218.92H71.6444C71.6764 219.923 71.959 220.675 72.4924 221.176C73.0364 221.677 73.6977 221.928 74.4764 221.928C75.1804 221.928 75.767 221.752 76.2364 221.4C76.7164 221.037 77.0097 220.557 77.1164 219.96H78.6684C78.5617 220.568 78.3217 221.112 77.9484 221.592C77.5857 222.072 77.111 222.445 76.5244 222.712C75.9377 222.979 75.2764 223.112 74.5404 223.112C73.6977 223.112 72.951 222.931 72.3004 222.568C71.6497 222.205 71.1377 221.688 70.7644 221.016C70.4017 220.333 70.2204 219.533 70.2204 218.616C70.2204 217.699 70.4017 216.899 70.7644 216.216C71.1377 215.533 71.6497 215.011 72.3004 214.648C72.951 214.285 73.6977 214.104 74.5404 214.104C75.3937 214.104 76.135 214.285 76.7644 214.648C77.4044 215.011 77.8897 215.496 78.2204 216.104C78.5617 216.712 78.7324 217.384 78.7324 218.12ZM77.2604 218.216C77.2924 217.565 77.1857 217.021 76.9404 216.584C76.695 216.147 76.359 215.821 75.9324 215.608C75.5057 215.395 75.0417 215.288 74.5404 215.288C73.7404 215.288 73.0684 215.539 72.5244 216.04C71.9804 216.531 71.687 217.256 71.6444 218.216H77.2604ZM82.0928 215.992C82.3808 215.384 82.8021 214.915 83.3568 214.584C83.9114 214.243 84.5728 214.072 85.3408 214.072V215.656H84.8928C84.0714 215.656 83.3994 215.869 82.8768 216.296C82.3541 216.712 82.0928 217.405 82.0928 218.376V223H80.6368V214.216H82.0928V215.992ZM90.6654 212.136C89.8867 212.125 89.3427 212.259 89.0334 212.536C88.7347 212.813 88.5854 213.293 88.5854 213.976V214.216H90.6654V215.496H88.5854V223H87.1294V215.496H85.8654V214.216H87.1294V213.864C87.1294 211.763 88.308 210.76 90.6654 210.856V212.136ZM100.054 214.216V223H98.5981V220.936C98.3741 221.651 97.9741 222.2 97.3981 222.584C96.8328 222.957 96.1715 223.144 95.4141 223.144C94.4008 223.144 93.5795 222.819 92.9501 222.168C92.3208 221.507 92.0061 220.563 92.0061 219.336V214.216H93.4621V219.192C93.4621 220.067 93.6861 220.744 94.1341 221.224C94.5821 221.693 95.1901 221.928 95.9581 221.928C96.7581 221.928 97.3981 221.672 97.8781 221.16C98.3581 220.637 98.5981 219.88 98.5981 218.888V214.216H100.054ZM103.843 211.16V223H102.387V211.16H103.843ZM113.737 214.104C114.59 214.104 115.31 214.317 115.897 214.744C116.494 215.171 116.91 215.741 117.145 216.456V214.216H118.601V223H117.145V220.76C116.91 221.475 116.494 222.045 115.897 222.472C115.31 222.899 114.59 223.112 113.737 223.112C112.958 223.112 112.265 222.931 111.657 222.568C111.049 222.205 110.569 221.688 110.217 221.016C109.875 220.333 109.705 219.533 109.705 218.616C109.705 217.699 109.875 216.899 110.217 216.216C110.569 215.533 111.049 215.011 111.657 214.648C112.265 214.285 112.958 214.104 113.737 214.104ZM114.153 215.4C113.257 215.4 112.537 215.688 111.993 216.264C111.459 216.829 111.193 217.613 111.193 218.616C111.193 219.619 111.459 220.408 111.993 220.984C112.537 221.549 113.257 221.832 114.153 221.832C114.729 221.832 115.241 221.699 115.689 221.432C116.147 221.165 116.505 220.792 116.761 220.312C117.017 219.821 117.145 219.256 117.145 218.616C117.145 217.976 117.017 217.411 116.761 216.92C116.505 216.429 116.147 216.056 115.689 215.8C115.241 215.533 114.729 215.4 114.153 215.4ZM122.374 211.16V223H120.918V211.16H122.374ZM126.171 211.16V223H124.715V211.16H126.171ZM133.504 216.52V217.752H127.104V216.52H133.504ZM136.115 211.64C136.115 211.373 136.206 211.16 136.387 211C136.568 210.829 136.808 210.744 137.107 210.744C137.406 210.744 137.646 210.829 137.827 211C138.008 211.16 138.099 211.373 138.099 211.64C138.099 211.907 138.008 212.125 137.827 212.296C137.646 212.456 137.406 212.536 137.107 212.536C136.808 212.536 136.568 212.456 136.387 212.296C136.206 212.125 136.115 211.907 136.115 211.64ZM137.827 214.216V223H136.371V214.216H137.827ZM144.792 214.072C145.816 214.072 146.643 214.403 147.272 215.064C147.901 215.715 148.216 216.659 148.216 217.896V223H146.76V218.024C146.76 217.149 146.536 216.477 146.088 216.008C145.64 215.539 145.032 215.304 144.264 215.304C143.464 215.304 142.824 215.565 142.344 216.088C141.864 216.6 141.624 217.352 141.624 218.344V223H140.168V214.216H141.624V216.296C141.848 215.581 142.243 215.032 142.808 214.648C143.384 214.264 144.045 214.072 144.792 214.072ZM155.441 216.52V217.752H149.041V216.52H155.441ZM162.293 214.104C163.135 214.104 163.887 214.285 164.549 214.648C165.221 215.011 165.743 215.533 166.117 216.216C166.501 216.899 166.693 217.699 166.693 218.616C166.693 219.533 166.501 220.333 166.117 221.016C165.743 221.688 165.221 222.205 164.549 222.568C163.887 222.931 163.135 223.112 162.293 223.112C161.45 223.112 160.693 222.931 160.021 222.568C159.359 222.205 158.837 221.688 158.453 221.016C158.069 220.333 157.877 219.533 157.877 218.616C157.877 217.699 158.069 216.899 158.453 216.216C158.837 215.533 159.359 215.011 160.021 214.648C160.693 214.285 161.45 214.104 162.293 214.104ZM162.293 215.384C161.77 215.384 161.285 215.501 160.837 215.736C160.399 215.971 160.042 216.333 159.765 216.824C159.498 217.304 159.365 217.901 159.365 218.616C159.365 219.32 159.498 219.917 159.765 220.408C160.042 220.888 160.399 221.245 160.837 221.48C161.285 221.715 161.77 221.832 162.293 221.832C162.815 221.832 163.295 221.715 163.733 221.48C164.181 221.245 164.538 220.888 164.805 220.408C165.082 219.917 165.221 219.32 165.221 218.616C165.221 217.901 165.082 217.304 164.805 216.824C164.538 216.333 164.181 215.971 163.733 215.736C163.295 215.501 162.815 215.384 162.293 215.384ZM173.214 214.072C174.238 214.072 175.065 214.403 175.694 215.064C176.323 215.715 176.638 216.659 176.638 217.896V223H175.182V218.024C175.182 217.149 174.958 216.477 174.51 216.008C174.062 215.539 173.454 215.304 172.686 215.304C171.886 215.304 171.246 215.565 170.766 216.088C170.286 216.6 170.046 217.352 170.046 218.344V223H168.59V214.216H170.046V216.296C170.27 215.581 170.665 215.032 171.23 214.648C171.806 214.264 172.467 214.072 173.214 214.072ZM186.951 218.12C186.951 218.429 186.93 218.696 186.887 218.92H179.863C179.895 219.923 180.178 220.675 180.711 221.176C181.255 221.677 181.916 221.928 182.695 221.928C183.399 221.928 183.986 221.752 184.455 221.4C184.935 221.037 185.228 220.557 185.335 219.96H186.887C186.78 220.568 186.54 221.112 186.167 221.592C185.804 222.072 185.33 222.445 184.743 222.712C184.156 222.979 183.495 223.112 182.759 223.112C181.916 223.112 181.17 222.931 180.519 222.568C179.868 222.205 179.356 221.688 178.983 221.016C178.62 220.333 178.439 219.533 178.439 218.616C178.439 217.699 178.62 216.899 178.983 216.216C179.356 215.533 179.868 215.011 180.519 214.648C181.17 214.285 181.916 214.104 182.759 214.104C183.612 214.104 184.354 214.285 184.983 214.648C185.623 215.011 186.108 215.496 186.439 216.104C186.78 216.712 186.951 217.384 186.951 218.12ZM185.479 218.216C185.511 217.565 185.404 217.021 185.159 216.584C184.914 216.147 184.578 215.821 184.151 215.608C183.724 215.395 183.26 215.288 182.759 215.288C181.959 215.288 181.287 215.539 180.743 216.04C180.199 216.531 179.906 217.256 179.863 218.216H185.479Z" fill="#606060"/>
</svg>
